<?xml version="1.0" encoding="UTF-8"?>
<svg version="1.1" xmlns="http://www.w3.org/2000/svg" width="512" height="512">
<path d="M0 0 C13.66697533 11.56945893 23.30022436 27.17452355 25.6875 45.125 C25.75210219 47.24911996 25.77361079 49.37502905 25.75 51.5 C25.74097656 52.55960937 25.73195313 53.61921875 25.72265625 54.7109375 C25.70525391 55.90589844 25.70525391 55.90589844 25.6875 57.125 C26.68136719 57.21523437 27.67523438 57.30546875 28.69921875 57.3984375 C33.07066927 58.02905137 36.61036112 59.72490173 40.5 61.75 C41.20358643 62.11262939 41.90717285 62.47525879 42.63208008 62.84887695 C63.58490816 73.84869057 78.53160933 91.03342016 85.84375 113.7109375 C98.13920511 155.60330956 84.78161479 200.59577562 64.6484375 237.81640625 C54.90220899 255.46470375 44.37577735 272.41022394 32.04101562 288.36279297 C30.07430816 290.92334393 28.16639444 293.52667688 26.25 296.125 C13.84882424 312.64497782 0.3901285 328.35229326 -13.79296875 343.359375 C-16.33035005 346.0479838 -18.788512 348.79446686 -21.234375 351.56640625 C-27.31469581 358.34288812 -33.77811663 364.74014303 -40.22387695 371.16674805 C-42.37762522 373.31511866 -44.52595226 375.46880694 -46.67382812 377.62304688 C-48.06478354 379.01334168 -49.45604903 380.40332636 -50.84765625 381.79296875 C-51.47809341 382.42543015 -52.10853058 383.05789154 -52.7580719 383.70951843 C-56.54988725 387.48177208 -60.45485544 391.06982047 -64.50869751 394.55931091 C-67.28235407 396.96682716 -69.94661417 399.48774511 -72.625 402 C-77.44351711 406.48242274 -82.38432933 410.7393573 -87.51953125 414.859375 C-90.01533796 416.88394547 -92.45973997 418.9578012 -94.89355469 421.05615234 C-102.74565428 427.80800333 -110.9465145 434.02632067 -119.3125 440.125 C-119.98265137 440.61613281 -120.65280273 441.10726563 -121.34326172 441.61328125 C-145.78771324 459.45955551 -172.05802609 475.14090428 -200.3125 486.125 C-201.43205078 486.56150879 -201.43205078 486.56150879 -202.57421875 487.00683594 C-229.99508145 497.4558092 -265.92251913 503.53260687 -294.3125 493.125 C-294.97797852 492.88362305 -295.64345703 492.64224609 -296.32910156 492.39355469 C-319.53917154 483.7509291 -336.06946031 467.64056909 -346.8671875 445.48828125 C-348.64427259 441.35295622 -349.62400897 437.56194221 -350.3125 433.125 C-351.11171875 433.15980469 -351.9109375 433.19460938 -352.734375 433.23046875 C-372.70144602 433.72261487 -389.32523182 425.46757476 -403.63671875 411.92578125 C-417.93034874 397.24386929 -422.95656631 378.98767224 -422.78564453 358.9074707 C-422.17772098 338.15756111 -412.69151627 322.21159789 -398.23046875 307.875 C-396.3125 306.125 -396.3125 306.125 -394.3125 305.125 C-394.32821045 304.50157715 -394.3439209 303.8781543 -394.36010742 303.23583984 C-394.90010954 278.50511001 -391.18516192 257.67942122 -373.6875 239 C-356.85985723 223.20126635 -334.96383358 211.74518805 -314.08911133 202.26269531 C-292.23953411 192.32480183 -268.38004329 178.07654305 -251.73120117 160.45092773 C-250.3125 159.125 -250.3125 159.125 -248.3125 159.125 C-248.07273438 158.56296875 -247.83296875 158.0009375 -247.5859375 157.421875 C-246.0413868 154.63599828 -244.14415501 152.67449163 -241.9375 150.375 C-230.33330886 137.90507906 -221.07147127 123.67933362 -212.3125 109.125 C-211.9093457 108.45533203 -211.50619141 107.78566406 -211.09082031 107.09570312 C-206.19400003 98.8717168 -201.95704342 90.4044714 -197.875 81.75 C-185.40915312 55.33809528 -171.49189071 28.21440539 -142.96875 16.78515625 C-136.04348457 14.37674092 -129.72212843 12.87174029 -122.35546875 13.37890625 C-110.2359617 14.48087209 -110.2359617 14.48087209 -98.95703125 11.18359375 C-96.80239448 8.61294332 -95.08679483 5.96711987 -93.3125 3.125 C-67.94837492 -21.50705356 -27.20650459 -20.81961175 0 0 Z " fill="#020000" transform="translate(422.3125,14.875)"/>
<path d="M0 0 C11.6301438 9.92778349 20.3175439 22.46087351 23.625 37.5625 C23.86476563 38.63628906 24.10453125 39.71007812 24.3515625 40.81640625 C24.56554687 41.86699219 24.77953125 42.91757813 25 44 C25.18820312 44.92167969 25.37640625 45.84335938 25.5703125 46.79296875 C28.10997806 65.74810895 24.94021301 84.98649691 19 103 C18.66838867 104.01271973 18.66838867 104.01271973 18.33007812 105.04589844 C9.70625016 130.95243855 -3.35452009 155.65801118 -19 178 C-19.74507813 179.06992187 -20.49015625 180.13984375 -21.2578125 181.2421875 C-30.41754097 194.28480373 -40.06802634 206.95738444 -50.46875 219.03515625 C-52.78858366 221.75236882 -55.02443466 224.51808681 -57.25 227.3125 C-62.75560033 234.07877447 -68.79715355 240.3358123 -74.80029297 246.65673828 C-76.93348247 248.92914148 -79.04001658 251.22458449 -81.14341736 253.52453613 C-87.45787175 260.41820981 -93.95155572 267.10713016 -100.57421875 273.70458984 C-102.26681347 275.39175958 -103.95390597 277.08430196 -105.640625 278.77734375 C-110.70760221 283.84742269 -115.78679297 288.83185958 -121.24267578 293.48779297 C-124.1874725 296.02184004 -126.98695078 298.70975695 -129.8125 301.375 C-134.80410746 306.04558016 -139.90243787 310.49617477 -145.2421875 314.76953125 C-147.72724754 316.77940276 -150.15793904 318.84128217 -152.578125 320.9284668 C-160.43190055 327.6825708 -168.6251517 333.90869491 -177 340 C-177.7513623 340.55059082 -178.50272461 341.10118164 -179.27685547 341.66845703 C-203.14879538 359.08637112 -228.63871834 372.96439151 -256 384 C-257.00675781 384.4125 -258.01351562 384.825 -259.05078125 385.25 C-267.12742483 388.38751253 -275.54046401 390.2205591 -284 392 C-285.05832031 392.22945313 -286.11664063 392.45890625 -287.20703125 392.6953125 C-306.20754319 396.23144972 -327.74000323 395.42968936 -345 386 C-345.77085937 385.60425781 -346.54171875 385.20851563 -347.3359375 384.80078125 C-365.65111532 374.71876696 -376.03762707 358.59065391 -382 339 C-386.46257191 318.89121558 -382.50300307 296.51209791 -372 279 C-354.1422622 251.50994887 -323.14021597 235.6782312 -295.4375 220 C-278.55002297 210.4262143 -262.02214941 200.35504914 -246.73779297 188.35693359 C-245.04845608 187.03783631 -243.3430025 185.74373212 -241.62890625 184.45703125 C-233.45757555 178.30451421 -225.67891218 171.75218599 -218 165 C-217.48099121 164.54560547 -216.96198242 164.09121094 -216.42724609 163.62304688 C-211.18862389 159.01997411 -206.20548771 154.37121768 -201.71875 149.02734375 C-199.83601417 146.80657126 -197.8586562 144.69349299 -195.875 142.5625 C-190.02805383 136.07915152 -184.82252926 129.11358871 -179.59472656 122.12988281 C-178.12940614 120.17283208 -176.6551256 118.2228614 -175.1796875 116.2734375 C-164.05621937 101.4629658 -154.3329244 85.84390067 -145.24609375 69.71875 C-141.8312285 63.67170447 -138.32536281 57.67965836 -134.79190063 51.70144653 C-133.78596847 49.99839493 -132.78390278 48.29306135 -131.78198242 46.58764648 C-125.88330026 36.62318061 -119.72287171 26.81744427 -112.5 17.75 C-112.03062012 17.16065674 -111.56124023 16.57131348 -111.07763672 15.96411133 C-98.94629606 0.91702138 -81.76397153 -12.18122225 -62.00390625 -14.52734375 C-39.0593868 -16.97156531 -18.85005139 -14.07754898 0 0 Z " fill="#FE9700" transform="translate(469,101)"/>
<path d="M0 0 C10.9358255 9.0934685 17.86498725 21.11775794 20.33984375 35.1015625 C20.3925777 37.10086716 20.40907934 39.10276125 20.33984375 41.1015625 C19.48773315 41.1312915 19.48773315 41.1312915 18.6184082 41.16162109 C-12.60841447 42.30425829 -38.27515178 49.39136837 -60.3984375 72.49609375 C-74.32830815 88.54311227 -84.96276026 106.96617895 -95.40234375 125.37890625 C-108.68731644 148.76950677 -122.69513135 171.17891126 -139.66015625 192.1015625 C-140.41683594 193.05160156 -141.17351562 194.00164062 -141.953125 194.98046875 C-146.79838861 201.00917728 -151.90341854 206.72566151 -157.1796875 212.375 C-158.76770479 214.12056861 -160.30555735 215.91398053 -161.7734375 217.76171875 C-163.43182509 219.81839404 -165.02895756 221.46197085 -167.03515625 223.1640625 C-167.72996094 223.75703125 -168.42476562 224.35 -169.140625 224.9609375 C-169.97207031 225.66734375 -170.80351562 226.37375 -171.66015625 227.1015625 C-172.71965658 228.02239543 -173.77818172 228.94435114 -174.8359375 229.8671875 C-182.55251192 236.57929564 -190.41236846 243.04906018 -198.66015625 249.1015625 C-199.35786133 249.61412598 -200.05556641 250.12668945 -200.77441406 250.65478516 C-217.0179213 262.49653269 -234.1354698 272.88367579 -251.72265625 282.6015625 C-272.64598912 294.17224938 -292.77610686 307.19391749 -310.66015625 323.1015625 C-311.41039062 323.76671875 -312.160625 324.431875 -312.93359375 325.1171875 C-331.50201308 342.58471241 -340.1837122 367.12143708 -341.22265625 392.0390625 C-341.28743164 393.4940918 -341.28743164 393.4940918 -341.35351562 394.97851562 C-341.45877718 397.35274851 -341.56091332 399.72707171 -341.66015625 402.1015625 C-355.52647095 402.88846631 -365.81297952 398.08432425 -376.625 389.55078125 C-386.32909084 380.68287057 -393.07707845 367.32576401 -393.828125 354.15625 C-393.93163976 337.30404645 -389.87256924 323.56118554 -377.91015625 311.21484375 C-370.22504828 303.99671282 -361.88489311 299.12803587 -351.66015625 296.4140625 C-322.14854671 288.38869522 -294.61788198 273.97847276 -268.66015625 258.1015625 C-267.95826172 257.67246582 -267.25636719 257.24336914 -266.53320312 256.80126953 C-242.63028758 242.06278619 -220.67582392 224.54462442 -200.13085938 205.45458984 C-198.69113844 204.13006571 -197.23049901 202.82839477 -195.76953125 201.52734375 C-182.6426658 189.78687185 -170.88357223 176.6537237 -159.66015625 163.1015625 C-159.17482422 162.51584473 -158.68949219 161.93012695 -158.18945312 161.32666016 C-125.83263948 122.05299142 -101.09341557 77.57804478 -85.41015625 29.1640625 C-80.57086712 14.36809363 -72.41647755 2.97089914 -58.66015625 -4.8984375 C-39.06897046 -14.43397041 -17.84794534 -12.7373002 0 0 Z " fill="#F24234" transform="translate(410.66015625,27.8984375)"/>
<path d="M0 0 C-10.43358586 50.6408796 -41.294471 97.95012038 -74 137 C-74.51981445 137.62422852 -75.03962891 138.24845703 -75.57519531 138.89160156 C-81.36304938 145.8261402 -87.28638826 152.45162795 -93.76171875 158.76171875 C-95.82961756 160.82961756 -97.73578436 162.95711676 -99.625 165.1875 C-102.51467622 168.5655722 -105.65482007 171.42308373 -109.04296875 174.29296875 C-110.89980925 175.91260807 -112.60397492 177.60123291 -114.3125 179.375 C-117.96467624 183.08488557 -121.94842462 186.30490824 -126.00390625 189.5625 C-128.5422969 191.62763138 -131.02313756 193.74308158 -133.49145508 195.89086914 C-164.39742983 222.62801933 -201.66303626 243.68490819 -239.625 258.5 C-240.6668042 258.90943848 -241.7086084 259.31887695 -242.78198242 259.74072266 C-250.06652102 262.50668044 -257.37285058 264.42292876 -265 266 C-265.90144999 249.45338458 -262.99240909 236.99490222 -252 224 C-251.47921875 223.37867188 -250.9584375 222.75734375 -250.421875 222.1171875 C-236.22934673 206.70610882 -214.80378361 197.80631638 -196.39208984 188.76025391 C-172.53740819 177.02977684 -151.3391997 163.05758092 -131 146 C-130.34644531 145.47019531 -129.69289062 144.94039062 -129.01953125 144.39453125 C-124.4873555 140.66273974 -120.75080501 136.50651249 -117 132 C-116.56478027 131.49307617 -116.12956055 130.98615234 -115.68115234 130.46386719 C-98.8530722 110.85470749 -85.41225951 88.98501092 -73.96484375 65.890625 C-73.41776512 64.78882401 -73.41776512 64.78882401 -72.8596344 63.6647644 C-71.03017542 59.97682523 -69.21155826 56.28431279 -67.41430664 52.58056641 C-63.85464199 45.30190325 -60.08796939 38.23990427 -55.80859375 31.35546875 C-55.41019287 30.71249847 -55.01179199 30.0695282 -54.60131836 29.40707397 C-45.86422056 15.65810429 -33.83510187 5.03383129 -17.875 0.8125 C-11.97165195 -0.4254638 -6.00013134 -0.16692792 0 0 Z " fill="#FD9700" transform="translate(311,45)"/>
<path d="M0 0 C2.65572297 3.23666237 3.07317145 5.26672721 3 9.4375 C0.91591959 12.90403774 -0.39148417 14.22832268 -4.25 15.5546875 C-6.10625 15.92980469 -6.10625 15.92980469 -8 16.3125 C-22.9816523 19.80524451 -33.89587608 28.70332126 -42.1875 41.5625 C-49.30430158 53.84864841 -53.73024397 66.35357819 -57.4765625 80 C-66.94629674 114.2831471 -82.66794966 144.32505573 -107 170.4375 C-108.3564276 171.99803766 -109.71063333 173.56050963 -111.0625 175.125 C-114.76434536 179.28413214 -118.73926542 182.8651494 -123 186.4375 C-123.92296875 187.24832031 -124.8459375 188.05914062 -125.796875 188.89453125 C-153.44761028 213.07020598 -186.49285628 229.92980881 -220.14755249 244.08053589 C-251.73694298 257.37635613 -284.47317282 274.24098193 -299.578125 306.84375 C-301.87323521 312.48919352 -303.3159662 317.49295919 -303.6953125 323.5625 C-304.19071901 326.61115547 -305.83935617 328.34233023 -308 330.4375 C-310.88861709 331.88180855 -312.79647701 331.81438506 -316 331.4375 C-318.875 329.6875 -318.875 329.6875 -321 326.4375 C-323.7960027 312.14180876 -315.71947058 297.09200662 -308.28857422 285.34667969 C-304.66328831 279.97537696 -300.39317104 275.18527678 -296 270.4375 C-295.33355469 269.70144531 -294.66710937 268.96539062 -293.98046875 268.20703125 C-275.05373223 248.24430494 -248.7823329 236.6864048 -223.9206543 226.14306641 C-188.14833083 210.89756642 -155.2515563 192.37682554 -127 165.4375 C-126.09765625 164.59960938 -125.1953125 163.76171875 -124.265625 162.8984375 C-98.95171425 138.68195062 -83.5454718 106.82043992 -74.33203125 73.44921875 C-66.99528693 46.95248747 -55.48508851 20.55065486 -30.80859375 5.90234375 C-9.75268937 -5.07952571 -9.75268937 -5.07952571 0 0 Z " fill="#030200" transform="translate(475,146.5625)"/>
<path d="M0 0 C12.83670624 2.88067817 23.17985407 8.26173455 33 17 C34.04800781 17.90685547 34.04800781 17.90685547 35.1171875 18.83203125 C44.38154893 27.39345475 50.9365906 39.28739995 53.625 51.5625 C53.86476563 52.63628906 54.10453125 53.71007812 54.3515625 54.81640625 C54.56554687 55.86699219 54.77953125 56.91757813 55 58 C55.18820312 58.92167969 55.37640625 59.84335938 55.5703125 60.79296875 C58.10997806 79.74810895 54.94021301 98.98649691 49 117 C48.66838867 118.01271973 48.66838867 118.01271973 48.33007812 119.04589844 C39.70625016 144.95243855 26.64547991 169.65801118 11 192 C10.25492188 193.06992187 9.50984375 194.13984375 8.7421875 195.2421875 C-0.41754097 208.28480373 -10.06802634 220.95738444 -20.46875 233.03515625 C-22.78858366 235.75236882 -25.02443466 238.51808681 -27.25 241.3125 C-32.75560033 248.07877447 -38.79715355 254.3358123 -44.80029297 260.65673828 C-46.93348247 262.92914148 -49.04001658 265.22458449 -51.14341736 267.52453613 C-57.45787175 274.41820981 -63.95155572 281.10713016 -70.57421875 287.70458984 C-72.26681347 289.39175958 -73.95390597 291.08430196 -75.640625 292.77734375 C-80.70760221 297.84742269 -85.78679297 302.83185958 -91.24267578 307.48779297 C-94.1874725 310.02184004 -96.98695078 312.70975695 -99.8125 315.375 C-104.80410746 320.04558016 -109.90243787 324.49617477 -115.2421875 328.76953125 C-117.72724754 330.77940276 -120.15793904 332.84128217 -122.578125 334.9284668 C-130.43190055 341.6825708 -138.6251517 347.90869491 -147 354 C-147.7513623 354.55059082 -148.50272461 355.10118164 -149.27685547 355.66845703 C-173.19136847 373.11743413 -198.65769153 386.82531741 -226 398 C-226.33 397.34 -226.66 396.68 -227 396 C-226.41847168 395.7097998 -225.83694336 395.41959961 -225.23779297 395.12060547 C-185.8195984 375.32281532 -150.42407806 348.71879515 -118.11303711 318.78686523 C-115.49532107 316.36217669 -112.84690397 313.99419828 -110.125 311.6875 C-105.39423149 307.61823726 -101.08355346 303.10253658 -96.74658203 298.62182617 C-96.16247559 298.0260376 -95.57836914 297.43024902 -94.9765625 296.81640625 C-94.45143066 296.27443604 -93.92629883 295.73246582 -93.38525391 295.17407227 C-92 294 -92 294 -90 294 C-90 293.34 -90 292.68 -90 292 C-88.71484375 290.7734375 -88.71484375 290.7734375 -86.9375 289.375 C-84.32933558 287.21276429 -82.05878115 285.02629319 -79.875 282.4375 C-76.60671901 278.58506924 -73.09132376 275.04667323 -69.5 271.5 C-65.39527175 267.43693237 -61.40562765 263.35040644 -57.6640625 258.9453125 C-55.69860986 256.64767068 -53.66270129 254.42126877 -51.625 252.1875 C-46.89428498 246.93824117 -42.42916306 241.50441004 -38 236 C-37.08625558 234.87864698 -36.17217861 233.75756489 -35.2578125 232.63671875 C-6.87033345 197.68946906 19.37886507 158.62156352 32 115 C32.20947266 114.29955566 32.41894531 113.59911133 32.63476562 112.87744141 C36.64206007 99.41645641 38.19332607 85.96819593 39 72 C38.34 71.67 37.68 71.34 37 71 C37.185625 69.906875 37.37125 68.81375 37.5625 67.6875 C38.2578068 64.06375867 38.2578068 64.06375867 37 61 C36.92301833 59.62573472 36.86282315 58.25049948 36.8125 56.875 C35.08051633 38.89910892 24.90138842 22.16527316 12 10 C8.20537464 7.00256484 4.33415635 4.16707818 0 2 C0 1.34 0 0.68 0 0 Z " fill="#F27A00" transform="translate(439,87)"/>
<path d="M0 0 C-0.59425781 0.32871094 -1.18851562 0.65742187 -1.80078125 0.99609375 C-8.8013002 5.01349887 -14.9334663 9.68604688 -21 15 C-21.67675781 15.59167969 -22.35351562 16.18335937 -23.05078125 16.79296875 C-39.5525663 32.26979821 -50.71210424 53.82312747 -61.7421875 73.27734375 C-75.02716019 96.66794427 -89.0349751 119.07734876 -106 140 C-106.75667969 140.95003906 -107.51335937 141.90007812 -108.29296875 142.87890625 C-113.13823236 148.90761478 -118.24326229 154.62409901 -123.51953125 160.2734375 C-125.10754854 162.01900611 -126.6454011 163.81241803 -128.11328125 165.66015625 C-129.77166884 167.71683154 -131.36880131 169.36040835 -133.375 171.0625 C-134.06980469 171.65546875 -134.76460937 172.2484375 -135.48046875 172.859375 C-136.31191406 173.56578125 -137.14335937 174.2721875 -138 175 C-139.05950033 175.92083293 -140.11802547 176.84278864 -141.17578125 177.765625 C-148.89235567 184.47773314 -156.75221221 190.94749768 -165 197 C-165.69770508 197.51256348 -166.39541016 198.02512695 -167.11425781 198.55322266 C-183.35776505 210.39497019 -200.47531355 220.78211329 -218.0625 230.5 C-238.98583287 242.07068688 -259.11595061 255.09235499 -277 271 C-278.12535156 271.99773437 -278.12535156 271.99773437 -279.2734375 273.015625 C-297.84185683 290.48314991 -306.52355595 315.01987458 -307.5625 339.9375 C-307.60568359 340.90751953 -307.64886719 341.87753906 -307.69335938 342.87695312 C-307.79862093 345.25118601 -307.90075707 347.62550921 -308 350 C-309.68712082 350.05491533 -311.37478525 350.09319918 -313.0625 350.125 C-314.00222656 350.14820313 -314.94195312 350.17140625 -315.91015625 350.1953125 C-319.55436651 349.96495787 -322.52495661 349.10194884 -326 348 C-325.30444661 318.57809178 -317.058805 296.36098532 -295.82617188 275.34448242 C-275.62234822 256.0808002 -249.90985953 243.01494527 -225.9508667 229.0390625 C-216.11397351 223.29622507 -206.41972184 217.40731142 -197 211 C-196.31083496 210.53319824 -195.62166992 210.06639648 -194.91162109 209.58544922 C-179.24972688 198.91771795 -164.66298673 187.12910252 -151 174 C-150.51160645 173.53352051 -150.02321289 173.06704102 -149.52001953 172.58642578 C-143.66521405 166.96762187 -138.28549274 161.14268946 -133.234375 154.79296875 C-130.94526129 151.93157661 -128.57149975 149.15759843 -126.1875 146.375 C-108.89274121 125.62664387 -95.35073257 101.89616914 -81.86985779 78.59196472 C-71.88023889 61.33070196 -61.9298049 44.28554575 -49 29 C-48.36707031 28.23300781 -47.73414063 27.46601562 -47.08203125 26.67578125 C-38.90701839 17.06483799 -14.52197692 -4.84065897 0 0 Z " fill="#C61E1D" transform="translate(377,80)"/>
<path d="M0 0 C1.75570312 0.01353516 1.75570312 0.01353516 3.546875 0.02734375 C4.43890625 0.03894531 5.3309375 0.05054688 6.25 0.0625 C-4.18358586 50.7033796 -35.044471 98.01262038 -67.75 137.0625 C-68.26981445 137.68672852 -68.78962891 138.31095703 -69.32519531 138.95410156 C-75.11304938 145.8886402 -81.03638826 152.51412795 -87.51171875 158.82421875 C-89.57961756 160.89211756 -91.48578436 163.01961676 -93.375 165.25 C-96.26467622 168.6280722 -99.40482007 171.48558373 -102.79296875 174.35546875 C-104.64980925 175.97510807 -106.35397492 177.66373291 -108.0625 179.4375 C-111.71467624 183.14738557 -115.69842462 186.36740824 -119.75390625 189.625 C-122.2922969 191.69013138 -124.77313756 193.80558158 -127.24145508 195.95336914 C-151.53441489 216.96951635 -179.99631369 234.15881557 -208.875 248.0625 C-209.79853271 248.50746826 -210.72206543 248.95243652 -211.67358398 249.41088867 C-217.90761716 252.34841769 -224.23751646 254.81259013 -230.75 257.0625 C-229.75 254.0625 -229.75 254.0625 -228.1496582 253.01025391 C-227.11071411 252.52951416 -227.11071411 252.52951416 -226.05078125 252.0390625 C-225.26469482 251.66458984 -224.4786084 251.29011719 -223.66870117 250.90429688 C-222.37863159 250.30198242 -222.37863159 250.30198242 -221.0625 249.6875 C-190.31376524 234.81887756 -160.47380697 214.88534251 -135.4453125 191.546875 C-133.38857671 189.65110114 -131.3084427 187.82780787 -129.18359375 186.01171875 C-123.98742304 181.48094114 -119.13944356 176.60184516 -114.27709961 171.7199707 C-112.69040054 170.12791034 -111.09842258 168.5412701 -109.50585938 166.95507812 C-104.04378543 161.49683909 -98.74035967 155.96019779 -93.75 150.0625 C-92.904375 149.09828125 -92.05875 148.1340625 -91.1875 147.140625 C-73.61474712 126.75172583 -58.08389483 104.43981957 -44.75 81.0625 C-44.30479004 80.2895459 -43.85958008 79.5165918 -43.40087891 78.72021484 C-29.51253378 54.47079791 -17.26277752 28.37453506 -10.75 1.0625 C-7.14006828 -0.07230527 -3.7657673 -0.03765767 0 0 Z " fill="#F17A00" transform="translate(304.75,44.9375)"/>
<path d="M0 0 C2.61276956 3.28703268 3.08219296 5.24140405 2.9375 9.4375 C1.32824123 12.48359696 0.70454219 13.64155507 -2.0625 15.4375 C-4.56640625 16.04296875 -4.56640625 16.04296875 -7.375 16.4375 C-13.26473879 17.27662945 -17.11851396 18.88940231 -21.0625 23.4375 C-22.85812401 26.53685102 -24.3926735 29.64820128 -25.8359375 32.92578125 C-27.0625 35.4375 -27.0625 35.4375 -29.0625 36.4375 C-36.12802707 37.12126068 -36.12802707 37.12126068 -39.625 34.5625 C-41.76566195 29.90888707 -41.38655594 26.32796467 -40.0625 21.4375 C-35.90955432 11.67365963 -28.69623949 4.82380616 -19.125 0.4375 C-12.5143756 -2.04991607 -6.47480007 -3.30346942 0 0 Z " fill="#F4F1F1" transform="translate(383.0625,35.5625)"/>
<path d="M0 0 C13.08808202 0.96948756 23.95790956 7.24026943 32.8125 16.875 C40.95682451 26.92875944 46 37.87774657 46 51 C40.06 51 34.12 51 28 51 C27.6596875 47.41125 27.6596875 47.41125 27.3125 43.75 C25.24850199 26.02845904 15.48596047 12.73830039 2 1.5 C1.34 1.005 0.68 0.51 0 0 Z " fill="#C31D1D" transform="translate(385,18)"/>
</svg>
