<?xml version="1.0" encoding="UTF-8"?>
<svg version="1.1" xmlns="http://www.w3.org/2000/svg" width="512" height="512">
<path d="M0 0 C0.7321875 -0.01289063 1.464375 -0.02578125 2.21875 -0.0390625 C5.73294911 0.98390642 7.22308753 2.79861775 9.5 5.625 C10.47693543 8.22549575 11.20520078 10.51380601 11.8125 13.1875 C11.98072266 13.84685547 12.14894531 14.50621094 12.32226562 15.18554688 C13.12868824 18.46061014 13.5 21.22861998 13.5 24.625 C14.73363281 24.191875 14.73363281 24.191875 15.9921875 23.75 C30.03876814 19.07861983 30.03876814 19.07861983 36.5 20.625 C39.42804336 22.34546894 39.86022743 23.40199874 41.5 26.625 C42.26049224 33.76517719 38.89200577 41.04976554 36.5 47.625 C37.16644531 47.72296875 37.83289063 47.8209375 38.51953125 47.921875 C45.30365789 49.02251652 52.44322975 50.23852879 58.5 53.625 C60.42228211 56.29248398 61.41156632 58.22704846 62.125 61.4375 C60.3399677 70.54116474 48.71209322 78.31920588 41.5 83.625 C39.58329231 84.74470934 37.64784133 85.83356867 35.6875 86.875 C33.29876821 88.10608285 33.29876821 88.10608285 31.5 89.625 C30.66212879 93.38289481 30.66212879 93.38289481 31.5 96.625 C32.345625 96.8828125 33.19125 97.140625 34.0625 97.40625 C50.07977071 103.08510053 64.36427015 113.97246919 76.5 125.625 C76.99322754 126.08181152 77.48645508 126.53862305 77.99462891 127.00927734 C100.30186833 147.68344295 115.36202789 175.62902947 120.5 205.625 C121.77875 205.7075 123.0575 205.79 124.375 205.875 C137.4805602 207.37689308 147.86052923 215.28877559 155.90625 225.390625 C163.2143827 235.99632977 165.12460592 249.04055261 163.5 261.625 C162.67252428 264.74943419 161.68923534 267.57553463 160.375 270.5234375 C159.30781416 272.70718215 159.30781416 272.70718215 159.5 275.625 C160.8435047 277.14258338 160.8435047 277.14258338 162.625 278.625 C169.51081486 285.24543863 172.97383506 293.31539384 174.5 302.625 C176.09714844 302.77195312 176.09714844 302.77195312 177.7265625 302.921875 C197.31170701 304.87198966 214.63129007 310.21451731 229.5 323.625 C230.18449219 324.21667969 230.86898438 324.80835938 231.57421875 325.41796875 C240.64783242 333.7785283 248.29834052 345.15063014 249.5 357.625 C249.50850309 360.85617236 249.40523758 364.08286693 249.3125 367.3125 C249.13198338 373.90455718 249.24057185 378.33589755 253.78759766 383.50732422 C263.15230051 395.08836679 269.87544232 414.7163289 269.05078125 429.51171875 C268.39283186 433.23076604 267.06626001 436.04376183 265.3359375 439.36328125 C262.77546431 446.29091665 265.54179488 454.95768546 266.65380859 462.06542969 C270.7763975 488.51501446 270.7763975 488.51501446 262.76953125 500.13671875 C257.71813957 506.23670271 251.45408687 511.17239194 243.5 512.625 C226.39778177 514.14648113 216.54192491 507.99085146 203.65234375 497.234375 C203.11601318 496.78030273 202.57968262 496.32623047 202.02709961 495.85839844 C197.847218 492.48241732 195.599731 492.48067752 190.3125 492.6875 C183.3477468 492.81515675 178.00662695 492.42496829 172.4453125 487.984375 C168.11379628 484.43451408 168.11379628 484.43451408 162.75390625 483.90625 C160.7397559 484.48401424 158.73458837 485.09378122 156.73828125 485.73046875 C146.71587982 488.49902113 136.86499693 486.75705984 127.5 482.625 C126.51 481.965 125.52 481.305 124.5 480.625 C120.95776514 480.94127097 117.87355726 481.50048091 114.5 482.625 C112.96760624 482.72153889 111.43141112 482.76311672 109.89599609 482.77026367 C108.49841568 482.77983345 108.49841568 482.77983345 107.07260132 482.78959656 C106.06637726 482.79070938 105.0601532 482.7918222 104.0234375 482.79296875 C102.98361725 482.79629715 101.943797 482.79962555 100.87246704 482.80305481 C98.6684005 482.80812142 96.46432627 482.81046322 94.26025391 482.81030273 C90.90904835 482.8124779 87.55817806 482.83060523 84.20703125 482.84960938 C82.06250112 482.85254571 79.91796943 482.8545289 77.7734375 482.85546875 C76.77935883 482.86265427 75.78528015 482.86983978 74.76107788 482.87724304 C69.38102895 482.85983105 64.57026703 482.41148841 59.37606812 480.97009277 C56.33421523 480.41056008 54.39098121 481.48808576 51.75 482.9375 C43.31892352 487.43653935 33.58691234 488.18366323 24.28125 485.80078125 C20.21150304 484.32932704 16.35079637 482.5947622 12.5 480.625 C11.82195312 481.15609375 11.14390625 481.6871875 10.4453125 482.234375 C1.68027897 488.88705973 -4.61996039 493.00764883 -15.8125 492.25 C-24.6581355 491.97357389 -28.78545234 495.68810987 -35.02294922 501.32519531 C-37.19415137 503.23585321 -39.51041382 504.90051333 -41.875 506.5625 C-42.96941406 507.34947266 -42.96941406 507.34947266 -44.0859375 508.15234375 C-52.53977824 513.30946019 -60.85588721 514.01526399 -70.5 512.625 C-78.90206339 510.00109981 -86.14431945 505.11143476 -90.7734375 497.54296875 C-97.52543012 484.63756441 -94.22857908 470.42039653 -91.9230957 456.68896484 C-91.74222412 455.60566895 -91.56135254 454.52237305 -91.375 453.40625 C-91.20742187 452.43751953 -91.03984375 451.46878906 -90.8671875 450.47070312 C-90.25635777 445.73677269 -89.90007044 441.95726928 -92.4375 437.8125 C-96.57705288 430.04899691 -95.58919338 422.89112671 -93.5 414.625 C-92.2435037 410.61119238 -90.80720314 406.68066613 -89.3125 402.75 C-88.9110376 401.69151855 -88.5095752 400.63303711 -88.09594727 399.54248047 C-84.3326317 389.841456 -80.24922548 381.62257652 -73.1875 373.875 C-68.58545694 368.4289529 -68.22496347 362.93062189 -67.75390625 356.06640625 C-67.5 352.625 -67.5 352.625 -66.5 349.625 C-68.15131927 349.63499275 -68.15131927 349.63499275 -69.83599854 349.64518738 C-80.25125915 349.70621346 -90.66648311 349.7510754 -101.08188248 349.78043652 C-106.43552397 349.7960392 -111.7890202 349.81717812 -117.14257812 349.85131836 C-122.31676394 349.88410523 -127.49081072 349.90189353 -132.66509247 349.90963173 C-134.63128597 349.91514072 -136.59747255 349.92589771 -138.56360626 349.94219017 C-156.92905577 350.08821355 -172.84375035 348.16088982 -186.875 334.9375 C-194.41836045 326.85445197 -201.21145046 316.28770833 -201.59057617 304.90576172 C-201.47526667 302.12104953 -201.30338254 299.34382122 -201.125 296.5625 C-200.78456152 289.19866051 -200.78456152 289.19866051 -203.3515625 282.48046875 C-205.69415763 280.22557213 -205.69415763 280.22557213 -208.234375 278.375 C-212.42085554 275.14130469 -213.85891349 270.54825954 -215.5 265.625 C-216.44091231 255.28840624 -215.35005497 247.93637023 -208.99609375 239.66796875 C-205.75065622 236.07843664 -202.36721407 233.92914986 -198.0625 231.75 C-188.66134488 226.85624802 -184.08110464 219.76787247 -180.1171875 210.12890625 C-178.02373308 206.88759155 -176.17886182 206.47592787 -172.5 205.625 C-172.42523438 205.03976563 -172.35046875 204.45453125 -172.2734375 203.8515625 C-170.12275327 189.80885962 -165.0626234 177.12603555 -158.5625 164.5625 C-158.07281738 163.61149414 -157.58313477 162.66048828 -157.07861328 161.68066406 C-153.62410896 155.19990916 -149.72860693 148.85360693 -144.5 143.625 C-143.324375 143.769375 -142.14875 143.91375 -140.9375 144.0625 C-137.93913736 144.11652455 -136.73390738 143.79236828 -134.26171875 142.0234375 C-130.66470821 138.5119135 -127.98878895 135.50666062 -126.5 130.625 C-126.665 129.5525 -126.83 128.48 -127 127.375 C-126.29192865 122.06446484 -123.69703359 120.35530144 -119.66796875 117.01953125 C-94.00897227 97.625 -94.00897227 97.625 -85.5 97.625 C-85.34144531 96.71621094 -85.18289062 95.80742188 -85.01953125 94.87109375 C-80.68304226 71.51155362 -72.00157879 45.36379196 -51.59375 31.3125 C-46.95867155 28.74537963 -43.35923345 28.59409533 -38.20898438 28.97119141 C-32.82038054 29.35815605 -32.82038054 29.35815605 -27.5 28.625 C-24.58552111 26.00377363 -23.14465 23.46902905 -21.328125 20.0078125 C-18.31802235 14.43783623 -13.87894827 10.14681771 -9.5 5.625 C-8.66855469 4.70847656 -7.83710938 3.79195313 -6.98046875 2.84765625 C-4.35999574 0.49954736 -3.43956167 -0.06055566 0 0 Z " fill="#020101" transform="translate(229.5,-0.625)"/>
<path d="M0 0 C0.64324219 0.31606201 1.28648437 0.63212402 1.94921875 0.95776367 C8.65133289 4.41243429 14.10170249 8.57862754 17.33984375 15.5546875 C23.96396402 40.17480834 13.91155386 72.0860695 6.078125 95.4296875 C3.24508821 103.59999355 3.24508821 103.59999355 4.25 111.9375 C6.12424716 114.218221 6.12424716 114.218221 9.125 114.3125 C13.00611248 113.8467665 13.79302867 112.89945282 16.25 109.9375 C17.35230625 107.41410654 17.35230625 107.41410654 18.03125 104.60546875 C18.45857422 103.03442383 18.45857422 103.03442383 18.89453125 101.43164062 C19.17683594 100.34044922 19.45914063 99.24925781 19.75 98.125 C20.03230469 97.07634766 20.31460938 96.02769531 20.60546875 94.94726562 C21.19192432 92.76198889 21.76941535 90.57429068 22.33886719 88.38452148 C22.9560926 86.04941815 23.5981881 83.72077228 24.26269531 81.39868164 C27.00929772 71.66691689 28.63083784 62.00302592 30 52 C30.22181851 50.43021994 30.44447095 48.86055748 30.66796875 47.29101562 C31.20488579 43.50779006 31.73066746 39.72317777 32.25 35.9375 C51.51680552 35.57147137 67.40898966 41.91379846 81.5703125 55.09765625 C88.18536485 62.02711223 93.49484629 70.21737798 93.875 80 C92.94929141 93.79661842 85.46827405 102.41275219 77.03222656 112.74658203 C74.49934368 115.86029313 72.03182133 119.02335776 69.5625 122.1875 C68.67375995 123.31816673 67.78444121 124.44837884 66.89453125 125.578125 C64.1772535 129.02933957 61.46342958 132.48325955 58.75 135.9375 C57.8333477 137.10417796 56.91668105 138.27084464 56 139.4375 C55.54625 140.015 55.0925 140.5925 54.625 141.1875 C53.25 142.9375 51.875 144.6875 50.5 146.4375 C50.04608887 147.0152417 49.59217773 147.5929834 49.12451172 148.18823242 C48.20961647 149.3525707 47.29457784 150.51679633 46.37939453 151.6809082 C44.05942488 154.63228291 41.7421317 157.58569301 39.4296875 160.54296875 C36.71293692 164.01560275 33.98414647 167.47855355 31.25 170.9375 C30.62665771 171.72979004 30.62665771 171.72979004 29.99072266 172.53808594 C18.35481341 187.28651949 18.35481341 187.28651949 10.25 188.9375 C3.57019416 189.45274673 -2.05320682 189.73536212 -7.75 185.9375 C-7.358125 184.7825 -6.96625 183.6275 -6.5625 182.4375 C-4.87873784 177.39411851 -3.30010892 172.31919242 -1.73657227 167.23754883 C-0.66798765 163.78720339 0.4371945 160.36016796 1.6484375 156.95703125 C5.75450992 146.21626959 5.75450992 146.21626959 6.25 134.9375 C3.7363197 132.44548936 2.78178436 131.9375 -0.8125 131.9375 C-4.59938766 133.22665325 -4.96353445 134.417112 -6.75 137.9375 C-7.58473748 140.26977315 -8.34867028 142.62792668 -9.0625 145 C-9.27124756 145.68175293 -9.47999512 146.36350586 -9.69506836 147.06591797 C-10.92628481 151.10662467 -12.10381885 155.16150815 -13.265625 159.22265625 C-13.52303467 160.11009521 -13.78044434 160.99753418 -14.0456543 161.91186523 C-14.54612183 163.64175254 -15.03759925 165.37427341 -15.51879883 167.10961914 C-17.59200668 174.26553011 -20.44678496 179.63286534 -26.75 183.9375 C-31.16501431 186.1959204 -35.41166369 186.25958143 -40.26953125 186.2734375 C-41.49563362 186.2834227 -41.49563362 186.2834227 -42.74650574 186.29360962 C-44.47201294 186.30370878 -46.19755898 186.30842749 -47.9230957 186.30810547 C-50.5437974 186.31246886 -53.16280009 186.3487883 -55.78320312 186.38671875 C-57.46614013 186.39258973 -59.14908506 186.39655724 -60.83203125 186.3984375 C-61.60625931 186.41280853 -62.38048737 186.42717957 -63.17817688 186.44198608 C-70.2894324 186.383176 -75.4720183 184.15861114 -80.56640625 179.19140625 C-83.04912408 175.49175696 -84.40068909 172.10698004 -85.6875 167.875 C-85.93491943 167.09987061 -86.18233887 166.32474121 -86.43725586 165.52612305 C-88.62678685 158.57614128 -90.60400429 151.56249534 -92.57006836 144.54663086 C-94.00227135 139.45732073 -95.53879963 134.43989086 -97.25 129.4375 C-99.81925872 121.90155325 -101.98637462 114.27282209 -104.140625 106.609375 C-105.24357454 102.69294623 -106.3820712 98.78910111 -107.546875 94.890625 C-111.09711729 82.99338544 -114.43189612 71.14154622 -116.75 58.9375 C-116.97558594 57.78507812 -117.20117188 56.63265625 -117.43359375 55.4453125 C-118.81807477 47.02384862 -119.04356553 38.58376332 -119.1875 30.0625 C-119.22198242 28.90886963 -119.25646484 27.75523926 -119.29199219 26.56665039 C-119.32827418 19.19873808 -118.52817354 13.72679482 -113.75 7.9375 C-108.31840057 2.5569015 -101.44817635 -0.3082688 -94.5 -3.25 C-93.53964844 -3.67474609 -92.57929688 -4.09949219 -91.58984375 -4.53710938 C-61.0236091 -17.69245668 -29.28572873 -14.43416934 0 0 Z " fill="#FECF63" transform="translate(370.75,282.0625)"/>
<path d="M0 0 C4.4827434 0.61244312 8.12766745 2.37501844 12.0625 4.5 C12.72080811 4.85457275 13.37911621 5.20914551 14.05737305 5.57446289 C24.45721707 11.32283627 33.3799497 18.87813124 42 27 C42.60199219 27.54914063 43.20398438 28.09828125 43.82421875 28.6640625 C53.55827713 37.87624829 60.86728247 49.17399082 67 61 C67.31066406 61.59538574 67.62132812 62.19077148 67.94140625 62.80419922 C71.63510923 69.99262433 74.603725 77.25875938 76.9375 85 C77.14914795 85.69391846 77.3607959 86.38783691 77.57885742 87.1027832 C80.06872369 95.88250321 78.96705384 101.23918876 74.78125 109.1171875 C71.17655484 114.95110204 67.48317409 118.67270674 61 121 C60.27296875 119.93072266 60.27296875 119.93072266 59.53125 118.83984375 C51.482166 107.33894103 42.35088743 99.16226 28.375 95.625 C22.72909698 94.62926801 16.78602537 93.81741219 11.4140625 96.09765625 C8.25052661 98.59060444 7.24057148 101.0775302 5.625 104.75 C2.31277702 111.90748962 -1.45491418 116.63660945 -8 121 C-8.99 121 -9.98 121 -11 121 C-12.54296875 118.83984375 -12.54296875 118.83984375 -14.1875 115.9375 C-21.20357947 104.50334539 -31.36815575 98.68105149 -44.26171875 95.5078125 C-50.03114626 94.43787587 -54.77211072 93.84228821 -60.08203125 96.6015625 C-63.50991955 99.41913066 -64.64256359 101.75402587 -66.375 105.8125 C-69.13170546 111.8522266 -72.20860764 116.52516459 -78 120 C-80.23828125 120.66796875 -80.23828125 120.66796875 -82 121 C-82.44730469 120.33613281 -82.89460938 119.67226562 -83.35546875 118.98828125 C-91.57833755 106.97833428 -100.13188412 100.43325016 -114 96 C-115.485 95.505 -115.485 95.505 -117 95 C-125.14798379 94.05729869 -125.14798379 94.05729869 -132.5 96.9375 C-135.09645881 100.11816205 -136.48832676 102.95839225 -138.015625 106.7265625 C-140.83206827 113.23120528 -144.9389894 117.40829002 -151 121 C-154.69144966 119.76951678 -155.08521704 118.66469285 -157.125 115.4375 C-163.62119187 105.90430439 -172.50753534 98.49836188 -184 96 C-182.89098828 77.88614191 -172.99150434 59.58430089 -162.6875 45.05078125 C-160.79344249 41.62657079 -160.49461787 39.84827432 -161 36 C-161.89831016 33.69769234 -161.89831016 33.69769234 -163 32 C-162.44570312 31.45730469 -161.89140625 30.91460937 -161.3203125 30.35546875 C-160.59585938 29.64003906 -159.87140625 28.92460937 -159.125 28.1875 C-158.40570313 27.47980469 -157.68640625 26.77210938 -156.9453125 26.04296875 C-154.84641063 23.95600806 -154.84641063 23.95600806 -153 21 C-152.38253906 21.14252197 -151.76507813 21.28504395 -151.12890625 21.43188477 C-146.02967361 22.32007873 -142.81082819 22.42321483 -138.4375 19.46484375 C-136.93848825 18.31447018 -135.45957421 17.13751612 -134 15.9375 C-132.43820521 14.73177045 -130.87441777 13.52861734 -129.30859375 12.328125 C-128.19846924 11.4609082 -128.19846924 11.4609082 -127.06591797 10.57617188 C-117.13568773 3 -117.13568773 3 -112 3 C-111.90203125 3.68964844 -111.8040625 4.37929687 -111.703125 5.08984375 C-110.29033621 13.96849051 -108.51881501 22.09139669 -101 27.71484375 C-100.01 28.35099609 -100.01 28.35099609 -99 29 C-98.360625 29.41378906 -97.72125 29.82757813 -97.0625 30.25390625 C-82.78705794 37.5700703 -61.64015676 33.02898101 -47.12890625 28.5234375 C-33.46134901 24.06742147 -19.59350286 18.75654302 -8.6015625 9.25 C-7 8 -7 8 -5 8 C-4.731875 7.4225 -4.46375 6.845 -4.1875 6.25 C-2.98280141 3.9674132 -1.59201885 2.0262058 0 0 Z " fill="#E3979C" transform="translate(256,111)"/>
<path d="M0 0 C20.02060974 -0.84461947 38.86155609 4.2457541 56.75 13.0625 C57.39324219 13.37856201 58.03648437 13.69462402 58.69921875 14.02026367 C65.40133289 17.47493429 70.85170249 21.64112754 74.08984375 28.6171875 C80.71396402 53.23730834 70.66155386 85.1485695 62.828125 108.4921875 C59.99508821 116.66249355 59.99508821 116.66249355 61 125 C62.87424716 127.280721 62.87424716 127.280721 65.875 127.375 C69.75611248 126.9092665 70.54302867 125.96195282 73 123 C74.10230625 120.47660654 74.10230625 120.47660654 74.78125 117.66796875 C75.20857422 116.09692383 75.20857422 116.09692383 75.64453125 114.49414062 C76.06798828 112.85735352 76.06798828 112.85735352 76.5 111.1875 C76.78230469 110.13884766 77.06460938 109.09019531 77.35546875 108.00976562 C77.94192432 105.82448889 78.51941535 103.63679068 79.08886719 101.44702148 C79.7060926 99.11191815 80.3481881 96.78327228 81.01269531 94.46118164 C83.75929772 84.72941689 85.38083784 75.06552592 86.75 65.0625 C86.97181851 63.49271994 87.19447095 61.92305748 87.41796875 60.35351562 C87.95488579 56.57029006 88.48066746 52.78567777 89 49 C108.26680552 48.63397137 124.15898966 54.97629846 138.3203125 68.16015625 C144.93536485 75.08961223 150.24484629 83.27987798 150.625 93.0625 C149.69929141 106.85911842 142.21827405 115.47525219 133.78222656 125.80908203 C131.24934368 128.92279313 128.78182133 132.08585776 126.3125 135.25 C125.42375995 136.38066673 124.53444121 137.51087884 123.64453125 138.640625 C120.9272535 142.09183957 118.21342958 145.54575955 115.5 149 C114.5833477 150.16667796 113.66668105 151.33334464 112.75 152.5 C112.29625 153.0775 111.8425 153.655 111.375 154.25 C110 156 108.625 157.75 107.25 159.5 C106.79608887 160.0777417 106.34217773 160.6554834 105.87451172 161.25073242 C104.95961647 162.4150707 104.04457784 163.57929633 103.12939453 164.7434082 C100.80942488 167.69478291 98.4921317 170.64819301 96.1796875 173.60546875 C93.46293692 177.07810275 90.73414647 180.54105355 88 184 C87.37665771 184.79229004 87.37665771 184.79229004 86.74072266 185.60058594 C75.10481341 200.34901949 75.10481341 200.34901949 67 202 C60.32019416 202.51524673 54.69679318 202.79786212 49 199 C49.391875 197.845 49.78375 196.69 50.1875 195.5 C51.87126216 190.45661851 53.44989108 185.38169242 55.01342773 180.30004883 C56.08201235 176.84970339 57.1871945 173.42266796 58.3984375 170.01953125 C62.50450992 159.27876959 62.50450992 159.27876959 63 148 C60.4863197 145.50798936 59.53178436 145 55.9375 145 C52.15061234 146.28915325 51.78646555 147.479612 50 151 C49.16526252 153.33227315 48.40132972 155.69042668 47.6875 158.0625 C47.47875244 158.74425293 47.27000488 159.42600586 47.05493164 160.12841797 C45.82371519 164.16912467 44.64618115 168.22400815 43.484375 172.28515625 C43.22696533 173.17259521 42.96955566 174.06003418 42.7043457 174.97436523 C42.20387817 176.70425254 41.71240075 178.43677341 41.23120117 180.17211914 C39.15799332 187.32803011 36.30321504 192.69536534 30 197 C25.41760765 199.38265315 21.23490855 199.25985365 16.19921875 199.1953125 C15.36284378 199.1924826 14.52646881 199.18965271 13.66474915 199.18673706 C11.00551774 199.1755832 8.34662882 199.15048763 5.6875 199.125 C3.87956217 199.11496399 2.07161904 199.10583923 0.26367188 199.09765625 C-4.15768312 199.07565959 -8.57878358 199.04116294 -13 199 C-13 198.67 -13 198.34 -13 198 C-11.46279297 198.06574219 -11.46279297 198.06574219 -9.89453125 198.1328125 C-8.53385167 198.1328125 -7.17317016 198.13006296 -5.8125 198.125 C-5.13896484 198.16109375 -4.46542969 198.1971875 -3.77148438 198.234375 C-1.42868399 198.2833276 -1.42868399 198.2833276 2 197 C6.50507033 190.59676192 8.60021863 182.60320273 10.78515625 175.1796875 C11.12319275 174.05859589 11.46122925 172.93750427 11.80950928 171.78244019 C12.90272395 168.14922313 13.98297509 164.51230579 15.0625 160.875 C15.81723204 158.3529744 16.57269067 155.83116612 17.32885742 153.30957031 C18.84370472 148.25477237 20.35379198 143.19858422 21.86132812 138.14160156 C23.75812701 131.79086775 25.69155964 125.45204076 27.640625 119.1171875 C28.44779987 116.48007834 29.25403409 113.84268404 30.05978394 111.20513916 C30.55035272 109.60504758 31.04380415 108.00583607 31.54055786 106.40765381 C38.72463202 83.262743 50.21737194 45.9988949 39.5 22.875 C37.86545213 20.23159799 37.86545213 20.23159799 36 18 C35.50113281 17.35933594 35.00226563 16.71867187 34.48828125 16.05859375 C30.08379392 11.46930276 24.20520235 8.88622982 18.5625 6.125 C17.76368408 5.73094971 16.96486816 5.33689941 16.1418457 4.9309082 C10.68174141 2.39149358 6.01225122 1.37313271 0 1 C0 0.67 0 0.34 0 0 Z " fill="#FDCE63" transform="translate(314,269)"/>
<path d="M0 0 C0.06993164 0.71841064 0.13986328 1.43682129 0.21191406 2.17700195 C2.29369065 23.16043977 5.62605909 42.55337618 12.21337891 62.56445312 C13.56562967 66.75131025 14.8110582 70.96963281 16.0625 75.1875 C17.8348469 81.13817472 19.63410574 87.07797672 21.5 93 C23.59910507 99.66774553 25.61809182 106.3577056 27.62011719 113.05517578 C29.64722375 119.83339447 31.69292579 126.60581571 33.75 133.375 C34.19061768 134.82821655 34.19061768 134.82821655 34.64013672 136.31079102 C36.03475618 140.89512862 37.45267594 145.46421672 39 150 C32.01957468 153.16094732 25.40032488 154.37445092 17.8359375 152.44921875 C8.06149181 148.3408362 1.79307434 137.60082083 -4.40234375 129.41796875 C-7.04048163 125.93410725 -9.73250079 122.49458765 -12.4375 119.0625 C-12.89060547 118.48725586 -13.34371094 117.91201172 -13.81054688 117.31933594 C-14.73440656 116.14654377 -15.65839838 114.97385568 -16.58251953 113.80126953 C-18.04615208 111.94135204 -19.50597609 110.07850054 -20.96484375 108.21484375 C-21.45218994 107.59279053 -21.93953613 106.9707373 -22.44165039 106.32983398 C-23.36467983 105.1514818 -24.28709212 103.97264579 -25.20874023 102.79321289 C-26.05101506 101.71893997 -26.8971714 100.64769671 -27.74755859 99.57983398 C-28.61160802 98.48991901 -29.46279768 97.38972783 -30.30322266 96.28149414 C-33.13586131 92.58900967 -33.13586131 92.58900967 -37.625 91.4375 C-40.86871117 91.79451266 -40.86871117 91.79451266 -43 93.0625 C-44.63900855 96.23807907 -43.78172535 98.58435322 -43 102 C-41.443218 104.39261883 -39.95916557 106.41390605 -38.125 108.5625 C-37.11681849 109.79266642 -36.10901651 111.02314397 -35.1015625 112.25390625 C-34.5849707 112.87539551 -34.06837891 113.49688477 -33.53613281 114.13720703 C-31.13548448 117.04835559 -28.82038471 120.02479308 -26.5 123 C-25.59297567 124.15666405 -24.6854208 125.31291225 -23.77734375 126.46875 C-23.32472168 127.04496094 -22.87209961 127.62117188 -22.40576172 128.21484375 C-20.94225506 130.07332945 -19.47357334 131.92763298 -18.00390625 133.78125 C-17.51148438 134.40386719 -17.0190625 135.02648437 -16.51171875 135.66796875 C-15.57737254 136.84912339 -14.64130255 138.02891749 -13.703125 139.20703125 C-10.94242144 142.7016983 -8.4220509 146.26858052 -6 150 C-7.59987856 151.31772362 -9.20505966 152.62901137 -10.8125 153.9375 C-11.70582031 154.66839844 -12.59914063 155.39929688 -13.51953125 156.15234375 C-17.39277502 159.03745289 -20.86523696 159.48450307 -25.56640625 159.38671875 C-30.21865242 158.64743726 -33.35233019 155.8329348 -37 153 C-38.15061653 152.1383138 -39.30310831 151.27912838 -40.45703125 150.421875 C-43.16060369 148.40919253 -45.85441094 146.38425354 -48.54296875 144.3515625 C-52.42103676 141.42592654 -56.32807154 138.54156216 -60.24462891 135.66772461 C-63.43140105 133.32908101 -66.61182296 130.98191822 -69.79052734 128.63232422 C-71.21136783 127.58262925 -72.6334674 126.53463527 -74.05712891 125.48876953 C-75.87835882 124.14736808 -77.69045041 122.79459707 -79.5 121.4375 C-80.5003125 120.69371094 -81.500625 119.94992187 -82.53125 119.18359375 C-85.89139583 116.21156603 -87.72396742 114.16608283 -88.30517578 109.60522461 C-88.58277396 102.56506086 -87.04531131 96.9540535 -84.375 90.5 C-84.01180664 89.59016357 -83.64861328 88.68032715 -83.27441406 87.74291992 C-76.17036628 70.26864935 -76.17036628 70.26864935 -71.828125 67.73046875 C-70.92320312 67.36888672 -70.92320312 67.36888672 -70 67 C-69.29423828 68.04800781 -69.29423828 68.04800781 -68.57421875 69.1171875 C-67.95160156 70.02726562 -67.32898438 70.93734375 -66.6875 71.875 C-66.07261719 72.77992188 -65.45773438 73.68484375 -64.82421875 74.6171875 C-63.05086051 77.19971385 -63.05086051 77.19971385 -60 79 C-56.42823885 78.91832511 -56.42823885 78.91832511 -53 78 C-50.81079353 74.71619029 -50.47612394 73.80795932 -51 70 C-52.63180341 67.33416589 -52.63180341 67.33416589 -54.8125 64.75 C-60.93717922 56.64157513 -63.29154542 49.21360057 -62 39 C-58.38490227 25.5400135 -47.22046488 14.81243616 -35.5703125 7.9921875 C-23.63217663 1.57646579 -13.50217317 -0.53220245 0 0 Z " fill="#FDCE63" transform="translate(238,318)"/>
<path d="M0 0 C2.1953664 1.06705018 4.32704951 2.18755714 6.4453125 3.40234375 C7.32960937 3.90894531 8.21390625 4.41554688 9.125 4.9375 C9.99382812 5.44152344 10.86265625 5.94554687 11.7578125 6.46484375 C20.02115123 10.37748486 27.53521563 11.4623975 36.625 11.3125 C37.60984375 11.31572266 38.5946875 11.31894531 39.609375 11.32226562 C47.97575634 11.26091216 54.67449098 9.96291287 62.1875 6.0625 C63.66283203 5.30646484 63.66283203 5.30646484 65.16796875 4.53515625 C67.8270481 3.09375186 70.42098812 1.57946797 73 0 C73.98226562 0.68835938 73.98226562 0.68835938 74.984375 1.390625 C89.86102928 11.39244341 105.6187862 13.54284926 123.24609375 10.33984375 C130.92515694 8.39694824 136.89508542 5.00771795 143 0 C146.74951425 1.45142487 146.74951425 1.45142487 147.86328125 3.890625 C148.03006801 6.46390643 147.48017992 7.5391976 146.1875 9.75 C143.89805156 13.68421465 143.01917121 17.59127747 142 22 C141.43716309 22.06469482 140.87432617 22.12938965 140.29443359 22.19604492 C116.02908199 25.07653551 97.13724601 32.25821924 80 50 C79.34 50.99 78.68 51.98 78 53 C74.94241388 53.29675845 72.08728588 53.39876943 69.02734375 53.37231445 C68.09701828 53.37596512 67.16669281 53.37961578 66.20817566 53.38337708 C63.11776733 53.39151328 60.02787868 53.37783876 56.9375 53.36328125 C54.78955078 53.36276266 52.64160109 53.36328032 50.49365234 53.36479187 C45.98088537 53.36470199 41.46829643 53.3542462 36.95556641 53.33618164 C31.19009334 53.31360291 25.42488305 53.31292897 19.65937805 53.31969929 C15.21707861 53.32305467 10.77483825 53.3163779 6.33255005 53.30657005 C4.20842804 53.30273656 2.08429943 53.30156211 -0.03982544 53.3031559 C-3.02407124 53.30352992 -6.00799103 53.29080912 -8.9921875 53.2746582 C-9.86011429 53.27713562 -10.72804108 53.27961304 -11.62226868 53.28216553 C-23.78088209 53.17800785 -32.87867095 50.3568926 -42.07421875 42.1484375 C-49.04646032 34.79809172 -52.42788235 26.88169211 -52.3125 16.8125 C-52.23322348 14.54066155 -52.13779601 12.26904098 -52 10 C-51.06414063 10.15855469 -50.12828125 10.31710937 -49.1640625 10.48046875 C-32.75555677 12.80040565 -16.39321836 12.20496579 -2.609375 2.26953125 C-1.05651851 1.09559589 -1.05651851 1.09559589 0 0 Z " fill="#9B6969" transform="translate(95,281)"/>
<path d="M0 0 C20.02060974 -0.84461947 38.86155609 4.2457541 56.75 13.0625 C57.39324219 13.37856201 58.03648437 13.69462402 58.69921875 14.02026367 C65.40133289 17.47493429 70.85170249 21.64112754 74.08984375 28.6171875 C80.71396402 53.23730834 70.66155386 85.1485695 62.828125 108.4921875 C59.95907527 116.66954323 59.95907527 116.66954323 61 125 C62.49857334 126.66054251 62.49857334 126.66054251 64 128 C63.54548816 129.73017508 63.08621143 131.45909877 62.625 133.1875 C62.36976563 134.15042969 62.11453125 135.11335937 61.8515625 136.10546875 C60.27880904 141.45138761 60.27880904 141.45138761 59 144 C57.88625 144.391875 56.7725 144.78375 55.625 145.1875 C53.25306037 146.09412982 52.2226333 146.6564026 50.828125 148.80859375 C49.7181186 151.50627323 48.83948733 154.20512143 48 157 C47.80696289 157.63341309 47.61392578 158.26682617 47.41503906 158.91943359 C45.51281401 165.18253184 43.71367179 171.47469983 41.93359375 177.7734375 C39.50938465 186.08229537 37.40303286 191.94427024 30 197 C25.41760765 199.38265315 21.23490855 199.25985365 16.19921875 199.1953125 C15.36284378 199.1924826 14.52646881 199.18965271 13.66474915 199.18673706 C11.00551774 199.1755832 8.34662882 199.15048763 5.6875 199.125 C3.87956217 199.11496399 2.07161904 199.10583923 0.26367188 199.09765625 C-4.15768312 199.07565959 -8.57878358 199.04116294 -13 199 C-13 198.67 -13 198.34 -13 198 C-11.46279297 198.06574219 -11.46279297 198.06574219 -9.89453125 198.1328125 C-8.53385167 198.1328125 -7.17317016 198.13006296 -5.8125 198.125 C-5.13896484 198.16109375 -4.46542969 198.1971875 -3.77148438 198.234375 C-1.42868399 198.2833276 -1.42868399 198.2833276 2 197 C6.50507033 190.59676192 8.60021863 182.60320273 10.78515625 175.1796875 C11.12319275 174.05859589 11.46122925 172.93750427 11.80950928 171.78244019 C12.90272395 168.14922313 13.98297509 164.51230579 15.0625 160.875 C15.81723204 158.3529744 16.57269067 155.83116612 17.32885742 153.30957031 C18.84370472 148.25477237 20.35379198 143.19858422 21.86132812 138.14160156 C23.75812701 131.79086775 25.69155964 125.45204076 27.640625 119.1171875 C28.44779987 116.48007834 29.25403409 113.84268404 30.05978394 111.20513916 C30.55035272 109.60504758 31.04380415 108.00583607 31.54055786 106.40765381 C38.72463202 83.262743 50.21737194 45.9988949 39.5 22.875 C37.86545213 20.23159799 37.86545213 20.23159799 36 18 C35.50113281 17.35933594 35.00226563 16.71867187 34.48828125 16.05859375 C30.08379392 11.46930276 24.20520235 8.88622982 18.5625 6.125 C17.76368408 5.73094971 16.96486816 5.33689941 16.1418457 4.9309082 C10.68174141 2.39149358 6.01225122 1.37313271 0 1 C0 0.67 0 0.34 0 0 Z " fill="#FCC04F" transform="translate(314,269)"/>
<path d="M0 0 C8.31313962 4.11631248 14.71386541 9.82805913 21.23681641 16.31884766 C22.72115412 17.78077323 24.23667646 19.1986195 25.76953125 20.609375 C34.11589013 28.49524511 43.82043813 39.57355281 44.2890625 51.66015625 C44.12892567 58.39591181 40.83682535 61.86762146 36.20703125 66.39453125 C19.34097729 80.5574479 -9.60951902 88.70887508 -31.2109375 86.84765625 C-35.55615743 85.85329558 -39.42585811 84.45594971 -42.2109375 80.84765625 C-48.79187306 62.71156629 -41.96828079 40.43549422 -34.35546875 23.6640625 C-27.4090276 8.96907828 -18.76271215 -6.73357674 0 0 Z " fill="#DA616C" transform="translate(202.2109375,44.15234375)"/>
<path d="M0 0 C4.4827434 0.61244312 8.12766745 2.37501844 12.0625 4.5 C12.72080811 4.85457275 13.37911621 5.20914551 14.05737305 5.57446289 C24.45721707 11.32283627 33.3799497 18.87813124 42 27 C42.60199219 27.54914063 43.20398438 28.09828125 43.82421875 28.6640625 C53.55827713 37.87624829 60.86728247 49.17399082 67 61 C67.31066406 61.59538574 67.62132812 62.19077148 67.94140625 62.80419922 C71.63510923 69.99262433 74.603725 77.25875938 76.9375 85 C77.14914795 85.69391846 77.3607959 86.38783691 77.57885742 87.1027832 C80.06872369 95.88250321 78.96705384 101.23918876 74.78125 109.1171875 C71.17655484 114.95110204 67.48317409 118.67270674 61 121 C60.5153125 120.28714844 60.030625 119.57429688 59.53125 118.83984375 C53.46711769 110.17513162 47.39553296 103.89350675 38 99 C38.103125 97.845 38.20625 96.69 38.3125 95.5 C38.22506149 67.56339625 15.70738551 37.8180801 -3 19 C-5.86772696 16.45250855 -8.80400215 14.13066523 -12 12 C-7.25 8 -7.25 8 -5 8 C-4.731875 7.4225 -4.46375 6.845 -4.1875 6.25 C-2.98280141 3.9674132 -1.59201885 2.0262058 0 0 Z " fill="#E07F85" transform="translate(256,111)"/>
<path d="M0 0 C1.89492187 0.01353516 1.89492187 0.01353516 3.828125 0.02734375 C4.79234375 0.03894531 5.7565625 0.05054688 6.75 0.0625 C6.81993164 0.78091064 6.88986328 1.49932129 6.96191406 2.23950195 C9.04369065 23.22293977 12.37605909 42.61587618 18.96337891 62.62695312 C20.31562967 66.81381025 21.5610582 71.03213281 22.8125 75.25 C24.5848469 81.20067472 26.38410574 87.14047672 28.25 93.0625 C30.34910507 99.73024553 32.36809182 106.4202056 34.37011719 113.11767578 C36.39722375 119.89589447 38.44292579 126.66831571 40.5 133.4375 C40.94061768 134.89071655 40.94061768 134.89071655 41.39013672 136.37329102 C42.78475618 140.95762862 44.20267594 145.52671672 45.75 150.0625 C38.79629192 153.21134894 31.89661677 154.66061472 24.41015625 152.3359375 C20.11394066 150.36783874 17.40943977 148.05165966 14.75 144.0625 C15.36875 143.505625 15.9875 142.94875 16.625 142.375 C19.71997386 139.00694022 20.67011489 136.46823191 20.92939758 131.90565491 C20.73167966 127.67003147 19.82854351 123.91977199 18.62963867 119.88452148 C18.40346863 119.09597778 18.17729858 118.30743408 17.9442749 117.49499512 C17.19430972 114.88856056 16.43120119 112.28617126 15.66796875 109.68359375 C15.13300363 107.83430522 14.59886578 105.98477719 14.06550598 104.13502502 C12.65259779 99.2432434 11.22855572 94.35477159 9.80212402 89.46691895 C8.39602563 84.64195473 7.00012518 79.81404569 5.60351562 74.98632812 C3.40841726 67.40315503 1.20747987 59.82170352 -0.99853516 52.24169922 C-4.20077416 41.23834114 -7.38926613 30.23102862 -10.57421875 19.22265625 C-11.05271143 17.56912518 -11.53121154 15.91559625 -12.00971985 14.2620697 C-13.08999244 10.52893163 -14.17006587 6.795736 -15.25 3.0625 C-9.9397272 0.3586014 -6.01835977 -0.05572555 0 0 Z " fill="#FBBF4F" transform="translate(231.25,317.9375)"/>
<path d="M0 0 C0.70241192 0.14067587 1.40482384 0.28135174 2.12852097 0.42629051 C10.18061319 1.91820222 17.9457268 2.30479203 26.12207031 2.31884766 C27.49328689 2.32817125 28.86449792 2.33834343 30.23570251 2.34928894 C33.91874708 2.37632948 37.60175399 2.39166026 41.2848711 2.40471697 C45.14859597 2.42046253 49.01224517 2.44721561 52.87591553 2.4727478 C60.17471802 2.51933504 67.47353507 2.55617548 74.7724092 2.58942068 C83.08938404 2.62778474 91.40628249 2.67715694 99.72319269 2.72740483 C116.81540635 2.83042599 133.90766441 2.91978229 151 3 C148.44999721 5.62766785 145.75639707 7.6505607 142.75 9.75 C137.0146666 13.87488217 131.93569571 18.09645643 128 24 C124.94241388 24.29675845 122.08728588 24.39876943 119.02734375 24.37231445 C118.09701828 24.37596512 117.16669281 24.37961578 116.20817566 24.38337708 C113.11776733 24.39151328 110.02787868 24.37783876 106.9375 24.36328125 C104.78955078 24.36276266 102.64160109 24.36328032 100.49365234 24.36479187 C95.98088537 24.36470199 91.46829643 24.3542462 86.95556641 24.33618164 C81.19009334 24.31360291 75.42488305 24.31292897 69.65937805 24.31969929 C65.21707861 24.32305467 60.77483825 24.3163779 56.33255005 24.30657005 C54.20842804 24.30273656 52.08429943 24.30156211 49.96017456 24.3031559 C46.97592876 24.30352992 43.99200897 24.29080912 41.0078125 24.2746582 C40.13988571 24.27713562 39.27195892 24.27961304 38.37773132 24.28216553 C26.24334254 24.17821537 16.90362181 21.41320059 7.85546875 13.0078125 C4.14255668 8.99005081 1.82287608 5.14694423 0 0 Z " fill="#8A5D5D" transform="translate(45,310)"/>
<path d="M0 0 C8.15156659 -0.70883188 15.02962674 2.06959318 21.3125 7.25 C27.43940779 13.03033523 31.41910358 19.83919388 32.37109375 28.296875 C32.54567126 37.3749054 31.31771368 43.69472415 25.53125 50.8046875 C18.55926517 57.67414314 8.93655241 59.38368048 -0.5 59.5 C-10.88561322 59.3605726 -19.85660296 57.18535903 -27.44140625 49.7109375 C-31.6477243 45.09347559 -32.6429962 41.63740488 -32.39453125 35.42578125 C-31.76064551 31.52832534 -30.06567211 29.29430945 -27 27 C-24.27773107 25.4060675 -21.50793064 23.93895445 -18.7109375 22.48046875 C-9.5220519 17.46233094 -4.46709345 9.28283809 0 0 Z " fill="#F1DAAF" transform="translate(61,220)"/>
<path d="M0 0 C0.66 0 1.32 0 2 0 C16.47941509 29.98573905 16.47941509 29.98573905 14 40 C10.86708053 46.21419741 5.63349654 49.68686457 0.125 53.75 C-0.82101074 54.45882324 -1.76702148 55.16764648 -2.74169922 55.89794922 C-8.89039136 60.48879121 -15.09665996 64.99313608 -21.37109375 69.41015625 C-24.26909443 71.46073012 -27.12376425 73.56535243 -29.97265625 75.68359375 C-30.83552246 76.32474121 -31.69838867 76.96588867 -32.58740234 77.62646484 C-34.29196793 78.89568598 -35.99420602 80.16804029 -37.69384766 81.44384766 C-38.46905762 82.02054199 -39.24426758 82.59723633 -40.04296875 83.19140625 C-40.73414795 83.70904541 -41.42532715 84.22668457 -42.13745117 84.76000977 C-46.3958911 87.59506238 -51.06654427 87.61248685 -56 87 C-59.5625 85.25 -59.5625 85.25 -62 83 C-62 78.08469958 -60.1724381 76.21650307 -57.1875 72.625 C-56.17031823 71.36739345 -55.15339831 70.10957508 -54.13671875 68.8515625 C-53.61384277 68.2112207 -53.0909668 67.57087891 -52.55224609 66.91113281 C-50.16365969 63.97029381 -47.83322209 60.9848047 -45.5 58 C-44.57975827 56.82786491 -43.65918458 55.65599036 -42.73828125 54.484375 C-42.28404785 53.90623047 -41.82981445 53.32808594 -41.36181641 52.73242188 C-40.02715 51.03453862 -38.69145921 49.33746653 -37.35546875 47.640625 C-31.61563608 40.34766114 -25.90818879 33.03015686 -20.21411133 25.70141602 C-16.44634216 20.85402106 -12.66833901 16.01491361 -8.875 11.1875 C-8.43800781 10.63126953 -8.00101562 10.07503906 -7.55078125 9.50195312 C-6.36907487 7.9998154 -5.18461594 6.49984425 -4 5 C-3.28070313 4.04738281 -2.56140625 3.09476562 -1.8203125 2.11328125 C-1.21960938 1.41589844 -0.61890625 0.71851563 0 0 Z " fill="#FCCD62" transform="translate(469,390)"/>
<path d="M0 0 C9.99200946 2.94846181 18.84029855 7.50812135 24.30859375 16.6171875 C28.32460919 24.28516033 30.51153639 32.20038086 28.05859375 40.75390625 C24.71488789 49.55244207 20.8205886 53.43635136 12.56640625 57.890625 C3.00310416 62.17715473 -10.33349256 61.1713493 -20.1875 58.125 C-23.08226457 56.72089493 -25.66968798 55.1261855 -28.1875 53.125 C-28.77015625 52.69058594 -29.3528125 52.25617188 -29.953125 51.80859375 C-31.1875 50.125 -31.1875 50.125 -31.078125 47.59375 C-30.76101562 46.12421875 -30.76101562 46.12421875 -30.4375 44.625 C-29.54968061 40.38091538 -29.18419613 36.63760877 -29.25 32.3125 C-28.97595073 28.7084936 -28.67197185 27.5525736 -25.92578125 25.12890625 C-23.99146784 23.94404033 -22.02739805 22.80663006 -20.0390625 21.71484375 C-13.45883032 18.04613896 -10.17164701 13.25496295 -6.6875 6.6875 C-3.61079309 1.27439756 -3.61079309 1.27439756 0 0 Z " fill="#F1DAAF" transform="translate(207.1875,218.875)"/>
<path d="M0 0 C7.81428783 -0.9016486 13.49262322 1.74921356 20 6 C26.89749366 11.97932081 31.4823567 18.69415622 32.375 27.84375 C32.69956392 35.07205906 32.83630599 42.1855647 28 48 C20.76716318 55.87291088 13.03464261 58.51839147 2.51953125 59.23828125 C-9.24412407 59.47380227 -17.78052236 57.37558211 -27 50 C-26.74800674 48.27204622 -26.49563083 46.54414794 -26.2421875 44.81640625 C-25.92877285 41.83155429 -25.92877285 41.83155429 -26.1328125 38.15234375 C-26.23631751 33.86392034 -26.07404675 30.18173939 -25 26 C-22.22610935 23.42929242 -19.57715621 22.12652292 -16.1484375 20.5546875 C-7.83518 16.44962983 -3.56103157 8.20064482 0 0 Z " fill="#F1DAAF" transform="translate(132,220)"/>
<path d="M0 0 C4.85479561 4.58281826 6.20013741 9.21405156 6.4375 15.75 C5.90142074 29.75723239 -1.69400476 38.36779716 -10.21777344 48.80908203 C-12.75065632 51.92279313 -15.21817867 55.08585776 -17.6875 58.25 C-18.57624005 59.38066673 -19.46555879 60.51087884 -20.35546875 61.640625 C-23.0727465 65.09183957 -25.78657042 68.54575955 -28.5 72 C-29.4166523 73.16667796 -30.33331895 74.33334464 -31.25 75.5 C-31.70375 76.0775 -32.1575 76.655 -32.625 77.25 C-34 79 -35.375 80.75 -36.75 82.5 C-37.4308667 83.36661255 -37.4308667 83.36661255 -38.12548828 84.25073242 C-39.04038353 85.4150707 -39.95542216 86.57929633 -40.87060547 87.7434082 C-43.19057512 90.69478291 -45.5078683 93.64819301 -47.8203125 96.60546875 C-50.53706308 100.07810275 -53.26585353 103.54105355 -56 107 C-56.41556152 107.52819336 -56.83112305 108.05638672 -57.25927734 108.60058594 C-68.89518659 123.34901949 -68.89518659 123.34901949 -77 125 C-83.67980584 125.51524673 -89.30320682 125.79786212 -95 122 C-94.01 119.03 -93.02 116.06 -92 113 C-91.67 113.66 -91.34 114.32 -91 115 C-78.51888488 112.69851778 -72.24839584 101.15188533 -65.08569336 91.67236328 C-61.26112138 86.6125017 -57.3336415 81.65481738 -53.3125 76.75 C-48.58195526 70.97493974 -43.97402069 65.12548132 -39.4453125 59.19140625 C-36.91141041 55.87368649 -34.33404944 52.59123156 -31.75 49.3125 C-25.65435999 41.56767083 -19.5742173 33.81173201 -13.55810547 26.00488281 C-12.21465925 24.2762115 -10.85047179 22.56843127 -9.47265625 20.8671875 C-4.38019194 14.3617303 -1.93693287 8.01533406 0 0 Z " fill="#FCC04F" transform="translate(458,346)"/>
<path d="M0 0 C8.70724344 -0.741042 15.50417057 3.04791562 22.21484375 8.37109375 C27.87214681 13.53322805 31.7107052 20.24550289 32.1796875 27.953125 C32.18658468 30.64302693 32.13332718 33.31370415 32 36 C31.04222656 36.14695312 30.08445312 36.29390625 29.09765625 36.4453125 C14.29492725 38.87325344 0.97169703 43.76815271 -12.46850586 50.37182617 C-18.64458078 53.40350032 -18.64458078 53.40350032 -22 54 C-24.33370072 52.63510623 -26.00594554 50.8580962 -28 49 C-27.86722656 48.34515625 -27.73445312 47.6903125 -27.59765625 47.015625 C-27.33275391 45.64664063 -27.33275391 45.64664063 -27.0625 44.25 C-26.86785156 43.25097656 -26.67320312 42.25195312 -26.47265625 41.22265625 C-25.99833344 37.98863706 -25.9959157 34.95085912 -26 31.6875 C-25.75349789 28.02315135 -25.6184001 26.5714475 -22.890625 24.05078125 C-20.31360322 22.53735278 -17.71695831 21.24155215 -15 20 C-8.00458174 15.44484393 -3.36262435 7.51645443 0 0 Z " fill="#F7EDD8" transform="translate(275,220)"/>
<path d="M0 0 C3.31126265 3.03349669 5.46423019 6.17057216 7.6875 10.0625 C8.28949219 11.10535156 8.89148438 12.14820312 9.51171875 13.22265625 C12.30097554 18.42780475 12.88944127 23.188408 12 29 C6.05556744 41.48111487 -9.27229155 47.37740137 -21.44140625 51.90917969 C-35.44725666 56.82010584 -52.94635385 62.79545379 -67.625 57.6875 C-72.14642857 55.42678571 -72.14642857 55.42678571 -74 53 C-74.33 51.02 -74.66 49.04 -75 47 C-67.08 46.505 -67.08 46.505 -59 46 C-59 44.02 -59 42.04 -59 40 C-56.9375 37.0625 -56.9375 37.0625 -54 35 C-50.31817782 35 -48.0460389 35.22390662 -45.0625 37.4375 C-44 39 -44 39 -44 41 C-40.37 40.01 -36.74 39.02 -33 38 C-32.67 36.35 -32.34 34.7 -32 33 C-28.73160036 30.8210669 -28.56945894 30.87287914 -25 31.3125 C-17.7654722 31.47772576 -12.23926175 26.93044775 -7.07421875 22.2578125 C-1.42151062 16.17028067 0.39630229 9.88623597 0.10546875 1.6875 C0.05326172 0.8521875 0.05326172 0.8521875 0 0 Z " fill="#D54852" transform="translate(234,72)"/>
<path d="M0 0 C7.81428783 -0.9016486 13.49262322 1.74921356 20 6 C26.89749366 11.97932081 31.4823567 18.69415622 32.375 27.84375 C32.70737399 35.40967813 32.30868916 41.53696625 28 48 C22.80943545 46.31636397 17.76955313 44.34778295 12.70703125 42.31640625 C3.85514814 39.17300835 -4.87104149 37.40609327 -14.1875 36.3125 C-15.23486328 36.18294922 -16.28222656 36.05339844 -17.36132812 35.91992188 C-19.9067684 35.60610047 -22.45285025 35.29957024 -25 35 C-25.2628538 31.9573772 -25.38790068 29.03530599 -25 26 C-23.05859375 24.01953125 -23.05859375 24.01953125 -20.4375 22.8125 C-10.40515542 17.6336028 -4.00243602 10.69195351 0 0 Z " fill="#F5EBD6" transform="translate(346,220)"/>
<path d="M0 0 C3.64165955 1.21388652 4.03726327 2.24294152 6 5.4375 C7.91003788 8.53633749 8.90662458 9.93774972 12 12 C14.06910593 12.02749478 14.06910593 12.02749478 16.1875 11.625 C17.445625 11.41875 18.70375 11.2125 20 11 C20.556875 11.86625 21.11375 12.7325 21.6875 13.625 C23.26360095 16.06285399 24.67935374 17.66425699 26.8125 19.75 C29 23 29 23 28.8125 25.21484375 C28.6475 26.03082031 28.4825 26.84679687 28.3125 27.6875 C27.60450985 32.35190571 28.41695977 34.38790197 31.1875 38.1875 C32.76821326 40.14418151 34.37486121 42.08005707 36 44 C37.4078708 45.74508841 38.80284227 47.50005636 40.19824219 49.25512695 C41.71354582 51.15770245 43.23944192 53.05145804 44.765625 54.9453125 C48.21728089 59.25035325 51.58600669 63.61672451 54.9375 68 C55.46883545 68.69367676 56.0001709 69.38735352 56.54760742 70.10205078 C59.78220745 74.34487108 62.9199357 78.64366596 66 83 C62.7 85.64 59.4 88.28 56 91 C52.28344894 87.42331914 49.02328803 83.65112589 45.875 79.5625 C44.90373598 78.31373197 43.9323792 77.06503607 42.9609375 75.81640625 C42.46948242 75.18234863 41.97802734 74.54829102 41.47167969 73.89501953 C39.16098005 70.91962959 36.82997771 67.96029975 34.5 65 C33.58322539 63.83341816 32.66655897 62.66675128 31.75 61.5 C31.069375 60.63375 31.069375 60.63375 30.375 59.75 C15.25 40.5 15.25 40.5 13.87280273 38.74707031 C12.96363307 37.59003348 12.05429291 36.4331306 11.14477539 35.27636719 C8.73692995 32.21348748 6.33280116 29.14777717 3.93359375 26.078125 C3.18142578 25.11712891 3.18142578 25.11712891 2.4140625 24.13671875 C1.45073416 22.90579921 0.48844514 21.67406537 -0.47265625 20.44140625 C-2.23700996 18.18870464 -3.97453291 16.02546709 -6 14 C-6.99 14.495 -6.99 14.495 -8 15 C-6.51194289 9.19657726 -3.40902445 4.82409121 0 0 Z " fill="#FCC04F" transform="translate(166,385)"/>
<path d="M0 0 C6.258654 -0.5326514 10.45108785 1.18150494 16 4 C16.50122461 13.93167285 15.39227932 22.05284192 9 30 C2.92070963 36.57976464 -4.47729865 41.48191606 -13.59423828 42.20605469 C-19.73524088 42.41879393 -25.8632885 42.2802742 -32 42 C-32.04918836 40.56675285 -32.08420717 39.13301497 -32.11328125 37.69921875 C-32.13430908 36.90088623 -32.15533691 36.10255371 -32.17700195 35.2800293 C-31.94879689 32.34043332 -30.85752226 30.505429 -28.81640625 28.39453125 C-25.69086681 25.99492355 -22.19616334 24.29783182 -18.7109375 22.48046875 C-9.5220519 17.46233094 -4.46709345 9.28283809 0 0 Z " fill="#F7EDD8" transform="translate(61,220)"/>
<path d="M0 0 C0.10933663 1.70686635 0.18619084 3.41582604 0.25 5.125 C0.29640625 6.07632812 0.3428125 7.02765625 0.390625 8.0078125 C-0.40509121 14.10299868 -3.88668411 17.07394767 -8.4921875 20.734375 C-10.27881253 22.08310501 -12.073506 23.42119566 -13.875 24.75 C-14.82101074 25.45882324 -15.76702148 26.16764648 -16.74169922 26.89794922 C-22.89039136 31.48879121 -29.09665996 35.99313608 -35.37109375 40.41015625 C-38.26909443 42.46073012 -41.12376425 44.56535243 -43.97265625 46.68359375 C-44.83552246 47.32474121 -45.69838867 47.96588867 -46.58740234 48.62646484 C-48.29196793 49.89568598 -49.99420602 51.16804029 -51.69384766 52.44384766 C-52.46905762 53.02054199 -53.24426758 53.59723633 -54.04296875 54.19140625 C-54.73414795 54.70904541 -55.42532715 55.22668457 -56.13745117 55.76000977 C-60.3958911 58.59506238 -65.06654427 58.61248685 -70 58 C-73.5625 56.25 -73.5625 56.25 -76 54 C-76 49.86356447 -75.84767359 49.30197567 -73.5 46.25 C-73.0359375 45.63640625 -72.571875 45.0228125 -72.09375 44.390625 C-71.7328125 43.93171875 -71.371875 43.4728125 -71 43 C-70.67 43.66 -70.34 44.32 -70 45 C-61.55619594 44.16111496 -56.53309808 41.05507512 -50.0625 35.75 C-48.21604099 34.28885035 -46.36835917 32.8292448 -44.51953125 31.37109375 C-43.13628662 30.26870361 -43.13628662 30.26870361 -41.72509766 29.14404297 C-37.64101264 25.9307806 -33.45172127 22.86932506 -29.25 19.8125 C-24.50022759 16.34536025 -19.78109852 12.85095511 -15.140625 9.23828125 C-14.36041992 8.63201904 -13.58021484 8.02575684 -12.77636719 7.40112305 C-11.29284429 6.24361242 -9.81406399 5.07998956 -8.34082031 3.90942383 C-7.68178711 3.39532959 -7.02275391 2.88123535 -6.34375 2.3515625 C-5.76818359 1.89604004 -5.19261719 1.44051758 -4.59960938 0.97119141 C-3 0 -3 0 0 0 Z " fill="#FBBF4F" transform="translate(483,419)"/>
<path d="M0 0 C3.57593598 1.29221412 6.35828828 2.8139172 9.37109375 5.125 C10.18674805 5.7449585 11.00240234 6.36491699 11.84277344 7.00366211 C12.6990332 7.66245361 13.55529297 8.32124512 14.4375 9 C16.22168622 10.35674534 18.00684868 11.7122078 19.79296875 13.06640625 C20.67130371 13.7330127 21.54963867 14.39961914 22.45458984 15.08642578 C27.88791046 19.17105718 33.44127981 23.08864887 39 27 C37.68898456 29.98356661 36.41492374 31.76338715 33.84765625 33.76171875 C32.93016602 34.48004883 32.93016602 34.48004883 31.99414062 35.21289062 C31.35669922 35.69951172 30.71925781 36.18613281 30.0625 36.6875 C29.42892578 37.18572266 28.79535156 37.68394531 28.14257812 38.19726562 C22.51202466 42.56079654 18.25766279 43.47570981 11.0859375 43.40625 C6.17685144 42.75999057 3.24480527 40.65142247 0 37 C-6.80297827 26.37034645 -2.16209335 11.58264292 0 0 Z " fill="#F9BE4E" transform="translate(153,454)"/>
<path d="M0 0 C0.51277829 3.12303802 1.00776825 6.24866322 1.5 9.375 C1.64308594 10.24511719 1.78617187 11.11523438 1.93359375 12.01171875 C4.58194199 29.03681458 4.58194199 29.03681458 0.375 36.23828125 C-2.93539806 40.47972876 -6.55463884 42.49182871 -11.80078125 43.58203125 C-20.701888 44.2631795 -25.44963768 40.58030866 -32 35 C-33.55436917 33.82252225 -35.11597309 32.65447847 -36.6875 31.5 C-37.79230911 30.66751859 -38.89675174 29.83454883 -40 29 C-35.78119065 24.47560285 -31.06291402 20.93567079 -26.0625 17.3125 C-25.22726807 16.70325684 -24.39203613 16.09401367 -23.53149414 15.46630859 C-21.83543686 14.23101489 -20.13777522 12.99792082 -18.43847656 11.76708984 C-16.19136472 10.1386762 -13.95052543 8.50201701 -11.7109375 6.86328125 C-10.45358363 5.94988916 -9.19580067 5.03708732 -7.9375 4.125 C-7.3607251 3.70259033 -6.7839502 3.28018066 -6.18969727 2.8449707 C-2.23066286 0 -2.23066286 0 0 0 Z " fill="#FBCC62" transform="translate(480,454)"/>
<path d="M0 0 C6.50313209 -0.46450943 10.4174808 0.67424388 16 4 C16.48263751 14.56439886 15.57853041 22.73769193 8.79296875 31.1484375 C3.23991851 36.88295997 -3.37278898 39.98809788 -11 42 C-12.2375 42.3403125 -12.2375 42.3403125 -13.5 42.6875 C-17.32935274 43.16616909 -21.14644695 43.07555986 -25 43 C-26.42758515 31.24885931 -26.42758515 31.24885931 -25 26 C-22.25603648 23.27845448 -19.6995875 22.08909737 -16.18359375 20.51953125 C-7.8232573 16.52913753 -3.55079549 8.1770723 0 0 Z " fill="#F6ECD7" transform="translate(132,220)"/>
<path d="M0 0 C4.19393653 1.17724534 7.80615901 2.81449252 11.5625 5 C12.45179256 16.13262538 11.04820241 24.36839531 3.8046875 33.125 C-3.68438026 40.39472268 -14.4091917 44.20037744 -24.75 44.0625 C-25.63300781 44.05347656 -26.51601562 44.04445313 -27.42578125 44.03515625 C-28.08964844 44.02355469 -28.75351563 44.01195312 -29.4375 44 C-30.00587508 32.24917568 -30.00587508 32.24917568 -28.4375 27 C-25.26939191 23.59196634 -21.58417616 22.00517354 -17.4375 20 C-12.50259973 16.28464405 -9.81249218 11.98173304 -6.9375 6.5625 C-3.88475558 1.13011072 -3.88475558 1.13011072 0 0 Z " fill="#F7ECD7" transform="translate(207.4375,219)"/>
<path d="M0 0 C5.27897717 1.39737631 7.95352584 4.69811066 11 9 C14.20697694 14.54116902 16.1387207 19.20874034 16.0625 25.6875 C16.05347656 26.68136719 16.04445313 27.67523438 16.03515625 28.69921875 C16.02355469 29.45847656 16.01195312 30.21773437 16 31 C14.56333984 31.22042969 14.56333984 31.22042969 13.09765625 31.4453125 C-1.70507275 33.87325344 -15.02830297 38.76815271 -28.46850586 45.37182617 C-34.64458078 48.40350032 -34.64458078 48.40350032 -38 49 C-40.33370072 47.63510623 -42.00594554 45.8580962 -44 44 C-43.34 40.37 -42.68 36.74 -42 33 C-41.67 34.32 -41.34 35.64 -41 37 C-28.54023708 36.79725238 -17.85739859 34.67711234 -8.6171875 25.8203125 C-2.02122329 18.3958697 -0.73214188 9.57564513 0 0 Z " fill="#F0D9AE" transform="translate(291,225)"/>
<path d="M0 0 C6.95300642 4.1386943 12.20753829 9.6372365 15.3046875 17.2109375 C17.17097096 24.6970408 17.49807351 33.99135987 14 41 C13.34 41.99 12.68 42.98 12 44 C7.87208726 42.66105073 3.84286299 41.16963853 -0.1875 39.5625 C-6.0389979 37.28915944 -11.90829787 35.50156185 -18 34 C-16.07619605 32.71746403 -14.11901274 31.48289878 -12.125 30.3125 C-5.39328674 25.33103218 -2.66708107 19.09058924 -1 11 C-0.52251578 7.33774239 -0.2032844 3.68715848 0 0 Z " fill="#EFD9AE" transform="translate(362,224)"/>
<path d="M0 0 C6.94181696 4.47340082 13.520193 9.33965446 20.0625 14.375 C21.02349609 15.11105469 21.98449219 15.84710938 22.97460938 16.60546875 C25.3183333 18.40115773 27.66007356 20.19936723 30 22 C25.18216517 27.08549232 22.30125437 29.28079002 15.25 29.5 C9.8167184 29.40048935 6.60754993 28.38197302 2.55859375 24.75390625 C-2.37167227 19.20581241 -2.32827867 13.90969417 -2.30078125 6.76953125 C-1.99935024 3.99401716 -1.30131204 2.42292063 0 0 Z " fill="#FBCD62" transform="translate(152,468)"/>
<path d="M0 0 C0.51277829 3.12303802 1.00776825 6.24866322 1.5 9.375 C1.64308594 10.24511719 1.78617187 11.11523438 1.93359375 12.01171875 C4.57513507 28.99305582 4.57513507 28.99305582 0.38671875 36.23828125 C-2.73290427 40.20152064 -6.4712488 42.69811807 -11.51953125 43.30078125 C-13.70588786 43.31111049 -15.82643779 43.22641273 -18 43 C-17.38511719 42.22076172 -17.38511719 42.22076172 -16.7578125 41.42578125 C-16.21898437 40.72839844 -15.68015625 40.03101563 -15.125 39.3125 C-14.32449219 38.28576172 -14.32449219 38.28576172 -13.5078125 37.23828125 C-10.74306962 33.13414221 -9.74701481 29.63023373 -9.8046875 24.69921875 C-9.81113281 23.72275391 -9.81757813 22.74628906 -9.82421875 21.74023438 C-9.84097656 20.73283203 -9.85773438 19.72542969 -9.875 18.6875 C-9.88402344 17.66076172 -9.89304687 16.63402344 -9.90234375 15.57617188 C-9.92583799 13.05054101 -9.95868869 10.5253919 -10 8 C-10.66 7.67 -11.32 7.34 -12 7 C-10.3790787 5.82767315 -8.75313167 4.6622923 -7.125 3.5 C-6.22007812 2.8503125 -5.31515625 2.200625 -4.3828125 1.53125 C-2 0 -2 0 0 0 Z " fill="#FABE4E" transform="translate(480,454)"/>
<path d="M0 0 C1.37048699 4.11146096 -0.16677604 6.68719001 -1.75 10.5 C-2.01554687 11.17675781 -2.28109375 11.85351562 -2.5546875 12.55078125 C-5.30089514 19.3096515 -5.30089514 19.3096515 -8 21 C-11.63615756 20.83001702 -13.65079832 18.82010154 -16.25 16.4375 C-16.95640625 15.79683594 -17.6628125 15.15617187 -18.390625 14.49609375 C-18.92171875 14.00238281 -19.4528125 13.50867187 -20 13 C-19.68471356 10.05732659 -19.03469171 9.03424117 -16.89453125 6.921875 C-13.59050851 4.72811091 -10.44288949 3.51349553 -6.6875 2.25 C-6.04232422 2.02957031 -5.39714844 1.80914062 -4.73242188 1.58203125 C-3.15802516 1.04557015 -1.57941996 0.52148643 0 0 Z " fill="#ADDE9A" transform="translate(252,37)"/>
<path d="M0 0 C2.4375 1.625 2.4375 1.625 4 4 C4 7.77684879 3.78395245 10.03513544 1.375 13 C-2.11581787 14.46981805 -4.39148956 13.98413921 -8 13 C-10 11.375 -10 11.375 -11 9 C-10.93375803 5.22420799 -10.78061285 2.92517078 -8.3125 0 C-5.08866642 -1.3940902 -3.32817512 -1.04005473 0 0 Z " fill="#0B0505" transform="translate(191,82)"/>
<path d="M0 0 C1.9375 1.1875 1.9375 1.1875 3 3 C3.5 5.875 3.5 5.875 3 9 C0.68262395 12.04569423 -0.77825913 13.73181298 -4.5625 14.5625 C-7.93473771 13.7842913 -9.0572794 12.87810459 -11 10 C-11.59002965 7.03793195 -11.39336407 5.09774206 -11 2 C-7.94260267 -2.03576448 -4.55750868 -1.16009312 0 0 Z " fill="#0A0404" transform="translate(187,108)"/>
<path d="M0 0 C2.5 1.5625 2.5 1.5625 4 4 C4 7.77684879 3.78395245 10.03513544 1.375 13 C-2.11581787 14.46981805 -4.39148956 13.98413921 -8 13 C-10 11.375 -10 11.375 -11 9 C-10.875 5.375 -10.875 5.375 -10 2 C-6.2794164 -0.48038907 -4.40203429 -0.46337203 0 0 Z " fill="#090304" transform="translate(212,103)"/>
<path d="M0 0 C2.375 1.625 2.375 1.625 4 4 C4.48288863 7.31123632 4.29618989 9.296549 3 12.375 C0.28967961 14.57713531 -1.70883166 14.51345108 -5.125 14.3125 C-7 14 -7 14 -9 12.9375 C-10.60856522 9.82090489 -10.42213381 7.43737531 -10 4 C-7.26646839 -0.10029741 -4.80388991 -0.80064832 0 0 Z " fill="#060203" transform="translate(216,77)"/>
<path d="M0 0 C2.375 1.625 2.375 1.625 4 4 C4.60605429 7.63632575 4.47161336 9.28314769 2.4375 12.375 C-0.8994213 14.5996142 -3.06905293 14.50030235 -7 14 C-8.9375 12.9375 -8.9375 12.9375 -10 11 C-10.50030235 7.06905293 -10.5996142 4.8994213 -8.375 1.5625 C-5.28314769 -0.47161336 -3.63632575 -0.60605429 0 0 Z " fill="#050202" transform="translate(195,56)"/>
<path d="M0 0 C3.72858212 0.39884347 5.83983034 0.74998659 8.53515625 3.4453125 C6.81259908 4.91144697 5.08181841 6.36792306 3.34765625 7.8203125 C2.38472656 8.63242188 1.42179687 9.44453125 0.4296875 10.28125 C-2.19599971 12.24431439 -4.37659416 13.4177779 -7.46484375 14.4453125 C-8.45484375 12.7953125 -9.44484375 11.1453125 -10.46484375 9.4453125 C-4.25801069 0.7692761 -4.25801069 0.7692761 0 0 Z " fill="#8ECB9B" transform="translate(261.46484375,60.5546875)"/>
<path d="M0 0 C0.66 0.33 1.32 0.66 2 1 C2.99329313 4.00471173 3.32759259 6.852963 3 10 C1.26344807 12.30416275 -0.54441729 13.36294486 -3 15 C-3.99 16.485 -3.99 16.485 -5 18 C-6.9375 17.1875 -6.9375 17.1875 -9 16 C-9.33 15.01 -9.66 14.02 -10 13 C-8.41796875 10.37109375 -8.41796875 10.37109375 -6.1875 7.4375 C-5.45917969 6.46683594 -4.73085937 5.49617188 -3.98046875 4.49609375 C-2 2 -2 2 0 0 Z " fill="#ADDE9A" transform="translate(226,21)"/>
<path d="M0 0 C1.37048699 4.11146096 -0.16677604 6.68719001 -1.75 10.5 C-2.01554688 11.17675781 -2.28109375 11.85351562 -2.5546875 12.55078125 C-5.15916216 18.96082325 -5.15916216 18.96082325 -8 21 C-10.0625 20.875 -10.0625 20.875 -12 20 C-12.66 19.01 -13.32 18.02 -14 17 C-13.2575 16.360625 -12.515 15.72125 -11.75 15.0625 C-8.29672024 11.65841226 -6.73676741 7.45349856 -5 3 C-5.66 2.67 -6.32 2.34 -7 2 C-4.69 1.34 -2.38 0.68 0 0 Z " fill="#8FCD9D" transform="translate(252,37)"/>
<path d="M0 0 C0.66 0.33 1.32 0.66 2 1 C2.84217458 3.97726506 3.16139685 6.91119814 3 10 C1.0625 12.0625 1.0625 12.0625 -1 13 C-3 6.375 -3 6.375 -3 3 C-1.5 1.3125 -1.5 1.3125 0 0 Z " fill="#8DC898" transform="translate(226,21)"/>
<path d="M0 0 C1.65 0.33 3.3 0.66 5 1 C1.87378374 4.39417765 -0.56541027 6.6062718 -5 8 C-3.62845496 5.04590299 -2.01136276 2.55991624 0 0 Z " fill="#A3D293" transform="translate(259,61)"/>
</svg>
