<?xml version="1.0" encoding="UTF-8"?>
<svg version="1.1" xmlns="http://www.w3.org/2000/svg" width="512" height="512">
<path d="M0 0 C1.1446875 -0.01260864 2.289375 -0.02521729 3.46875 -0.03820801 C4.6959375 -0.03011108 5.923125 -0.02201416 7.1875 -0.01367188 C8.4559375 -0.01749878 9.724375 -0.02132568 11.03125 -0.02526855 C13.71149486 -0.02798903 16.39027705 -0.02263873 19.0703125 -0.00390625 C22.49701508 0.01888417 25.92246444 0.00575499 29.34912109 -0.01819611 C32.62862502 -0.03616609 35.90797969 -0.02356626 39.1875 -0.01367188 C41.02828125 -0.02581726 41.02828125 -0.02581726 42.90625 -0.03820801 C44.0509375 -0.02559937 45.195625 -0.01299072 46.375 0 C47.37917969 0.00318237 48.38335937 0.00636475 49.41796875 0.00964355 C52.9335471 0.65440385 54.62403579 2.07833152 57.1875 4.51757812 C58.49225618 7.12709048 58.30051572 9.04459097 58.28515625 11.96289062 C58.28193359 13.03925781 58.27871094 14.115625 58.27539062 15.22460938 C58.26701172 16.35253906 58.25863281 17.48046875 58.25 18.64257812 C58.24548828 19.77824219 58.24097656 20.91390625 58.23632812 22.08398438 C58.22451615 24.89523451 58.20804507 27.70638043 58.1875 30.51757812 C58.95456268 30.50869568 59.72162537 30.49981323 60.51193237 30.49066162 C67.77855707 30.41015803 75.04496229 30.34943366 82.31191826 30.31032944 C86.0470079 30.28954889 89.7817258 30.2614089 93.51660156 30.21582031 C97.12819135 30.17201782 100.739426 30.14836954 104.35126114 30.13806915 C105.72184964 30.13073885 107.09242106 30.11642614 108.46285629 30.0946579 C119.61123363 29.92478969 128.45451544 31.61180547 137.30078125 38.68164062 C143.38557429 44.60266077 147.92209112 51.55974024 148.3828125 60.16601562 C148.34800781 62.01066406 148.34800781 62.01066406 148.3125 63.89257812 C148.29445313 65.1378125 148.27640625 66.38304687 148.2578125 67.66601562 C148.22300781 69.07753906 148.22300781 69.07753906 148.1875 70.51757812 C149.26 70.39382812 150.3325 70.27007812 151.4375 70.14257812 C158.36593688 70.1549063 164.92515497 73.78812611 170.1484375 78.15820312 C177.93310076 86.61463936 178.85940571 95.9997934 178.76391602 107.02099609 C178.74993646 109.2778367 178.78433921 111.53061032 178.82226562 113.78710938 C178.82321606 115.23372496 178.82136209 116.68034571 178.81640625 118.12695312 C178.8174939 120.07553223 178.8174939 120.07553223 178.81860352 122.06347656 C178.03094233 126.3744361 176.57771208 127.82841202 173.1875 130.51757812 C169.90230525 131.61264304 167.45086585 131.61718421 164 131.58007812 C162.91332031 131.57105469 161.82664062 131.56203125 160.70703125 131.55273438 C159.87558594 131.54113281 159.04414063 131.52953125 158.1875 131.51757812 C158.13210776 132.21467392 158.07671553 132.91176971 158.01964474 133.62998962 C157.94024434 134.62921951 157.86084394 135.6284494 157.77903748 136.65795898 C157.68819822 137.80114625 157.59735897 138.94433352 157.50376701 140.12216282 C157.29452364 142.75539972 157.08527665 145.38863634 156.87602425 148.02187252 C156.33341933 154.85007266 155.79084819 161.67827548 155.24841136 168.50648898 C154.92393298 172.59099786 154.59942519 176.67550441 154.27490234 180.76000977 C154.20832259 181.59799673 154.14174283 182.4359837 154.07314551 183.29936421 C153.10813159 195.44455528 152.1417214 207.58963462 151.17443037 219.73464453 C150.55479938 227.51513059 149.93555072 235.29564708 149.31640625 243.07617188 C149.21416465 244.36085456 149.21416465 244.36085456 149.10985756 245.67149043 C147.43949073 266.66161337 145.78022026 287.65247173 144.15644264 308.64625931 C143.67715289 314.83588629 143.19439426 321.02524391 142.71173763 327.21460915 C142.28267607 332.72406565 141.86027031 338.23398086 141.44286823 343.74433231 C141.18979672 347.0654282 140.93063933 350.38602726 140.66966438 353.70651054 C140.55374267 355.19815939 140.44043116 356.69001402 140.33007622 358.18208504 C140.18257346 360.17343118 140.02491377 362.1640173 139.86669922 364.15454102 C139.78298065 365.24908096 139.69926208 366.34362091 139.61300659 367.47132874 C138.83814651 373.01863896 137.58928977 376.91611376 133.1875 380.51757812 C130.01883107 381.5738011 127.78664608 381.6450223 124.45829678 381.64900589 C122.65593033 381.65476761 122.65593033 381.65476761 120.81715244 381.66064572 C119.47693275 381.65986544 118.1367131 381.65898664 116.79649353 381.65802002 C115.37797434 381.66060302 113.95945588 381.663616 112.54093844 381.66702342 C108.63347601 381.67510463 104.72603194 381.67688362 100.81856215 381.67762089 C96.60774531 381.67946956 92.39693803 381.68701606 88.18612671 381.6937561 C78.97311813 381.70734905 69.7601139 381.71336596 60.54709697 381.71776676 C54.79455075 381.7205282 49.04200622 381.72476543 43.28946114 381.72927094 C27.36363677 381.74146606 11.43781376 381.75176411 -4.48801517 381.75514603 C-5.50772007 381.75536559 -6.52742497 381.75558516 -7.57803002 381.75581138 C-8.60018818 381.75602966 -9.62234634 381.75624793 -10.67547899 381.75647283 C-12.74678743 381.75691629 -14.81809586 381.75736286 -16.8894043 381.7578125 C-17.91684678 381.75803393 -18.94428927 381.75825536 -20.00286638 381.7584835 C-36.64401262 381.76242988 -53.28511502 381.77987791 -69.92624433 381.80317202 C-87.00991681 381.82689255 -104.09356731 381.83934824 -121.17725652 381.84051394 C-130.76962923 381.84143044 -140.36194486 381.84717611 -149.95430183 381.86533356 C-158.12442346 381.88074417 -166.29447039 381.88584942 -174.46460379 381.87759545 C-178.63189313 381.87369203 -182.79903209 381.8746034 -186.96630287 381.8886528 C-190.78545032 381.90141051 -194.60433469 381.90017792 -198.42348187 381.88806209 C-200.45098132 381.88518657 -202.47848539 381.89702683 -204.5059486 381.90948415 C-215.5862311 381.84962562 -225.31061117 380.04410686 -233.8125 372.51757812 C-242.61456983 361.83069677 -242.99930071 350.9631943 -242.99780273 337.59228516 C-243.00000117 335.39140818 -243.01823426 333.19102377 -243.03710938 330.99023438 C-243.0400419 329.58007982 -243.04202764 328.16992291 -243.04296875 326.75976562 C-243.04707764 325.48987793 -243.05118652 324.21999023 -243.05541992 322.91162109 C-242.82020793 319.62527219 -242.08249174 317.51074037 -240.8125 314.51757812 C-241.0384212 311.86300403 -241.35784308 309.37894096 -241.8125 306.76757812 C-243.30699604 296.66084842 -241.64178466 290.37126667 -236.8125 281.51757812 C-237.43125 280.69257813 -238.05 279.86757813 -238.6875 279.01757812 C-244.67185042 269.79614135 -243.01383198 259.09401262 -241.12890625 248.77539062 C-235.3839048 224.62085119 -219.84495663 204.06770196 -199.1640625 190.56835938 C-169.087162 172.16466151 -133.00758946 164.86642891 -98.1015625 172.41601562 C-93.05264908 173.65747388 -88.07795898 175.12639777 -83.125 176.70507812 C-81.91444946 177.08708374 -81.91444946 177.08708374 -80.67944336 177.47680664 C-72.5975455 180.23705078 -65.2601486 184.3941163 -57.8125 188.51757812 C-57.89814209 187.35935547 -57.98378418 186.20113281 -58.07202148 185.0078125 C-58.395357 180.63173979 -58.7174952 176.25557956 -59.03930664 171.87939453 C-59.17766163 170.0001394 -59.31632371 168.12090685 -59.45532227 166.24169922 C-60.31094515 154.67071246 -61.12107917 143.09964983 -61.8125 131.51757812 C-62.67222412 131.54883789 -63.53194824 131.58009766 -64.41772461 131.61230469 C-75.49114427 131.95250191 -75.49114427 131.95250191 -79.8125 128.51757812 C-83.16561215 122.50288296 -83.28362759 117.12364729 -83.1875 110.33007812 C-83.17734863 109.30648193 -83.16719727 108.28288574 -83.15673828 107.22827148 C-82.93404784 96.37427021 -81.97221249 86.41293708 -73.8125 78.51757812 C-67.10247847 73.21583272 -61.51735636 70.17621121 -52.8125 70.51757812 C-52.78671875 69.62296875 -52.7609375 68.72835937 -52.734375 67.80664062 C-52.13160188 54.95661372 -49.41814345 46.37086699 -39.8125 37.51757812 C-31.39499915 30.94391079 -23.23773057 30.20944323 -12.8125 30.51757812 C-12.82297363 29.90760986 -12.83344727 29.2976416 -12.84423828 28.66918945 C-12.88596621 25.88952805 -12.91187922 23.10993274 -12.9375 20.33007812 C-12.95425781 19.37037109 -12.97101563 18.41066406 -12.98828125 17.421875 C-12.99472656 16.49052734 -13.00117188 15.55917969 -13.0078125 14.59960938 C-13.01828613 13.7460083 -13.02875977 12.89240723 -13.03955078 12.01293945 C-12.65674815 7.80581505 -11.67173117 5.33872383 -8.59451294 2.39790344 C-5.39574038 0.23589588 -3.81732897 0.0120976 0 0 Z " fill="#010101" transform="translate(296.8125,110.482421875)"/>
<path d="M0 0 C28.72105016 -0.6484168 53.91060522 10.38579877 74.50390625 29.93359375 C87.93413871 43.92885217 96.26655976 61.26567558 100.25390625 80.12109375 C100.44597656 81.00539063 100.63804687 81.8896875 100.8359375 82.80078125 C104.14387141 109.07876091 98.96773932 135.56039278 83.25390625 157.12109375 C79.84530247 161.37362837 76.08050674 165.24746898 72.25390625 169.12109375 C71.67253906 169.77464844 71.09117187 170.42820313 70.4921875 171.1015625 C55.61437112 187.4784032 30.36156096 196.30079203 8.76953125 197.375 C-14.61535149 198.14004524 -36.97157486 192.39593456 -55.74609375 178.12109375 C-56.76445313 177.34765625 -57.7828125 176.57421875 -58.83203125 175.77734375 C-77.64163766 160.8054656 -90.78204947 138.7370089 -94.43701172 114.87939453 C-96.04119525 100.56338698 -96.23489101 84.92754594 -91.74609375 71.12109375 C-91.55273438 70.50298828 -91.359375 69.88488281 -91.16015625 69.24804688 C-86.02080035 53.11617976 -77.76129626 39.98247432 -65.74609375 28.12109375 C-64.93269531 27.30898438 -64.11929688 26.496875 -63.28125 25.66015625 C-46.18318115 9.42114758 -23.31971312 1.02832305 0 0 Z " fill="#23AC5E" transform="translate(121.74609375,19.87890625)"/>
<path d="M0 0 C55.44 0 110.88 0 168 0 C168 5.68610048 167.9256979 11.03079 167.46508789 16.65258789 C167.37971519 17.71328491 167.37971519 17.71328491 167.2926178 18.79541016 C167.10595928 21.10477653 166.91428745 23.41369769 166.72265625 25.72265625 C166.59017274 27.35295254 166.45805371 28.98327849 166.32627869 30.6136322 C165.97957225 34.89351526 165.62881605 39.17305581 165.2769165 43.45251465 C164.71649374 50.27426197 164.16165102 57.09646304 163.60796928 63.9187603 C163.41618022 66.27368947 163.22228884 68.62843793 163.02809143 70.98316956 C162.90676897 72.46932487 162.78550463 73.95548492 162.66430664 75.44165039 C162.50775352 77.34618736 162.50775352 77.34618736 162.34803772 79.28919983 C161.83830417 86.18860395 161.43154597 93.09526441 161 100 C115.13 100 69.26 100 22 100 C19.525 95.545 19.525 95.545 17 91 C18.26953125 89.01432292 19.5390625 87.02864583 20.80859375 85.04296875 C25.70530567 76.64631192 23.19190604 64.53225394 21.03515625 55.57421875 C17.37957845 42.95212935 12.10655925 31.49980954 3.0625 21.75 C-1.54329326 15.60894232 0 7.29924755 0 0 Z " fill="#BAE2FD" transform="translate(261,301)"/>
<path d="M0 0 C28.72105016 -0.6484168 53.91060522 10.38579877 74.50390625 29.93359375 C87.93413871 43.92885217 96.26655976 61.26567558 100.25390625 80.12109375 C100.44597656 81.00539063 100.63804687 81.8896875 100.8359375 82.80078125 C104.14387141 109.07876091 98.96773932 135.56039278 83.25390625 157.12109375 C79.84530247 161.37362837 76.08050674 165.24746898 72.25390625 169.12109375 C71.67253906 169.77464844 71.09117187 170.42820313 70.4921875 171.1015625 C55.61437112 187.4784032 30.36156096 196.30079203 8.76953125 197.375 C-14.61535149 198.14004524 -36.97157486 192.39593456 -55.74609375 178.12109375 C-56.76445313 177.34765625 -57.7828125 176.57421875 -58.83203125 175.77734375 C-77.64163766 160.8054656 -90.78204947 138.7370089 -94.43701172 114.87939453 C-96.04119525 100.56338698 -96.23489101 84.92754594 -91.74609375 71.12109375 C-91.55273438 70.50298828 -91.359375 69.88488281 -91.16015625 69.24804688 C-86.02080035 53.11617976 -77.76129626 39.98247432 -65.74609375 28.12109375 C-64.93269531 27.30898438 -64.11929688 26.496875 -63.28125 25.66015625 C-46.18318115 9.42114758 -23.31971312 1.02832305 0 0 Z M-43.74609375 36.12109375 C-43.28203125 37.14203125 -43.28203125 37.14203125 -42.80859375 38.18359375 C-41.32776089 42.27766107 -40.11798552 46.18442669 -41.49609375 50.43359375 C-42.74609375 52.12109375 -42.74609375 52.12109375 -45.74609375 54.12109375 C-47.8671875 54.421875 -47.8671875 54.421875 -50.18359375 54.43359375 C-50.94542969 54.45035156 -51.70726563 54.46710938 -52.4921875 54.484375 C-55.25808565 54.03857166 -56.6500128 52.93069439 -58.74609375 51.12109375 C-66.91128408 61.60539139 -74.63388166 75.3603811 -73.74609375 89.12109375 C-73.10800781 89.23066406 -72.46992187 89.34023437 -71.8125 89.453125 C-70.57306641 89.69095703 -70.57306641 89.69095703 -69.30859375 89.93359375 C-68.07302734 90.15982422 -68.07302734 90.15982422 -66.8125 90.390625 C-66.13058594 90.63167969 -65.44867188 90.87273437 -64.74609375 91.12109375 C-63.39554509 95.17273972 -63.20121443 98.88484893 -63.74609375 103.12109375 C-66.30645973 106.96164271 -69.38388576 107.93140066 -73.74609375 109.12109375 C-73.68781759 121.50477706 -67.81294705 135.72604184 -59.74609375 145.12109375 C-56.56119368 145.39844385 -56.56119368 145.39844385 -53.74609375 143.12109375 C-49.17697425 142.79292495 -45.70002531 143.34886344 -42.12109375 146.24609375 C-40.30750202 150.03814919 -40.73681677 152.08398581 -41.74609375 156.12109375 C-42.39531205 157.79463426 -43.05891535 159.46277892 -43.74609375 161.12109375 C-33.65088515 169.14975377 -19.90991136 176.12109375 -6.74609375 176.12109375 C-6.49859375 175.04859375 -6.25109375 173.97609375 -5.99609375 172.87109375 C-4.70764115 169.00573596 -4.12401337 167.34340929 -0.74609375 165.12109375 C3.1114119 164.5755879 6.54257486 164.88398329 10.25390625 166.12109375 C11.203125 168.40625 11.203125 168.40625 11.94140625 171.18359375 C12.19277344 172.10269531 12.44414062 173.02179688 12.703125 173.96875 C12.88488281 174.67902344 13.06664062 175.38929688 13.25390625 176.12109375 C25.80191201 174.43629137 39.26068223 170.16969039 49.25390625 162.12109375 C49.59105258 158.34606456 49.59105258 158.34606456 48.19140625 156.30859375 C46.75555004 152.95826258 47.38442066 150.5990361 48.25390625 147.12109375 C49.87890625 144.68359375 49.87890625 144.68359375 52.25390625 143.12109375 C57.49001736 142.44233861 60.74043858 143.47906389 65.25390625 146.12109375 C73.98147062 134.91469453 78.88951332 123.28255136 80.25390625 109.12109375 C78.99578125 108.72921875 77.73765625 108.33734375 76.44140625 107.93359375 C73.55452638 106.83309876 72.32610725 106.19985848 70.19140625 103.87109375 C68.93026592 100.1717488 69.22987048 97.87589157 70.25390625 94.12109375 C72.49243585 90.97057061 73.71702383 90.24498969 77.50390625 89.37109375 C78.41140625 89.28859375 79.31890625 89.20609375 80.25390625 89.12109375 C79.94483617 76.67399873 74.72614895 61.96384051 66.0703125 52.8125 C65.47089844 52.25433594 64.87148437 51.69617188 64.25390625 51.12109375 C63.51140625 51.86359375 63.51140625 51.86359375 62.75390625 52.62109375 C59.26884363 54.71213132 56.22806693 54.88001971 52.25390625 54.12109375 C49.82271002 52.25094281 48.61321452 50.8397103 47.25390625 48.12109375 C46.85231791 43.50282789 47.42527249 41.68763197 50.25390625 38.12109375 C48.9359061 34.16709331 46.58733681 33.18285197 43.12890625 31.24609375 C42.50943115 30.89675781 41.88995605 30.54742187 41.25170898 30.1875 C32.53509842 25.44828704 23.30269867 21.71041513 13.25390625 22.12109375 C13.07214844 22.67539062 12.89039063 23.2296875 12.703125 23.80078125 C12.45175781 24.52523437 12.20039063 25.2496875 11.94140625 25.99609375 C11.69777344 26.71539062 11.45414062 27.4346875 11.203125 28.17578125 C10.25390625 30.12109375 10.25390625 30.12109375 7.25390625 32.12109375 C0.4592988 32.66034831 0.4592988 32.66034831 -3.12109375 31.05859375 C-5.4054191 28.33497506 -5.97062804 25.5460673 -6.74609375 22.12109375 C-20.03320052 21.62007162 -33.4650481 28.02907457 -43.74609375 36.12109375 Z " fill="#000100" transform="translate(121.74609375,19.87890625)"/>
<path d="M0 0 C0.75925781 0.66386719 1.51851562 1.32773437 2.30078125 2.01171875 C2.98785156 2.60339844 3.67492187 3.19507813 4.3828125 3.8046875 C15.58153773 14.16406055 24.07900409 29.54959176 25.57421875 44.80078125 C25.62449219 46.20457031 25.62449219 46.20457031 25.67578125 47.63671875 C25.74925781 49.04824219 25.74925781 49.04824219 25.82421875 50.48828125 C25.30078125 53.01171875 25.30078125 53.01171875 23.23342991 54.64562416 C19.69312754 56.2947777 16.67949051 56.42992661 12.85496521 56.39266968 C11.74410595 56.39968964 11.74410595 56.39968964 10.61080509 56.40685141 C8.13415233 56.41879874 5.65805317 56.40934548 3.18139648 56.39990234 C1.40391721 56.40396813 -0.37355954 56.40931006 -2.15103149 56.41583252 C-6.97529332 56.42951005 -11.7993627 56.42420591 -16.6236279 56.41469526 C-21.67063495 56.40710214 -26.71762548 56.4141432 -31.76463318 56.41885376 C-40.23919637 56.42431182 -48.71368113 56.41711784 -57.18823242 56.40283203 C-66.98980349 56.38650017 -76.7911874 56.39179773 -86.59275395 56.40831125 C-95.0056028 56.42191839 -103.41839526 56.42384971 -111.83125156 56.41599524 C-116.85708653 56.41131516 -121.88283347 56.4107032 -126.9086628 56.42060471 C-131.63239571 56.42926104 -136.3558869 56.42327689 -141.07959366 56.40592194 C-142.81463787 56.40195018 -144.54970237 56.40310288 -146.28473854 56.40970993 C-148.65023051 56.41788834 -151.01494419 56.40764939 -153.38038635 56.39266968 C-154.06958603 56.39936184 -154.75878571 56.40605401 -155.46887022 56.41294897 C-158.45279373 56.37620855 -160.48999451 56.12422397 -163.13711452 54.70079994 C-164.69921875 53.01171875 -164.69921875 53.01171875 -165.01171875 49.60546875 C-164.93468031 48.2390854 -164.82887317 46.87411667 -164.69921875 45.51171875 C-164.64016357 44.79411377 -164.5811084 44.07650879 -164.52026367 43.3371582 C-163.90470151 37.10973258 -162.37169117 31.68425697 -159.69921875 26.01171875 C-159.29960937 25.12226563 -158.9 24.2328125 -158.48828125 23.31640625 C-154.55347428 15.33306957 -148.91973749 9.24097418 -142.69921875 3.01171875 C-141.96703125 2.26792969 -141.23484375 1.52414062 -140.48046875 0.7578125 C-103.62719638 -34.37655724 -37.77525023 -31.62999422 0 0 Z " fill="#FDD3AA" transform="translate(239.69921875,324.98828125)"/>
<path d="M0 0 C58.74 0 117.48 0 178 0 C176 32 176 32 175 40 C118.24 40 61.48 40 3 40 C0 6 0 6 0 0 Z " fill="#93D2FD" transform="translate(256,241)"/>
<path d="M0 0 C45.21 0 90.42 0 137 0 C135.80875538 16.67742462 134.38851336 33.33783969 133 50 C89.11 50 45.22 50 0 50 C0.33 48.68 0.66 47.36 1 46 C1.10738184 43.07650676 1.16398524 40.17756865 1.16796875 37.25390625 C1.17129715 36.40577866 1.17462555 35.55765106 1.17805481 34.68382263 C1.18311016 32.89265484 1.18546357 31.10147766 1.18530273 29.31030273 C1.18748932 26.57585083 1.20565993 23.84180245 1.22460938 21.10742188 C1.2275436 19.36458471 1.2295282 17.62174563 1.23046875 15.87890625 C1.23765427 15.0641835 1.24483978 14.24946075 1.25224304 13.41004944 C1.23487215 9.07656681 0.78997506 6.01406997 -1 2 C-0.67 1.34 -0.34 0.68 0 0 Z " fill="#93D2FD" transform="translate(283,421)"/>
<path d="M0 0 C62.7 0 125.4 0 190 0 C190 23.92167134 190 23.92167134 185.25764275 28.78784943 C182.06035722 30.50450344 179.49839203 30.38391445 175.87771606 30.39440918 C174.80088178 30.40354584 174.80088178 30.40354584 173.70229328 30.41286707 C171.29632256 30.42951851 168.89087983 30.42471835 166.48486328 30.41992188 C164.76003468 30.42726102 163.035211 30.4358468 161.31039429 30.44558716 C156.62438393 30.46782925 151.93854928 30.47073246 147.25249338 30.46883965 C143.34093564 30.46872006 139.42941528 30.47727948 135.51786792 30.48561716 C126.28939316 30.50486129 117.06100886 30.50773152 107.83251953 30.50097656 C98.31209609 30.49433611 88.79206013 30.51719796 79.27171528 30.55429029 C71.09833736 30.58497929 62.92508413 30.59634815 54.75164974 30.59245348 C49.86984841 30.59038499 44.9883485 30.59588046 40.10660172 30.62034607 C35.51490092 30.6425972 30.9238302 30.64074913 26.33212662 30.62041855 C24.64790356 30.61700548 22.96363823 30.62211042 21.27947235 30.63640213 C18.97766398 30.6545856 16.6779952 30.64185558 14.37625122 30.62145996 C12.44551349 30.62252872 12.44551349 30.62252872 10.47577095 30.62361908 C5.8692002 29.79711312 4.25786845 28.31694556 1 25 C-1.63733873 17.08798382 0 8.33999734 0 0 Z " fill="#FDD3A9" transform="translate(75,441)"/>
<path d="M0 0 C8.22624296 5.89057755 13.7879642 14.52972058 16.25 24.3125 C17.83065617 36.68955139 16.45680892 47.89603021 8.9375 58.125 C1.19538689 67.28813387 -7.62917037 72.70412726 -19.75 74.3125 C-31.88407918 75.14933305 -42.21010209 71.15854411 -51.71484375 63.7890625 C-58.90828412 57.33542891 -63.29733439 47.79633609 -64.62890625 38.296875 C-65.12817546 25.99230471 -62.21719807 15.64892612 -54.5625 6.0625 C-39.9746719 -9.60121997 -17.70131175 -10.68028726 0 0 Z " fill="#000000" transform="translate(458.75,37.6875)"/>
<path d="M0 0 C8.74068567 6.15541244 15.79898535 14.5315845 18.52734375 25.00390625 C20.73677695 39.00915635 18.99897606 51.27643351 10.625 63 C4.78978007 70.18180915 -3.60448937 75.32723657 -12.93359375 76.30859375 C-23.48661831 76.69683211 -30.92989061 73.94475722 -39.375 67.6875 C-47.79689183 59.06508694 -52.34716919 49.03477153 -52.4375 36.9375 C-52.24282008 25.36080425 -48.88382643 15.31966543 -40.890625 6.734375 C-28.85963248 -4.4668939 -15.14617821 -7.43321675 0 0 Z " fill="#020202" transform="translate(357,315)"/>
<path d="M0 0 C0.79910286 0.00086648 1.59820571 0.00173296 2.42152381 0.0026257 C3.68545671 -0.00183098 3.68545671 -0.00183098 4.97492361 -0.0063777 C7.82080132 -0.0151041 10.66663717 -0.01657626 13.51252723 -0.01806521 C15.543946 -0.02269066 17.5753639 -0.02771494 19.60678077 -0.03311038 C25.14200438 -0.04626406 30.67721584 -0.05268528 36.21245265 -0.05712104 C39.6677216 -0.06004741 43.12298719 -0.06415141 46.57825446 -0.06862521 C57.38031992 -0.08230888 68.18237776 -0.09197088 78.98445129 -0.0958271 C91.46953096 -0.10030807 103.95450116 -0.11785414 116.43954754 -0.1468277 C126.07863418 -0.1684229 135.71768997 -0.17853025 145.35680056 -0.17986822 C151.11882755 -0.18091794 156.88075176 -0.18686094 162.64275336 -0.20468783 C168.06324058 -0.22113081 173.48354736 -0.22334237 178.90405059 -0.21454883 C180.89507697 -0.21377639 182.88611289 -0.2181483 184.87711501 -0.22800708 C187.59273675 -0.24066649 190.30771366 -0.23488251 193.02333045 -0.22442508 C193.81351042 -0.23248148 194.60369039 -0.24053789 195.41781521 -0.24883842 C199.94937822 -0.20795365 202.89547245 0.3002169 206.47639441 3.1430676 C208.47639441 6.1430676 208.47639441 6.1430676 208.47639441 20.1430676 C135.87639441 20.1430676 63.27639441 20.1430676 -11.52360559 20.1430676 C-11.52360559 6.1430676 -11.52360559 6.1430676 -9.08610559 2.8305676 C-7.81766809 1.9952551 -7.81766809 1.9952551 -6.52360559 1.1430676 C-4.74689503 -0.63364295 -2.36702965 0.01262844 0 0 Z " fill="#B9E1FC" transform="translate(246.52360558509827,200.8569324016571)"/>
<path d="M0 0 C1.72527673 -0.00649779 3.45054541 -0.01556209 5.17579651 -0.0269928 C9.84947129 -0.05003177 14.52232728 -0.03538047 19.19597554 -0.01252341 C24.09122809 0.00641881 28.98642661 -0.00476972 33.88169861 -0.01142883 C42.1006264 -0.01776516 50.31922683 0.00047969 58.53808594 0.03320312 C68.03645881 0.07070852 77.53421194 0.06891222 87.03261763 0.04616195 C96.17634299 0.02520607 105.31983957 0.03249 114.4635601 0.0524807 C118.3522337 0.0604615 122.24071351 0.05848149 126.12938118 0.04845619 C130.7088796 0.03789769 135.2876565 0.05205274 139.86704063 0.08519936 C141.54640364 0.09340015 143.22583284 0.09313005 144.90518951 0.08372116 C147.20033889 0.07227542 149.49325183 0.09169795 151.78822327 0.11885071 C153.0714853 0.12203465 154.35474733 0.1252186 155.6768961 0.12849903 C160.24561077 0.96123557 161.87644677 2.51506772 165.14428711 5.76049805 C166.55429375 8.58051132 166.38977162 10.6305706 166.14428711 13.76049805 C164.91328452 16.46870375 163.96006566 18.20864965 161.48284817 19.88440895 C158.24829271 21.09616212 155.43067205 21.01898621 151.97731018 21.02792358 C150.89329222 21.03472025 150.89329222 21.03472025 149.78737491 21.04165423 C147.36534644 21.05431647 144.94354229 21.05267671 142.52148438 21.05102539 C140.78518382 21.05700944 139.04888593 21.06381471 137.31259155 21.07138062 C132.59568677 21.08905882 127.87885454 21.09373672 123.16191983 21.09501219 C119.22542266 21.09691074 115.28894241 21.10426764 111.35245174 21.11135638 C102.06650208 21.12764431 92.78059121 21.1325249 83.49462891 21.13110352 C73.91176285 21.12990147 64.32912178 21.15101495 54.74631268 21.18259084 C46.52115809 21.20872859 38.29607712 21.21947189 30.07088131 21.2181927 C25.157292 21.21768239 20.24390268 21.22340348 15.33035469 21.2445488 C10.71001296 21.26388949 6.0900629 21.26408434 1.46970749 21.24951553 C-0.22622435 21.24742125 -1.92218043 21.25216513 -3.6180706 21.26423645 C-5.93309358 21.2796479 -8.24675909 21.27040949 -10.56175232 21.25497437 C-11.85720695 21.2560639 -13.15266157 21.25715343 -14.4873724 21.25827599 C-18.43988989 20.67416758 -20.08668797 19.59520235 -22.85571289 16.76049805 C-24.09814102 13.03321365 -24.38704747 10.67909054 -23.85571289 6.76049805 C-18.82470642 -1.62475244 -8.46808018 -0.07508941 0 0 Z " fill="#BD392A" transform="translate(98.855712890625,400.239501953125)"/>
<path d="M0 0 C1.34765057 -0.00706605 2.6952932 -0.01581395 4.04292297 -0.02610779 C7.68768847 -0.04853559 11.33201837 -0.04567773 14.97682643 -0.03678632 C18.02595108 -0.03166187 21.07499492 -0.03898079 24.12411124 -0.04625839 C31.32044344 -0.06323652 38.5165635 -0.05971288 45.71289062 -0.04296875 C53.12314103 -0.02604921 60.53280227 -0.04188391 67.94298834 -0.07419163 C74.31861747 -0.10092992 80.69406367 -0.10815216 87.06974322 -0.09967655 C90.87175709 -0.09475962 94.67341662 -0.0968954 98.47538567 -0.11746407 C102.0519199 -0.13588837 105.62761013 -0.1297819 109.20409966 -0.10526466 C111.13242278 -0.09791098 113.06079131 -0.11506001 114.98904419 -0.13308716 C122.0850695 -0.05581507 127.28220367 0.63331773 132.66430664 5.53344727 C136.52456929 10.84130841 135.66430664 13.29714663 135.66430664 20.53344727 C82.86430664 20.53344727 30.06430664 20.53344727 -24.33569336 20.53344727 C-24.33569336 8.84113957 -24.33569336 8.84113957 -20.33569336 4.53344727 C-13.89098661 -0.33797755 -7.87692353 -0.04103554 0 0 Z " fill="#585858" transform="translate(289.335693359375,160.466552734375)"/>
<path d="M0 0 C6.86167932 7.05228152 10.49782667 14.53969695 10.75 24.4375 C10.61182521 33.22887102 8.15239196 39.88978912 2.31640625 46.50390625 C-5.30947739 53.6243707 -13.47984324 55.49589566 -23.75 55.3125 C-32.66129208 54.02336645 -39.31754963 49.4769868 -45.0625 42.6875 C-49.89750664 35.70654521 -51.26693053 28.04122701 -50.3125 19.6875 C-48.71157897 11.58586936 -45.3657439 5.0880384 -38.875 -0.125 C-26.4689482 -8.35683512 -12.5789222 -7.71888407 0 0 Z " fill="#000000" transform="translate(94.75,226.6875)"/>
<path d="M0 0 C3.04159908 1.91454574 5.46170198 4.47329238 8 7 C8.90322998 7.89283691 8.90322998 7.89283691 9.82470703 8.80371094 C14.24418367 13.17518457 18.63228935 17.5768399 23 22 C27.62887003 20.60711814 31.62946533 18.67269471 35.875 16.375 C41.15466053 13.6481576 45.04020062 11.80804012 51 13 C53.8100346 14.79363911 55.50940468 16.01880935 57 19 C57.08984375 20.98828125 57.08984375 20.98828125 56.9375 23.3125 C56.90527344 24.07175781 56.87304688 24.83101562 56.83984375 25.61328125 C54.35471967 32.67565713 45.02705127 35.7341746 38.8125 38.75 C37.81541016 39.24371094 36.81832031 39.73742187 35.79101562 40.24609375 C24.42233757 45.84227378 24.42233757 45.84227378 18 45 C11.35688657 40.4254348 5.75147984 33.93772698 0.05200195 28.23730469 C-1.4541008 26.73342369 -2.96808355 25.23777015 -4.48242188 23.7421875 C-5.4457996 22.78173834 -6.40870809 21.82081823 -7.37109375 20.859375 C-8.23661865 19.99795898 -9.10214355 19.13654297 -9.99389648 18.24902344 C-12.56300833 15.36881676 -12.95079753 13.44282224 -13.375 9.625 C-13 6 -13 6 -10.625 3.125 C-6.86618075 0.08214632 -4.85671488 -0.71951332 0 0 Z " fill="#000201" transform="translate(103,96)"/>
<path d="M0 0 C5.24771995 2.1510456 8.73227527 6.56428541 12 11.0625 C13.8861146 16.72084379 13.91147069 22.79904939 11.5 28.3125 C8.69308993 33.29022182 4.04348761 36.54075619 -1 39.0625 C-7.98729969 39.81497843 -13.60787416 39.74160721 -19.3828125 35.48828125 C-23.7622494 31.6271835 -26.58814345 27.66936492 -27.2578125 21.8046875 C-27.53374037 15.78946002 -26.87260749 10.83428812 -23 6.0625 C-15.78994815 0.18432274 -9.23628402 -2.71977533 0 0 Z " fill="#27547D" transform="translate(442,51.9375)"/>
<path d="M0 0 C5.59325047 2.9611326 9.5927808 7.12597366 12 13 C12.91122863 20.9149743 12.51600534 28.2551275 8 35 C4.27203485 38.63703918 1.47293967 39.80027937 -3.6875 40.5 C-8.43684018 40.42989904 -10.99780711 38.29144685 -14.30078125 35.046875 C-18.85238174 29.56402751 -19.57044358 23.6732724 -19.34765625 16.6796875 C-18.60400907 10.94775534 -16.23399936 6.8125215 -11.875 3.0625 C-7.58412833 -0.01573403 -5.33029847 -0.44419154 0 0 Z " fill="#E17C24" transform="translate(344,331)"/>
<path d="M0 0 C2.8100346 1.79363911 4.50940468 3.01880935 6 6 C6.65271451 10.74616694 6.69934049 13.98277746 3.9375 18 C0.40055558 20.40813237 -1.72563406 21 -6 21 C-10.27358325 19.68505131 -11.64562889 18.57585305 -14 14.75 C-15.19957139 10.2516073 -14.91101752 8.2201637 -13 4 C-9.2754716 -0.27225317 -5.41420966 -1.11565532 0 0 Z " fill="#000000" transform="translate(479,381)"/>
<path d="M0 0 C2.8100346 1.79363911 4.50940468 3.01880935 6 6 C6.65271451 10.74616694 6.69934049 13.98277746 3.9375 18 C0.40055558 20.40813237 -1.72563406 21 -6 21 C-10.27358325 19.68505131 -11.64562889 18.57585305 -14 14.75 C-15.19957139 10.2516073 -14.91101752 8.2201637 -13 4 C-9.2754716 -0.27225317 -5.41420966 -1.11565532 0 0 Z " fill="#000000" transform="translate(49,311)"/>
<path d="M0 0 C2.8100346 1.79363911 4.50940468 3.01880935 6 6 C6.65271451 10.74616694 6.69934049 13.98277746 3.9375 18 C0.40055558 20.40813237 -1.72563406 21 -6 21 C-10.27358325 19.68505131 -11.64562889 18.57585305 -14 14.75 C-15.19957139 10.2516073 -14.91101752 8.2201637 -13 4 C-9.2754716 -0.27225317 -5.41420966 -1.11565532 0 0 Z " fill="#000000" transform="translate(189,221)"/>
<path d="M0 0 C2.8100346 1.79363911 4.50940468 3.01880935 6 6 C6.65271451 10.74616694 6.69934049 13.98277746 3.9375 18 C0.40055558 20.40813237 -1.72563406 21 -6 21 C-10.27358325 19.68505131 -11.64562889 18.57585305 -14 14.75 C-15.19957139 10.2516073 -14.91101752 8.2201637 -13 4 C-9.2754716 -0.27225317 -5.41420966 -1.11565532 0 0 Z " fill="#000000" transform="translate(469,141)"/>
<path d="M0 0 C2.8100346 1.79363911 4.50940468 3.01880935 6 6 C6.65271451 10.74616694 6.69934049 13.98277746 3.9375 18 C0.40055558 20.40813237 -1.72563406 21 -6 21 C-10.27358325 19.68505131 -11.64562889 18.57585305 -14 14.75 C-15.19957139 10.2516073 -14.91101752 8.2201637 -13 4 C-9.2754716 -0.27225317 -5.41420966 -1.11565532 0 0 Z " fill="#000000" transform="translate(269,71)"/>
<path d="M0 0 C2.8100346 1.79363911 4.50940468 3.01880935 6 6 C6.65271451 10.74616694 6.69934049 13.98277746 3.9375 18 C0.40055558 20.40813237 -1.72563406 21 -6 21 C-10.27358325 19.68505131 -11.64562889 18.57585305 -14 14.75 C-15.19957139 10.2516073 -14.91101752 8.2201637 -13 4 C-9.2754716 -0.27225317 -5.41420966 -1.11565532 0 0 Z " fill="#000000" transform="translate(339,41)"/>
<path d="M0 0 C2.91269772 1.8578656 5.42832709 3.85665419 7 7 C7.41204834 11.63554388 6.87454146 14.30416098 4 18 C0.57905881 20.56570589 -2.84773484 20.43708054 -7 20 C-10.38939556 17.86320715 -11.72582557 16.8225233 -13 13 C-13.5 9.6875 -13.5 9.6875 -13 6 C-9.63702621 1.54843354 -5.69565484 -1.3330256 0 0 Z " fill="#070605" transform="translate(178,351)"/>
<path d="M0 0 C2.91269772 1.8578656 5.42832709 3.85665419 7 7 C7.41204834 11.63554388 6.87454146 14.30416098 4 18 C0.57905881 20.56570589 -2.84773484 20.43708054 -7 20 C-10.38939556 17.86320715 -11.72582557 16.8225233 -13 13 C-13.5 9.6875 -13.5 9.6875 -13 6 C-9.63702621 1.54843354 -5.69565484 -1.3330256 0 0 Z " fill="#070605" transform="translate(128,341)"/>
<path d="M0 0 C2.91269772 1.8578656 5.42832709 3.85665419 7 7 C7.41204834 11.63554388 6.87454146 14.30416098 4 18 C0.57905881 20.56570589 -2.84773484 20.43708054 -7 20 C-10.38939556 17.86320715 -11.72582557 16.8225233 -13 13 C-13.5 9.6875 -13.5 9.6875 -13 6 C-9.63702621 1.54843354 -5.69565484 -1.3330256 0 0 Z " fill="#070605" transform="translate(218,321)"/>
<path d="M0 0 C2.91269772 1.8578656 5.42832709 3.85665419 7 7 C7.41204834 11.63554388 6.87454146 14.30416098 4 18 C0.57905881 20.56570589 -2.84773484 20.43708054 -7 20 C-10.38939556 17.86320715 -11.72582557 16.8225233 -13 13 C-13.5 9.6875 -13.5 9.6875 -13 6 C-9.63702621 1.54843354 -5.69565484 -1.3330256 0 0 Z " fill="#26537C" transform="translate(78,241)"/>
<path d="M0 0 C9.9 0 19.8 0 30 0 C30 3.3 30 6.6 30 10 C20.1 10 10.2 10 0 10 C0 6.7 0 3.4 0 0 Z " fill="#3F423E" transform="translate(305,131)"/>
</svg>
