<?xml version="1.0" encoding="UTF-8"?>
<svg version="1.1" xmlns="http://www.w3.org/2000/svg" width="512" height="512">
<path d="M0 0 C0.67534515 -0.00367669 1.35069029 -0.00735338 2.04650044 -0.01114148 C4.32033488 -0.02219667 6.59412364 -0.02602526 8.86798096 -0.02983093 C10.49398952 -0.03609423 12.11999665 -0.04274091 13.7460022 -0.04974365 C18.17176033 -0.06716645 22.59750765 -0.07770902 27.02329159 -0.08594918 C29.78759639 -0.09109693 32.55189783 -0.09717278 35.31620026 -0.10346031 C43.96276218 -0.12251649 52.60931553 -0.13674637 61.25589442 -0.14507228 C71.2410439 -0.15484544 81.22597175 -0.1811652 91.21104312 -0.22157317 C98.92576498 -0.25172325 106.64042327 -0.26654012 114.35520291 -0.26985329 C118.96426546 -0.27220517 123.57309135 -0.28118325 128.18209076 -0.30631447 C132.51923095 -0.3295807 136.85597843 -0.33383435 141.19316483 -0.32355309 C142.78386617 -0.32305725 144.37458675 -0.32939183 145.96522903 -0.34310913 C148.13988722 -0.36081138 150.3131335 -0.35373183 152.48779297 -0.34057617 C153.70380566 -0.34296453 154.91981834 -0.34535288 156.1726799 -0.34781361 C161.34416524 0.42201021 164.41309123 2.9158076 167.81036377 6.77217102 C170.46095315 10.50263014 170.59696467 12.5885298 170.49786377 17.14717102 C171.79035034 17.11575012 171.79035034 17.11575012 173.10894775 17.08369446 C176.34621127 17.01498768 179.58309968 16.96511476 182.82086182 16.92744446 C184.21454191 16.90749107 185.60814007 16.88031783 187.00152588 16.84541321 C196.65243457 16.60994073 204.41830865 16.88189573 212.05645752 23.29560852 C212.67649658 24.03037415 213.29653564 24.76513977 213.93536377 25.52217102 C214.57344971 26.2517804 215.21153564 26.98138977 215.86895752 27.73310852 C220.37770815 34.41514183 220.59163453 42.35802748 219.49786377 50.14717102 C216.30594258 64.15562272 209.3562174 78.79980181 196.98614502 86.76435852 C188.60526835 91.36069198 179.78005618 93.27753511 170.49786377 95.14717102 C170.36251221 95.86260071 170.22716064 96.5780304 170.08770752 97.31513977 C167.94448374 107.23557081 164.07232108 116.13487795 157.37213135 123.84126282 C156.83340897 124.46292831 156.29468658 125.08459381 155.73963928 125.72509766 C155.1249604 126.42902397 155.1249604 126.42902397 154.49786377 127.14717102 C155.26685942 127.14771579 156.03585506 127.14826056 156.82815361 127.14882183 C175.56676481 127.16380967 194.30512996 127.20633737 213.04360771 127.27926159 C222.10553537 127.31386833 231.16731159 127.33926144 240.22930908 127.34272766 C248.130665 127.34577357 256.03175091 127.36634809 263.93300259 127.40769559 C268.11410427 127.42897061 272.29482264 127.44165468 276.47597885 127.43332481 C280.41768094 127.42574955 284.35860859 127.44174679 288.30016899 127.47523117 C289.74079672 127.4834229 291.18150208 127.4832637 292.62212181 127.47376823 C302.15096411 127.41721816 310.10451519 128.25899966 317.402174 134.87311077 C323.29570748 140.9717987 324.96652365 148.27237916 324.86114502 156.48701477 C324.86164352 157.25340775 324.86214203 158.01980072 324.86265564 158.80941772 C324.86033144 160.41869215 324.85070168 162.02797135 324.83404541 163.63716125 C324.81045657 166.07508018 324.81349704 168.51190114 324.82012939 170.9499054 C324.79223632 186.91935602 322.21250703 198.94514579 310.97052002 210.88154602 C305.61283634 215.79064007 298.00309873 221.14717102 290.49786377 221.14717102 C290.49786377 297.37717102 290.49786377 373.60717102 290.49786377 452.14717102 C298.08786377 452.14717102 305.67786377 452.14717102 313.49786377 452.14717102 C324.79516107 457.79581967 324.79516107 457.79581967 327.49786377 461.14717102 C328.03411377 461.78654602 328.57036377 462.42592102 329.12286377 463.08467102 C333.3522161 469.42869952 332.87015366 476.10458649 332.86846924 483.43940735 C332.87284442 485.57522741 332.9092085 487.70898128 332.94708252 489.84443665 C332.95295154 491.21487235 332.95692036 492.58531779 332.95880127 493.95576477 C332.96701904 495.19125061 332.97523682 496.42673645 332.98370361 497.69966125 C332.24288582 502.9564894 329.78943247 506.00936049 325.87286377 509.45967102 C321.73421974 512.40028652 318.5551629 512.29079688 313.61601639 512.2813921 C312.37429657 512.28492044 312.37429657 512.28492044 311.10749149 512.28852007 C308.30345962 512.29523449 305.49947383 512.29475111 302.69543457 512.29434204 C300.67683171 512.29763914 298.65822952 512.30136438 296.63962817 512.30548352 C291.0689584 512.31552906 285.4982994 512.3192244 279.92762184 512.32187283 C273.92884485 512.32576831 267.93007645 512.33534713 261.93130493 512.34408569 C248.11838797 512.36293571 234.30547037 512.37310918 220.49254421 512.38154637 C213.66944683 512.38575056 206.84635033 512.39097285 200.0232537 512.3962309 C176.67559589 512.41412223 153.32793784 512.42911919 129.9802742 512.43655109 C128.51406218 512.43702585 127.04785016 512.43750174 125.58163814 512.43797876 C124.4909538 512.43833332 124.4909538 512.43833332 123.37823543 512.43869505 C119.69415321 512.43989627 116.01007099 512.44111171 112.32598877 512.44233704 C111.59486618 512.44257719 110.86374358 512.44281734 110.11046576 512.44306476 C86.39985997 512.45095962 62.68930418 512.47439472 38.97872022 512.50689298 C13.92154571 512.54117433 -11.13559954 512.56090065 -36.1927979 512.56419533 C-38.94238743 512.56461289 -41.69197695 512.56509245 -44.44156647 512.56561852 C-45.45713576 512.5658033 -45.45713576 512.5658033 -46.49322161 512.56599182 C-57.39889557 512.56832595 -68.30451156 512.58399773 -79.21016485 512.60446036 C-90.16790847 512.62469486 -101.12559177 512.62987294 -112.08335206 512.62068973 C-118.02226211 512.61613017 -123.96098356 512.6181272 -129.89986801 512.63745117 C-135.33305203 512.65497754 -140.7659084 512.65417115 -146.1990954 512.63855388 C-148.1681777 512.63616173 -150.13728208 512.6405838 -152.10633048 512.65238253 C-154.77693064 512.6673981 -157.44635425 512.65790104 -160.11692429 512.64215565 C-160.88671978 512.65237785 -161.65651526 512.66260006 -162.44963789 512.67313203 C-167.61521223 512.6063702 -170.51622978 511.39181323 -174.50213623 508.14717102 C-180.17259594 501.71043298 -179.75155327 496.41846258 -179.79730225 488.19111633 C-179.80877319 486.75579431 -179.82914721 485.32051328 -179.85882568 483.88545227 C-180.05377511 474.45817734 -180.00391659 467.39151309 -173.60760498 459.94013977 C-172.97467529 459.41033508 -172.34174561 458.8805304 -171.68963623 458.33467102 C-171.06444092 457.79197571 -170.43924561 457.2492804 -169.79510498 456.69013977 C-158.83419009 449.31439636 -152.60843222 452.14717102 -137.50213623 452.14717102 C-137.50213623 375.91717102 -137.50213623 299.68717102 -137.50213623 221.14717102 C-139.48213623 220.81717102 -141.46213623 220.48717102 -143.50213623 220.14717102 C-154.53712535 215.76448031 -163.61329162 206.82733473 -168.42791748 196.08076477 C-171.06329421 189.49856791 -171.66877327 183.06582167 -171.74041748 176.00263977 C-171.74848923 175.2334169 -171.75656097 174.46419403 -171.76487732 173.67166138 C-171.77864614 172.05048326 -171.78940016 170.42927702 -171.79730225 168.80805969 C-171.80882121 167.16441743 -171.82927194 165.52081255 -171.85882568 163.87739563 C-172.05610114 152.88397271 -171.51632023 145.28651126 -165.37713623 135.89717102 C-157.14150636 128.01961202 -148.47749633 127.41542853 -137.5055542 127.48774719 C-136.01639979 127.47927953 -134.52725646 127.46862882 -133.03813171 127.45597839 C-129.02423266 127.4279894 -125.01087086 127.43027545 -120.9969039 127.43827224 C-116.7914665 127.44141052 -112.58619629 127.41632445 -108.38082886 127.39431763 C-100.4302466 127.35695668 -92.47983536 127.34473436 -84.52917397 127.34169322 C-75.47220048 127.33699374 -66.41539738 127.30404195 -57.35849929 127.26879537 C-38.73972797 127.19696588 -20.12103684 127.16036091 -1.50213623 127.14717102 C-1.98256882 126.61353943 -2.4630014 126.07990784 -2.95799255 125.53010559 C-3.90349724 124.4675354 -3.90349724 124.4675354 -4.86810303 123.38349915 C-5.49291061 122.68486755 -6.1177182 121.98623596 -6.76145935 121.26643372 C-9.2101099 118.28521771 -10.78497176 115.16576967 -12.31463623 111.64717102 C-12.60016357 111.03486633 -12.88569092 110.42256165 -13.17987061 109.79170227 C-16.49087846 102.46292851 -17.80222528 95.51340213 -17.79266357 87.53144836 C-17.7993808 86.71086441 -17.80609802 85.89028046 -17.8130188 85.04483032 C-17.83187365 82.35752664 -17.83591569 79.67047404 -17.83807373 76.98310852 C-17.8445071 75.10319417 -17.85123585 73.22328082 -17.85824585 71.34336853 C-17.87018488 67.41466448 -17.87392983 63.48604817 -17.8727417 59.55732727 C-17.87253795 54.52909765 -17.89991288 49.50142964 -17.93428612 44.47333336 C-17.95653699 40.59566164 -17.9605799 36.71812591 -17.95952225 32.84039688 C-17.96187813 30.98647235 -17.97070093 29.13254406 -17.98618698 27.27868271 C-18.00582371 24.68675584 -18.00001998 22.09605194 -17.98797607 19.50410461 C-17.99921509 18.74343185 -18.0104541 17.98275909 -18.02203369 17.19903564 C-17.96112838 12.03060247 -16.74679703 9.13472025 -13.50213623 5.14717102 C-8.71914819 0.93358632 -6.33794751 0.02230136 0 0 Z M170.49786377 35.14717102 C170.49786377 48.67717102 170.49786377 62.20717102 170.49786377 76.14717102 C180.95770412 74.24538187 187.61745388 72.45417526 194.11505127 64.28779602 C198.42787139 57.611453 202.75388038 48.29011019 201.49786377 40.14717102 C199.93392394 37.42462018 199.93392394 37.42462018 197.49786377 35.14717102 C194.5123035 34.46122478 194.5123035 34.46122478 191.20098877 34.65888977 C190.11463135 34.67137756 189.02827393 34.68386536 187.90899658 34.69673157 C185.84923584 34.7650116 185.84923584 34.7650116 183.74786377 34.83467102 C179.37536377 34.93779602 175.00286377 35.04092102 170.49786377 35.14717102 Z " fill="#010101" transform="translate(179.50213623046875,-0.1471710205078125)"/>
<path d="M0 0 C0.44730469 0.38671875 0.89460938 0.7734375 1.35546875 1.171875 C2.61416392 2.25612414 3.87606593 3.33665817 5.140625 4.4140625 C6.5805074 5.64219749 8.010981 6.88136805 9.4375 8.125 C19.40805544 15.42052837 30.03500236 17.09934138 42.1953125 15.7578125 C52.68278848 13.60766052 61.60238033 7.44050442 69 0 C69.67482422 0.76183594 69.67482422 0.76183594 70.36328125 1.5390625 C79.24264829 11.04123084 89.27201721 15.77164898 102.1875 16.375 C115.65678542 16.03591309 126.74803575 10.67387793 136 1 C138.82614225 2.29352715 140.92359131 3.69392866 143.1875 5.8125 C152.43541786 13.89454787 162.13289325 16.58313098 174.26953125 16.375 C184.81188916 15.31524465 193.20679791 10.96765102 201 4 C202.5159375 2.7934375 202.5159375 2.7934375 204.0625 1.5625 C204.701875 1.046875 205.34125 0.53125 206 0 C206.639375 0.86625 207.27875 1.7325 207.9375 2.625 C214.80001738 10.75267421 224.75999433 15.13367453 235.19921875 16.3828125 C251.1235334 16.95908444 262.534715 10.24557383 274 0 C274.41507812 0.49628906 274.83015625 0.99257812 275.2578125 1.50390625 C282.39483557 9.37254883 292.48120943 15.36049169 303.21484375 16.2734375 C315.97031219 16.62143559 326.20132188 13.48774386 336 5 C337.16662272 4.04161317 338.33328592 3.0832756 339.5 2.125 C340.325 1.42375 341.15 0.7225 342 0 C342.65742187 0.76183594 342.65742187 0.76183594 343.328125 1.5390625 C350.08013724 8.86746602 357.86110857 12.34444343 367 16 C367 92.23 367 168.46 367 247 C355.78 247 344.56 247 333 247 C332.9906543 241.46275146 332.98130859 235.92550293 332.97167969 230.22045898 C332.93794195 211.94384544 332.88261238 193.66734467 332.81609726 175.39082241 C332.77629044 164.30766495 332.74390627 153.22457866 332.72900391 142.14135742 C332.71599594 132.48105114 332.68905305 122.82090136 332.64538693 113.16068321 C332.62275299 108.045796 332.60709049 102.93110194 332.60811615 97.8161602 C332.60886161 93.0004673 332.59095642 88.18520172 332.55883217 83.36961937 C332.55032305 81.60360411 332.54859011 79.83754098 332.55419731 78.07151413 C332.56084367 75.65622259 332.54290294 73.24228812 332.51898193 70.82713318 C332.52674235 70.13158858 332.53450277 69.43604399 332.54249835 68.71942228 C332.4484954 63.34179643 331.00074679 60.31862259 328 56 C322.97012643 51.72040961 316.92171095 51.41722241 310.58984375 51.46655273 C309.68469025 51.45793716 308.77953674 51.44932159 307.84695435 51.44044495 C304.87683923 51.4178785 301.90767471 51.42450616 298.9375 51.43359375 C296.86059287 51.42835441 294.78368813 51.42207679 292.70678711 51.41481018 C288.36267872 51.40442344 284.01889827 51.4089433 279.67480469 51.42358398 C274.11974941 51.44077757 268.56572795 51.41725982 263.01078796 51.38209438 C258.7246623 51.36009099 254.43878294 51.36156889 250.15261841 51.3698597 C248.1049791 51.37067743 246.05732139 51.36384817 244.00973511 51.34908867 C241.14256966 51.33158646 238.27724893 51.34623191 235.41015625 51.36889648 C234.5725174 51.35720428 233.73487854 51.34551208 232.87185669 51.33346558 C226.92558973 51.42866676 222.45335664 52.94277935 218 57 C214.85577053 61.06295064 214.5670933 64.6519325 214.60127258 69.62458801 C214.59462576 70.38431732 214.58797893 71.14404663 214.58113068 71.92679805 C214.56250436 74.4680185 214.56510568 77.00876797 214.56762695 79.55004883 C214.55860956 81.37343002 214.5482824 83.19680514 214.53674316 85.02017212 C214.50914439 89.96808132 214.49988472 94.91587558 214.49388909 99.86385179 C214.48451294 105.03555759 214.45831016 110.20717729 214.43388367 115.37882996 C214.39019412 125.17116135 214.36166221 134.96347605 214.33856028 144.75587529 C214.31152179 155.90455896 214.26760944 167.05315612 214.22227156 178.20177805 C214.1293901 201.13447181 214.05772537 224.06719271 214 247 C213.15424314 247.00054477 212.30848627 247.00108953 211.43710041 247.00165081 C190.86431269 247.01661373 170.29174181 247.05904075 149.7190752 247.13209057 C139.77029274 247.16675359 129.82164902 247.19209781 119.87280273 247.19555664 C111.2020477 247.19859471 102.53153968 247.21906397 93.86088008 247.26052457 C89.26914549 247.28187061 84.67776222 247.294447 80.08597755 247.28615379 C75.76429622 247.27862372 71.44332731 247.29439335 67.12177658 247.32806015 C65.5355292 247.33630611 63.94921113 247.33602838 62.36297035 247.32659721 C60.1962429 247.31498979 58.03185609 247.33406532 55.86531067 247.36076355 C54.65315289 247.36352893 53.44099512 247.36629431 52.19210529 247.36914349 C48.09469505 248.17891563 46.58700083 249.79391641 44 253 C43.4669501 256.08169472 44.1820725 257.88165141 45 261 C48.48015898 263.32010599 49.80739096 263.25012036 53.91496086 263.25053978 C55.15793934 263.25553848 56.40091781 263.26053717 57.6815623 263.26568735 C59.06846031 263.26114643 60.45535776 263.25642976 61.84225464 263.2515564 C63.30971078 263.25369374 64.77716586 263.25671826 66.24461854 263.26055682 C70.28717848 263.26862074 74.32964629 263.26427874 78.37220597 263.25803804 C82.72812498 263.25351554 87.08402609 263.26053853 91.43994141 263.26634216 C98.99133817 263.27498616 106.54271149 263.27678066 114.0941124 263.27439499 C125.01769979 263.27130224 135.9412352 263.28291891 146.86480953 263.29894479 C164.59362488 263.32492436 182.32244028 263.3449342 200.05126953 263.35839844 C201.11292033 263.35920881 202.17457114 263.36001918 203.26839317 263.3608541 C218.3364962 263.37207689 233.40459552 263.37735683 248.47270216 263.38024123 C250.06426879 263.38054721 250.06426879 263.38054721 251.68798828 263.38085938 C252.74774352 263.38105931 253.80749876 263.38125925 254.89936779 263.38146524 C272.55821886 263.38519548 290.21701362 263.40426258 307.87583649 263.43595374 C318.77408677 263.45489308 329.67219286 263.46081463 340.57045509 263.45013656 C348.03617161 263.44382757 355.50178458 263.45182934 362.96747838 263.47119068 C367.2779701 263.48189603 371.58821051 263.4859849 375.89870071 263.47271919 C379.84288176 263.46070241 383.78659074 263.46696445 387.73073055 263.48791118 C389.15938395 263.49222738 390.58807697 263.48974587 392.01670276 263.47987001 C393.95555679 263.46743754 395.89452788 263.48191216 397.83335686 263.49777794 C399.45023488 263.49843004 399.45023488 263.49843004 401.0997771 263.49909532 C404.71064712 264.12273762 406.38481362 265.48508497 409 268 C412.2829526 274.5659052 410 282.65909482 410 290 C252.26 290 94.52 290 -68 290 C-68 270 -68 270 -64 265 C-61.03236827 263.51618414 -58.35489455 263.86703039 -55.04345703 263.8581543 C-53.97001038 263.85294266 -53.97001038 263.85294266 -52.87487793 263.84762573 C-51.31869409 263.84026688 -49.76249975 263.83492218 -48.20630264 263.83133507 C-45.74339503 263.82417685 -43.28068749 263.80851552 -40.81784058 263.78999329 C-33.81462336 263.73749136 -26.81151529 263.6895366 -19.80810547 263.67407227 C-15.52620353 263.66399654 -11.24480398 263.63468313 -6.96310043 263.59275246 C-5.33086826 263.58043157 -3.69856515 263.57532319 -2.06628799 263.57755089 C0.21791022 263.57990127 2.50066475 263.55776051 4.78466797 263.5300293 C6.08435516 263.52416306 7.38404236 263.51829681 8.72311401 263.51225281 C12.05580967 263.2521045 12.05580967 263.2521045 14.431427 261.18952942 C16.66877999 258.06646777 16.34096843 255.75065273 16 252 C15.67 251.01 15.34 250.02 15 249 C2.04860772 245.76215193 -11.65515788 247.37069006 -25 247 C-25 170.77 -25 94.54 -25 16 C-21.04 14.35 -17.08 12.7 -13 11 C-8.13100385 7.7082843 -4.01521081 4.26616149 0 0 Z " fill="#FDDEB1" transform="translate(85,205)"/>
<path d="M0 0 C1.42646677 -0.00706514 2.85292605 -0.01581266 4.27937317 -0.02610779 C8.13900047 -0.04854555 11.99821661 -0.04567533 15.85788417 -0.03678632 C19.08595083 -0.03166383 22.31394109 -0.03897921 25.54199988 -0.04625839 C33.16022977 -0.06323966 40.77825927 -0.05970964 48.39648438 -0.04296875 C56.24297525 -0.02604868 64.08890975 -0.04188406 71.93533987 -0.07419163 C78.68463651 -0.10092389 85.43376033 -0.10815377 92.18310457 -0.09967655 C96.20867646 -0.09475792 100.23391369 -0.09690483 104.25944328 -0.11746407 C108.04607985 -0.13587874 111.83191888 -0.12979317 115.61851311 -0.10526466 C117.00356655 -0.10027495 118.38868138 -0.10369869 119.77368546 -0.11641312 C127.64264442 -0.18290468 133.93481245 -0.01028274 139.92993164 5.53344727 C143.77575338 10.46398796 145.05154662 14.04880926 145.07710266 20.22451782 C145.08783562 22.00340897 145.08783562 22.00340897 145.0987854 23.8182373 C145.1014743 25.12111694 145.10416321 26.42399658 145.10693359 27.76635742 C145.11319964 29.15119599 145.11984657 30.53603287 145.12684631 31.92086792 C145.14787801 36.47140332 145.15825006 41.021939 145.16821289 45.57250977 C145.17226123 47.14083244 145.17637818 48.70915495 145.18056297 50.27747726 C145.19961523 57.64846842 145.21384437 65.01944957 145.22217494 72.39046061 C145.23193819 80.88817441 145.25823352 89.38562709 145.29867584 97.88324893 C145.32888598 104.45749554 145.34364858 111.03166753 145.34695596 117.60598218 C145.3493015 121.5293565 145.35819644 125.45245189 145.38341713 129.3757515 C145.40678799 133.07108739 145.41089533 136.76596251 145.40065575 140.4613533 C145.39992842 142.4527711 145.41895759 144.44416597 145.4387207 146.43548584 C145.39042405 154.80169956 144.58207318 161.78519674 138.55493164 167.97094727 C133.75723311 170.8267202 129.37287095 171.78299708 123.82667542 171.8008728 C122.62531952 171.80940277 121.42396362 171.81793274 120.186203 171.82672119 C118.88161636 171.82581482 117.57702972 171.82490845 116.23291016 171.82397461 C114.83453006 171.82996395 113.43615326 171.83677043 112.03778076 171.84432983 C108.25057896 171.86195328 104.46346761 171.86668359 100.67622876 171.86796141 C98.30787996 171.86938534 95.93955398 171.87365947 93.57121086 171.87895584 C85.30266744 171.89744218 77.0341884 171.90562798 68.765625 171.90405273 C61.0674815 171.90285087 53.36961816 171.92396548 45.67154557 171.95554006 C39.05309757 171.98171569 32.43474103 171.99241953 25.81624168 171.99114192 C21.86728327 171.99063277 17.91857411 171.99628981 13.96966743 172.01749802 C10.25539911 172.03690299 6.54161732 172.0369899 2.82733154 172.02246475 C0.82125993 172.01938671 -1.18481185 172.03603619 -3.19081116 172.05334473 C-11.03977791 171.99866433 -15.94291513 171.4014967 -21.81225586 165.90063477 C-25.21907334 161.41303381 -26.19483504 159.3697086 -26.22396851 153.76608276 C-26.23256897 152.53801407 -26.24116943 151.30994537 -26.25003052 150.04466248 C-26.25446594 148.6761784 -26.25876428 147.30769388 -26.26293945 145.93920898 C-26.27083981 144.50363465 -26.27910872 143.06806231 -26.28771973 141.63249207 C-26.3139553 136.9093923 -26.32925241 132.18628361 -26.34350586 127.46313477 C-26.34886558 125.8369051 -26.35424309 124.2106755 -26.35963821 122.58444595 C-26.38127234 115.81777909 -26.40000741 109.05111463 -26.4112606 102.28442192 C-26.42748749 92.590744 -26.46062818 82.89746773 -26.51766145 73.20394123 C-26.55640042 66.38684712 -26.57589817 59.56986024 -26.58118117 52.75265896 C-26.58483026 48.68224274 -26.59680317 44.61225474 -26.62928391 40.54195786 C-26.65943332 36.70868584 -26.66565238 32.87609955 -26.65390015 29.04273415 C-26.65367996 27.63991676 -26.66193992 26.23706694 -26.67955399 24.83436012 C-26.77297383 16.96278098 -26.80802404 10.41240072 -21.07006836 4.53344727 C-14.80719969 -0.73342247 -7.85937069 -0.04096154 0 0 Z " fill="#020202" transform="translate(120.070068359375,255.466552734375)"/>
<path d="M0 0 C1.14352654 -0.01000202 1.14352654 -0.01000202 2.31015462 -0.02020609 C4.87393133 -0.03649539 7.43619254 -0.01703993 9.99993134 0.00215912 C11.8527247 -0.00216832 13.70551403 -0.0086829 15.55829287 -0.01720095 C20.65682124 -0.03423609 25.75486048 -0.01998078 30.85336328 -0.00068617 C36.34901117 0.01470808 41.84459785 0.00134743 47.34024811 -0.00843048 C58.10904275 -0.02297649 68.87764924 -0.01070339 79.64642608 0.01068276 C92.1798321 0.03466218 104.71319471 0.03298027 117.24661857 0.03037685 C140.28118238 0.02657279 163.31565898 0.04953635 186.35018785 0.08472433 C207.38364337 0.11671828 228.41701422 0.128768 249.45049286 0.12264252 C250.8010185 0.12225567 252.15154413 0.12186922 253.50206977 0.12148315 C254.50357502 0.12119613 254.50357502 0.12119613 255.52531269 0.12090331 C258.88618867 0.11994899 262.24706467 0.11903462 265.60794067 0.11816406 C266.27097197 0.11799027 266.93400327 0.11781647 267.61712642 0.11763741 C285.18596955 0.11328342 302.75480362 0.12337108 320.32364035 0.13800192 C322.19658528 0.13956115 322.19658528 0.13956115 324.10736749 0.14115188 C326.61537068 0.14324282 329.12337385 0.14535379 331.63137701 0.14748505 C340.37349952 0.15438798 349.11561001 0.15504874 357.85773468 0.1536026 C368.50746472 0.15216462 379.15711862 0.16182226 389.80682337 0.18554896 C395.24332419 0.1974295 400.67971872 0.20452045 406.11623192 0.1987114 C411.089085 0.19355468 416.06171318 0.20217423 421.03452772 0.221986 C422.83727547 0.22674131 424.64004502 0.22640609 426.44278961 0.22057563 C428.88648194 0.21343357 431.32942094 0.22461183 433.77305603 0.24050903 C434.83173623 0.23083133 434.83173623 0.23083133 435.9118039 0.22095811 C440.22586811 0.27391695 442.95015023 0.98694744 446.38652802 3.62361908 C448.74556202 8.34168709 447.69880614 15.41887937 447.73662567 20.6609726 C447.75310505 22.3320135 447.78028814 24.00298628 447.81865692 25.67366791 C448.07008822 36.68745212 447.86851673 44.28171057 440.39434052 52.92830658 C433.94523076 58.30702468 428.4161538 61.23297749 419.86309052 60.89705658 C411.59361947 59.9840235 405.95479502 55.69457685 400.38652802 49.62361908 C400.38652802 48.96361908 400.38652802 48.30361908 400.38652802 47.62361908 C399.60277802 47.31424408 398.81902802 47.00486908 398.01152802 46.68611908 C395.38652802 45.62361908 395.38652802 45.62361908 393.38652802 44.62361908 C388.32137041 44.1187586 383.85240919 43.93379265 379.19902802 46.12361908 C376.85061286 48.21109922 374.73591945 50.35151357 372.57402802 52.62361908 C367.11062564 58.16980028 361.75993287 60.75706938 353.94902802 61.18611908 C345.32107715 60.80105014 339.48905589 56.99780054 333.57402802 50.93611908 C332.54342255 49.7856308 332.54342255 49.7856308 331.49199677 48.61190033 C327.13898871 44.50117473 322.56053173 44.17037121 316.80840302 44.31502533 C311.51758095 44.98917846 308.51918881 48.45831061 305.01152802 52.12361908 C299.67318956 57.63950759 293.04699822 60.58233969 285.38652802 61.06111908 C278.43315368 60.96917363 271.43824176 57.6184686 266.49980927 52.77205658 C265.53757853 51.58505279 264.59097425 50.3851327 263.66387177 49.17049408 C261.1011648 46.06703243 258.15006919 44.84922525 254.21855927 44.34627533 C249.14029079 44.13361752 245.82319528 44.98274571 241.38652802 47.62361908 C240.39652802 47.95361908 239.40652802 48.28361908 238.38652802 48.62361908 C238.11840302 49.20111908 237.85027802 49.77861908 237.57402802 50.37361908 C234.85102546 55.53299235 229.89275198 58.33198088 224.51934052 60.11971283 C217.58131533 61.75891658 210.73422794 60.84217116 204.38652802 57.62361908 C201.47256141 55.52556312 198.76891189 53.3175954 196.38652802 50.62361908 C196.38652802 49.96361908 196.38652802 49.30361908 196.38652802 48.62361908 C190.77973778 45.60457818 184.81283959 43.27993575 178.38652802 44.62361908 C173.97277059 46.83049779 170.34308321 49.61800977 166.94902802 53.18611908 C161.83244232 58.05311523 155.98421841 60.89675058 148.88652802 61.24861908 C139.4870248 60.74483753 133.43326057 56.0440647 127.17949677 49.42830658 C123.55825245 45.783394 120.03908613 44.46738374 115.01152802 44.12361908 C108.0465175 44.39240304 103.54611244 48.28256236 98.94902802 53.18611908 C93.83278437 58.47559897 88.28969077 60.7926844 80.94902802 61.18611908 C72.32107715 60.80105014 66.48905589 56.99780054 60.57402802 50.93611908 C59.54342255 49.7856308 59.54342255 49.7856308 58.49199677 48.61190033 C53.92603383 44.30007262 49.05053885 44.17794122 43.03496552 44.31502533 C37.57686736 44.95099842 34.78536641 48.06405947 31.51152802 52.12361908 C27.51815567 57.03367584 21.56154572 60.08737827 15.25762177 60.89705658 C7.33391362 61.22774103 1.20697361 59.12090669 -4.69159698 53.72127533 C-10.40853282 47.46387287 -13.07989082 41.91243263 -13.08222198 33.33846283 C-13.08983551 32.55975327 -13.09744904 31.7810437 -13.10529327 30.97873688 C-13.11604922 29.34078412 -13.11896578 27.70276303 -13.11444855 26.06478119 C-13.11347325 23.56435278 -13.15520103 21.06696683 -13.19940948 18.56697845 C-13.20461512 16.96997961 -13.2073047 15.37297016 -13.20722198 13.77596283 C-13.22361725 13.03313553 -13.24001251 12.29030823 -13.2569046 11.52497101 C-13.20781871 7.82719375 -12.81588402 5.88829536 -10.55086184 2.92652655 C-6.96572092 0.1157836 -4.37234567 -0.07605921 0 0 Z " fill="#F24234" transform="translate(38.61347198486328,144.37638092041016)"/>
<path d="M0 0 C28.05 0 56.1 0 85 0 C85 59.07 85 118.14 85 179 C56.95 179 28.9 179 0 179 C0 119.93 0 60.86 0 0 Z " fill="#9F512C" transform="translate(316,273)"/>
<path d="M0 0 C50.82 0 101.64 0 154 0 C154 8.58 154 17.16 154 26 C151.04699951 26.01458252 148.09399902 26.02916504 145.05151367 26.04418945 C135.308435 26.09446574 125.56551733 26.16104828 115.82259655 26.23571491 C109.91389001 26.28049392 104.00525363 26.3197334 98.09643555 26.34643555 C92.39696822 26.3723934 86.69776979 26.4127423 80.9984684 26.46318626 C78.82114309 26.47990596 76.64377121 26.49138834 74.46639061 26.49761391 C71.42286175 26.50719956 68.38002884 26.53519232 65.33666992 26.56762695 C63.9782901 26.56547432 63.9782901 26.56547432 62.59246826 26.5632782 C61.76375717 26.57581635 60.93504608 26.58835449 60.08122253 26.60127258 C59.00134205 26.60818603 59.00134205 26.60818603 57.89964581 26.61523914 C55.39030186 27.12349038 54.511907 27.95463276 53 30 C52.26145227 35.3923283 52.26145227 35.3923283 54.44610596 40.09307861 C58.26576699 42.94511287 61.70572291 42.57211801 66.35839844 42.54589844 C67.30507889 42.55623611 68.25175934 42.56657379 69.22712708 42.57722473 C72.35471548 42.60671102 75.48165837 42.60815316 78.609375 42.609375 C80.77843464 42.62435268 82.94748286 42.64107895 85.11651611 42.65948486 C90.82440711 42.70321666 96.53214425 42.7231705 102.24017334 42.73822021 C108.06515625 42.7577702 113.88997248 42.7997426 119.71484375 42.83984375 C131.14317783 42.91520911 142.57147473 42.96546236 154 43 C154.10022677 47.33750635 154.1720945 51.67436737 154.21972656 56.01269531 C154.23961976 57.48286709 154.26674472 58.95296215 154.30175781 60.42285156 C154.61487565 73.92375615 152.60412747 85.17680316 144 96 C143.28263672 96.92232422 143.28263672 96.92232422 142.55078125 97.86328125 C136.26669033 105.00213517 126.34205729 109.79403786 117 111 C114.31370557 111.10512966 111.65228283 111.16707901 108.96606445 111.17700195 C108.18306473 111.18357315 107.400065 111.19014435 106.59333801 111.19691467 C104.01665124 111.21653251 101.44002245 111.22828497 98.86328125 111.23828125 C97.97784323 111.24235678 97.0924052 111.2464323 96.18013573 111.25063133 C91.49257012 111.27144389 86.80503336 111.28576588 82.11743164 111.29516602 C77.30040842 111.3062154 72.48384899 111.34061218 67.66698933 111.38033772 C63.94096576 111.40660305 60.21505108 111.41486665 56.4889431 111.41844749 C54.71449848 111.42328848 52.94005789 111.43483058 51.16570473 111.45348549 C35.26170336 111.6102932 23.4582742 108.79822363 11.3125 97.875 C0.41958168 86.42476958 -0.31128058 72.31007101 -0.125 57.4375 C-0.11494735 56.03320953 -0.10582555 54.62891207 -0.09765625 53.22460938 C-0.07423093 49.81622515 -0.04142746 46.408205 0 43 C1.23302856 42.98598145 1.23302856 42.98598145 2.4909668 42.97167969 C6.22374962 42.91792129 9.95528681 42.83428169 13.6875 42.75 C15.62786133 42.72873047 15.62786133 42.72873047 17.60742188 42.70703125 C19.47817383 42.65869141 19.47817383 42.65869141 21.38671875 42.609375 C22.53358154 42.58842773 23.68044434 42.56748047 24.86206055 42.54589844 C28.61148681 41.89362137 30.30954885 40.64379771 33 38 C33.92485966 35.00713118 33.45860943 33.21026599 33 30 C30.68889955 27.54594128 29.23944195 27.03322248 25.88378906 26.56762695 C24.68979492 26.54144287 23.49580078 26.51525879 22.265625 26.48828125 C20.97011719 26.45283203 19.67460937 26.41738281 18.33984375 26.38085938 C16.97656774 26.35776133 15.61328636 26.33497886 14.25 26.3125 C12.87106138 26.27931352 11.4921535 26.24482262 10.11328125 26.20898438 C6.74247731 26.12648218 3.37125132 26.06156567 0 26 C0 17.42 0 8.84 0 0 Z " fill="#F4F4F4" transform="translate(179,17)"/>
<path d="M0 0 C44.88 0 89.76 0 136 0 C136 33.99 136 67.98 136 103 C91.12 103 46.24 103 0 103 C0 69.01 0 35.02 0 0 Z " fill="#02A8F3" transform="translate(111,273)"/>
<path d="M0 0 C0.495 0.99 0.495 0.99 1 2 C9.25 2 17.5 2 26 2 C26.99 3.98 27.98 5.96 29 8 C31.69482403 9.34741201 33.77290257 9.12612034 36.79191303 9.12749195 C38.03290046 9.1304996 39.27388789 9.13350725 40.552481 9.13660604 C41.9423208 9.13491826 43.33216051 9.13314719 44.72200012 9.13130188 C46.18859227 9.1330029 47.65518395 9.13515206 49.12177485 9.13771313 C52.32011077 9.14232118 55.51842731 9.14372885 58.71676636 9.14274788 C63.91984319 9.141159 69.1229007 9.1463488 74.32597351 9.15237427 C81.88010973 9.16049668 89.43424256 9.16543433 96.98838234 9.16866493 C108.9238846 9.17415434 120.85935817 9.19104435 132.79484558 9.21000671 C136.8755197 9.21636383 140.9561939 9.2226722 145.0368681 9.22898388 C146.56668097 9.23135952 146.56668097 9.23135952 148.12739915 9.23378316 C159.74354073 9.25172916 171.35968434 9.26795112 182.97583008 9.28295898 C184.56915453 9.28502279 184.56915453 9.28502279 186.19466736 9.28712829 C203.41152095 9.30906242 220.62836719 9.3198152 237.84523229 9.32732973 C255.50857666 9.33539471 273.17185785 9.35866525 290.83516616 9.3952834 C301.73718085 9.41733648 312.63906572 9.42696449 323.5411016 9.42078307 C331.01010459 9.41761366 338.47899655 9.42890422 345.94796518 9.45167748 C350.26047014 9.46437235 354.57272782 9.47048264 358.88524246 9.45926094 C362.83132208 9.44912446 366.7769207 9.45727474 370.72294327 9.4801239 C372.15229609 9.48513579 373.58169176 9.48335689 375.01102398 9.47419123 C376.95084901 9.46272775 378.89077759 9.47816093 380.83056355 9.49498463 C381.9090243 9.49596144 382.98748505 9.49693824 384.09862643 9.49794465 C387.70963681 10.12279596 389.38451538 11.48480621 392 14 C395.2829526 20.5659052 393 28.65909482 393 36 C235.26 36 77.52 36 -85 36 C-85 16 -85 16 -81 11 C-78.03236827 9.51618414 -75.35489455 9.86703039 -72.04345703 9.8581543 C-71.32782593 9.85467987 -70.61219482 9.85120544 -69.87487793 9.84762573 C-68.31869409 9.84026688 -66.76249975 9.83492218 -65.20630264 9.83133507 C-62.74339503 9.82417685 -60.28068749 9.80851552 -57.81784058 9.78999329 C-50.81462336 9.73749136 -43.81151529 9.6895366 -36.80810547 9.67407227 C-32.52620353 9.66399654 -28.24480398 9.63468313 -23.96310043 9.59275246 C-22.33086826 9.58043157 -20.69856515 9.57532319 -19.06628799 9.57755089 C-16.78208978 9.57990127 -14.49933525 9.55776051 -12.21533203 9.5300293 C-10.91564484 9.52416306 -9.61595764 9.51829681 -8.27688599 9.51225281 C-4.46015766 8.9156102 -3.28236798 8.05868733 -1 5 C-0.20318682 2.35815459 -0.20318682 2.35815459 0 0 Z " fill="#7E8D93" transform="translate(102,459)"/>
<path d="M0 0 C5.61 0 11.22 0 17 0 C17 59.07 17 118.14 17 179 C11.39 179 5.78 179 0 179 C-0.33 158.21 -0.66 137.42 -1 116 C-2.32 116.99 -3.64 117.98 -5 119 C-7 119.46875 -7 119.46875 -9 119.5 C-9.66 119.5309375 -10.32 119.561875 -11 119.59375 C-14.33174403 118.60463849 -15.20661722 116.95925347 -17 114 C-17.61028464 110.32558698 -17.58430548 106.6869916 -17.56640625 102.96875 C-17.57260483 101.9000769 -17.57880341 100.83140381 -17.58518982 99.73034668 C-17.59228323 97.47437449 -17.58912241 95.2183499 -17.57641602 92.96240234 C-17.56254709 89.5117157 -17.59663494 86.0637391 -17.63476562 82.61328125 C-17.63571681 80.41927017 -17.63385804 78.2252557 -17.62890625 76.03125 C-17.64216446 75.00092651 -17.65542267 73.97060303 -17.66908264 72.90905762 C-17.60728208 68.15312063 -17.56101851 65.76386966 -14.68334961 61.84570312 C-11.16032355 59.42244073 -9.19204452 59.31402908 -5 60 C-3.68 61.32 -2.36 62.64 -1 64 C-0.67 42.88 -0.34 21.76 0 0 Z " fill="#773D21" transform="translate(384,273)"/>
<path d="M0 0 C5.68994542 2.27597817 11.34314575 4.6429774 17 7 C17 83.23 17 159.46 17 238 C11.39 238 5.78 238 0 238 C0 159.46 0 80.92 0 0 Z " fill="#DFC49C" transform="translate(435,214)"/>
<path d="M0 0 C17.71492514 -0.02311825 35.42984512 -0.04097884 53.14478207 -0.05181217 C61.36955719 -0.05697527 69.59432279 -0.06401823 77.8190918 -0.07543945 C84.98520446 -0.08538586 92.15131023 -0.09185332 99.3174296 -0.09408849 C103.11416989 -0.09539568 106.91089045 -0.09848198 110.70762444 -0.10573006 C114.27718902 -0.1124896 117.84672563 -0.1146171 121.41629601 -0.11310768 C123.35914846 -0.11351636 125.30199784 -0.1189119 127.24484253 -0.12442017 C128.96339195 -0.12235817 128.96339195 -0.12235817 130.71665955 -0.12025452 C131.71864852 -0.12117631 132.72063749 -0.1220981 133.75298977 -0.12304783 C136 0 136 0 137 1 C137 6.61 137 12.22 137 18 C91.79 18 46.58 18 0 18 C0 12.06 0 6.12 0 0 Z " fill="#9E9E9E" transform="translate(111,392)"/>
<path d="M0 0 C5.28 0 10.56 0 16 0 C16 33.99 16 67.98 16 103 C-28.88 103 -73.76 103 -120 103 C-120 102.67 -120 102.34 -120 102 C-80.4 102 -40.8 102 0 102 C0 68.34 0 34.68 0 0 Z " fill="#0273B5" transform="translate(231,273)"/>
<path d="M0 0 C3.25474071 2.16982714 3.87641512 3.41578058 4.6875 7.25 C3.01575282 16.36862096 -7.48101145 23.6286036 -13.89453125 30.02734375 C-14.93363266 31.06712022 -15.97258571 32.10704498 -17.01139832 33.14710999 C-19.17224068 35.30941585 -21.33485436 37.46992954 -23.4987793 39.62915039 C-26.2740948 42.39872627 -29.04483832 45.17282616 -31.81430531 47.94824886 C-33.95113489 50.08868409 -36.0903305 52.22674181 -38.23026085 54.36407661 C-39.25368349 55.38683221 -40.27636391 56.41033108 -41.29828835 57.43458366 C-42.71963646 58.85846292 -44.14452192 60.27880848 -45.56958008 61.69897461 C-46.37897537 62.50757431 -47.18837067 63.31617401 -48.02229309 64.14927673 C-50.71209327 66.66637154 -51.62388453 66.97213959 -55.375 67.25 C-59 67 -59 67 -61.375 66 C-63.37305364 63.54085706 -64.11543655 61.3086109 -64.34403992 58.1486969 C-63.91128498 55.44593146 -63.03552932 54.43416012 -61.18286133 52.43334961 C-60.54120026 51.73756805 -59.89953918 51.0417865 -59.23843384 50.32492065 C-54.83584134 45.75222431 -50.38001533 41.23707313 -45.88671875 36.75390625 C-44.82519707 35.69170955 -43.76382376 34.62936457 -42.70259094 33.56687927 C-40.49467037 31.35749489 -38.28497746 29.14990323 -36.07397461 26.94360352 C-33.23812558 24.1134932 -30.40684673 21.27885965 -27.57684612 18.44290257 C-25.3936934 16.25614427 -23.20817461 14.07176328 -21.02192116 11.88810539 C-19.97616979 10.84302113 -18.93116083 9.79719344 -17.88690758 8.75061226 C-16.43441236 7.29558608 -14.97876575 5.84378891 -13.5222168 4.39282227 C-12.69505661 3.56645767 -11.86789642 2.74009308 -11.01567078 1.88868713 C-7.25902565 -1.63129609 -4.94335426 -1.1079932 0 0 Z " fill="#F2F4F4" transform="translate(192,291)"/>
<path d="M0 0 C5.61 0 11.22 0 17 0 C17.09275087 4.33867973 17.17208835 8.67380706 17.21972656 13.01269531 C17.23961976 14.48286709 17.26674472 15.95296215 17.30175781 17.42285156 C17.61487565 30.92375615 15.60412747 42.17680316 7 53 C6.52175781 53.61488281 6.04351562 54.22976562 5.55078125 54.86328125 C-0.27319543 61.47943611 -10.08252143 66.82472642 -18.875 67.9375 C-20.421875 67.9684375 -20.421875 67.9684375 -22 68 C-20.9790625 67.01 -20.9790625 67.01 -19.9375 66 C-18.95618936 65.00210382 -17.97725364 64.0018696 -17 63 C-16.45730469 62.46503906 -15.91460937 61.93007812 -15.35546875 61.37890625 C-2.75151625 48.14902383 -0.74385442 32.8408967 -0.375 15.4375 C-0.33674154 13.93682824 -0.29768549 12.4361766 -0.2578125 10.93554688 C-0.16120111 7.29047977 -0.08096556 3.64558106 0 0 Z " fill="#CCD5D9" transform="translate(316,60)"/>
<path d="M0 0 C2.06183633 -0.08150744 4.12461349 -0.1394194 6.1875 -0.1875 C7.33605469 -0.22230469 8.48460937 -0.25710937 9.66796875 -0.29296875 C13.3044035 0.02676467 15.1105914 0.81841727 18 3 C20.35903401 7.71806801 19.31227813 14.79526029 19.35009766 20.03735352 C19.36657703 21.70839442 19.39376013 23.3793672 19.43212891 25.05004883 C19.68356021 36.06383304 19.48198871 43.65809149 12.0078125 52.3046875 C4.55827064 58.51779088 -1.33809584 60.52489218 -11 60 C-10.278125 59.34 -9.55625 58.68 -8.8125 58 C-2.28948412 51.45845282 1.21437006 43.84391994 1.25224304 34.60346985 C1.24505753 33.81264511 1.23787201 33.02182037 1.23046875 32.20703125 C1.23001053 31.37918625 1.22955231 30.55134125 1.2290802 29.69841003 C1.2260723 27.95786089 1.21823007 26.21731408 1.20581055 24.47680664 C1.18748703 21.81061296 1.18530157 19.14476589 1.18554688 16.47851562 C1.18063347 14.78385116 1.17480593 13.08918905 1.16796875 11.39453125 C1.16685593 10.59763382 1.1657431 9.80073639 1.16459656 8.97969055 C1.13664431 5.73226584 1.03407528 3.10222584 0 0 Z " fill="#C61E1E" transform="translate(467,145)"/>
<path d="M0 0 C2.36497439 1.86708505 3.66030715 3.32061431 5 6 C5.10471731 7.48466712 5.14867047 8.97385485 5.16113281 10.4621582 C5.17074036 11.38684402 5.1803479 12.31152985 5.19024658 13.26423645 C5.19449646 14.26629623 5.19874634 15.26835602 5.203125 16.30078125 C5.20882507 17.3293071 5.21452515 18.35783295 5.22039795 19.41752625 C5.22985619 21.59726937 5.23638519 23.77702686 5.24023438 25.95678711 C5.24993017 29.28850352 5.28094216 32.6196006 5.3125 35.95117188 C5.31903093 38.06770467 5.32428105 40.18424187 5.328125 42.30078125 C5.3404718 43.29676834 5.3528186 44.29275543 5.36553955 45.31892395 C5.33745482 54.06076734 5.33745482 54.06076734 2 58 C-1.13400885 59.56700442 -4.63155095 59.85164561 -8 59 C-10.48724201 56.81057745 -11.83495095 54.99455963 -12.38378906 51.68734741 C-12.54684455 48.77432649 -12.58045129 45.88635415 -12.56640625 42.96875 C-12.57260483 41.9000769 -12.57880341 40.83140381 -12.58518982 39.73034668 C-12.59228323 37.47437449 -12.58912241 35.2183499 -12.57641602 32.96240234 C-12.56254709 29.5117157 -12.59663494 26.0637391 -12.63476562 22.61328125 C-12.63571681 20.41927017 -12.63385804 18.2252557 -12.62890625 16.03125 C-12.64216446 15.00092651 -12.65542267 13.97060303 -12.66908264 12.90905762 C-12.60728208 8.15312063 -12.56101851 5.76386966 -9.68334961 1.84570312 C-6.16032355 -0.57755927 -4.19204452 -0.68597092 0 0 Z " fill="#010000" transform="translate(379,333)"/>
<path d="M0 0 C45.01237741 -0.0915051 90.02474499 -0.16201308 135.03719703 -0.20426132 C140.3482845 -0.2092643 145.65937179 -0.21444157 150.97045898 -0.21972656 C152.02782506 -0.2207758 153.08519114 -0.22182505 154.17459861 -0.22290608 C171.30754434 -0.24032329 188.44043652 -0.27186821 205.57335045 -0.30861118 C223.14619409 -0.34598402 240.71900964 -0.3682281 258.2918914 -0.37635398 C269.14006148 -0.38184935 279.98808022 -0.39922163 290.83620373 -0.43166587 C298.2696858 -0.45276862 305.70308934 -0.45920968 313.13659921 -0.45400551 C317.42886231 -0.45143711 321.72086049 -0.45544372 326.01307678 -0.4768219 C329.94069387 -0.49624177 333.86786708 -0.49730004 337.79550431 -0.48359558 C339.2182038 -0.48190103 340.64093064 -0.48701416 342.06357607 -0.49953273 C343.99438981 -0.51553838 345.92537121 -0.5045619 347.85621166 -0.49219131 C348.92968104 -0.4937102 350.00315041 -0.49522908 351.10914916 -0.49679399 C354.71585359 0.12301975 356.3879536 1.4889999 359 4 C360.20029908 6.40059817 360.11459743 7.89360649 360.09765625 10.5703125 C360.09443359 11.46621094 360.09121094 12.36210937 360.08789062 13.28515625 C360.07951172 14.22230469 360.07113281 15.15945313 360.0625 16.125 C360.05798828 17.06988281 360.05347656 18.01476562 360.04882812 18.98828125 C360.03702375 21.3255477 360.01908799 23.66278169 360 26 C354.39 26 348.78 26 343 26 C342.93941406 24.43507813 342.87882812 22.87015625 342.81640625 21.2578125 C342.73200934 19.21353181 342.64736092 17.16926148 342.5625 15.125 C342.52318359 14.09246094 342.48386719 13.05992187 342.44335938 11.99609375 C342.40146484 11.00996094 342.35957031 10.02382813 342.31640625 9.0078125 C342.27974854 8.09660645 342.24309082 7.18540039 342.20532227 6.24658203 C342.13422935 3.96516519 342.13422935 3.96516519 341 2 C228.47 1.67 115.94 1.34 0 1 C0 0.67 0 0.34 0 0 Z " fill="#535C60" transform="translate(135,469)"/>
<path d="M0 0 C50.82 0 101.64 0 154 0 C154 8.58 154 17.16 154 26 C122.32 26 90.64 26 58 26 C58 25.67 58 25.34 58 25 C84.07 25 110.14 25 137 25 C137 17.08 137 9.16 137 1 C92.12 1 47.24 1 1 1 C1 8.92 1 16.84 1 25 C9.58 25 18.16 25 27 25 C27 25.33 27 25.66 27 26 C18.09 26 9.18 26 0 26 C0 17.42 0 8.84 0 0 Z " fill="#C8CED0" transform="translate(179,17)"/>
<path d="M0 0 C17.71492467 -0.02332832 35.42984537 -0.04097884 53.14478207 -0.05181217 C61.36955719 -0.05697527 69.59432279 -0.06401823 77.8190918 -0.07543945 C84.98520446 -0.08538586 92.15131023 -0.09185332 99.3174296 -0.09408849 C103.11416989 -0.09539568 106.91089045 -0.09848198 110.70762444 -0.10573006 C114.27718902 -0.1124896 117.84672563 -0.1146171 121.41629601 -0.11310768 C123.35914846 -0.11351636 125.30199784 -0.1189119 127.24484253 -0.12442017 C128.96339195 -0.12235817 128.96339195 -0.12235817 130.71665955 -0.12025452 C131.71864852 -0.12117631 132.72063749 -0.1220981 133.75298977 -0.12304783 C136 0 136 0 137 1 C137 6.61 137 12.22 137 18 C91.79 18 46.58 18 0 18 C0 17.67 0 17.34 0 17 C39.27 17 78.54 17 119 17 C119 11.72 119 6.44 119 1 C79.73 1 40.46 1 0 1 C0 0.67 0 0.34 0 0 Z " fill="#5F5F5F" transform="translate(111,392)"/>
<path d="M0 0 C3.6572005 1.2420681 5.22659938 1.87099503 7.3125 5.125 C8.10076 11.76297895 8.10076 11.76297895 6.29418945 14.88452148 C4.87015282 16.57123704 3.36928542 18.06287572 1.75 19.5625 C1.23630859 20.09037109 0.72261719 20.61824219 0.19335938 21.16210938 C-3.51307982 24.7488375 -6.35815465 26.06147979 -11.6875 26.125 C-14.48939446 24.35858828 -16.20274911 23.09450178 -17.6875 20.125 C-18.30050412 16.90672837 -18.22055457 14.91904569 -16.37109375 12.1640625 C-14.56043353 10.04960023 -12.66731294 8.08156661 -10.6875 6.125 C-10.10097656 5.50496094 -9.51445312 4.88492187 -8.91015625 4.24609375 C-5.79444816 1.20103664 -4.48627775 0.15207721 0 0 Z " fill="#EEF3F4" transform="translate(145.6875,289.875)"/>
</svg>
