<?xml version="1.0" encoding="UTF-8"?>
<svg version="1.1" xmlns="http://www.w3.org/2000/svg" width="512" height="512">
<path d="M0 0 C1.16445153 -0.00796419 2.32890305 -0.01592839 3.52864099 -0.02413392 C4.80878445 -0.01248255 6.08892792 -0.00083119 7.40786362 0.01117325 C8.78075279 0.00942929 10.15364068 0.0059276 11.52652144 0.00081658 C15.30297657 -0.00814184 19.07897926 0.00789173 22.85537672 0.02792883 C26.92623741 0.04517715 30.99707189 0.03935899 35.06795883 0.03631973 C42.12230364 0.03422071 49.17650063 0.04678759 56.23080826 0.06927109 C66.43017059 0.10175738 76.62946133 0.11219465 86.82886979 0.11722305 C103.37605459 0.125981 119.92316058 0.15261014 136.47030258 0.1904335 C152.5458194 0.22714066 168.62131483 0.25545876 184.69686508 0.27246475 C186.18281254 0.27404109 186.18281254 0.27404109 187.69877914 0.27564928 C192.66840812 0.28086937 197.63803726 0.28592422 202.60766649 0.29089689 C243.84611356 0.33237449 285.08447186 0.40313354 326.32284164 0.49219131 C326.32284164 5.77219131 326.32284164 11.05219131 326.32284164 16.49219131 C271.87284164 16.82219131 217.42284164 17.15219131 161.32284164 17.49219131 C161.65284164 18.15219131 161.98284164 18.81219131 162.32284164 19.49219131 C162.32284164 23.78219131 162.32284164 28.07219131 162.32284164 32.49219131 C216.44284164 32.49219131 270.56284164 32.49219131 326.32284164 32.49219131 C326.32284164 37.77219131 326.32284164 43.05219131 326.32284164 48.49219131 C269.23284164 48.49219131 212.14284164 48.49219131 153.32284164 48.49219131 C152.66284164 49.81219131 152.00284164 51.13219131 151.32284164 52.49219131 C150.51846664 53.32750381 150.51846664 53.32750381 149.69784164 54.17969131 C147.50045966 57.87528829 147.46883474 61.31857693 148.32284164 65.49219131 C149.97439792 68.47600298 152.0871063 70.92953241 154.32284164 73.49219131 C160.37839461 81.12891644 162.88507059 88.20862948 162.76034164 97.92969131 C162.75131821 98.7708046 162.74229477 99.61191788 162.73299789 100.47851944 C162.41158243 111.95126596 157.11571707 118.52324324 150.32284164 127.49219131 C148.18641853 130.69682599 147.55405106 132.92266546 147.60409164 136.76953506 C148.75584914 141.13244255 151.6371608 144.2010298 154.46419907 147.60498428 C159.44953204 153.66056957 161.90046493 159.79781059 163.32284164 167.49219131 C163.96350571 167.15445694 164.60416977 166.81672256 165.26424789 166.46875381 C166.12920883 166.02273819 166.99416977 165.57672256 167.88534164 165.11719131 C168.73225571 164.67633194 169.57916977 164.23547256 170.45174789 163.78125381 C181.32571388 158.89906501 195.54370887 158.59934289 206.94784164 162.05469131 C213.898348 164.81517611 220.16714279 169.07294236 225.32284164 174.49219131 C228.4535457 173.07424912 230.82893181 171.33021844 233.44784164 169.11719131 C244.97976486 159.96789687 258.19435961 159.47284497 272.32284164 160.49219131 C284.69844242 162.70116952 295.71071285 170.65638884 302.97909164 180.80469131 C308.66586075 189.72511345 310.9288737 197.94274449 310.32284164 208.49219131 C311.18909164 208.40969131 312.05534164 208.32719131 312.94784164 208.24219131 C317.226433 208.55912401 319.03207504 209.77373195 322.32284164 212.49219131 C326.42000893 217.45851111 326.90687859 221.03038404 326.81893539 227.19531631 C326.82039063 228.0319783 326.82184586 228.86864029 326.82334518 229.73065567 C326.82168937 231.5024399 326.8101636 233.27423898 326.78939438 235.04590225 C326.76087468 237.69272183 326.76870539 240.3374772 326.78182602 242.98437881 C326.76422605 257.87761131 325.07955916 272.360647 320.57284164 286.61719131 C320.31607651 287.44573624 320.05931137 288.27428116 319.79476547 289.1279335 C310.00921411 319.79423281 291.16604205 348.08313022 265.32284164 367.49219131 C264.31350571 368.27851944 263.30416977 369.06484756 262.26424789 369.87500381 C235.01409228 390.63507728 200.55447343 402.01359717 166.32284164 400.49219131 C166.34378891 401.12721573 166.36473618 401.76224014 166.38631821 402.41650772 C166.46988745 405.31657208 166.52162938 408.21638247 166.57284164 411.11719131 C166.60635727 412.11621475 166.63987289 413.11523819 166.67440414 414.14453506 C166.7533301 420.10344495 166.56835196 423.92334744 162.32284164 428.49219131 C156.57523504 433.78829581 150.38586081 433.05728597 142.88534164 433.00976944 C141.51489138 433.01519431 140.14444696 433.02231902 138.77401352 433.03100967 C135.06319429 433.04920299 131.35282124 433.04219234 127.64199448 433.02949333 C123.75304616 433.01934481 119.86413526 433.02876414 115.97518539 433.03503799 C109.44516792 433.04230903 102.91533159 433.03274107 96.38534164 433.01367569 C88.8427898 432.99190785 81.30067049 432.99895962 73.75812912 433.02098131 C67.27470327 433.03915091 60.79140741 433.04168606 54.30796432 433.03122663 C50.43899066 433.02500022 46.57022011 433.02413243 42.70125961 433.03737259 C39.06327763 433.04895336 35.42585165 433.04086557 31.78792953 433.01779556 C29.82105899 433.01000979 27.85414126 433.02184541 25.88729477 433.03430557 C15.14046431 432.93136658 15.14046431 432.93136658 10.32284164 428.49219131 C5.37243982 423.16477214 5.8424676 417.98410997 6.07284164 411.11719131 C6.09088852 410.09496475 6.10893539 409.07273819 6.12752914 408.01953506 C6.17444674 405.50944383 6.24007435 403.00131367 6.32284164 400.49219131 C5.23229477 400.526996 4.14174789 400.56180069 3.01815414 400.59766006 C-38.3268999 401.51479212 -77.11297754 383.27803588 -106.87198257 355.27612686 C-111.94780641 350.36949715 -116.43649099 345.13864768 -120.67715836 339.49219131 C-121.46348648 338.48285538 -122.24981461 337.47351944 -123.05997086 336.43359756 C-141.81841633 311.81082544 -153.63392712 280.22498939 -153.91543961 249.17187881 C-153.92351135 248.30958664 -153.9315831 247.44729446 -153.93989944 246.55887222 C-153.95364003 244.74874196 -153.96440631 242.93858688 -153.97232437 241.12842178 C-153.98390333 239.28394308 -154.00444717 237.43949938 -154.03384781 235.59521866 C-154.07652228 232.91221025 -154.09268479 230.23018435 -154.10293961 227.54687881 C-154.12044769 226.72799179 -154.13795578 225.90910477 -154.15599442 225.06540298 C-154.13582787 219.72623115 -153.2110663 216.73095741 -149.67715836 212.49219131 C-145.45215712 209.00197291 -143.06212235 208.29719262 -137.67715836 208.49219131 C-137.6860408 207.81282516 -137.69492325 207.13345901 -137.70407486 206.43350601 C-137.79294516 199.32766556 -137.853057 192.22198441 -137.89688492 185.11572647 C-137.91693215 182.46787472 -137.94417719 179.82006685 -137.97891617 177.1723671 C-138.02773579 173.35438543 -138.05019716 169.53699196 -138.06778336 165.71875381 C-138.0884285 164.54543503 -138.10907364 163.37211624 -138.13034439 162.16324234 C-138.1329627 152.45342844 -136.14223668 144.26351255 -129.38028336 137.02344131 C-120.60668264 129.13524985 -111.51005833 128.11900833 -100.10196304 128.12158585 C-97.94652561 128.11723045 -95.79316955 128.08091053 -93.63809586 128.04297256 C-83.12406471 127.95669923 -74.15901827 129.36349668 -66.20840836 136.78906631 C-60.07708747 143.60859669 -57.37874716 150.67639802 -57.55215836 159.86719131 C-57.57020523 161.11242569 -57.58825211 162.35766006 -57.60684586 163.64062881 C-57.63004898 164.58164444 -57.65325211 165.52266006 -57.67715836 166.49219131 C-56.85731461 166.34781631 -56.03747086 166.20344131 -55.19278336 166.05469131 C-54.11512711 165.86906631 -53.03747086 165.68344131 -51.92715836 165.49219131 C-50.85981461 165.30656631 -49.79247086 165.12094131 -48.69278336 164.92969131 C-45.67715836 164.49219131 -45.67715836 164.49219131 -41.67715836 164.49219131 C-41.06904312 163.84024796 -40.46092789 163.1883046 -39.83438492 162.51660538 C-36.89625928 159.75936932 -35.13613726 160.02930079 -31.16153336 160.10156631 C-29.28594742 160.12090225 -29.28594742 160.12090225 -27.37247086 160.14062881 C-25.41954117 160.19090225 -25.41954117 160.19090225 -23.42715836 160.24219131 C-22.10973648 160.26023819 -20.79231461 160.27828506 -19.43497086 160.29687881 C-16.18163528 160.34402861 -12.92976211 160.40983088 -9.67715836 160.49219131 C-9.72356461 159.67234756 -9.76997086 158.85250381 -9.81778336 158.00781631 C-9.85387711 156.93016006 -9.88997086 155.85250381 -9.92715836 154.74219131 C-9.97356461 153.67484756 -10.01997086 152.60750381 -10.06778336 151.50781631 C-9.67715836 148.49219131 -9.67715836 148.49219131 -7.92715836 146.11719131 C-4.3839011 143.55817219 -1.94810044 144.20746184 2.32284164 144.49219131 C2.27643539 143.22504288 2.23002914 141.95789444 2.18221664 140.65234756 C1.77478823 125.10833627 4.90793322 117.92313101 14.32284164 105.49219131 C16.45926476 102.28755664 17.09163222 100.06171716 17.04159164 96.21484756 C16.06349541 92.50977651 13.95770123 89.96370988 11.57284164 87.05469131 C2.4766886 75.8979159 1.47528254 66.63670221 2.32284164 52.49219131 C2.62961822 51.15249843 2.95599075 49.81669474 3.32284164 48.49219131 C2.71956039 48.53859756 2.11627914 48.58500381 1.49471664 48.63281631 C-4.9404476 48.92343664 -4.9404476 48.92343664 -8.23965836 46.99219131 C-10.20458595 43.57492593 -10.69831641 40.33655104 -9.67715836 36.49219131 C-8.31778336 34.25781631 -8.31778336 34.25781631 -5.67715836 32.49219131 C-2.08200167 31.99999724 1.45296814 32.11686946 5.07284164 32.24219131 C6.54817368 32.26926163 6.54817368 32.26926163 8.05331039 32.29687881 C10.47747947 32.34395006 12.89966223 32.4096839 15.32284164 32.49219131 C15.63028305 31.11933975 15.63028305 31.11933975 15.94393539 29.71875381 C16.34805649 27.93598038 16.34805649 27.93598038 16.76034164 26.11719131 C17.02717758 24.93383194 17.29401352 23.75047256 17.56893539 22.53125381 C18.32284164 19.49219131 18.32284164 19.49219131 19.32284164 17.49219131 C18.58646469 17.48284561 17.85008774 17.47349991 17.09139633 17.463871 C13.75119946 17.41014977 10.41240045 17.32650509 7.07284164 17.24219131 C5.33454086 17.22092178 5.33454086 17.22092178 3.56112289 17.19922256 C2.44608383 17.166996 1.33104477 17.13476944 0.18221664 17.10156631 C-0.84419937 17.08061905 -1.87061539 17.05967178 -2.92813492 17.03808975 C-6.33496054 16.36156559 -7.53618708 15.17248166 -9.67715836 12.49219131 C-10.20840836 10.49219131 -10.20840836 10.49219131 -10.17715836 8.49219131 C-10.19262711 7.50219131 -10.19262711 7.50219131 -10.20840836 6.49219131 C-8.79850269 1.18431115 -5.01937471 -0.0075707 0 0 Z M40.32284164 16.49219131 C40.65284164 17.48219131 40.98284164 18.47219131 41.32284164 19.49219131 C41.98284164 19.49219131 42.64284164 19.49219131 43.32284164 19.49219131 C43.65284164 18.50219131 43.98284164 17.51219131 44.32284164 16.49219131 C43.00284164 16.49219131 41.68284164 16.49219131 40.32284164 16.49219131 Z M64.32284164 16.49219131 C64.65284164 17.48219131 64.98284164 18.47219131 65.32284164 19.49219131 C65.98284164 19.49219131 66.64284164 19.49219131 67.32284164 19.49219131 C67.65284164 18.50219131 67.98284164 17.51219131 68.32284164 16.49219131 C67.00284164 16.49219131 65.68284164 16.49219131 64.32284164 16.49219131 Z M88.32284164 16.49219131 C88.65284164 17.48219131 88.98284164 18.47219131 89.32284164 19.49219131 C89.98284164 19.49219131 90.64284164 19.49219131 91.32284164 19.49219131 C91.65284164 18.50219131 91.98284164 17.51219131 92.32284164 16.49219131 C91.00284164 16.49219131 89.68284164 16.49219131 88.32284164 16.49219131 Z M112.32284164 16.49219131 C112.65284164 17.48219131 112.98284164 18.47219131 113.32284164 19.49219131 C113.98284164 19.49219131 114.64284164 19.49219131 115.32284164 19.49219131 C115.65284164 18.50219131 115.98284164 17.51219131 116.32284164 16.49219131 C115.00284164 16.49219131 113.68284164 16.49219131 112.32284164 16.49219131 Z M136.32284164 16.49219131 C136.65284164 17.48219131 136.98284164 18.47219131 137.32284164 19.49219131 C137.98284164 19.49219131 138.64284164 19.49219131 139.32284164 19.49219131 C139.65284164 18.50219131 139.98284164 17.51219131 140.32284164 16.49219131 C139.00284164 16.49219131 137.68284164 16.49219131 136.32284164 16.49219131 Z " fill="#F04B37" transform="translate(169.6771583557129,39.507808685302734)"/>
<path d="M0 0 C1.16445153 -0.00796419 2.32890305 -0.01592839 3.52864099 -0.02413392 C4.80878445 -0.01248255 6.08892792 -0.00083119 7.40786362 0.01117325 C8.78075279 0.00942929 10.15364068 0.0059276 11.52652144 0.00081658 C15.30297657 -0.00814184 19.07897926 0.00789173 22.85537672 0.02792883 C26.92623741 0.04517715 30.99707189 0.03935899 35.06795883 0.03631973 C42.12230364 0.03422071 49.17650063 0.04678759 56.23080826 0.06927109 C66.43017059 0.10175738 76.62946133 0.11219465 86.82886979 0.11722305 C103.37605459 0.125981 119.92316058 0.15261014 136.47030258 0.1904335 C152.5458194 0.22714066 168.62131483 0.25545876 184.69686508 0.27246475 C186.18281254 0.27404109 186.18281254 0.27404109 187.69877914 0.27564928 C192.66840812 0.28086937 197.63803726 0.28592422 202.60766649 0.29089689 C243.84611356 0.33237449 285.08447186 0.40313354 326.32284164 0.49219131 C326.32284164 5.77219131 326.32284164 11.05219131 326.32284164 16.49219131 C271.87284164 16.82219131 217.42284164 17.15219131 161.32284164 17.49219131 C161.65284164 18.15219131 161.98284164 18.81219131 162.32284164 19.49219131 C162.32284164 23.78219131 162.32284164 28.07219131 162.32284164 32.49219131 C216.44284164 32.49219131 270.56284164 32.49219131 326.32284164 32.49219131 C326.32284164 37.77219131 326.32284164 43.05219131 326.32284164 48.49219131 C269.23284164 48.49219131 212.14284164 48.49219131 153.32284164 48.49219131 C152.66284164 49.81219131 152.00284164 51.13219131 151.32284164 52.49219131 C150.51846664 53.32750381 150.51846664 53.32750381 149.69784164 54.17969131 C147.50045966 57.87528829 147.46883474 61.31857693 148.32284164 65.49219131 C149.97439792 68.47600298 152.0871063 70.92953241 154.32284164 73.49219131 C160.37839461 81.12891644 162.88507059 88.20862948 162.76034164 97.92969131 C162.75131821 98.7708046 162.74229477 99.61191788 162.73299789 100.47851944 C162.41158243 111.95126596 157.11571707 118.52324324 150.32284164 127.49219131 C148.18641853 130.69682599 147.55405106 132.92266546 147.60409164 136.76953506 C148.75584914 141.13244255 151.6371608 144.2010298 154.46419907 147.60498428 C159.44953204 153.66056957 161.90046493 159.79781059 163.32284164 167.49219131 C163.96350571 167.15445694 164.60416977 166.81672256 165.26424789 166.46875381 C166.12920883 166.02273819 166.99416977 165.57672256 167.88534164 165.11719131 C168.73225571 164.67633194 169.57916977 164.23547256 170.45174789 163.78125381 C181.32571388 158.89906501 195.54370887 158.59934289 206.94784164 162.05469131 C213.898348 164.81517611 220.16714279 169.07294236 225.32284164 174.49219131 C228.4535457 173.07424912 230.82893181 171.33021844 233.44784164 169.11719131 C244.97976486 159.96789687 258.19435961 159.47284497 272.32284164 160.49219131 C284.69844242 162.70116952 295.71071285 170.65638884 302.97909164 180.80469131 C308.99344295 190.23896788 310.32284164 197.19061525 310.32284164 208.49219131 C302.40284164 208.49219131 294.48284164 208.49219131 286.32284164 208.49219131 C285.66284164 205.52219131 285.00284164 202.55219131 284.32284164 199.49219131 C281.23048056 193.71555199 276.62112158 189.06280081 270.69784164 186.24219131 C263.6039204 184.66576437 256.61484435 184.36605395 250.17440414 188.08984756 C242.80058482 193.67466009 239.82114134 199.50239317 238.32284164 208.49219131 C230.40284164 208.49219131 222.48284164 208.49219131 214.32284164 208.49219131 C213.66284164 205.52219131 213.00284164 202.55219131 212.32284164 199.49219131 C209.23048056 193.71555199 204.62112158 189.06280081 198.69784164 186.24219131 C191.6039204 184.66576437 184.61484435 184.36605395 178.17440414 188.08984756 C170.80058482 193.67466009 167.82114134 199.50239317 166.32284164 208.49219131 C99.00284164 208.49219131 31.68284164 208.49219131 -37.67715836 208.49219131 C-38.66715836 203.04719131 -38.66715836 203.04719131 -39.67715836 197.49219131 C-43.72383356 187.11867098 -50.2039543 180.04991306 -60.27090836 175.42578506 C-63.46447248 174.18672366 -66.25409808 173.67556954 -69.67715836 173.49219131 C-70.44801773 173.44191788 -71.21887711 173.39164444 -72.01309586 173.33984756 C-81.32673521 172.98163067 -89.34299797 175.71466905 -96.67715836 181.49219131 C-104.97049403 189.37932279 -108.11340032 197.29897589 -109.67715836 208.49219131 C-112.31715836 208.49219131 -114.95715836 208.49219131 -117.67715836 208.49219131 C-118.71474584 206.43806884 -119.73166176 204.37349527 -120.73965836 202.30469131 C-121.30813492 201.15613663 -121.87661148 200.00758194 -122.46231461 198.82422256 C-123.74003304 195.31974081 -124.15578368 193.89361399 -122.67715836 190.49219131 C-120.49747086 188.76172256 -120.49747086 188.76172256 -117.80215836 187.30469131 C-116.91786148 186.81613663 -116.03356461 186.32758194 -115.12247086 185.82422256 C-113.91204117 185.1648671 -113.91204117 185.1648671 -112.67715836 184.49219131 C-109.379992 182.77098972 -109.379992 182.77098972 -108.83340836 179.33984756 C-108.61684586 178.090746 -108.40028336 176.84164444 -108.17715836 175.55469131 C-106.85054424 167.91876366 -106.85054424 167.91876366 -103.67715836 165.49219131 C-100.73451964 165.48345945 -97.91605806 165.60024341 -94.98965836 165.80469131 C-88.64311866 166.12840082 -88.64311866 166.12840082 -82.92325211 163.75781631 C-81.63378968 162.33461317 -80.38592822 160.87205871 -79.19278336 159.36719131 C-77.67715836 157.49219131 -77.67715836 157.49219131 -74.67715836 156.05469131 C-69.81860383 156.76323052 -67.02992302 160.08656775 -63.67715836 163.49219131 C-62.68715836 164.48219131 -62.68715836 164.48219131 -61.67715836 165.49219131 C-59.00471054 165.47457078 -56.45596996 165.3520419 -53.80215836 165.11719131 C-49.75011824 164.79824719 -45.74633214 164.49219131 -41.67715836 164.49219131 C-41.06904312 163.84024796 -40.46092789 163.1883046 -39.83438492 162.51660538 C-36.89625928 159.75936932 -35.13613726 160.02930079 -31.16153336 160.10156631 C-29.28594742 160.12090225 -29.28594742 160.12090225 -27.37247086 160.14062881 C-25.41954117 160.19090225 -25.41954117 160.19090225 -23.42715836 160.24219131 C-22.10973648 160.26023819 -20.79231461 160.27828506 -19.43497086 160.29687881 C-16.18163528 160.34402861 -12.92976211 160.40983088 -9.67715836 160.49219131 C-9.72356461 159.67234756 -9.76997086 158.85250381 -9.81778336 158.00781631 C-9.85387711 156.93016006 -9.88997086 155.85250381 -9.92715836 154.74219131 C-9.97356461 153.67484756 -10.01997086 152.60750381 -10.06778336 151.50781631 C-9.67715836 148.49219131 -9.67715836 148.49219131 -7.92715836 146.11719131 C-4.3839011 143.55817219 -1.94810044 144.20746184 2.32284164 144.49219131 C2.27643539 143.22504288 2.23002914 141.95789444 2.18221664 140.65234756 C1.77478823 125.10833627 4.90793322 117.92313101 14.32284164 105.49219131 C16.45926476 102.28755664 17.09163222 100.06171716 17.04159164 96.21484756 C16.06349541 92.50977651 13.95770123 89.96370988 11.57284164 87.05469131 C2.4766886 75.8979159 1.47528254 66.63670221 2.32284164 52.49219131 C2.62961822 51.15249843 2.95599075 49.81669474 3.32284164 48.49219131 C2.71956039 48.53859756 2.11627914 48.58500381 1.49471664 48.63281631 C-4.9404476 48.92343664 -4.9404476 48.92343664 -8.23965836 46.99219131 C-10.20458595 43.57492593 -10.69831641 40.33655104 -9.67715836 36.49219131 C-8.31778336 34.25781631 -8.31778336 34.25781631 -5.67715836 32.49219131 C-2.08200167 31.99999724 1.45296814 32.11686946 5.07284164 32.24219131 C6.54817368 32.26926163 6.54817368 32.26926163 8.05331039 32.29687881 C10.47747947 32.34395006 12.89966223 32.4096839 15.32284164 32.49219131 C15.63028305 31.11933975 15.63028305 31.11933975 15.94393539 29.71875381 C16.34805649 27.93598038 16.34805649 27.93598038 16.76034164 26.11719131 C17.02717758 24.93383194 17.29401352 23.75047256 17.56893539 22.53125381 C18.32284164 19.49219131 18.32284164 19.49219131 19.32284164 17.49219131 C18.58646469 17.48284561 17.85008774 17.47349991 17.09139633 17.463871 C13.75119946 17.41014977 10.41240045 17.32650509 7.07284164 17.24219131 C5.33454086 17.22092178 5.33454086 17.22092178 3.56112289 17.19922256 C1.8885643 17.15088272 1.8885643 17.15088272 0.18221664 17.10156631 C-0.84419937 17.08061905 -1.87061539 17.05967178 -2.92813492 17.03808975 C-6.33496054 16.36156559 -7.53618708 15.17248166 -9.67715836 12.49219131 C-10.20840836 10.49219131 -10.20840836 10.49219131 -10.17715836 8.49219131 C-10.19262711 7.50219131 -10.19262711 7.50219131 -10.20840836 6.49219131 C-8.79850269 1.18431115 -5.01937471 -0.0075707 0 0 Z M40.32284164 16.49219131 C40.65284164 17.48219131 40.98284164 18.47219131 41.32284164 19.49219131 C41.98284164 19.49219131 42.64284164 19.49219131 43.32284164 19.49219131 C43.65284164 18.50219131 43.98284164 17.51219131 44.32284164 16.49219131 C43.00284164 16.49219131 41.68284164 16.49219131 40.32284164 16.49219131 Z M64.32284164 16.49219131 C64.65284164 17.48219131 64.98284164 18.47219131 65.32284164 19.49219131 C65.98284164 19.49219131 66.64284164 19.49219131 67.32284164 19.49219131 C67.65284164 18.50219131 67.98284164 17.51219131 68.32284164 16.49219131 C67.00284164 16.49219131 65.68284164 16.49219131 64.32284164 16.49219131 Z M88.32284164 16.49219131 C88.65284164 17.48219131 88.98284164 18.47219131 89.32284164 19.49219131 C89.98284164 19.49219131 90.64284164 19.49219131 91.32284164 19.49219131 C91.65284164 18.50219131 91.98284164 17.51219131 92.32284164 16.49219131 C91.00284164 16.49219131 89.68284164 16.49219131 88.32284164 16.49219131 Z M112.32284164 16.49219131 C112.65284164 17.48219131 112.98284164 18.47219131 113.32284164 19.49219131 C113.98284164 19.49219131 114.64284164 19.49219131 115.32284164 19.49219131 C115.65284164 18.50219131 115.98284164 17.51219131 116.32284164 16.49219131 C115.00284164 16.49219131 113.68284164 16.49219131 112.32284164 16.49219131 Z M136.32284164 16.49219131 C136.65284164 17.48219131 136.98284164 18.47219131 137.32284164 19.49219131 C137.98284164 19.49219131 138.64284164 19.49219131 139.32284164 19.49219131 C139.65284164 18.50219131 139.98284164 17.51219131 140.32284164 16.49219131 C139.00284164 16.49219131 137.68284164 16.49219131 136.32284164 16.49219131 Z " fill="#F9BD19" transform="translate(169.6771583557129,39.507808685302734)"/>
<path d="M0 0 C5.90493842 2.97370999 10.55897975 8.10588022 13.53515625 13.97265625 C14.3125 16.5625 14.3125 16.5625 14.3125 22.5625 C22.2325 22.5625 30.1525 22.5625 38.3125 22.5625 C38.6425 19.5925 38.9725 16.6225 39.3125 13.5625 C42.151059 7.48267986 47.68978136 3.0272456 53.3125 -0.4375 C59.35070935 -2.45023645 66.0452696 -2.27833163 72 0 C77.90493842 2.97370999 82.55897975 8.10588022 85.53515625 13.97265625 C86.425943 16.9404533 86.36528234 19.47910965 86.3125 22.5625 C87.18986816 22.54155273 88.06723633 22.52060547 88.97119141 22.49902344 C92.24766683 22.430574 95.52337512 22.38056949 98.80029297 22.34277344 C100.21447795 22.32274157 101.62858097 22.29550752 103.04248047 22.26074219 C105.08321419 22.21184511 107.1228469 22.18944877 109.1640625 22.171875 C111.00218506 22.1404541 111.00218506 22.1404541 112.87744141 22.10839844 C118.29647764 22.82477423 121.1373792 25.20586643 124.65649414 29.26855469 C126.76308001 33.45874436 126.87450021 36.64549618 126.80859375 41.265625 C126.81004898 42.10228699 126.81150421 42.93894897 126.81300354 43.80096436 C126.81134772 45.57274859 126.79982196 47.34454767 126.77905273 49.11621094 C126.75053304 51.76303051 126.75836374 54.40778589 126.77148438 57.0546875 C126.75388441 71.94791999 125.06921752 86.43095569 120.5625 100.6875 C120.17735229 101.93031738 120.17735229 101.93031738 119.78442383 103.19824219 C109.99887247 133.86454149 91.1557004 162.1534389 65.3125 181.5625 C64.30316406 182.34882813 63.29382813 183.13515625 62.25390625 183.9453125 C35.00375064 204.70538597 0.54413179 216.08390586 -33.6875 214.5625 C-33.66655273 215.19752441 -33.64560547 215.83254883 -33.62402344 216.48681641 C-33.54045419 219.38688076 -33.48871226 222.28669116 -33.4375 225.1875 C-33.40398437 226.18652344 -33.37046875 227.18554688 -33.3359375 228.21484375 C-33.25701154 234.17375363 -33.44198969 237.99365612 -37.6875 242.5625 C-43.43510661 247.8586045 -49.62448083 247.12759465 -57.125 247.08007812 C-58.49545026 247.085503 -59.86589468 247.09262771 -61.23632812 247.10131836 C-64.94714736 247.11951167 -68.65752041 247.11250102 -72.36834717 247.09980202 C-76.25729549 247.08965349 -80.14620638 247.09907283 -84.03515625 247.10534668 C-90.56517372 247.11261772 -97.09501005 247.10304976 -103.625 247.08398438 C-111.16755185 247.06221654 -118.70967116 247.0692683 -126.25221252 247.09129 C-132.73563837 247.10945959 -139.21893423 247.11199474 -145.70237732 247.10153532 C-149.57135098 247.09530891 -153.44012153 247.09444111 -157.30908203 247.10768127 C-160.94706402 247.11926204 -164.58449 247.11117426 -168.22241211 247.08810425 C-170.18928265 247.08031847 -172.15620039 247.09215409 -174.12304688 247.10461426 C-184.86987733 247.00167527 -184.86987733 247.00167527 -189.6875 242.5625 C-194.63790182 237.23508082 -194.16787405 232.05441866 -193.9375 225.1875 C-193.91945312 224.16527344 -193.90140625 223.14304687 -193.8828125 222.08984375 C-193.83589491 219.57975251 -193.77026729 217.07162236 -193.6875 214.5625 C-193.07044189 214.52809814 -192.45338379 214.49369629 -191.81762695 214.45825195 C-164.5773821 212.83456117 -139.6781049 206.68433349 -115.6875 193.5625 C-115.04538574 193.21316406 -114.40327148 192.86382812 -113.74169922 192.50390625 C-104.7014446 187.51680948 -96.81552404 181.76815211 -89.14697266 174.86621094 C-87.79867849 173.66181301 -86.42192871 172.48947501 -85.04296875 171.3203125 C-55.05930964 145.5390875 -38.62333221 106.77096039 -34.94677734 68.06738281 C-34.47678592 61.71409015 -34.35226814 55.36892736 -34.3125 49 C-34.29872314 47.76967041 -34.28494629 46.53934082 -34.27075195 45.27172852 C-34.30350515 38.96520925 -34.48251254 34.0677177 -37.6875 28.5625 C-40.22294049 26.21721755 -42.81545832 24.47719445 -45.6875 22.5625 C-41.7275 22.5625 -37.7675 22.5625 -33.6875 22.5625 C-33.64625 21.2425 -33.605 19.9225 -33.5625 18.5625 C-32.81311513 12.02334706 -29.49014822 7.99498713 -24.6171875 3.765625 C-17.17985887 -1.99761859 -9.01767055 -3.45023917 0 0 Z " fill="#D7322D" transform="translate(369.6875,225.4375)"/>
<path d="M0 0 C3.933053 1.60645827 6.60558942 3.40838413 9 7 C9 11.29 9 15.58 9 20 C63.12 20 117.24 20 173 20 C173 25.28 173 30.56 173 36 C115.91 36 58.82 36 0 36 C-0.66 37.32 -1.32 38.64 -2 40 C-2.53625 40.556875 -3.0725 41.11375 -3.625 41.6875 C-5.82238199 45.38309698 -5.8540069 48.82638561 -5 53 C-3.34844373 55.98381167 -1.23573534 58.43734109 1 61 C7.05555297 68.63672513 9.56222894 75.71643816 9.4375 85.4375 C9.42847656 86.27861328 9.41945313 87.11972656 9.41015625 87.98632812 C9.08874078 99.45907464 3.79287542 106.03105193 -3 115 C-5.13642311 118.20463467 -5.76879058 120.43047415 -5.71875 124.27734375 C-4.5669925 128.64025123 -1.68568084 131.70883849 1.14135742 135.11279297 C6.12669039 141.16837825 8.57762328 147.30561927 10 155 C10.96099609 154.49339844 10.96099609 154.49339844 11.94140625 153.9765625 C12.80636719 153.53054687 13.67132813 153.08453125 14.5625 152.625 C15.40941406 152.18414062 16.25632812 151.74328125 17.12890625 151.2890625 C28.00287223 146.40687369 42.22086723 146.10715158 53.625 149.5625 C60.57550635 152.32298479 66.84430115 156.58075105 72 162 C75.13070406 160.5820578 77.50609017 158.83802713 80.125 156.625 C91.65692321 147.47570555 104.87151796 146.98065365 119 148 C131.37560078 150.2089782 142.3878712 158.16419753 149.65625 168.3125 C155.67060131 177.74677656 157 184.69842394 157 196 C149.08 196 141.16 196 133 196 C132.01 191.545 132.01 191.545 131 187 C127.90763891 181.22336067 123.29827994 176.5706095 117.375 173.75 C110.28107876 172.17357306 103.29200271 171.87386263 96.8515625 175.59765625 C89.47774317 181.18246878 86.49829969 187.01020185 85 196 C77.08 196 69.16 196 61 196 C60.01 191.545 60.01 191.545 59 187 C55.90763891 181.22336067 51.29827994 176.5706095 45.375 173.75 C38.28107876 172.17357306 31.29200271 171.87386263 24.8515625 175.59765625 C17.47774317 181.18246878 14.49829969 187.01020185 13 196 C-1.52 196 -16.04 196 -31 196 C-30.03553895 190.21323368 -29.74435511 189.13407626 -26.1875 185.0625 C-18.18174334 175.46704926 -15.04153328 166.56203184 -16 154 C-17.25141852 144.55267147 -22.61749461 137.13790871 -28.546875 129.9453125 C-31.38131412 126.15082142 -31.4450228 122.59534416 -31 118 C-29.48247603 115.61945667 -28.08355338 113.71760411 -26.25 111.625 C-18.09184083 101.71835776 -15.14037303 92.8784856 -16 80 C-17.52176701 71.11442823 -22.0649875 64.38873935 -27.8125 57.625 C-31.23091237 53.52290515 -31.44316081 50.2292976 -31 45 C-29.76446486 42.73485224 -28.5833605 41.00442035 -27 39 C-20.22651335 30.26397396 -16.18221837 23.88077667 -15.625 12.75 C-15.36820911 8.54504922 -15.25391926 7.33410428 -12.625 3.875 C-7.95845625 0.54175446 -5.81783116 -0.58178312 0 0 Z " fill="#F5871E" transform="translate(323,52)"/>
<path d="M0 0 C3.933053 1.60645827 6.60558942 3.40838413 9 7 C10.24094187 16.35035269 8.53634816 25.01922795 3.05859375 32.734375 C1.7051052 34.419381 0.32208763 36.08136583 -1.09765625 37.7109375 C-3.9842768 41.18436593 -5.85177733 43.85656795 -6.4375 48.375 C-5.72016947 54.31859581 -2.89834648 58.0808823 1 62.375 C7.73224521 69.94238449 9.40235177 78.95146408 9.26953125 88.81640625 C8.33865205 99.81157357 2.05461414 107.82213827 -4.72265625 116.10546875 C-6.74232463 119.10100136 -6.36421372 121.47926734 -6 125 C-4.50919164 129.03395203 -2.21740366 132.04782459 0.4375 135.375 C7.52650304 144.29245625 9.87005206 152.62365894 9 164 C7.68445933 172.46049551 4.19796767 178.32015558 -1 185 C-4.80553034 190.06338241 -4.80553034 190.06338241 -7 196 C-28.12 196 -49.24 196 -71 196 C-71.99 190.555 -71.99 190.555 -73 185 C-77.0466752 174.62647967 -83.52679594 167.55772174 -93.59375 162.93359375 C-96.78731413 161.69453234 -99.57693972 161.18337823 -103 161 C-103.77085938 160.94972656 -104.54171875 160.89945313 -105.3359375 160.84765625 C-114.64957686 160.48943935 -122.66583962 163.22247774 -130 169 C-138.29333568 176.88713148 -141.43624196 184.80678458 -143 196 C-145.64 196 -148.28 196 -151 196 C-152.03758749 193.94587752 -153.0545034 191.88130395 -154.0625 189.8125 C-154.63097656 188.66394531 -155.19945312 187.51539063 -155.78515625 186.33203125 C-157.06287469 182.8275495 -157.47862532 181.40142268 -156 178 C-153.8203125 176.26953125 -153.8203125 176.26953125 -151.125 174.8125 C-150.24070312 174.32394531 -149.35640625 173.83539063 -148.4453125 173.33203125 C-147.23488281 172.67267578 -147.23488281 172.67267578 -146 172 C-142.70283364 170.2787984 -142.70283364 170.2787984 -142.15625 166.84765625 C-141.9396875 165.59855469 -141.723125 164.34945312 -141.5 163.0625 C-140.17338589 155.42657235 -140.17338589 155.42657235 -137 153 C-134.05736128 152.99126813 -131.2388997 153.10805209 -128.3125 153.3125 C-121.96596031 153.6362095 -121.96596031 153.6362095 -116.24609375 151.265625 C-114.95663132 149.84242185 -113.70876987 148.3798674 -112.515625 146.875 C-111 145 -111 145 -108 143.5625 C-103.14144548 144.2710392 -100.35276466 147.59437643 -97 151 C-96.01 151.99 -96.01 151.99 -95 153 C-92.32755218 152.98237946 -89.77881161 152.85985058 -87.125 152.625 C-83.07295989 152.30605588 -79.06917378 152 -75 152 C-74.39188477 151.34805664 -73.78376953 150.69611328 -73.15722656 150.02441406 C-70.21910092 147.26717801 -68.4589789 147.53710947 -64.484375 147.609375 C-62.60878906 147.62871094 -62.60878906 147.62871094 -60.6953125 147.6484375 C-58.74238281 147.69871094 -58.74238281 147.69871094 -56.75 147.75 C-55.43257813 147.76804688 -54.11515625 147.78609375 -52.7578125 147.8046875 C-49.50447692 147.85183729 -46.25260375 147.91763956 -43 148 C-43.04640625 147.18015625 -43.0928125 146.3603125 -43.140625 145.515625 C-43.17671875 144.43796875 -43.2128125 143.3603125 -43.25 142.25 C-43.29640625 141.18265625 -43.3428125 140.1153125 -43.390625 139.015625 C-43 136 -43 136 -41.25 133.625 C-37.70674275 131.06598087 -35.27094209 131.71527053 -31 132 C-31.04640625 130.73285156 -31.0928125 129.46570313 -31.140625 128.16015625 C-31.54805341 112.61614496 -28.41490843 105.4309397 -19 93 C-16.86357689 89.79536533 -16.23120942 87.56952585 -16.28125 83.72265625 C-17.25934623 80.01758519 -19.36514041 77.47151857 -21.75 74.5625 C-30.84615305 63.40572459 -31.8475591 54.1445109 -31 40 C-30.69322342 38.66030712 -30.36685089 37.32450342 -30 36 C-30.60328125 36.04640625 -31.2065625 36.0928125 -31.828125 36.140625 C-38.26328924 36.43124532 -38.26328924 36.43124532 -41.5625 34.5 C-43.52742759 31.08273462 -44.02115805 27.84435972 -43 24 C-41.640625 21.765625 -41.640625 21.765625 -39 20 C-35.40484331 19.50780593 -31.8698735 19.62467815 -28.25 19.75 C-26.77466797 19.77707031 -26.77466797 19.77707031 -25.26953125 19.8046875 C-22.84536217 19.85175874 -20.42317941 19.91749258 -18 20 C-17.84144531 19.11957031 -17.68289062 18.23914063 -17.51953125 17.33203125 C-15.4463006 7.01169525 -12.21760261 -1.22176026 0 0 Z " fill="#F9BD19" transform="translate(203,52)"/>
<path d="M0 0 C3.933053 1.60645827 6.60558942 3.40838413 9 7 C10.24094187 16.35035269 8.53634816 25.01922795 3.05859375 32.734375 C1.7051052 34.419381 0.32208763 36.08136583 -1.09765625 37.7109375 C-3.9842768 41.18436593 -5.85177733 43.85656795 -6.4375 48.375 C-5.72016947 54.31859581 -2.89834648 58.0808823 1 62.375 C7.73224521 69.94238449 9.40235177 78.95146408 9.26953125 88.81640625 C8.33865205 99.81157357 2.05461414 107.82213827 -4.72265625 116.10546875 C-6.74232463 119.10100136 -6.36421372 121.47926734 -6 125 C-4.50919164 129.03395203 -2.21740366 132.04782459 0.4375 135.375 C7.52650304 144.29245625 9.87005206 152.62365894 9 164 C7.68445933 172.46049551 4.19796767 178.32015558 -1 185 C-4.80553034 190.06338241 -4.80553034 190.06338241 -7 196 C-14.92 196 -22.84 196 -31 196 C-29.81663408 182.9829749 -26.75038452 176.62827635 -18.671875 167.03125 C-16.0420417 163.83612543 -15.53723416 161.37821992 -15.58984375 157.20703125 C-16.36992927 153.00942821 -19.32957729 150.1972408 -22 147 C-29.64061394 136.73922348 -32.28306497 127.91913699 -31 115 C-28.96470446 106.03957937 -23.03033999 98.87304745 -17.28125 91.921875 C-15.20116173 88.8017426 -15.38271218 85.56501058 -16 82 C-17.5672436 79.1066272 -19.41641714 76.73181914 -21.4609375 74.16796875 C-29.08370996 64.35896967 -31.81230683 55.38384755 -31 43 C-29.60056737 34.26959458 -24.98168306 27.85521556 -19.46875 21.1328125 C-16.2362341 17.05458023 -15.66606406 14.2420471 -15.3671875 9.08203125 C-14.75962446 5.63701953 -12.65581548 4.08671217 -10 2 C-6.22786948 -0.51475368 -4.47964158 -0.44796416 0 0 Z " fill="#F9BD19" transform="translate(299,52)"/>
<path d="M0 0 C1.16445153 -0.00796419 2.32890305 -0.01592839 3.52864099 -0.02413392 C4.80878445 -0.01248255 6.08892792 -0.00083119 7.40786362 0.01117325 C8.78075279 0.00942929 10.15364068 0.0059276 11.52652144 0.00081658 C15.30297657 -0.00814184 19.07897926 0.00789173 22.85537672 0.02792883 C26.92623741 0.04517715 30.99707189 0.03935899 35.06795883 0.03631973 C42.12230364 0.03422071 49.17650063 0.04678759 56.23080826 0.06927109 C66.43017059 0.10175738 76.62946133 0.11219465 86.82886979 0.11722305 C103.37605459 0.125981 119.92316058 0.15261014 136.47030258 0.1904335 C152.5458194 0.22714066 168.62131483 0.25545876 184.69686508 0.27246475 C186.18281254 0.27404109 186.18281254 0.27404109 187.69877914 0.27564928 C192.66840812 0.28086937 197.63803726 0.28592422 202.60766649 0.29089689 C243.84611356 0.33237449 285.08447186 0.40313354 326.32284164 0.49219131 C326.32284164 5.77219131 326.32284164 11.05219131 326.32284164 16.49219131 C304.50473582 16.56161607 282.68665657 16.61516382 260.86846256 16.64762783 C250.73806436 16.66310158 240.60773602 16.68420083 230.47738266 16.71850967 C221.64852817 16.74839645 212.81972426 16.76776262 203.99082059 16.7744568 C199.31528568 16.77837028 194.63989552 16.78757808 189.96440697 16.80938148 C185.56415821 16.82973521 181.16411391 16.83602737 176.76382256 16.83151436 C175.14851648 16.83234006 173.53320361 16.83831239 171.91793823 16.84980774 C169.71238882 16.86473477 167.50761121 16.86114464 165.30204391 16.85295486 C164.06776311 16.85572024 162.8334823 16.85848562 161.56179905 16.8613348 C158.02396587 16.45812849 156.25991073 15.42016052 153.32284164 13.49219131 C148.5165583 12.89998107 148.5165583 12.89998107 144.38534164 14.99219131 C141.25705251 17.26731069 138.0087835 17.06950751 134.32284164 16.49219131 C132.64544303 15.51029944 130.97816787 14.51085361 129.32284164 13.49219131 C124.5165583 12.89998107 124.5165583 12.89998107 120.38534164 14.99219131 C117.25705251 17.26731069 114.0087835 17.06950751 110.32284164 16.49219131 C108.64544303 15.51029944 106.97816787 14.51085361 105.32284164 13.49219131 C100.5165583 12.89998107 100.5165583 12.89998107 96.38534164 14.99219131 C93.25705251 17.26731069 90.0087835 17.06950751 86.32284164 16.49219131 C84.64544303 15.51029944 82.97816787 14.51085361 81.32284164 13.49219131 C76.5165583 12.89998107 76.5165583 12.89998107 72.38534164 14.99219131 C69.25705251 17.26731069 66.0087835 17.06950751 62.32284164 16.49219131 C60.64544303 15.51029944 58.97816787 14.51085361 57.32284164 13.49219131 C52.5165583 12.89998107 52.5165583 12.89998107 48.38534164 14.99219131 C45.25705251 17.26731069 42.0087835 17.06950751 38.32284164 16.49219131 C36.64544303 15.51029944 34.97816787 14.51085361 33.32284164 13.49219131 C29.78070179 12.99211337 29.78070179 12.99211337 26.32284164 13.49219131 C25.72342758 13.98598282 25.12401352 14.47977432 24.50643539 14.98852921 C19.97973973 18.10569363 13.63290434 16.95901395 8.32284164 16.92969131 C7.03893539 16.94967178 5.75502914 16.96965225 4.43221664 16.99023819 C3.19987289 16.98959366 1.96752914 16.98894913 0.69784164 16.98828506 C-0.42879898 16.99013809 -1.55543961 16.99199112 -2.71622086 16.9939003 C-6.30209998 16.38629957 -7.46799538 15.32193906 -9.67715836 12.49219131 C-10.20840836 10.49219131 -10.20840836 10.49219131 -10.17715836 8.49219131 C-10.19262711 7.50219131 -10.19262711 7.50219131 -10.20840836 6.49219131 C-8.79850269 1.18431115 -5.01937471 -0.0075707 0 0 Z " fill="#EF4A36" transform="translate(169.6771583557129,39.507808685302734)"/>
<path d="M0 0 C2.69095081 1.98396866 5.13285589 4.01504661 7.4375 6.4375 C10.56820406 5.0195578 12.94359017 3.27552713 15.5625 1.0625 C27.09442321 -8.08679445 40.30901796 -8.58184635 54.4375 -7.5625 C66.81310078 -5.3535218 77.8253712 2.60169753 85.09375 12.75 C91.10810131 22.18427656 92.4375 29.13592394 92.4375 40.4375 C84.5175 40.4375 76.5975 40.4375 68.4375 40.4375 C67.4475 35.9825 67.4475 35.9825 66.4375 31.4375 C63.34513891 25.66086067 58.73577994 21.0081095 52.8125 18.1875 C45.71857876 16.61107306 38.72950271 16.31136263 32.2890625 20.03515625 C24.91524317 25.61996878 21.93579969 31.44770185 20.4375 40.4375 C12.5175 40.4375 4.5975 40.4375 -3.5625 40.4375 C-4.5525 35.9825 -4.5525 35.9825 -5.5625 31.4375 C-8.65486109 25.66086067 -13.26422006 21.0081095 -19.1875 18.1875 C-26.28142124 16.61107306 -33.27049729 16.31136263 -39.7109375 20.03515625 C-47.08475683 25.61996878 -50.06420031 31.44770185 -51.5625 40.4375 C-58.1625 40.4375 -64.7625 40.4375 -71.5625 40.4375 C-70.59803895 34.65073368 -70.30685511 33.57157626 -66.75 29.5 C-61.12601254 22.76932449 -56.73104954 16.14577151 -56.50390625 7.10546875 C-56.33907817 1.25891996 -56.33907817 1.25891996 -54.07421875 -1.13671875 C-51.96775183 -2.54243715 -49.89068287 -3.56805003 -47.5625 -4.5625 C-46.88574219 -4.88089844 -46.20898438 -5.19929687 -45.51171875 -5.52734375 C-30.93456375 -11.14589195 -12.66438848 -8.57617125 0 0 Z " fill="#D7E5E5" transform="translate(387.5625,207.5625)"/>
<path d="M0 0 C3.933053 1.60645827 6.60558942 3.40838413 9 7 C9.78986302 10.85058223 9.83632025 14.49105207 7.90234375 17.98046875 C6.89244751 19.28660122 5.85388778 20.57089866 4.79296875 21.8359375 C-3.09358879 31.35478908 -6.53754821 39.62852608 -6.3203125 51.90234375 C-5.54473834 59.4027134 -2.52012452 66.01748225 2 72 C3.06292834 73.41634531 4.12540562 74.83302921 5.1875 76.25 C5.69667969 76.91515625 6.20585937 77.5803125 6.73046875 78.265625 C9.03849628 81.41874568 9.38316901 83.96116578 9.33007812 87.8828125 C8.77054656 91.47176056 6.57694519 93.86708125 4.25 96.5 C-4.42695928 107.00016907 -7.01535222 115.36527023 -6 129 C-4.27846718 137.08913011 -0.26854883 142.79020231 5 149 C8.27036578 153.1089211 9.6880097 155.88021408 9.375 161.07421875 C8.74637391 164.30247567 7.0139636 166.5062556 5 169 C-2.04488477 177.94431044 -5.13809959 184.82859751 -7 196 C-14.92 196 -22.84 196 -31 196 C-30.03553895 190.21323368 -29.74435511 189.13407626 -26.1875 185.0625 C-18.18174334 175.46704926 -15.04153328 166.56203184 -16 154 C-17.25141852 144.55267147 -22.61749461 137.13790871 -28.546875 129.9453125 C-31.38131412 126.15082142 -31.4450228 122.59534416 -31 118 C-29.48247603 115.61945667 -28.08355338 113.71760411 -26.25 111.625 C-18.09184083 101.71835776 -15.14037303 92.8784856 -16 80 C-17.52176701 71.11442823 -22.0649875 64.38873935 -27.8125 57.625 C-31.23091237 53.52290515 -31.44316081 50.2292976 -31 45 C-29.76446486 42.73485224 -28.5833605 41.00442035 -27 39 C-20.22651335 30.26397396 -16.18221837 23.88077667 -15.625 12.75 C-15.36820911 8.54504922 -15.25391926 7.33410428 -12.625 3.875 C-7.95845625 0.54175446 -5.81783116 -0.58178312 0 0 Z " fill="#F5871D" transform="translate(275,52)"/>
<path d="M0 0 C3.933053 1.60645827 6.60558942 3.40838413 9 7 C9.79968837 10.89848078 9.81770026 14.51968057 7.8671875 18.05078125 C6.30522701 20.09114325 4.66561123 22.04356777 3 24 C-4.22405565 33.52813096 -7.41476463 42.95118038 -6 55 C-4.39154842 61.32657622 -1.94511915 66.77851877 2 72 C3.06292834 73.41634531 4.12540562 74.83302921 5.1875 76.25 C5.69667969 76.91515625 6.20585937 77.5803125 6.73046875 78.265625 C9.03849628 81.41874568 9.38316901 83.96116578 9.33007812 87.8828125 C8.77054656 91.47176056 6.57694519 93.86708125 4.25 96.5 C-4.42695928 107.00016907 -7.01535222 115.36527023 -6 129 C-4.27846718 137.08913011 -0.26854883 142.79020231 5 149 C8.27036578 153.1089211 9.6880097 155.88021408 9.375 161.07421875 C8.74637391 164.30247567 7.0139636 166.5062556 5 169 C-2.04488477 177.94431044 -5.13809959 184.82859751 -7 196 C-14.92 196 -22.84 196 -31 196 C-30.03553895 190.21323368 -29.74435511 189.13407626 -26.1875 185.0625 C-18.18174334 175.46704926 -15.04153328 166.56203184 -16 154 C-17.25141852 144.55267147 -22.61749461 137.13790871 -28.546875 129.9453125 C-31.38131412 126.15082142 -31.4450228 122.59534416 -31 118 C-29.48247603 115.61945667 -28.08355338 113.71760411 -26.25 111.625 C-18.09184083 101.71835776 -15.14037303 92.8784856 -16 80 C-17.52176701 71.11442823 -22.0649875 64.38873935 -27.8125 57.625 C-31.23091237 53.52290515 -31.44316081 50.2292976 -31 45 C-29.76446486 42.73485224 -28.5833605 41.00442035 -27 39 C-20.22651335 30.26397396 -16.18221837 23.88077667 -15.625 12.75 C-15.36820911 8.54504922 -15.25391926 7.33410428 -12.625 3.875 C-7.95845625 0.54175446 -5.81783116 -0.58178312 0 0 Z " fill="#F5871D" transform="translate(227,52)"/>
<path d="M0 0 C0.89203125 0.03609375 1.7840625 0.0721875 2.703125 0.109375 C3.37859375 0.15578125 4.0540625 0.2021875 4.75 0.25 C4.92273438 0.82105469 5.09546875 1.39210937 5.2734375 1.98046875 C7.55071771 8.55115339 10.83883218 13.3578285 15.39599609 18.51831055 C17.86018069 21.45149106 18.73649745 23.11027796 19.109375 26.96875 C18.44913907 32.99699114 15.50413783 36.61904551 11.75 41.1875 C5.54807474 48.82063878 4.58307228 54.16810246 2.75 64.25 C-10.45 64.25 -23.65 64.25 -37.25 64.25 C-38.24 58.805 -38.24 58.805 -39.25 53.25 C-43.2966752 42.87647967 -49.77679594 35.80772174 -59.84375 31.18359375 C-63.03731413 29.94453234 -65.82693972 29.43337823 -69.25 29.25 C-70.02085938 29.19972656 -70.79171875 29.14945313 -71.5859375 29.09765625 C-80.89957686 28.73943935 -88.91583962 31.47247774 -96.25 37.25 C-104.54333568 45.13713148 -107.68624196 53.05678458 -109.25 64.25 C-111.89 64.25 -114.53 64.25 -117.25 64.25 C-118.28758749 62.19587752 -119.3045034 60.13130395 -120.3125 58.0625 C-120.88097656 56.91394531 -121.44945312 55.76539063 -122.03515625 54.58203125 C-123.31287469 51.0775495 -123.72862532 49.65142268 -122.25 46.25 C-120.0703125 44.51953125 -120.0703125 44.51953125 -117.375 43.0625 C-116.49070312 42.57394531 -115.60640625 42.08539063 -114.6953125 41.58203125 C-113.88835937 41.14246094 -113.08140625 40.70289063 -112.25 40.25 C-108.95283364 38.5287984 -108.95283364 38.5287984 -108.40625 35.09765625 C-108.1896875 33.84855469 -107.973125 32.59945312 -107.75 31.3125 C-106.42338589 23.67657235 -106.42338589 23.67657235 -103.25 21.25 C-100.30736128 21.24126813 -97.4888997 21.35805209 -94.5625 21.5625 C-88.21596031 21.8862095 -88.21596031 21.8862095 -82.49609375 19.515625 C-81.20663132 18.09242185 -79.95876987 16.6298674 -78.765625 15.125 C-77.25 13.25 -77.25 13.25 -74.25 11.8125 C-69.39144548 12.5210392 -66.60276466 15.84437643 -63.25 19.25 C-62.59 19.91 -61.93 20.57 -61.25 21.25 C-58.57755218 21.23237946 -56.02881161 21.10985058 -53.375 20.875 C-49.32295989 20.55605588 -45.31917378 20.25 -41.25 20.25 C-40.64188477 19.59805664 -40.03376953 18.94611328 -39.40722656 18.27441406 C-36.46910092 15.51717801 -34.7089789 15.78710947 -30.734375 15.859375 C-29.48398438 15.87226563 -28.23359375 15.88515625 -26.9453125 15.8984375 C-24.99238281 15.94871094 -24.99238281 15.94871094 -23 16 C-21.68257813 16.01804688 -20.36515625 16.03609375 -19.0078125 16.0546875 C-15.75447692 16.10183729 -12.50260375 16.16763956 -9.25 16.25 C-9.29640625 15.43015625 -9.3428125 14.6103125 -9.390625 13.765625 C-9.42671875 12.68796875 -9.4628125 11.6103125 -9.5 10.5 C-9.54640625 9.43265625 -9.5928125 8.3653125 -9.640625 7.265625 C-9.25 4.25 -9.25 4.25 -7.39550781 1.88378906 C-4.72212134 -0.15197587 -3.31672334 -0.17456439 0 0 Z " fill="#91B944" transform="translate(169.25,183.75)"/>
<path d="M0 0 C0.66257812 0.09152344 1.32515625 0.18304688 2.0078125 0.27734375 C4.58061253 1.35921155 5.40911804 2.70438625 6.875 5.0625 C7.25976562 7.44995117 7.25976562 7.44995117 7.28125 10.10546875 C7.3009082 11.08837891 7.32056641 12.07128906 7.34082031 13.08398438 C7.35773926 14.65116211 7.35773926 14.65116211 7.375 16.25 C8.31546832 50.78895727 20.66501804 81.26471878 44.875 106.0625 C45.52855469 106.77792969 46.18210938 107.49335938 46.85546875 108.23046875 C67.78411357 130.58708081 99.23353092 141.6281073 129.12060547 143.29174805 C138.00895241 143.85943164 138.00895241 143.85943164 141.875 147.0625 C143.31930855 149.95111709 143.25188506 151.85897701 142.875 155.0625 C140.29583171 158.3476976 138.83778348 159.89480446 134.66796875 160.62109375 C133.47816406 160.58113281 132.28835937 160.54117188 131.0625 160.5 C130.40652832 160.47824707 129.75055664 160.45649414 129.07470703 160.43408203 C127.00418788 160.34701102 124.94187489 160.21213134 122.875 160.0625 C121.62074219 159.97871094 120.36648437 159.89492188 119.07421875 159.80859375 C81.87671893 156.19903044 47.2599877 136.33566728 23.296875 108.015625 C2.30699759 82.03139734 -9.05439898 50.0510429 -9.625 16.75 C-9.65577637 15.66960449 -9.68655273 14.58920898 -9.71826172 13.47607422 C-9.71945816 5.90618117 -9.71945816 5.90618117 -6.8515625 1.8359375 C-4.10501152 0.04949889 -3.15930526 -0.55132974 0 0 Z " fill="#FE6854" transform="translate(41.125,263.9375)"/>
<path d="M0 0 C2.15543743 -0.0043554 4.30879349 -0.04067531 6.46386719 -0.07861328 C16.97789833 -0.16488662 25.94294478 1.24191083 33.89355469 8.66748047 C40.02487558 15.48701085 42.72321588 22.55481217 42.54980469 31.74560547 C42.53175781 32.99083984 42.51371094 34.23607422 42.49511719 35.51904297 C42.47191406 36.46005859 42.44871094 37.40107422 42.42480469 38.37060547 C38.35078417 37.86918756 36.63952829 36.97440671 33.98730469 33.87060547 C31.77805875 31.57565602 30.41760601 30.36723587 27.48730469 28.99560547 C22.56203718 29.59869945 19.80698981 32.93509761 16.42480469 36.37060547 C14.42480469 38.37060547 14.42480469 38.37060547 12.57714844 38.56591797 C11.84625 38.54271484 11.11535156 38.51951172 10.36230469 38.49560547 C9.56566406 38.48013672 8.76902344 38.46466797 7.94824219 38.44873047 C5.42480469 38.37060547 5.42480469 38.37060547 2.90136719 38.29248047 C2.10472656 38.27701172 1.30808594 38.26154297 0.48730469 38.24560547 C-0.24359375 38.22240234 -0.97449219 38.19919922 -1.72753906 38.17529297 C-3.82502633 38.20119913 -3.82502633 38.20119913 -5.57519531 40.37060547 C-5.99398169 42.63377294 -6.36169115 44.90654579 -6.70019531 47.18310547 C-8.02145879 53.7759406 -8.02145879 53.7759406 -10.37207031 56.30029297 C-12.39973535 57.52756392 -14.37606517 58.49181077 -16.57519531 59.37060547 C-20.55152603 61.23776823 -20.55152603 61.23776823 -22.45019531 64.93310547 C-22.77620119 67.37895586 -22.77620119 67.37895586 -21.57519531 69.37060547 C-21.43742682 73.04075822 -21.5324757 76.69671895 -21.57519531 80.37060547 C-26.85519531 80.37060547 -32.13519531 80.37060547 -37.57519531 80.37060547 C-37.67447742 72.57848781 -37.74686093 64.78674288 -37.79492188 56.99414062 C-37.81496911 54.34628887 -37.84221415 51.69848101 -37.87695312 49.05078125 C-37.92577275 45.23279959 -37.94823412 41.41540611 -37.96582031 37.59716797 C-37.98646545 36.42384918 -38.0071106 35.2505304 -38.02838135 34.04165649 C-38.03099965 24.3318426 -36.04027363 16.1419267 -29.27832031 8.90185547 C-20.5047196 1.013664 -11.40809529 -0.00257752 0 0 Z " fill="#BE5000" transform="translate(69.5751953125,167.62939453125)"/>
<path d="M0 0 C54.45 0 108.9 0 165 0 C165 5.28 165 10.56 165 16 C107.91 16 50.82 16 -8 16 C-6.35 13.36 -4.7 10.72 -3 8 C-2.01 5.36 -1.02 2.72 0 0 Z " fill="#D7322C" transform="translate(331,72)"/>
<path d="M0 0 C110.88 0 221.76 0 336 0 C336 2.64 336 5.28 336 8 C314.18189734 8.07005812 292.36381321 8.12297251 270.54562092 8.15543652 C260.41522272 8.17091027 250.28489438 8.19200952 240.15454102 8.22631836 C231.32568652 8.25620513 222.49688262 8.27557131 213.66797894 8.28226548 C208.99244404 8.28617896 204.31705387 8.29538677 199.64156532 8.31719017 C195.24131657 8.3375439 190.84127227 8.34383605 186.44098091 8.33932304 C184.82567484 8.34014874 183.21036197 8.34612107 181.59509659 8.35761642 C179.38954717 8.37254345 177.18476956 8.36895332 174.97920227 8.36076355 C173.74492146 8.36352893 172.51064066 8.36629431 171.23895741 8.36914349 C167.70112422 7.96593717 165.93706909 6.92796921 163 5 C158.19371665 4.40778976 158.19371665 4.40778976 154.0625 6.5 C150.93421086 8.77511937 147.68594186 8.57731619 144 8 C142.32260138 7.01810813 140.65532623 6.01866229 139 5 C134.19371665 4.40778976 134.19371665 4.40778976 130.0625 6.5 C126.93421086 8.77511937 123.68594186 8.57731619 120 8 C118.32260138 7.01810813 116.65532623 6.01866229 115 5 C110.19371665 4.40778976 110.19371665 4.40778976 106.0625 6.5 C102.93421086 8.77511937 99.68594186 8.57731619 96 8 C94.32260138 7.01810813 92.65532623 6.01866229 91 5 C86.19371665 4.40778976 86.19371665 4.40778976 82.0625 6.5 C78.93421086 8.77511937 75.68594186 8.57731619 72 8 C70.32260138 7.01810813 68.65532623 6.01866229 67 5 C62.19371665 4.40778976 62.19371665 4.40778976 58.0625 6.5 C54.93421086 8.77511937 51.68594186 8.57731619 48 8 C46.32260138 7.01810813 44.65532623 6.01866229 43 5 C39.45786015 4.49992206 39.45786015 4.49992206 36 5 C35.40058594 5.4937915 34.80117187 5.98758301 34.18359375 6.49633789 C29.65689808 9.61350231 23.3100627 8.46682264 18 8.4375 C16.71609375 8.45748047 15.4321875 8.47746094 14.109375 8.49804688 C12.87703125 8.49740234 11.6446875 8.49675781 10.375 8.49609375 C9.24835938 8.49794678 8.12171875 8.4997998 6.9609375 8.50170898 C3.34166085 7.8884493 2.13240055 6.95447997 0 4 C0 2.68 0 1.36 0 0 Z " fill="#D7322C" transform="translate(160,48)"/>
<path d="M0 0 C1.15295567 1.35164463 2.27470257 2.73015393 3.375 4.125 C6.31775969 7.35402036 7.48166857 7.9690856 11.9296875 8.234375 C14.77442023 8.06292761 17.5693426 7.69704227 20.390625 7.3046875 C24 7 24 7 26.359375 7.44921875 C29.05781772 9.99988961 29.33215207 13.42202272 30 16.9375 C30.89626166 22.38451642 30.89626166 22.38451642 33.8671875 26.87890625 C36.61134813 28.32134966 39.37156354 29.65882123 42.1953125 30.9375 C44 32 44 32 46 35 C45.63391218 38.96040458 44.11661183 42.23900558 42.4375 45.8125 C41.98246094 46.78832031 41.52742188 47.76414063 41.05859375 48.76953125 C40.53458984 49.87361328 40.53458984 49.87361328 40 51 C37.36 51 34.72 51 32 51 C31.92523438 50.33355469 31.85046875 49.66710937 31.7734375 48.98046875 C30.2513726 38.31109223 25.75756507 28.61989171 17 22 C11.54712448 18.62273516 6.47555643 16.34690481 0 16 C-0.77085938 15.94972656 -1.54171875 15.89945313 -2.3359375 15.84765625 C-11.64957686 15.48943935 -19.66583962 18.22247774 -27 24 C-35.29333568 31.88713148 -38.43624196 39.80678458 -40 51 C-42.64 51 -45.28 51 -48 51 C-49.03758749 48.94587752 -50.0545034 46.88130395 -51.0625 44.8125 C-51.63097656 43.66394531 -52.19945312 42.51539063 -52.78515625 41.33203125 C-54.06287469 37.8275495 -54.47862532 36.40142268 -53 33 C-50.8203125 31.26953125 -50.8203125 31.26953125 -48.125 29.8125 C-47.24070312 29.32394531 -46.35640625 28.83539063 -45.4453125 28.33203125 C-44.63835938 27.89246094 -43.83140625 27.45289063 -43 27 C-39.70283364 25.2787984 -39.70283364 25.2787984 -39.15625 21.84765625 C-38.9396875 20.59855469 -38.723125 19.34945312 -38.5 18.0625 C-37.17338589 10.42657235 -37.17338589 10.42657235 -34 8 C-31.05738616 7.99126821 -28.23887508 8.10797157 -25.3125 8.3125 C-18.91601287 8.60754813 -18.91601287 8.60754813 -13.10546875 6.265625 C-11.19776583 4.26943865 -9.59597987 2.24672167 -8 0 C-4.85205492 -1.57397254 -3.36641385 -1.05979695 0 0 Z " fill="#D6E3E2" transform="translate(100,197)"/>
<path d="M0 0 C54.45 0 108.9 0 165 0 C165 2.64 165 5.28 165 8 C109.89 8 54.78 8 -2 8 C-1 2 -1 2 0 0 Z " fill="#F04B36" transform="translate(331,72)"/>
<path d="M0 0 C5.9044694 4.15733585 9.43808704 8.2365498 12 15 C12.495 19.455 12.495 19.455 13 24 C-5.48 24 -23.96 24 -43 24 C-41.76072809 12.84655284 -39.77483207 7.67390573 -31.34765625 0.69921875 C-21.99368686 -6.07112515 -9.74497999 -6.15185888 0 0 Z " fill="#D8E3E2" transform="translate(111,224)"/>
<path d="M0 0 C1.12946045 0.00499512 2.2589209 0.00999023 3.42260742 0.01513672 C4.85709229 0.03334473 6.29157715 0.05155273 7.76953125 0.0703125 C14.60671875 0.1321875 14.60671875 0.1321875 21.58203125 0.1953125 C21.58203125 16.0353125 21.58203125 31.8753125 21.58203125 48.1953125 C14.98203125 48.1953125 8.38203125 48.1953125 1.58203125 48.1953125 C2.49363284 43.63730454 3.57859719 41.12532386 5.83984375 37.2578125 C6.85796514 34.42850675 6.67557002 32.99190345 5.58203125 30.1953125 C3.16952467 28.46628223 3.16952467 28.46628223 0.20703125 27.1953125 C-4.20811056 25.14500918 -6.33073468 23.64896482 -8.41796875 19.1953125 C-10.22449851 13.46234561 -10.99808912 8.02960309 -9.41796875 2.1953125 C-5.83128562 -0.19580959 -4.25400306 -0.03849777 0 0 Z " fill="#4B8C41" transform="translate(138.41796875,199.8046875)"/>
<path d="M0 0 C0.97259766 -0.020625 1.94519531 -0.04125 2.94726562 -0.0625 C9.59562771 -0.09851009 14.66073906 0.39970829 20 4.71484375 C23.22282443 8.7115701 23.22282443 8.7115701 23.05859375 11.21484375 C21.93160315 13.84785766 20.45564291 15.06421902 18.25 16.875 C17.53972656 17.46539062 16.82945313 18.05578125 16.09765625 18.6640625 C15.46730469 19.18742187 14.83695313 19.71078125 14.1875 20.25 C13.5275 20.91 12.8675 21.57 12.1875 22.25 C10.33984375 22.4453125 10.33984375 22.4453125 8.125 22.375 C7.32835938 22.35953125 6.53171875 22.3440625 5.7109375 22.328125 C4.02864583 22.27604167 2.34635417 22.22395833 0.6640625 22.171875 C-0.13257812 22.15640625 -0.92921875 22.1409375 -1.75 22.125 C-2.48089844 22.10179687 -3.21179688 22.07859375 -3.96484375 22.0546875 C-6.06233102 22.08059366 -6.06233102 22.08059366 -7.8125 24.25 C-8.23128638 26.51316747 -8.59899584 28.78594032 -8.9375 31.0625 C-10.25771167 37.64335102 -10.25771167 37.64335102 -12.609375 40.21484375 C-14.6530778 41.47871259 -16.56342657 42.40968685 -18.8125 43.25 C-20.47993319 43.91474715 -22.14668797 44.5812007 -23.8125 45.25 C-23.88710234 40.82091622 -23.94131371 36.3921731 -23.97729492 31.96264648 C-23.99230722 30.45834983 -24.01272353 28.95409639 -24.03881836 27.44995117 C-24.07553816 25.27772304 -24.09230161 23.10607749 -24.10546875 20.93359375 C-24.1211792 19.62962646 -24.13688965 18.32565918 -24.15307617 16.98217773 C-23.71763236 12.21040023 -22.49505709 8.25112123 -19.34765625 4.5078125 C-13.06749448 -0.32308117 -7.6667541 0.04016636 0 0 Z " fill="#DB6E1E" transform="translate(71.8125,183.75)"/>
<path d="M0 0 C5.90493842 2.97370999 10.55897975 8.10588022 13.53515625 13.97265625 C14.3125 16.5625 14.3125 16.5625 14.3125 22.5625 C-1.5275 22.5625 -17.3675 22.5625 -33.6875 22.5625 C-32.63006203 13.04555831 -31.51219896 9.74997457 -24.6171875 3.765625 C-17.17985887 -1.99761859 -9.01767055 -3.45023917 0 0 Z " fill="#F9BE1B" transform="translate(441.6875,225.4375)"/>
<path d="M0 0 C5.90493842 2.97370999 10.55897975 8.10588022 13.53515625 13.97265625 C14.3125 16.5625 14.3125 16.5625 14.3125 22.5625 C-1.5275 22.5625 -17.3675 22.5625 -33.6875 22.5625 C-32.63006203 13.04555831 -31.51219896 9.74997457 -24.6171875 3.765625 C-17.17985887 -1.99761859 -9.01767055 -3.45023917 0 0 Z " fill="#F9BE1B" transform="translate(369.6875,225.4375)"/>
<path d="M0 0 C7.02307718 5.68173271 12.25721962 12.99563469 14 22 C14.03888349 24.33300933 14.0448635 26.66709801 14 29 C11.36 29 8.72 29 6 29 C5.85304687 28.2265625 5.70609375 27.453125 5.5546875 26.65625 C3.70103112 18.04846636 0.88657723 12.78429889 -5.375 6.6875 C-12.64447658 2.01426506 -19.47601097 0.99916224 -28 2 C-34.88390185 3.88614648 -41.21684108 7.88614322 -45.25 13.84765625 C-47.84972326 18.65523273 -49.05785028 23.64462266 -50 29 C-52.64 29 -55.28 29 -58 29 C-57.95871697 18.32833797 -54.49311495 10.45579162 -47.25 2.625 C-34.00758525 -9.75322645 -14.6347306 -10.21571781 0 0 Z " fill="#FE8975" transform="translate(118,219)"/>
<path d="M0 0 C4.37797787 2.19854784 7.98118391 5.82885654 9.9140625 10.3359375 C9.9140625 12.3159375 9.9140625 14.2959375 9.9140625 16.3359375 C-1.3059375 16.3359375 -12.5259375 16.3359375 -24.0859375 16.3359375 C-24.0859375 9.64445244 -23.17655734 7.53573684 -18.6484375 2.84765625 C-13.2370137 -1.77026551 -6.67972379 -2.12650383 0 0 Z " fill="#FD8976" transform="translate(103.0859375,231.6640625)"/>
<path d="M0 0 C1.47533203 0.02707031 1.47533203 0.02707031 2.98046875 0.0546875 C5.40463783 0.10175874 7.82682059 0.16749258 10.25 0.25 C9.63946777 1.03793945 9.63946777 1.03793945 9.01660156 1.84179688 C6.31484559 5.37598576 3.89269029 8.70798346 2 12.75 C0.44422986 15.32436883 -0.20284468 16.10361587 -3.14453125 16.890625 C-7.13407173 17.05417864 -9.88773678 16.74272184 -13.375 14.75 C-15.26112608 11.32067986 -15.76435425 8.06874543 -14.75 4.25 C-11.3507354 -1.33729699 -5.80626818 -0.20101594 0 0 Z " fill="#EF4B36" transform="translate(174.75,71.75)"/>
<path d="M0 0 C3 2.25 3 2.25 5 5 C5 6.32 5 7.64 5 9 C-0.94 9 -6.88 9 -13 9 C-12 3 -12 3 -10.4375 1.125 C-6.94328627 -0.48771403 -3.72625243 -0.79690151 0 0 Z " fill="#D8E3E2" transform="translate(100,239)"/>
<path d="M0 0 C5.94 0 11.88 0 18 0 C16.68 2.64 15.36 5.28 14 8 C4.93425606 8.62283737 4.93425606 8.62283737 1.375 6.25 C0 4 0 4 0 0 Z " fill="#D7322C" transform="translate(160,80)"/>
<path d="M0 0 C2.50298434 2.93828597 3.46930939 5.17902761 4 9 C2.68 9 1.36 9 0 9 C0 6.03 0 3.06 0 0 Z " fill="#DB782E" transform="translate(48,239)"/>
</svg>
