<?xml version="1.0" encoding="UTF-8"?>
<svg version="1.1" xmlns="http://www.w3.org/2000/svg" width="512" height="512">
<path d="M0 0 C1.06992187 0.474375 2.13984375 0.94875 3.2421875 1.4375 C19.88390034 9.58215005 30.37121498 22.82420075 37 40 C37.2475 41.2375 37.495 42.475 37.75 43.75 C39.41747483 48.08543455 42.0424191 49.52679891 45.7421875 52.1796875 C50.79904354 56.25666832 53.30851978 61.83499971 55 68 C55.21143603 70.67452851 55.33176461 73.2057457 55.3125 75.875 C55.31338623 76.58172852 55.31427246 77.28845703 55.31518555 78.01660156 C55.25240281 81.9317151 54.88410031 85.15970619 53.3125 88.75 C52.879375 89.8225 52.44625 90.895 52 92 C53.31461399 94.00334686 53.31461399 94.00334686 55 96 C55.89539536 104.64414218 53.14151951 112.37730295 50.625 120.53515625 C50.17551322 122.02412351 49.72712584 123.51342306 49.27978516 125.0030365 C48.10703223 128.89761358 46.91952563 132.78753439 45.72875977 136.67663574 C44.29904861 141.35732329 42.88795416 146.043653 41.47369385 150.72902679 C39.32993231 157.8237457 37.16282808 164.91094475 35 172 C53.15 172 71.3 172 90 172 C89.01 169.36 88.02 166.72 87 164 C85.78066075 152.94905146 86.75060264 143.13754909 93.75 134.1875 C98.03683571 129.57425548 103.40677053 126.74689714 109 124 C106.34318907 115.61450207 106.34318907 115.61450207 100 110 C97.15598337 109.16740383 94.32141048 108.43944126 91.42578125 107.80859375 C89 107 89 107 87 104 C86.32389906 96.90094013 86.32389906 96.90094013 88.66796875 93.77734375 C92.95330754 90.51129828 97.86256066 91.3602434 103 92 C111.17251106 94.31905852 117.5140469 99.23453569 121.83203125 106.54296875 C124.51272449 112.18228663 127 118.71301545 127 125 C127.804375 125.04125 128.60875 125.0825 129.4375 125.125 C136.90057633 126.95803629 142.52710939 131.65062892 146.78125 137.9609375 C150.43251399 144.06978302 151.27278368 148.94545117 151.375 156 C151.38901855 156.66451172 151.40303711 157.32902344 151.41748047 158.01367188 C151.38165188 161.75086885 150.84778087 164.76035845 149.47509766 168.25 C149.20025543 168.95640625 148.92541321 169.6628125 148.64224243 170.390625 C148.43030243 170.92171875 148.21836243 171.4528125 148 172 C149.16047852 171.97905273 150.32095703 171.95810547 151.51660156 171.93652344 C155.82523238 171.86408193 160.13380945 171.81818529 164.44287109 171.78027344 C166.30722101 171.76016739 168.17150794 171.7328782 170.03564453 171.69824219 C172.71662948 171.64967879 175.39678023 171.62702162 178.078125 171.609375 C178.91055725 171.58872986 179.7429895 171.56808472 180.60064697 171.54681396 C181.77140778 171.54636078 181.77140778 171.54636078 182.96582031 171.54589844 C183.64976868 171.53701599 184.33371704 171.52813354 185.03839111 171.51898193 C188.00238995 172.24580215 189.11134351 173.62878552 191 176 C191.50336456 179.10473633 191.50336456 179.10473633 191.50793457 182.83203125 C191.51729451 183.8619796 191.51729451 183.8619796 191.52684355 184.91273499 C191.54279568 187.21300621 191.53016168 189.51222097 191.51757812 191.8125 C191.5229983 193.46175759 191.53012037 195.11101034 191.53881836 196.76025391 C191.55706725 201.23960216 191.5499778 205.71858225 191.53730202 210.19793701 C191.52718243 214.88327026 191.5365648 219.56857177 191.54284668 224.25390625 C191.55012613 232.12245347 191.5405276 239.99085057 191.52148438 247.859375 C191.49971504 256.95945771 191.5067662 266.05918196 191.52879 275.15925598 C191.54693554 282.96913219 191.54950647 290.77890042 191.53903532 298.58879089 C191.53279573 303.25472897 191.53197752 307.9204985 191.54518127 312.58642578 C191.55672689 316.97288817 191.54873787 321.35888794 191.52560425 325.74530029 C191.52031022 327.35617301 191.5218428 328.96708458 191.53065491 330.57794189 C191.5415674 332.77514501 191.5279014 334.97086074 191.50793457 337.16796875 C191.50567242 339.01297974 191.50567242 339.01297974 191.50336456 340.89526367 C190.88140059 344.73151735 190.06991951 345.66777528 187 348 C183.74882674 348.50139666 183.74882674 348.50139666 179.79906845 348.50336456 C179.06916079 348.50917833 178.33925312 348.51499209 177.58722705 348.52098203 C175.12794915 348.53564379 172.66965971 348.52166868 170.21038818 348.50793457 C168.43484334 348.51254109 166.65930229 348.51889233 164.88376927 348.52684355 C159.99407011 348.54359488 155.10468184 348.53526415 150.21498132 348.52289867 C144.9455706 348.51387392 139.67621454 348.52780527 134.40681458 348.53881836 C124.07873966 348.55663722 113.7507808 348.55274819 103.42270127 348.5411678 C95.02897589 348.53214502 86.6352831 348.53090447 78.24155426 348.53526306 C76.45156083 348.53618246 76.45156083 348.53618246 74.62540592 348.53712043 C72.2013509 348.5383993 69.77729588 348.53969616 67.35324088 348.5410108 C44.60277506 348.55242696 21.85237363 348.53928766 -0.89808163 348.51780933 C-20.42313489 348.4999466 -39.948093 348.50303368 -59.47314453 348.52148438 C-82.13436887 348.54288859 -104.79553667 348.55131856 -127.4567697 348.53903532 C-129.87327686 348.5377611 -132.28978403 348.53650362 -134.7062912 348.53526306 C-135.89531708 348.53464596 -137.08434295 348.53402886 -138.30939992 348.53339306 C-146.69193968 348.52993813 -155.07444363 348.53577178 -163.45697784 348.54518127 C-173.67443816 348.55639803 -183.89177556 348.55336831 -194.10922179 348.5320583 C-199.32334556 348.5215422 -204.53726436 348.51743558 -209.75138664 348.53065491 C-214.52464674 348.54257344 -219.29751187 348.53602493 -224.07073614 348.5147447 C-225.79752683 348.51027626 -227.52435088 348.51255034 -229.25112012 348.52224785 C-246.41163091 348.61122793 -246.41163091 348.61122793 -253.98828125 342.359375 C-254.42527344 341.82828125 -254.86226562 341.2971875 -255.3125 340.75 C-255.76238281 340.22921875 -256.21226562 339.7084375 -256.67578125 339.171875 C-260.13152868 333.50404146 -261.68787311 326.84207915 -263.26171875 320.44921875 C-263.45723831 319.66859573 -263.65275787 318.88797272 -263.85420227 318.08369446 C-264.26225508 316.44983631 -264.66800775 314.81540211 -265.0715332 313.18041992 C-265.69051077 310.6753149 -266.31836685 308.17255251 -266.94726562 305.66992188 C-267.34427539 304.07565157 -267.74077803 302.48125489 -268.13671875 300.88671875 C-268.3241716 300.13984299 -268.51162445 299.39296722 -268.70475769 298.62345886 C-269.42924236 295.67162406 -270 293.05210807 -270 290 C-270.70125 289.9175 -271.4025 289.835 -272.125 289.75 C-278.73323233 288.02611331 -283.87267363 283.1652972 -287.6171875 277.59375 C-289.63081973 272.36058148 -289.48907527 267.43612385 -289.4375 261.875 C-289.42992676 260.75077637 -289.42235352 259.62655273 -289.41455078 258.46826172 C-289.25962566 250.68921145 -288.56516341 244.02062948 -285 237 C-284.52949219 236.030625 -284.05898438 235.06125 -283.57421875 234.0625 C-281.44747153 229.92990592 -279.5130904 226.52475155 -276.25 223.1875 C-273.71448845 219.59552531 -273.57416415 217.80528612 -273.125 213.5 C-271.43713121 198.9382956 -263.23439489 187.6525243 -252.03125 178.6015625 C-223.32195863 157.78021999 -183.47728905 148.00607749 -148.3984375 147.796875 C-147.60682724 147.79004196 -146.81521698 147.78320892 -145.99961853 147.77616882 C-143.45803502 147.75920721 -140.91663673 147.75284745 -138.375 147.75 C-137.50982758 147.74799591 -136.64465515 147.74599182 -135.75326538 147.743927 C-120.67401124 147.73537065 -105.69497463 148.2784764 -91 152 C-91.17539307 151.43116592 -91.35078613 150.86233185 -91.53149414 150.27626038 C-93.36326989 144.32666074 -95.17733205 138.37186297 -96.98144531 132.41381836 C-97.65600001 130.19435233 -98.33497936 127.97622586 -99.01855469 125.75952148 C-100.00336291 122.56320149 -100.97187748 119.36231712 -101.9375 116.16015625 C-102.24373291 115.17854019 -102.54996582 114.19692413 -102.86547852 113.18556213 C-104.6361921 107.24531814 -105.4685546 102.20488052 -105 96 C-104.443125 95.319375 -103.88625 94.63875 -103.3125 93.9375 C-102.879375 93.298125 -102.44625 92.65875 -102 92 C-102.7209478 90.21479593 -103.449335 88.43230483 -104.2109375 86.6640625 C-106.68793898 78.30111691 -106.00196446 67.94117555 -102.265625 60.11328125 C-99.48060078 55.46297846 -96.68375446 51.90922741 -91.875 49.3125 C-87.97515085 46.17566481 -87.50620397 43.04692427 -86.1015625 38.34765625 C-80.50764044 21.34768743 -68.81475853 9.55638809 -53.14453125 1.5390625 C-37.21559603 -6.06288451 -16.29558573 -7.45955968 0 0 Z " fill="#000000" transform="translate(305,84)"/>
<path d="M0 0 C0.97775391 0.15065918 1.95550781 0.30131836 2.96289062 0.45654297 C32.35938539 5.06801841 66.21317263 12.74842141 85 38 C87.78150384 42.6229624 88.31107475 46.1505266 88.5625 51.5 C89.24226354 59.71142937 92.56502497 64.54557649 97.58203125 70.8671875 C103.5759482 78.63313483 105.18016591 86.40050018 105.375 96.0625 C105.41238281 96.76955078 105.44976562 97.47660156 105.48828125 98.20507812 C105.55116268 101.92556255 105.36380488 103.60984176 102.7890625 106.37109375 C95.95604626 110.36180491 89.38581608 111.28695441 81.61328125 109.4296875 C78.07201965 108.18599119 75.39693505 106.88468347 73 104 C72.67 102.824375 72.34 101.64875 72 100.4375 C71.32860063 96.75396564 71.32860063 96.75396564 68 95 C64.43103555 94.54438752 62.70239654 94.49271361 59.75 96.625 C57.83410829 98.96486767 57.83410829 98.96486767 57 102.0625 C55.85379073 105.42948972 55.03836449 106.26379172 52 108 C45.44154339 111.01244363 38.31298341 111.08022985 31.5 108.6875 C28.47677195 107.22987219 27.05964004 106.47875284 25 104 C24.67 102.824375 24.34 101.64875 24 100.4375 C23.32860063 96.75396564 23.32860063 96.75396564 20 95 C16.43103555 94.54438752 14.70239654 94.49271361 11.75 96.625 C9.83410829 98.96486767 9.83410829 98.96486767 9 102.0625 C7.85379073 105.42948972 7.03836449 106.26379172 4 108 C-2.55845661 111.01244363 -9.68701659 111.08022985 -16.5 108.6875 C-19.52322805 107.22987219 -20.94035996 106.47875284 -23 104 C-23.33 102.824375 -23.66 101.64875 -24 100.4375 C-24.67139937 96.75396564 -24.67139937 96.75396564 -28 95 C-31.56896445 94.54438752 -33.29760346 94.49271361 -36.25 96.625 C-38.16589171 98.96486767 -38.16589171 98.96486767 -39 102.0625 C-40.14620927 105.42948972 -40.96163551 106.26379172 -44 108 C-50.55845661 111.01244363 -57.68701659 111.08022985 -64.5 108.6875 C-67.52322805 107.22987219 -68.94035996 106.47875284 -71 104 C-71.33 102.824375 -71.66 101.64875 -72 100.4375 C-72.67139937 96.75396564 -72.67139937 96.75396564 -76 95 C-79.56896445 94.54438752 -81.29760346 94.49271361 -84.25 96.625 C-86.16589171 98.96486767 -86.16589171 98.96486767 -87 102.0625 C-88.14620927 105.42948972 -88.96163551 106.26379172 -92 108 C-98.55845661 111.01244363 -105.68701659 111.08022985 -112.5 108.6875 C-115.52322805 107.22987219 -116.94035996 106.47875284 -119 104 C-119.33 102.824375 -119.66 101.64875 -120 100.4375 C-120.67139937 96.75396564 -120.67139937 96.75396564 -124 95 C-127.56896445 94.54438752 -129.29760346 94.49271361 -132.25 96.625 C-134.16589171 98.96486767 -134.16589171 98.96486767 -135 102.0625 C-136.14620927 105.42948972 -136.96163551 106.26379172 -140 108 C-146.55845661 111.01244363 -153.68701659 111.08022985 -160.5 108.6875 C-165.36292958 106.34287324 -165.36292958 106.34287324 -167 104 C-167.30346949 101.37885662 -167.42747414 99.05336624 -167.375 96.4375 C-167.36484863 95.71804199 -167.35469727 94.99858398 -167.34423828 94.25732422 C-167.00424087 82.51555312 -162.57429413 73.09841839 -154.75 64.375 C-151.75404271 60.57600261 -151.4031654 56.8070078 -151 52.125 C-150.04926348 41.39807782 -145.46349253 34.53345308 -137.7109375 27.21875 C-114.59580273 8.30031117 -82.90972829 2.10431735 -54 -1 C-52.30810547 -1.19722656 -52.30810547 -1.19722656 -50.58203125 -1.3984375 C-33.83260996 -3.03576534 -16.60570266 -2.69165626 0 0 Z " fill="#FDB531" transform="translate(199,250)"/>
<path d="M0 0 C0.85078125 0.43119141 0.85078125 0.43119141 1.71875 0.87109375 C3.9612284 1.98081337 6.21869335 3.03513074 8.5 4.0625 C9.2528125 4.40410156 10.005625 4.74570312 10.78125 5.09765625 C19.97361312 8.8360997 31.1392403 8.13310679 40.25 4.625 C42.98854654 3.436443 45.57886144 2.25904287 48.12109375 0.6953125 C50 0 50 0 51.89453125 0.828125 C52.52746094 1.29734375 53.16039063 1.7665625 53.8125 2.25 C61.60874987 7.97260815 71.69169494 8.17846237 81 7 C86.3202576 5.52458836 91.40615794 3.59547559 96.12109375 0.6953125 C98 0 98 0 99.89453125 0.828125 C100.52746094 1.29734375 101.16039062 1.7665625 101.8125 2.25 C109.60874987 7.97260815 119.69169494 8.17846237 129 7 C134.3202576 5.52458836 139.40615794 3.59547559 144.12109375 0.6953125 C146 0 146 0 147.89453125 0.828125 C148.84392578 1.53195312 148.84392578 1.53195312 149.8125 2.25 C157.60874987 7.97260815 167.69169494 8.17846237 177 7 C182.32573207 5.52307018 187.40325319 3.5837302 192.1328125 0.69921875 C194 0 194 0 195.7890625 0.79296875 C196.69785156 1.48326172 196.69785156 1.48326172 197.625 2.1875 C202.14611544 5.30962877 206.7342139 6.62260401 212 8 C211.47732195 15.65068659 210.04636435 22.88165517 208.1875 30.3125 C207.8152832 31.89901367 207.8152832 31.89901367 207.43554688 33.51757812 C205.04724722 43.14977901 205.04724722 43.14977901 201 47 C197.84941259 48.57529371 194.4705974 48.1554512 191.01054382 48.16062927 C190.17523457 48.16571709 189.33992531 48.17080491 188.47930366 48.17604691 C185.66418266 48.19181526 182.84908742 48.20030794 180.03393555 48.20874023 C178.0220727 48.21827504 176.01021152 48.22816603 173.99835205 48.23838806 C167.37782751 48.26981204 160.75729023 48.29004208 154.13671875 48.30859375 C152.44885014 48.31353973 152.44885014 48.31353973 150.72688317 48.31858563 C140.12085206 48.34936452 129.51481819 48.37608039 118.9087553 48.39300442 C105.3273794 48.41492792 91.74639803 48.45693156 78.16517991 48.52644199 C68.62374126 48.57362425 59.08240929 48.59793016 49.54085761 48.6052013 C43.83794274 48.61016574 38.13547222 48.62532229 32.43268394 48.6649456 C27.0686727 48.70172374 21.70536122 48.71025053 16.34124756 48.69693947 C14.37116005 48.69699356 12.40104223 48.70734849 10.43107033 48.7286911 C7.74333123 48.75625633 5.0581649 48.74691755 2.3704071 48.72825623 C1.58869115 48.74505115 0.8069752 48.76184608 0.00157088 48.77914995 C-2.90193926 48.72868528 -5.26705705 48.5893705 -7.5836767 46.72654164 C-10.58689584 43.25878906 -11.95151351 39.91254025 -13.01953125 35.5 C-13.4690918 33.6746875 -13.4690918 33.6746875 -13.92773438 31.8125 C-14.21970703 30.554375 -14.51167969 29.29625 -14.8125 28 C-15.12380859 26.741875 -15.43511719 25.48375 -15.75585938 24.1875 C-17.08679686 18.66484074 -18.18639868 13.70691522 -18 8 C-17.03578125 7.67386719 -16.0715625 7.34773438 -15.078125 7.01171875 C-13.80195323 6.5706888 -12.52591871 6.12926154 -11.25 5.6875 C-10.61578125 5.47416016 -9.9815625 5.26082031 -9.328125 5.04101562 C-5.75827337 3.79528615 -2.87297836 2.47395359 0 0 Z " fill="#A26E57" transform="translate(71,368)"/>
<path d="M0 0 C10.58118314 6.89406097 18.48356792 16.50606686 21.671875 28.89453125 C22.1170628 31.09821084 22.516317 33.31209387 22.8515625 35.53515625 C24.27750896 39.94319073 27.41504314 41.56362176 31.3125 43.75 C35.14206019 46.20484627 37.31707432 49.01372296 38.75 53.3125 C39.56402907 58.53671189 39.22451317 62.30933648 36.125 66.6875 C33.11587604 70.55637367 29.49657254 72.96220264 24.54362488 73.59390068 C21.86684267 73.70949949 19.20467046 73.72923763 16.52539062 73.71655273 C15.51002731 73.72341599 14.494664 73.73027924 13.4485321 73.73735046 C10.10096146 73.7556129 6.75385965 73.75178201 3.40625 73.74609375 C1.07507169 73.75065542 -1.25610527 73.75596095 -3.58728027 73.76197815 C-8.46953805 73.77090789 -13.35163224 73.7684871 -18.23388672 73.75854492 C-24.4885321 73.74704872 -30.74261346 73.76727799 -36.99718475 73.79646206 C-41.80991193 73.81481136 -46.62250358 73.8145342 -51.43525696 73.80882454 C-53.7413258 73.80867121 -56.04740377 73.81472534 -58.35343933 73.82711601 C-61.57778292 73.84200166 -64.80107969 73.83136629 -68.02539062 73.81420898 C-68.97622025 73.82387695 -69.92704987 73.83354492 -70.9066925 73.84350586 C-76.53321173 73.78084674 -79.79731349 73.08879577 -84.25 69.3125 C-88.73735572 64.46130463 -89.62944978 60.93987243 -89.53125 54.3359375 C-88.90623275 49.83928563 -86.06358385 47.04263935 -82.8125 44.125 C-80.25 42.3125 -80.25 42.3125 -77.625 41.125 C-73.95233854 38.32217941 -73.42965325 34.65169237 -72.25 30.3125 C-68.69843383 17.82754654 -62.15734611 7.33486286 -51.02734375 0.265625 C-34.17287472 -9.10011898 -16.97456592 -9.37518333 0 0 Z " fill="#EB8888" transform="translate(305.25,102.6875)"/>
<path d="M0 0 C62.04 0 124.08 0 188 0 C188 47.52 188 95.04 188 144 C182.72 144 177.44 144 172 144 C171.99191315 142.46570847 171.98382629 140.93141693 171.97549438 139.35063171 C171.89812208 124.91494799 171.81052409 110.47936767 171.71247292 96.04381084 C171.66232345 88.62175755 171.61588086 81.19971543 171.578125 73.77758789 C171.5452126 67.30943787 171.50538565 60.84137399 171.45720994 54.37331897 C171.43193736 50.94764591 171.41015841 47.52203004 171.39665604 44.09628868 C171.38146371 40.27461922 171.35083596 36.45315946 171.31884766 32.6315918 C171.31668747 31.49223679 171.31452728 30.35288177 171.31230164 29.17900085 C171.30113815 28.13993591 171.28997467 27.10087097 171.2784729 26.03031921 C171.27294214 25.1260403 171.26741138 24.22176138 171.26171303 23.29008007 C171.1448657 20.72260491 171.1448657 20.72260491 169 18 C165.67663671 16.89221224 163.18090747 16.86134585 159.6789093 16.84178162 C159.03522831 16.83684364 158.39154731 16.83190566 157.72836083 16.82681805 C155.56801465 16.81144016 153.40769819 16.80308167 151.24731445 16.79467773 C149.70009092 16.78509944 148.15287001 16.77508938 146.60565186 16.76467896 C142.40143488 16.73761859 138.19720666 16.71661515 133.99295068 16.69667697 C129.60068219 16.67482441 125.2084484 16.64743215 120.81620789 16.62062073 C112.49711604 16.57068397 104.17800496 16.52574878 95.85887545 16.48259836 C86.38858834 16.43323439 76.91833603 16.37831315 67.44808257 16.32291877 C47.96542068 16.20908363 28.48272597 16.10224792 9 16 C8.60167969 15.26394531 8.20335937 14.52789062 7.79296875 13.76953125 C7.26316406 12.79371094 6.73335938 11.81789063 6.1875 10.8125 C5.40439453 9.36810547 5.40439453 9.36810547 4.60546875 7.89453125 C3.12775848 5.23033829 1.56744421 2.61240702 0 0 Z " fill="#FEC8C8" transform="translate(292,272)"/>
<path d="M0 0 C42.24 0 84.48 0 128 0 C128 10.56 128 21.12 128 32 C79.16 32 30.32 32 -20 32 C-20 31.34 -20 30.68 -20 30 C-19.33613281 29.69707031 -18.67226563 29.39414062 -17.98828125 29.08203125 C-9.40817694 25.01117884 -4.51519006 20.91351765 -1 12 C-0.67 8.04 -0.34 4.08 0 0 Z " fill="#EA413E" transform="translate(320,344)"/>
<path d="M0 0 C50.16 0 100.32 0 152 0 C152 7.92 152 15.84 152 24 C99.86 24 47.72 24 -6 24 C-2 6 -2 6 0 0 Z " fill="#EC6E6C" transform="translate(296,392)"/>
<path d="M0 0 C47.52 0 95.04 0 144 0 C144 7.92 144 15.84 144 24 C100.77 24 57.54 24 13 24 C11.35 20.04 9.7 16.08 8 12 C5.8935981 8.53304086 5.8935981 8.53304086 3.6875 5.8125 C0 1.04805915 0 1.04805915 0 0 Z " fill="#EC6E6C" transform="translate(304,304)"/>
<path d="M0 0 C40.26 0 80.52 0 122 0 C120.68 5.28 119.36 10.56 118 16 C116.20336914 16.0093457 114.40673828 16.01869141 112.55566406 16.02832031 C106.61627056 16.06385661 100.67727746 16.11765967 94.73816299 16.18390274 C91.13759807 16.22339452 87.5372783 16.25557421 83.93652344 16.27099609 C80.4608341 16.28615218 76.98581867 16.3205771 73.51042938 16.36830902 C71.5407688 16.39034372 69.5709182 16.39247465 67.60113525 16.39434814 C66.40019226 16.41406677 65.19924927 16.4337854 63.96191406 16.45410156 C62.90490295 16.46298401 61.84789185 16.47186646 60.7588501 16.48101807 C57.29149001 17.13328157 56.16246005 18.26080647 54 21 C52.97651298 22.77070135 52.97651298 22.77070135 52.32421875 24.65112305 C52.05714111 25.34831955 51.79006348 26.04551605 51.51489258 26.76383972 C51.24185303 27.5056398 50.96881348 28.24743988 50.6875 29.01171875 C50.08096181 30.58928217 49.47418389 32.16675344 48.8671875 33.74414062 C47.92743952 36.2244146 46.99288845 38.706508 46.06347656 41.19067383 C45.15965706 43.59461559 44.23715641 45.99073022 43.3125 48.38671875 C42.90294067 49.50852791 42.90294067 49.50852791 42.48510742 50.65299988 C41.67578125 52.73706055 41.67578125 52.73706055 40 56 C34.92470177 57.88897955 30.36684969 55.64348656 25.4375 54.0625 C24.47908203 53.79115234 23.52066406 53.51980469 22.53320312 53.24023438 C15.73622826 51.06348769 15.73622826 51.06348769 13.72192383 48.15380859 C12.92628449 46.10121935 12.40981762 44.16063924 12 42 C11.75894531 41.0203125 11.51789063 40.040625 11.26953125 39.03125 C11.11871094 38.1959375 10.96789062 37.360625 10.8125 36.5 C10.65394531 35.6440625 10.49539062 34.788125 10.33203125 33.90625 C10.22246094 33.2771875 10.11289063 32.648125 10 32 C10.89203125 31.95101562 11.7840625 31.90203125 12.703125 31.8515625 C13.87359375 31.77679688 15.0440625 31.70203125 16.25 31.625 C17.99023438 31.52058594 17.99023438 31.52058594 19.765625 31.4140625 C22.72663957 31.03499542 24.53544013 30.63130392 27 29 C28.38550197 26.22899606 28.1877467 24.0665294 28 21 C26.27773504 17.75150023 26.27773504 17.75150023 23 17 C21.52034074 16.85426942 20.03596157 16.75336732 18.55078125 16.68359375 C17.27944336 16.62075195 17.27944336 16.62075195 15.98242188 16.55664062 C15.10134766 16.51732422 14.22027344 16.47800781 13.3125 16.4375 C11.97348633 16.37272461 11.97348633 16.37272461 10.60742188 16.30664062 C8.40512656 16.2006478 6.20258338 16.09982779 4 16 C2.68 10.72 1.36 5.44 0 0 Z " fill="#A26E57" transform="translate(219,192)"/>
<path d="M0 0 C5.28 0 10.56 0 16 0 C15.319375 1.98 14.63875 3.96 13.9375 6 C12.22140303 11.58035788 11.4062879 15.36888393 13 21 C16.04071924 23.02714616 16.59062908 23.32724282 20 23.0625 C20.680625 23.03285156 21.36125 23.00320312 22.0625 22.97265625 C25.26244677 21.36623136 25.89484133 18.20511504 27 15 C27.34683838 14.02003052 27.34683838 14.02003052 27.70068359 13.02026367 C28.38474447 11.04086902 29.04050888 9.0542944 29.6875 7.0625 C29.91244141 6.37865234 30.13738281 5.69480469 30.36914062 4.99023438 C30.91555523 3.32773889 31.45818291 1.66399952 32 0 C36.62 0 41.24 0 46 0 C43.82693253 10.86533734 40.3596522 21.4410931 37 32 C20.83 32 4.66 32 -12 32 C-8.625 20.75 -8.625 20.75 -6.73828125 16.2109375 C-6.34189453 15.25058594 -5.94550781 14.29023438 -5.53710938 13.30078125 C-5.13298828 12.33527344 -4.72886719 11.36976563 -4.3125 10.375 C-3.68891602 8.86873047 -3.68891602 8.86873047 -3.05273438 7.33203125 C-2.03947302 4.88622799 -1.02035141 2.4428539 0 0 Z " fill="#A06D56" transform="translate(285,224)"/>
<path d="M0 0 C4.35699098 2.46622131 7.04335342 5.33670683 9.3125 9.875 C9.85610446 14.82982094 9.87687074 18.74625852 7.625 23.25 C4.45995126 26.84275803 1.10048338 30.56912413 -3.859375 31.11328125 C-9.70596537 31.28159218 -13.11942863 30.89925335 -17.6875 26.875 C-22.17485572 22.02380463 -23.06694978 18.50237243 -22.96875 11.8984375 C-22.33090739 7.3095143 -19.40142374 4.50393282 -16.0625 1.5625 C-10.83094803 -2.15465535 -5.95356591 -1.81634214 0 0 Z " fill="#C22F2C" transform="translate(430.6875,225.125)"/>
<path d="M0 0 C9.14128612 1.70454057 17.45030844 5.95088154 23.05859375 13.43359375 C27.45130137 20.0988293 29.58743931 26.46270036 28.59765625 34.484375 C26.51657517 39.02491554 26.51657517 39.02491554 23.59765625 40.484375 C20.42245473 40.76047948 18.32064058 40.88007143 15.4921875 39.33203125 C13.00460418 36.90599638 12.77874615 35.06345411 12.16015625 31.671875 C10.93463842 26.19347909 9.76423836 23.25413977 5.59765625 19.484375 C3.20102743 18.15291454 1.07034113 17.57289902 -1.61328125 17.0703125 C-7.96185158 15.85812593 -7.96185158 15.85812593 -10.46484375 13.734375 C-11.74364124 10.66526102 -11.94079453 8.78238606 -11.40234375 5.484375 C-8.24900744 0.80523079 -5.40738547 -0.32498477 0 0 Z " fill="#050303" transform="translate(283.40234375,111.515625)"/>
<path d="M0 0 C5.02979409 1.09314994 9.88259319 2.71662594 14.76025391 4.34448242 C16.38543945 4.85978516 16.38543945 4.85978516 18.04345703 5.38549805 C19.08050781 5.7290332 20.11755859 6.07256836 21.18603516 6.42651367 C22.12487549 6.73435791 23.06371582 7.04220215 24.03100586 7.359375 C26.80179427 8.70376299 27.90148661 9.89312423 29.44775391 12.53198242 C30.13009431 16.54073232 29.76358721 18.05313838 27.51025391 21.46948242 C23.94428912 23.87105054 22.23806558 23.64117775 18.08911133 23.06396484 C13.10353295 22.05984475 8.36212771 20.40678739 3.57275391 18.71948242 C2.54150391 18.37594727 1.51025391 18.03241211 0.44775391 17.6784668 C-0.53966797 17.33493164 -1.52708984 16.99139648 -2.54443359 16.63745117 C-3.43501465 16.32960693 -4.3255957 16.0217627 -5.24316406 15.70458984 C-7.91924678 14.34561064 -9.029359 13.09708583 -10.55224609 10.53198242 C-11.24082057 6.48660736 -10.87865248 5.01139181 -8.55224609 1.59448242 C-5.17608605 -0.72662761 -3.9214069 -0.61588786 0 0 Z " fill="#050401" transform="translate(194.55224609375,264.468017578125)"/>
<path d="M0 0 C2.6192182 2.20996536 2.92701746 3.57122759 3.5 6.9375 C2.97428847 10.15748311 2.21378731 11.49867789 -0.13183594 13.71801758 C-4.38191368 16.63453068 -9.4942329 17.87365805 -14.375 19.375 C-15.48617187 19.74238281 -16.59734375 20.10976563 -17.7421875 20.48828125 C-23.54358849 22.31848513 -28.07029381 23.74210678 -34 22 C-36.55078958 19.77834456 -36.93332671 18.39170557 -37.5 15.0625 C-36.97158114 11.82593449 -36.18796156 10.50982057 -33.83251953 8.28198242 C-29.75209099 5.42742203 -24.8847905 4.14062122 -20.1875 2.625 C-19.13240234 2.25761719 -18.07730469 1.89023437 -16.99023438 1.51171875 C-10.84717776 -0.51682954 -6.3346823 -1.56711653 0 0 Z " fill="#050401" transform="translate(149,265)"/>
<path d="M0 0 C4.18421805 0.87171209 5.42961969 2.20639419 8 5.625 C8.68745025 9.14220473 8.60807733 12.55353546 8.5 16.125 C8.50386719 17.53072266 8.50386719 17.53072266 8.5078125 18.96484375 C8.43739363 23.92937377 8.31960315 27.65449427 5 31.625 C2.19084526 33.02957737 0.11189466 32.87395157 -3 32.625 C-6.1359157 30.84515595 -6.84102736 30.10191793 -8 26.625 C-8.3042547 23.17190178 -8.3234943 19.71492872 -8.375 16.25 C-8.41238281 15.30382812 -8.44976562 14.35765625 -8.48828125 13.3828125 C-8.54802825 8.65616069 -8.56587514 6.38202359 -5.6640625 2.5 C-3 0.625 -3 0.625 0 0 Z " fill="#040300" transform="translate(168,279.375)"/>
</svg>
