<?xml version="1.0" encoding="UTF-8"?>
<svg version="1.1" xmlns="http://www.w3.org/2000/svg" width="512" height="512">
<path d="M0 0 C0.75023437 -0.02578125 1.50046875 -0.0515625 2.2734375 -0.078125 C6.35115127 0.49085832 8.84546755 2.23731972 11.3359375 5.47265625 C12.15964844 6.87837891 12.15964844 6.87837891 13 8.3125 C13.48811157 9.13584839 13.48811157 9.13584839 13.98608398 9.97583008 C15.21350103 12.0590759 16.41911628 14.15421512 17.625 16.25 C18.73284063 18.15898899 19.84093346 20.06783163 20.94921875 21.9765625 C23.85472709 26.99203256 26.7468113 32.01509064 29.63299561 37.04170227 C33.12121318 43.11640148 36.6227869 49.18336257 40.125 55.25 C43.94972452 61.87637665 47.77205996 68.50409175 51.5859375 75.13671875 C52.89044797 77.40374771 54.19513262 79.67067645 55.5 81.9375 C56.12334229 83.02095703 56.74668457 84.10441406 57.38891602 85.22070312 C61.23484963 91.88925068 65.12957218 98.52387986 69.18896484 105.06518555 C71.625 109.03854186 71.625 109.03854186 71.625 111.25 C72.285 111.25 72.945 111.25 73.625 111.25 C73.75455078 110.37601563 73.75455078 110.37601563 73.88671875 109.484375 C75.1276879 102.24349077 77.59714053 95.92060732 80.625 89.25 C80.90988281 88.57453125 81.19476563 87.8990625 81.48828125 87.203125 C88.84891053 70.87717948 103.29786309 55.31612491 118.625 46.25 C119.74261719 45.58484375 120.86023438 44.9196875 122.01171875 44.234375 C130.85628877 39.16289338 139.78829692 35.85476745 149.625 33.25 C150.48222656 33.01539063 151.33945313 32.78078125 152.22265625 32.5390625 C178.95406303 26.21155969 207.37643959 32.1958019 230.48876953 46.39501953 C243.00499064 54.41703782 253.78611914 64.5513854 261.625 77.25 C262.28113281 78.27351563 262.93726563 79.29703125 263.61328125 80.3515625 C277.67118194 103.38428114 280.34452411 128.96741229 276.625 155.25 C278.37296875 155.42015625 278.37296875 155.42015625 280.15625 155.59375 C303.5121573 158.54915479 325.03032714 175.2278997 339.234375 193.125 C356.58875642 215.81046591 363.23591704 244.1447639 359.60327148 272.3605957 C358.75942867 278.13087978 357.42111695 283.70598568 355.625 289.25 C356.33785156 289.27578125 357.05070312 289.3015625 357.78515625 289.328125 C364.90823267 289.74994918 369.89164765 290.5360922 375.125 295.7421875 C379.72117179 300.9912246 380.03392704 305.43029189 379.96875 312.16796875 C379.4518687 316.80227946 377.76655954 319.85482497 374.625 323.25 C368.87911852 327.73178756 364.52593521 328.3923677 357.4375 328.3125 C354.83334125 328.29062238 352.22917021 328.27048644 349.625 328.25 C349.44892306 329.18054955 349.44892306 329.18054955 349.26928902 330.12989807 C345.85595652 348.12525423 342.25065055 366.07853754 338.56281042 384.01928329 C338.11033344 386.22084904 337.65827347 388.42250005 337.20633316 390.62417603 C335.62260957 398.33901801 334.03696853 406.0534633 332.44970703 413.76757812 C330.97974675 420.91191541 329.51449629 428.05720836 328.05126083 435.20292568 C326.78299794 441.39529944 325.51123842 447.58694863 324.23683655 453.77806187 C323.48068287 457.45185341 322.7259378 461.12591989 321.9748497 464.80075073 C321.14046109 468.8825394 320.29881238 472.96279898 319.45654297 477.04296875 C319.21336334 478.23786926 318.97018372 479.43276978 318.71963501 480.66387939 C313.9326272 503.73466096 313.9326272 503.73466096 304.625 510.25 C301.69131044 511.95582114 299.59911809 512.50061865 296.21399117 512.50447559 C295.33191148 512.51030779 294.44983179 512.51613998 293.54102242 512.52214891 C292.57624753 512.51836958 291.61147265 512.51459026 290.61746216 512.51069641 C289.58922266 512.51452196 288.56098316 512.51834751 287.50158489 512.52228898 C284.04543865 512.53263328 280.58945809 512.52862407 277.13330078 512.5246582 C274.65971726 512.5290039 272.18613509 512.53418656 269.71255493 512.54014587 C263.68450809 512.55216835 257.65652672 512.55468533 251.62847389 512.55234561 C246.72872969 512.55056324 241.82899902 512.55231035 236.92925644 512.55657005 C236.2321397 512.55716524 235.53502297 512.55776043 234.81678148 512.55837366 C233.400618 512.5595854 231.98445453 512.56079953 230.56829105 512.56201603 C217.28375208 512.57289548 203.99923847 512.57072727 190.71469806 512.56463119 C178.56190401 512.55946263 166.40919012 512.5707151 154.25641192 512.58972941 C141.77865179 512.60910253 129.3009296 512.61736467 116.82315433 512.61360615 C109.81757334 512.61169318 102.81206058 512.6141909 95.80649185 512.62832069 C89.2188316 512.64147304 82.63130544 512.63898157 76.04363632 512.62590981 C73.62409156 512.62353828 71.20453558 512.62629922 68.78500366 512.63453293 C65.4853162 512.64495314 62.18617275 512.63693727 58.88650513 512.6242218 C57.92619168 512.63159609 56.96587824 512.63897037 55.97646439 512.64656812 C49.36729407 512.59288895 45.18582122 511.38401768 40 507.0625 C34.27215602 500.27952686 32.59873037 492.88574939 30.91113281 484.37841797 C30.66980621 483.20933899 30.42847961 482.04026001 30.17984009 480.83575439 C29.52265564 477.64114917 28.87550332 474.44471006 28.23272038 471.24718237 C27.54813121 467.8546627 26.85033577 464.46486014 26.1539917 461.07473755 C24.83011925 454.61971111 23.51758134 448.16243605 22.20931125 441.70423138 C20.60702407 433.79704348 18.99135234 425.89260387 17.375 417.98828125 C16.80032722 415.17752853 16.22574416 412.36675748 15.65124512 409.55596924 C15.51033935 408.86661451 15.36943358 408.17725977 15.22425795 407.4670155 C14.24078865 402.65403587 13.26047157 397.84042055 12.28137207 393.02655029 C9.89463748 381.29685696 7.4991562 369.56959886 5.01367188 357.86035156 C4.81937466 356.94444559 4.62507744 356.02853962 4.42489243 355.08487892 C3.55504807 350.99150667 2.67944462 346.89948113 1.79473877 342.80929565 C1.49951699 341.43032578 1.20432813 340.05134885 0.90917969 338.67236328 C0.65835632 337.51423126 0.40753296 336.35609924 0.14910889 335.16287231 C-0.375 332.25 -0.375 332.25 -0.375 328.25 C-1.4371875 328.29640625 -2.499375 328.3428125 -3.59375 328.390625 C-19.34352006 328.8784415 -19.34352006 328.8784415 -25.88671875 322.859375 C-29.45630049 318.9727244 -31.33608938 315.1828877 -31.40625 309.89453125 C-31.0492525 303.99514762 -29.89816217 300.01102996 -26.375 295.25 C-21.42479046 291.41106199 -17.88348691 290.11460604 -11.6875 290.1875 C-10.69363281 290.19652344 -9.69976562 290.20554687 -8.67578125 290.21484375 C-7.53689453 290.23224609 -7.53689453 290.23224609 -6.375 290.25 C-6.65214844 289.19941406 -6.92929688 288.14882813 -7.21484375 287.06640625 C-7.58105253 285.64852098 -7.94691954 284.2305474 -8.3125 282.8125 C-8.49490234 282.12478516 -8.67730469 281.43707031 -8.86523438 280.72851562 C-15.62365527 254.30923393 -10.46426754 226.97625397 2.69140625 203.4375 C10.55548568 190.47368421 20.7802183 178.90352908 33.56640625 170.65234375 C35.50850353 169.32935907 36.99489832 167.92885673 38.625 166.25 C38.24915771 165.59854004 37.87331543 164.94708008 37.48608398 164.27587891 C21.61572266 136.7672526 5.74536133 109.2586263 -10.125 81.75 C-10.74479736 80.67572754 -11.36459473 79.60145508 -12.00317383 78.49462891 C-13.24274495 76.34595273 -14.48216756 74.19719087 -15.72143555 72.04833984 C-18.65181778 66.96756907 -21.58372063 61.8876935 -24.52090454 56.81085205 C-25.90938027 54.41069899 -27.29700833 52.01005639 -28.68457031 49.609375 C-29.6651883 47.91358382 -30.64703309 46.21850224 -31.62890625 44.5234375 C-32.51835938 42.98429687 -32.51835938 42.98429687 -33.42578125 41.4140625 C-33.94825439 40.51123535 -34.47072754 39.6084082 -35.0090332 38.67822266 C-38.67479383 32.16175166 -38.67479383 32.16175166 -38.75 27.875 C-38.77835938 27.14539063 -38.80671875 26.41578125 -38.8359375 25.6640625 C-37.94325751 20.98884018 -35.37328282 17.99800108 -31.6328125 15.1953125 C-30.59898438 14.59460937 -29.56515625 13.99390625 -28.5 13.375 C-27.94135254 13.0462085 -27.38270508 12.71741699 -26.80712891 12.37866211 C-25.0038183 11.32243732 -23.18976538 10.2863967 -21.375 9.25 C-20.08797418 8.49967048 -18.80151905 7.74836123 -17.515625 6.99609375 C-5.67520025 0.1162157 -5.67520025 0.1162157 0 0 Z " fill="#ED81A7" transform="translate(85.375,-0.25)"/>
<path d="M0 0 C0.92544611 -0.00085442 1.85089222 -0.00170885 2.80438215 -0.00258917 C5.91829833 -0.00424174 9.03216113 0.00127381 12.14607239 0.00672913 C14.37308755 0.00701107 16.60010281 0.00685312 18.82711792 0.00628662 C24.88460642 0.00599893 30.94207525 0.01189105 36.99955916 0.01886058 C43.3256837 0.02509887 49.65180865 0.02569829 55.97793579 0.02688599 C66.59974042 0.02964402 77.22153724 0.03589627 87.84333801 0.04481506 C98.78441837 0.0539924 109.72549677 0.06107166 120.6665802 0.06532288 C121.34085303 0.0655856 122.01512586 0.06584832 122.7098312 0.06611901 C126.09241939 0.06742403 129.47500759 0.06868774 132.8575958 0.06993091 C160.92486973 0.08029964 188.99213565 0.09798886 217.05940247 0.12025452 C217.06487091 1.33721764 217.06487091 1.33721764 217.07044983 2.57876587 C217.10839784 10.24396292 217.16532705 17.90867759 217.24330521 25.57356358 C217.28272777 29.51370412 217.31494153 33.45362293 217.33039856 37.39393616 C217.34560003 41.20028523 217.38010608 45.00602452 217.42771149 48.81210136 C217.4424896 50.2604179 217.45044143 51.70882152 217.45128632 53.15721321 C217.35471149 63.82549241 217.35471149 63.82549241 222.05940247 73.12025452 C225.82750382 76.55587634 229.71869084 76.63572902 234.62190247 76.46791077 C238.3080689 75.94215946 240.34924195 74.6321106 243.05940247 72.12025452 C246.52338709 66.55964762 246.49323516 61.80847108 246.49885559 55.48548889 C246.67220445 48.8324791 248.78513967 44.80801964 253.12190247 39.68275452 C257.66735641 37.26495986 262.02099586 37.49710317 267.05940247 38.12025452 C271.79383406 40.03417367 274.7862464 43.57394238 277.05940247 48.12025452 C277.1577402 49.69178408 277.19491955 51.26734365 277.20124817 52.8419342 C277.20828262 53.82345459 277.21531708 54.80497498 277.2225647 55.8162384 C277.22672897 56.88078247 277.23089325 57.94532654 277.23518372 59.04212952 C277.25838561 61.28693052 277.28250309 63.53172222 277.30744934 65.77650452 C277.34254894 69.32279146 277.37189672 72.86873698 277.3853302 76.41517639 C277.40081773 79.83291734 277.44103957 83.24965419 277.48518372 86.66712952 C277.48232109 88.25180023 277.48232109 88.25180023 277.47940063 89.8684845 C277.58004421 95.93561732 278.00693835 99.50501249 282.05940247 104.12025452 C285.8914294 107.42973232 288.88432852 108.80510086 294.03596497 108.49916077 C297.53812099 107.84335163 300.53551115 106.66970423 303.05940247 104.12025452 C306.04468692 98.43044218 306.50213228 93.78545832 306.49177551 87.42127991 C306.50196716 86.47416138 306.51215881 85.52704285 306.5226593 84.55122375 C306.55270357 81.44005858 306.56204225 78.32920174 306.57112122 75.21791077 C306.58797423 73.05314111 306.60612531 70.8883812 306.6255188 68.72363281 C306.67295714 63.04048204 306.70280652 57.3573708 306.72895813 51.67408752 C306.75879466 45.86895441 306.80531441 40.06395741 306.85041809 34.25892639 C306.93638115 22.8794404 307.00375767 11.49992633 307.05940247 0.12025452 C315.80453463 0.02737859 324.54949576 -0.04359917 333.29501438 -0.08699417 C337.35638472 -0.10782672 341.41741643 -0.13606414 345.47859192 -0.1815033 C349.40139001 -0.22511713 353.32386337 -0.24891516 357.2468853 -0.25925446 C358.73996527 -0.26661811 360.23302842 -0.28099767 361.72596931 -0.30266571 C370.55723746 -0.4256867 377.01081908 -0.5095002 383.80158997 5.71791077 C388.57934817 11.89604637 388.91077484 17.48692721 388.05940247 25.12025452 C385.92924545 30.82209722 382.39926461 34.21815553 377.05940247 37.12025452 C373.29449079 38.37522507 369.78733772 38.226871 365.87190247 38.18275452 C363.26774372 38.16087689 360.66357268 38.14074095 358.05940247 38.12025452 C357.94201784 38.74062088 357.82463322 39.36098724 357.70369148 40.00015259 C354.29035899 57.99550875 350.68505302 75.94879206 346.99721289 93.88953781 C346.5447359 96.09110356 346.09267593 98.29275456 345.64073563 100.49443054 C344.05701203 108.20927252 342.47137099 115.92371782 340.8841095 123.63783264 C339.41414921 130.78216993 337.94889875 137.92746288 336.48566329 145.0731802 C335.2174004 151.26555396 333.94564089 157.45720315 332.67123902 163.64831638 C331.91508534 167.32210793 331.16034026 170.99617441 330.40925217 174.67100525 C329.57486355 178.75279392 328.73321485 182.8330535 327.89094543 186.91322327 C327.64776581 188.10812378 327.40458618 189.30302429 327.15403748 190.53413391 C322.36702966 213.60491548 322.36702966 213.60491548 313.05940247 220.12025452 C310.12571291 221.82607566 308.03352055 222.37087317 304.64839363 222.37473011 C303.76631395 222.3805623 302.88423426 222.3863945 301.97542489 222.39240342 C300.52826256 222.38673444 300.52826256 222.38673444 299.05186462 222.38095093 C298.02362512 222.38477647 296.99538563 222.38860202 295.93598735 222.39254349 C292.47984111 222.4028878 289.02386056 222.39887858 285.56770325 222.39491272 C283.09411973 222.39925841 280.62053756 222.40444108 278.1469574 222.41040039 C272.11891055 222.42242287 266.09092919 222.42493985 260.06287636 222.42260013 C255.16313216 222.42081776 250.26340149 222.42256487 245.36365891 222.42682457 C244.3179838 222.42771735 244.3179838 222.42771735 243.25118395 222.42862817 C241.83502047 222.42983992 240.41885699 222.43105405 239.00269352 222.43227055 C225.71815454 222.44315 212.43364094 222.44098178 199.14910053 222.4348857 C186.99630647 222.42971715 174.84359259 222.44096962 162.69081439 222.45998392 C150.21305426 222.47935705 137.73533207 222.48761919 125.2575568 222.48386067 C118.25197581 222.4819477 111.24646304 222.48444542 104.24089432 222.49857521 C97.65323407 222.51172755 91.06570791 222.50923609 84.47803879 222.49616432 C82.05849402 222.49379279 79.63893805 222.49655374 77.21940613 222.50478745 C73.91971867 222.51520766 70.62057522 222.50719179 67.32090759 222.49447632 C66.36059415 222.5018506 65.40028071 222.50922489 64.41086686 222.51682264 C57.80169654 222.46314346 53.62022368 221.2542722 48.43440247 216.93275452 C42.70655848 210.14978138 41.03313284 202.75600391 39.34553528 194.24867249 C39.10420868 193.07959351 38.86288208 191.91051453 38.61424255 190.70600891 C37.9570581 187.51140368 37.30990579 184.31496458 36.66712284 181.11743689 C35.98253367 177.72491721 35.28473823 174.33511466 34.58839417 170.94499207 C33.26452172 164.48996562 31.95198381 158.03269057 30.64371371 151.5744859 C29.04142653 143.667298 27.42575481 135.76285839 25.80940247 127.85853577 C25.23472969 125.04778304 24.66014662 122.237012 24.08564758 119.42622375 C23.94474182 118.73686902 23.80383605 118.04751429 23.65866041 117.33727002 C22.67519112 112.52429039 21.69487403 107.71067507 20.71577454 102.89680481 C18.32903995 91.16711148 15.93355866 79.43985337 13.44807434 67.73060608 C13.15662851 66.35674712 13.15662851 66.35674712 12.85929489 64.95513344 C11.98945053 60.86176119 11.11384708 56.76973565 10.22914124 52.67955017 C9.93391945 51.3005803 9.6387306 49.92160337 9.34358215 48.5426178 C9.09275879 47.38448578 8.84193542 46.22635376 8.58351135 45.03312683 C8.05940247 42.12025452 8.05940247 42.12025452 8.05940247 38.12025452 C6.99721497 38.16666077 5.93502747 38.21306702 4.84065247 38.26087952 C-10.90911759 38.74869601 -10.90911759 38.74869601 -17.45231628 32.72962952 C-21.02189802 28.84297891 -22.90168692 25.05314222 -22.97184753 19.76478577 C-22.61485004 13.86540214 -21.4637597 9.88128448 -17.94059753 5.12025452 C-11.94991383 0.47441818 -7.36891974 -0.02465438 0 0 Z " fill="#81B9F8" transform="translate(76.94059753417969,289.87974548339844)"/>
<path d="M0 0 C0.75023437 -0.02578125 1.50046875 -0.0515625 2.2734375 -0.078125 C6.35115127 0.49085832 8.84546755 2.23731972 11.3359375 5.47265625 C12.15964844 6.87837891 12.15964844 6.87837891 13 8.3125 C13.48811157 9.13584839 13.48811157 9.13584839 13.98608398 9.97583008 C15.21350103 12.0590759 16.41911628 14.15421512 17.625 16.25 C18.73284063 18.15898899 19.84093346 20.06783163 20.94921875 21.9765625 C23.85472709 26.99203256 26.7468113 32.01509064 29.63299561 37.04170227 C33.12121318 43.11640148 36.6227869 49.18336257 40.125 55.25 C43.94972452 61.87637665 47.77205996 68.50409175 51.5859375 75.13671875 C52.23691406 76.26746826 52.88789063 77.39821777 53.55859375 78.56323242 C54.83679325 80.7848113 56.11289112 83.00760091 57.38671875 85.23168945 C60.04819907 89.86327786 62.72511388 94.4668236 65.6015625 98.96875 C66.03484863 99.65364502 66.46813477 100.33854004 66.91455078 101.04418945 C68.02005097 102.77334515 69.14944799 104.48716318 70.28125 106.19921875 C72.07102171 110.26262486 71.87086031 111.97342985 70.625 116.25 C68.79586588 119.98671437 66.66613279 123.51294979 64.5 127.0625 C63.2334535 129.18304363 61.96786442 131.30415934 60.703125 133.42578125 C60.03990234 134.53131348 59.37667969 135.6368457 58.69335938 136.77587891 C55.48468371 142.14497382 52.37510215 147.57165793 49.2588501 152.99472046 C48.25698658 154.73784417 47.25354234 156.48004759 46.24951172 158.22192383 C44.70728653 160.89753478 43.16582831 163.57358448 41.625 166.25 C42.55699219 165.79109375 43.48898438 165.3321875 44.44921875 164.859375 C70.20404291 152.37497153 97.19207699 149.58868734 124.6875 157.9375 C142.49747196 164.37159701 163.15760947 175.9188133 173.625 192.25 C173.59003165 196.62803734 171.31422448 199.56670393 168.9375 203.125 C164.47498839 210.11346158 161.25318442 217.39706399 158.625 225.25 C158.20992187 226.47460938 157.79484375 227.69921875 157.3671875 228.9609375 C151.75703143 247.59129136 152.82376888 268.86216922 158.625 287.25 C158.625 288.24 158.625 289.23 158.625 290.25 C104.175 290.25 49.725 290.25 -6.375 290.25 C-11.05129179 271.54483283 -11.05129179 271.54483283 -11.375 265.25 C-11.41834473 264.50782227 -11.46168945 263.76564453 -11.50634766 263.00097656 C-12.79700366 234.79513359 -3.98533211 207.9063458 15.03710938 186.67382812 C20.70396514 180.55781603 26.53255263 175.19143155 33.56640625 170.65234375 C35.50850353 169.32935907 36.99489832 167.92885673 38.625 166.25 C38.24915771 165.59854004 37.87331543 164.94708008 37.48608398 164.27587891 C21.61572266 136.7672526 5.74536133 109.2586263 -10.125 81.75 C-10.74479736 80.67572754 -11.36459473 79.60145508 -12.00317383 78.49462891 C-13.24274495 76.34595273 -14.48216756 74.19719087 -15.72143555 72.04833984 C-18.65181778 66.96756907 -21.58372063 61.8876935 -24.52090454 56.81085205 C-25.90938027 54.41069899 -27.29700833 52.01005639 -28.68457031 49.609375 C-29.6651883 47.91358382 -30.64703309 46.21850224 -31.62890625 44.5234375 C-32.51835938 42.98429687 -32.51835938 42.98429687 -33.42578125 41.4140625 C-33.94825439 40.51123535 -34.47072754 39.6084082 -35.0090332 38.67822266 C-38.67479383 32.16175166 -38.67479383 32.16175166 -38.75 27.875 C-38.77835938 27.14539063 -38.80671875 26.41578125 -38.8359375 25.6640625 C-37.94325751 20.98884018 -35.37328282 17.99800108 -31.6328125 15.1953125 C-30.59898438 14.59460937 -29.56515625 13.99390625 -28.5 13.375 C-27.94135254 13.0462085 -27.38270508 12.71741699 -26.80712891 12.37866211 C-25.0038183 11.32243732 -23.18976538 10.2863967 -21.375 9.25 C-20.08797418 8.49967048 -18.80151905 7.74836123 -17.515625 6.99609375 C-5.67520025 0.1162157 -5.67520025 0.1162157 0 0 Z " fill="#B78358" transform="translate(85.375,-0.25)"/>
<path d="M0 0 C11.075625 -0.0825 22.15125 -0.165 33.5625 -0.25 C37.0488501 -0.28641602 40.5352002 -0.32283203 44.12719727 -0.36035156 C48.4119873 -0.37841797 48.4119873 -0.37841797 50.42320251 -0.3817749 C51.81628034 -0.38788374 53.20933811 -0.40188247 54.60227966 -0.42230225 C69.94481445 -0.63580917 69.94481445 -0.63580917 76.7421875 5.59765625 C81.5199457 11.77579186 81.85137237 17.3666727 81 25 C78.86984298 30.7018427 75.33986214 34.09790101 70 37 C66.23508833 38.25497056 62.72793525 38.10661648 58.8125 38.0625 C56.20834125 38.04062238 53.60417021 38.02048644 51 38 C50.88261538 38.62036636 50.76523075 39.24073273 50.64428902 39.87989807 C47.23095652 57.87525423 43.62565055 75.82853754 39.93781042 93.76928329 C39.48533344 95.97084904 39.03327347 98.17250005 38.58133316 100.37417603 C36.99760957 108.08901801 35.41196853 115.8034633 33.82470703 123.51757812 C32.35474675 130.66191541 30.88949629 137.80720836 29.42626083 144.95292568 C28.15799794 151.14529944 26.88623842 157.33694863 25.61183655 163.52806187 C24.85568287 167.20185341 24.1009378 170.87591989 23.3498497 174.55075073 C22.51546109 178.6325394 21.67381238 182.71279898 20.83154297 186.79296875 C20.58836334 187.98786926 20.34518372 189.18276978 20.09463501 190.41387939 C15.3076272 213.48466096 15.3076272 213.48466096 6 220 C3.06631044 221.70582114 0.97411809 222.25061865 -2.41100883 222.25447559 C-3.29308852 222.26030779 -4.17516821 222.26613998 -5.08397758 222.27214891 C-6.53113991 222.26647992 -6.53113991 222.26647992 -8.00753784 222.26069641 C-9.03577734 222.26452196 -10.06401684 222.26834751 -11.12341511 222.27228898 C-14.57956135 222.28263328 -18.03554191 222.27862407 -21.49169922 222.2746582 C-23.96528274 222.2790039 -26.43886491 222.28418656 -28.91244507 222.29014587 C-34.94049191 222.30216835 -40.96847328 222.30468533 -46.99652611 222.30234561 C-51.89627031 222.30056324 -56.79600098 222.30231035 -61.69574356 222.30657005 C-62.74141866 222.30746284 -62.74141866 222.30746284 -63.80821852 222.30837366 C-65.224382 222.3095854 -66.64054547 222.31079953 -68.05670895 222.31201603 C-81.34124792 222.32289548 -94.62576153 222.32072727 -107.91030194 222.31463119 C-120.06309599 222.30946263 -132.21580988 222.3207151 -144.36858808 222.33972941 C-156.84634821 222.35910253 -169.3240704 222.36736467 -181.80184567 222.36360615 C-188.80742666 222.36169318 -195.81293942 222.3641909 -202.81850815 222.37832069 C-209.4061684 222.39147304 -215.99369456 222.38898157 -222.58136368 222.37590981 C-225.00090844 222.37353828 -227.42046442 222.37629922 -229.83999634 222.38453293 C-233.1396838 222.39495314 -236.43882725 222.38693727 -239.73849487 222.3742218 C-240.69880832 222.38159609 -241.65912176 222.38897037 -242.64853561 222.39656812 C-249.25770593 222.34288895 -253.43917878 221.13401768 -258.625 216.8125 C-263.8625459 210.61014302 -265.800407 203.79785765 -267.359375 195.953125 C-267.55347961 195.01950134 -267.74758423 194.08587769 -267.9475708 193.1239624 C-268.35262248 191.16526313 -268.75235093 189.20545612 -269.14697266 187.24462891 C-269.75149839 184.24255901 -270.37236075 181.24422592 -270.99609375 178.24609375 C-271.38897142 176.33613279 -271.78093097 174.42598269 -272.171875 172.515625 C-272.3561908 171.62079407 -272.54050659 170.72596313 -272.73040771 169.80401611 C-272.98132172 168.5518631 -272.98132172 168.5518631 -273.23730469 167.27441406 C-273.3851239 166.54353577 -273.53294312 165.81265747 -273.6852417 165.05963135 C-274 163 -274 163 -274 159 C-183.58 159 -93.16 159 0 159 C0.66 154.71 1.32 150.42 2 146 C2.72552072 141.90974552 3.46723632 137.82902961 4.25 133.75 C4.46035889 132.65187988 4.67071777 131.55375977 4.88745117 130.42236328 C7.21539848 118.5243423 10.06488778 106.76062146 13 95 C8.71 95 4.42 95 0 95 C0 63.65 0 32.3 0 0 Z " fill="#7FB8F8" transform="translate(384,290)"/>
<path d="M0 0 C5.62086111 5.41769745 10.26195468 11.01678423 14.40625 17.625 C15.06496094 18.65109375 15.72367188 19.6771875 16.40234375 20.734375 C30.44511534 43.7762006 33.12627861 69.3388474 29.40625 95.625 C28.8508252 95.55498779 28.29540039 95.48497559 27.72314453 95.4128418 C2.94105523 92.44936717 -20.78085745 96.43823177 -42.59375 108.625 C-43.5940625 109.181875 -44.594375 109.73875 -45.625 110.3125 C-55.66901281 116.315818 -64.30222683 124.51059604 -71.59375 133.625 C-75.43409946 132.09234353 -77.39392858 129.7559853 -80.03125 126.625 C-96.63011705 107.78867787 -120.93624104 97.53210181 -145.59375 94.625 C-165.31608667 93.55214694 -184.40249633 96.47474151 -201.95166016 105.85986328 C-203.59375 106.625 -203.59375 106.625 -205.59375 106.625 C-204.24069351 103.05595812 -202.65685902 99.7707167 -200.79296875 96.44140625 C-200.23375732 95.44125488 -199.6745459 94.44110352 -199.09838867 93.41064453 C-198.49873291 92.34700684 -197.89907715 91.28336914 -197.28125 90.1875 C-196.35759644 88.54177002 -196.35759644 88.54177002 -195.4152832 86.86279297 C-190.5978829 78.31612917 -185.64852534 69.85237807 -180.59448242 61.44360352 C-179.82648315 60.16054321 -179.82648315 60.16054321 -179.04296875 58.8515625 C-178.59268311 58.10471191 -178.14239746 57.35786133 -177.6784668 56.58837891 C-176.45710194 54.51834072 -176.45710194 54.51834072 -175.59375 51.625 C-174.93375 51.625 -174.27375 51.625 -173.59375 51.625 C-173.50738281 51.04234375 -173.42101562 50.4596875 -173.33203125 49.859375 C-172.0910621 42.61849077 -169.62160947 36.29560732 -166.59375 29.625 C-166.16642578 28.61179687 -166.16642578 28.61179687 -165.73046875 27.578125 C-158.36983947 11.25217948 -143.92088691 -4.30887509 -128.59375 -13.375 C-127.47613281 -14.04015625 -126.35851562 -14.7053125 -125.20703125 -15.390625 C-113.5062468 -22.09986163 -100.95350992 -26.3571196 -87.59375 -28.375 C-86.8925 -28.49746094 -86.19125 -28.61992187 -85.46875 -28.74609375 C-54.03294761 -33.16675346 -22.97776812 -21.03988406 0 0 Z " fill="#FCE9AE" transform="translate(332.59375,59.375)"/>
<path d="M0 0 C84.48 0 168.96 0 256 0 C257.98 3.96 257.98 3.96 260 8 C264.22343142 11.92175775 266.99624721 13.39289026 272.83984375 13.265625 C276.56019944 12.80814907 279.29292724 11.61112588 282 9 C283.72058166 6.0511565 284.81312916 3.22828867 286 0 C290.29 0 294.58 0 299 0 C297.5897555 8.8663887 295.90378066 17.65493594 294.078125 26.44287109 C293.63005076 28.60067687 293.1858342 30.75924883 292.7421875 32.91796875 C290.59522611 43.30436532 288.30130279 53.64413744 286 64 C195.58 64 105.16 64 12 64 C10.74819503 60.24458509 9.67050106 56.88141415 8.85498047 53.07128906 C8.65492401 52.14302307 8.45486755 51.21475708 8.24874878 50.25836182 C8.04033356 49.27075867 7.83191833 48.28315552 7.6171875 47.265625 C7.39805695 46.23242126 7.17892639 45.19921753 6.95315552 44.13470459 C6.49233314 41.95317833 6.03354433 39.77122163 5.57666016 37.58886719 C4.87988281 34.27323497 4.16867516 30.96090598 3.45703125 27.6484375 C3.00952017 25.52102172 2.56287744 23.39342305 2.1171875 21.265625 C1.90472382 20.28611877 1.69226013 19.30661255 1.47335815 18.29742432 C1.27960602 17.35654968 1.08585388 16.41567505 0.88623047 15.44628906 C0.71461395 14.63387756 0.54299744 13.82146606 0.36618042 12.98443604 C-0.16112549 8.6867984 0 4.32986614 0 0 Z " fill="#E5EEF4" transform="translate(98,385)"/>
<path d="M0 0 C11.075625 -0.0825 22.15125 -0.165 33.5625 -0.25 C37.0488501 -0.28641602 40.5352002 -0.32283203 44.12719727 -0.36035156 C48.4119873 -0.37841797 48.4119873 -0.37841797 50.42320251 -0.3817749 C51.81628034 -0.38788374 53.20933811 -0.40188247 54.60227966 -0.42230225 C69.94481445 -0.63580917 69.94481445 -0.63580917 76.7421875 5.59765625 C81.5199457 11.77579186 81.85137237 17.3666727 81 25 C78.86984298 30.7018427 75.33986214 34.09790101 70 37 C66.23508833 38.25497056 62.72793525 38.10661648 58.8125 38.0625 C56.20834125 38.04062238 53.60417021 38.02048644 51 38 C50.88261538 38.62036636 50.76523075 39.24073273 50.64428902 39.87989807 C47.23095652 57.87525423 43.62565055 75.82853754 39.93781042 93.76928329 C39.48533344 95.97084904 39.03327347 98.17250005 38.58133316 100.37417603 C36.99760957 108.08901801 35.41196853 115.8034633 33.82470703 123.51757812 C32.35474675 130.66191541 30.88949629 137.80720836 29.42626083 144.95292568 C28.15799794 151.14529944 26.88623842 157.33694863 25.61183655 163.52806187 C24.85568287 167.20185341 24.1009378 170.87591989 23.3498497 174.55075073 C22.51546109 178.6325394 21.67381238 182.71279898 20.83154297 186.79296875 C20.58836334 187.98786926 20.34518372 189.18276978 20.09463501 190.41387939 C15.3076272 213.48466096 15.3076272 213.48466096 6 220 C2.47064271 222.21397706 -0.38981903 222.23281983 -4.515625 222.1953125 C-6.39121094 222.18564453 -6.39121094 222.18564453 -8.3046875 222.17578125 C-9.60664063 222.15902344 -10.90859375 222.14226562 -12.25 222.125 C-13.56742187 222.11597656 -14.88484375 222.10695313 -16.2421875 222.09765625 C-19.49497462 222.07408533 -22.74739589 222.04118022 -26 222 C-25.01 221.34 -24.02 220.68 -23 220 C-21.989375 219.29875 -20.97875 218.5975 -19.9375 217.875 C-17 216 -17 216 -15 216 C-10.78895892 208.22577032 -9.10428148 200.2447288 -7.5625 191.625 C-5.6330209 181.00961666 -3.34426637 170.54919867 -1 160 C-91.09 160 -181.18 160 -274 160 C-274 159.67 -274 159.34 -274 159 C-183.58 159 -93.16 159 0 159 C0.66 154.71 1.32 150.42 2 146 C2.72552072 141.90974552 3.46723632 137.82902961 4.25 133.75 C4.46035889 132.65187988 4.67071777 131.55375977 4.88745117 130.42236328 C7.21539848 118.5243423 10.06488778 106.76062146 13 95 C8.71 95 4.42 95 0 95 C0 63.65 0 32.3 0 0 Z " fill="#C7D5E1" transform="translate(384,290)"/>
<path d="M0 0 C0.92544611 -0.00085442 1.85089222 -0.00170885 2.80438215 -0.00258917 C5.91829833 -0.00424174 9.03216113 0.00127381 12.14607239 0.00672913 C14.37308755 0.00701107 16.60010281 0.00685312 18.82711792 0.00628662 C24.88460642 0.00599893 30.94207525 0.01189105 36.99955916 0.01886058 C43.3256837 0.02509887 49.65180865 0.02569829 55.97793579 0.02688599 C66.59974042 0.02964402 77.22153724 0.03589627 87.84333801 0.04481506 C98.78441837 0.0539924 109.72549677 0.06107166 120.6665802 0.06532288 C121.34085303 0.0655856 122.01512586 0.06584832 122.7098312 0.06611901 C126.09241939 0.06742403 129.47500759 0.06868774 132.8575958 0.06993091 C160.9248699 0.08029964 188.99213535 0.09818957 217.05940247 0.12025452 C217.05940247 12.33025452 217.05940247 24.54025452 217.05940247 37.12025452 C188.53203535 37.33831037 160.00461528 37.53733077 131.47691429 37.7066981 C128.10743676 37.72672074 124.73796032 37.74691951 121.3684845 37.76722717 C120.69769466 37.77126703 120.02690482 37.77530689 119.33578801 37.77946916 C108.48056537 37.84526501 97.62549254 37.92532316 86.77040803 38.01067111 C75.62852546 38.09795581 64.48660276 38.16956784 53.34452534 38.22757554 C47.08765965 38.2606454 40.83102142 38.30082124 34.57432556 38.35797882 C28.68441805 38.4115616 22.79470267 38.4461711 16.9045887 38.4662838 C14.74385031 38.47699664 12.58313332 38.49461831 10.42251396 38.519701 C7.46919042 38.55294703 4.51679534 38.56118413 1.56330872 38.56330872 C0.28506776 38.58662219 0.28506776 38.58662219 -1.01899624 38.61040664 C-7.36990184 38.57482155 -12.66525053 37.06972354 -17.46939087 32.74356723 C-20.99978173 28.81428234 -22.90148638 25.06825812 -22.97184753 19.76478577 C-22.61485004 13.86540214 -21.4637597 9.88128448 -17.94059753 5.12025452 C-11.94991383 0.47441818 -7.36891974 -0.02465438 0 0 Z " fill="#E5EEF4" transform="translate(76.94059753417969,289.87974548339844)"/>
<path d="M0 0 C0.75023437 -0.02578125 1.50046875 -0.0515625 2.2734375 -0.078125 C6.35115127 0.49085832 8.84546755 2.23731972 11.3359375 5.47265625 C12.15964844 6.87837891 12.15964844 6.87837891 13 8.3125 C13.48811157 9.13584839 13.48811157 9.13584839 13.98608398 9.97583008 C15.21350103 12.0590759 16.41911628 14.15421512 17.625 16.25 C18.73284063 18.15898899 19.84093346 20.06783163 20.94921875 21.9765625 C23.85472709 26.99203256 26.7468113 32.01509064 29.63299561 37.04170227 C32.50488756 42.04307601 35.38556407 47.03933846 38.26879883 52.03417969 C39.50230867 54.17120345 40.73522279 56.30857118 41.9675293 58.44628906 C44.90388836 63.53974416 47.84409431 68.63087823 50.79669189 73.7149353 C52.19568053 76.12434008 53.59267029 78.5349009 54.98950195 80.94555664 C55.97998071 82.65298982 56.9733594 84.35873972 57.96679688 86.06445312 C58.56298828 87.09376953 59.15917969 88.12308594 59.7734375 89.18359375 C60.30114746 90.09165771 60.82885742 90.99972168 61.37255859 91.93530273 C62.625 94.25 62.625 94.25 63.625 97.25 C62.61206055 99.61572266 62.61206055 99.61572266 61.01171875 102.4140625 C60.42793457 103.44563477 59.84415039 104.47720703 59.24267578 105.54003906 C58.60571777 106.64057617 57.96875977 107.74111328 57.3125 108.875 C56.67038574 110.00131836 56.02827148 111.12763672 55.36669922 112.28808594 C53.46460155 115.6156888 51.54777223 118.93430892 49.625 122.25 C49.12339355 123.11786133 48.62178711 123.98572266 48.10498047 124.87988281 C42.76662073 134.09876779 37.25541128 143.20674166 31.625 152.25 C28.82936225 149.75615208 27.19246596 146.99784919 25.359375 143.74609375 C24.72443115 142.62638184 24.0894873 141.50666992 23.43530273 140.35302734 C23.10005585 139.7565741 22.76480896 139.16012085 22.41940308 138.54559326 C20.99507921 136.01158447 19.56010114 133.48366239 18.1259613 130.9552002 C17.38446655 129.64750414 16.64355649 128.33947639 15.9032135 127.03112793 C12.32487146 120.70870435 8.69879869 114.41425348 5.0625 108.125 C3.82160933 105.97656553 2.58072392 103.82812803 1.33984375 101.6796875 C0.72737793 100.61975586 0.11491211 99.55982422 -0.51611328 98.46777344 C-4.25755445 91.9912572 -7.99397658 85.51184311 -11.73046875 79.0324707 C-14.62315648 74.01698469 -17.51729847 69.00236046 -20.41775513 63.99136353 C-21.43517706 62.23341931 -22.45204461 60.47515558 -23.46875 58.71679688 C-24.7371881 56.52345599 -26.00664102 54.33070153 -27.27734375 52.13867188 C-28.98671518 49.1814593 -30.68355813 46.2174987 -32.375 43.25 C-32.95024414 42.25121826 -33.52548828 41.25243652 -34.11816406 40.22338867 C-34.66311523 39.25763916 -35.20806641 38.29188965 -35.76953125 37.296875 C-36.25655518 36.44061523 -36.7435791 35.58435547 -37.24536133 34.70214844 C-38.98206624 30.93221886 -39.48924313 27.26561648 -38.375 23.25 C-35.75722876 18.52210942 -33.14470342 16.07379276 -28.5 13.375 C-27.94135254 13.0462085 -27.38270508 12.71741699 -26.80712891 12.37866211 C-25.0038183 11.32243732 -23.18976538 10.2863967 -21.375 9.25 C-20.08797418 8.49967048 -18.80151905 7.74836123 -17.515625 6.99609375 C-5.67520025 0.1162157 -5.67520025 0.1162157 0 0 Z " fill="#EFB3A2" transform="translate(85.375,-0.25)"/>
<path d="M0 0 C25.643825 -0.74449815 48.84228389 8.5308478 67.7421875 25.82421875 C89.30075054 46.3947341 100.10303989 72.59607836 101.00390625 102.2109375 C101.13116859 113.22694399 99.7293567 124.60042246 96 135 C95 136 95 136 92.59155273 136.11352539 C91.54942627 136.10828857 90.5072998 136.10305176 89.43359375 136.09765625 C88.30888672 136.09443359 87.18417969 136.09121094 86.02539062 136.08789062 C84.84138672 136.07951172 83.65738281 136.07113281 82.4375 136.0625 C81.24962891 136.05798828 80.06175781 136.05347656 78.83789062 136.04882812 C75.89187774 136.03699675 72.94596319 136.02051287 70 136 C70.20496094 135.01 70.40992188 134.02 70.62109375 133 C70.89338761 131.66669902 71.16551402 130.33336382 71.4375 129 C71.57220703 128.35160156 71.70691406 127.70320313 71.84570312 127.03515625 C77.76967823 97.8487423 73.25262806 66.43251741 56.85644531 41.24316406 C54.39610673 37.69853833 51.72728006 34.34078919 49 31 C48.53464844 30.3709375 48.06929688 29.741875 47.58984375 29.09375 C36.17317421 14.2904843 17.65023732 5.59389739 0 1 C0 0.67 0 0.34 0 0 Z " fill="#EA6C9D" transform="translate(345,154)"/>
<path d="M0 0 C16.68972122 -0.16043524 16.68972122 -0.16043524 23.83007812 -0.1953125 C28.69329387 -0.21917997 33.556207 -0.24734751 38.41918945 -0.30175781 C42.34198754 -0.34537165 46.26446091 -0.36916967 50.18748283 -0.37950897 C51.6805628 -0.38687263 53.17362595 -0.40125219 54.66656685 -0.42292023 C63.497835 -0.54594122 69.95141662 -0.62975472 76.7421875 5.59765625 C81.5199457 11.77579186 81.85137237 17.3666727 81 25 C78.86984298 30.7018427 75.33986214 34.09790101 70 37 C66.45111591 38.18296136 63.69098235 38.11407666 59.94140625 38.09375 C59.20628311 38.09016479 58.47115997 38.08657959 57.71376038 38.08288574 C46.45361898 38.00546739 35.19506653 37.73964246 23.9375 37.5 C21.60612311 37.45166282 19.27474291 37.40348464 16.94335938 37.35546875 C11.29552489 37.23910129 5.64777279 37.11948443 0 37 C0 24.79 0 12.58 0 0 Z " fill="#E5EEF4" transform="translate(384,290)"/>
<path d="M0 0 C32.59674854 0.67418301 59.47425711 10.61241994 82.69140625 34.4453125 C86.24561836 38.37840001 89.18663348 42.51399415 92 47 C92.65871094 48.02609375 93.31742187 49.0521875 93.99609375 50.109375 C108.11232742 73.27173951 110.53359779 98.60194595 107 125 C98.75 124.34 90.5 123.68 82 123 C82.04640625 120.83824219 82.0928125 118.67648438 82.140625 116.44921875 C82.55655151 93.44645487 82.55655151 93.44645487 78 71 C77.79101074 70.31244629 77.58202148 69.62489258 77.36669922 68.91650391 C72.82209311 54.38397697 65.10114659 41.37852895 55 30 C54.33742188 29.24332031 53.67484375 28.48664062 52.9921875 27.70703125 C38.74340747 12.43297 19.28124843 4.962038 -1 2 C-0.67 1.34 -0.34 0.68 0 0 Z " fill="#F8CC7D" transform="translate(255,30)"/>
<path d="M0 0 C0.75023437 -0.02578125 1.50046875 -0.0515625 2.2734375 -0.078125 C6.56490335 0.52068419 8.9921608 2.48586145 11.71484375 5.7734375 C12.62943359 7.18496094 12.62943359 7.18496094 13.5625 8.625 C14.19027344 9.56085937 14.81804687 10.49671875 15.46484375 11.4609375 C16.625 14.25 16.625 14.25 16.08203125 16.61328125 C15.36080078 17.91845703 15.36080078 17.91845703 14.625 19.25 C14.33165771 19.80816406 14.03831543 20.36632812 13.73608398 20.94140625 C12.6456578 22.99947604 11.51462569 25.03126882 10.375 27.0625 C9.94606445 27.83078125 9.51712891 28.5990625 9.07519531 29.390625 C1.16723481 43.48137517 -7.03190736 57.41304527 -15.375 71.25 C-18.207452 67.86168941 -20.51417778 64.47066069 -22.65234375 60.609375 C-23.24853516 59.53816406 -23.84472656 58.46695313 -24.45898438 57.36328125 C-25.07064453 56.25339844 -25.68230469 55.14351562 -26.3125 54 C-26.92029297 52.90558594 -27.52808594 51.81117187 -28.15429688 50.68359375 C-29.34576362 48.5371542 -30.53329378 46.38852396 -31.71655273 44.23754883 C-32.76311807 42.3522522 -33.82569322 40.47567336 -34.91040039 38.61206055 C-35.36278076 37.8312915 -35.81516113 37.05052246 -36.28125 36.24609375 C-36.67505859 35.5802124 -37.06886719 34.91433105 -37.47460938 34.22827148 C-39.08340097 30.69355394 -39.32295138 26.99604237 -38.375 23.25 C-35.76718288 18.51684247 -33.14306823 16.07284264 -28.5 13.375 C-27.94135254 13.0462085 -27.38270508 12.71741699 -26.80712891 12.37866211 C-25.0038183 11.32243732 -23.18976538 10.2863967 -21.375 9.25 C-20.08797418 8.49967048 -18.80151905 7.74836123 -17.515625 6.99609375 C-5.67520025 0.1162157 -5.67520025 0.1162157 0 0 Z " fill="#EFB3A2" transform="translate(85.375,-0.25)"/>
<path d="M0 0 C3.43756919 4.51908778 6.54245823 9.19369335 9.5625 14 C10.17158203 14.88300781 10.78066406 15.76601562 11.40820312 16.67578125 C13.14619747 19.50488395 14.30632712 21.74734586 15 25 C13.82808423 29.52729566 11.52315948 33.09777547 9 37 C7.90638972 38.91434338 6.81905038 40.83228399 5.73828125 42.75390625 C4.60045219 44.69251525 3.45842305 46.62866438 2.3125 48.5625 C1.08265154 50.64673326 -0.14650537 52.73137472 -1.375 54.81640625 C-1.98214844 55.84652832 -2.58929688 56.87665039 -3.21484375 57.93798828 C-4.9233576 60.86853815 -6.5941647 63.81677155 -8.25 66.77734375 C-8.74798096 67.66156006 -9.24596191 68.54577637 -9.7590332 69.45678711 C-10.69355912 71.12059783 -11.61955096 72.78923812 -12.53588867 74.46313477 C-13.6070251 76.35847832 -14.79286854 78.18823455 -16 80 C-16.99 80 -17.98 80 -19 80 C-19.28721924 79.48091064 -19.57443848 78.96182129 -19.87036133 78.42700195 C-21.1834974 76.05499613 -22.49798679 73.68374289 -23.8125 71.3125 C-24.49022461 70.08756836 -24.49022461 70.08756836 -25.18164062 68.83789062 C-25.62314453 68.04189453 -26.06464844 67.24589844 -26.51953125 66.42578125 C-26.94443848 65.65186035 -27.3693457 64.87793945 -27.80712891 64.08056641 C-29.05069677 61.83719401 -29.05069677 61.83719401 -30.94921875 59.23046875 C-32 57 -32 57 -31.23852539 54.68017578 C-30.00443595 52.00959942 -28.67316619 49.45269 -27.234375 46.88671875 C-26.68040039 45.89687988 -26.12642578 44.90704102 -25.55566406 43.88720703 C-24.95979492 42.83130371 -24.36392578 41.77540039 -23.75 40.6875 C-23.13608398 39.59550293 -22.52216797 38.50350586 -21.88964844 37.37841797 C-5.24543907 7.86815861 -5.24543907 7.86815861 0 0 Z " fill="#EFB3A2" transform="translate(134,71)"/>
<path d="M0 0 C8.91 0 17.82 0 27 0 C25.80039665 6.08516742 24.59491898 12.16856648 23.37451172 18.24951172 C22.96188497 20.31458115 22.5526415 22.38032982 22.14697266 24.44677734 C21.56019726 27.43255581 20.96092881 30.41560574 20.359375 33.3984375 C20.18315613 34.30927094 20.00693726 35.22010437 19.82537842 36.15853882 C18.03097316 44.93838633 16.07737703 53.13950523 8.78125 58.84375 C4.51072891 61.61584264 1.65120352 62.24228367 -3.515625 62.1953125 C-5.39121094 62.18564453 -5.39121094 62.18564453 -7.3046875 62.17578125 C-8.60664063 62.15902344 -9.90859375 62.14226563 -11.25 62.125 C-12.56742187 62.11597656 -13.88484375 62.10695313 -15.2421875 62.09765625 C-18.49497462 62.07408533 -21.74739589 62.04118022 -25 62 C-24.01 61.34 -23.02 60.68 -22 60 C-20.989375 59.29875 -19.97875 58.5975 -18.9375 57.875 C-16 56 -16 56 -14 56 C-9.78830224 48.22455799 -8.10799858 40.24473298 -6.5625 31.625 C-4.59766621 21.02134946 -2.4053508 10.51227387 0 0 Z " fill="#3286DB" transform="translate(383,450)"/>
<path d="M0 0 C8.91 0 17.82 0 27 0 C24.33344142 14.03864662 21.61807538 28.0638103 18.75 42.0625 C18.49202637 43.33440186 18.23405273 44.60630371 17.96826172 45.91674805 C17.7260791 47.09019775 17.48389648 48.26364746 17.234375 49.47265625 C16.91291504 51.03898804 16.91291504 51.03898804 16.58496094 52.63696289 C16 55 16 55 15 56 C13.07332493 56.08748207 11.14348139 56.10697334 9.21484375 56.09765625 C7.46010742 56.09282227 7.46010742 56.09282227 5.66992188 56.08789062 C3.82237305 56.07532227 3.82237305 56.07532227 1.9375 56.0625 C0.08415039 56.05573242 0.08415039 56.05573242 -1.80664062 56.04882812 C-4.87114117 56.03699608 -7.93554721 56.02051173 -11 56 C-7.44176527 37.31090939 -3.75335204 18.65067715 0 0 Z " fill="#3285DB" transform="translate(408,328)"/>
<path d="M0 0 C29.74043634 -1.23918485 53.93962171 9.81864226 75.75390625 29.86328125 C78.51403187 32.48900075 80.89872893 34.81186458 83 38 C82.7001904 42.4146964 80.71622786 45.30672629 78.3125 48.9375 C73.99296199 55.63884848 70.93149318 62.59353807 68 70 C65.40975313 67.40975313 64.51971326 64.4841989 63.25 61.125 C54.01845783 37.56835943 39.03588399 16.95360424 15.43359375 6.40625 C12.3096347 5.18367672 9.18415792 4.05432888 6 3 C4.88625 2.62746094 3.7725 2.25492188 2.625 1.87109375 C1.75875 1.58363281 0.8925 1.29617187 0 1 C0 0.67 0 0.34 0 0 Z " fill="#945E39" transform="translate(176,154)"/>
<path d="M0 0 C16.5 0 33 0 50 0 C50 0.33 50 0.66 50 1 C41.42 1 32.84 1 24 1 C23.67 4.63 23.34 8.26 23 12 C22.69411346 13.89312223 22.35444398 15.78187787 21.94921875 17.65625 C21.64612793 19.08300049 21.64612793 19.08300049 21.33691406 20.53857422 C21.0154541 22.00447998 21.0154541 22.00447998 20.6875 23.5 C20.23825886 25.59634937 19.78904043 27.6927036 19.33984375 29.7890625 C19.11538574 30.82579102 18.89092773 31.86251953 18.65966797 32.93066406 C18.03122682 35.8547063 17.41979946 38.78163521 16.81640625 41.7109375 C16.6356958 42.58556641 16.45498535 43.46019531 16.26879883 44.36132812 C15.92998033 46.00296356 15.59251755 47.64487956 15.2565918 49.28710938 C14.11245045 54.7750991 14.11245045 54.7750991 13 57 C21.58 57 30.16 57 39 57 C38.67 58.32 38.34 59.64 38 61 C38 60.01 38 59.02 38 58 C25.46 58 12.92 58 0 58 C0 38.86 0 19.72 0 0 Z " fill="#81B8F7" transform="translate(384,327)"/>
<path d="M0 0 C8.74513216 -0.09287593 17.4900933 -0.16385368 26.23561192 -0.20724869 C30.29698225 -0.22808123 34.35801397 -0.25631866 38.41918945 -0.30175781 C42.34198754 -0.34537165 46.26446091 -0.36916967 50.18748283 -0.37950897 C51.6805628 -0.38687263 53.17362595 -0.40125219 54.66656685 -0.42292023 C63.497835 -0.54594122 69.95141662 -0.62975472 76.7421875 5.59765625 C81.5199457 11.77579186 81.85137237 17.3666727 81 25 C78.86984298 30.7018427 75.33986214 34.09790101 70 37 C66.23962409 38.25345864 62.72762801 38.14519842 58.8125 38.125 C57.71711914 38.13080078 57.71711914 38.13080078 56.59960938 38.13671875 C51.651298 38.12795292 46.89879825 37.69903576 42 37 C45 35 45 35 47.4375 33.8125 C50.85027971 31.39858264 52.70274519 28.9193656 54 25 C55.02908129 18.06322983 54.56347807 12.52293236 50.6796875 6.62109375 C45.48149876 1.60423718 39.80292807 1.53601656 33.0078125 1.48828125 C32.06187225 1.47033005 31.11593201 1.45237885 30.1413269 1.43388367 C27.13592921 1.37993363 24.13068896 1.34593396 21.125 1.3125 C19.08070733 1.27931343 17.0364354 1.24482253 14.9921875 1.20898438 C9.99490552 1.12421585 4.99766901 1.05733161 0 1 C0 0.67 0 0.34 0 0 Z " fill="#CFD5DE" transform="translate(384,290)"/>
<path d="M0 0 C0.66 0 1.32 0 2 0 C3.76171875 2.4140625 3.76171875 2.4140625 5.6875 5.625 C6.33074219 6.66914063 6.97398438 7.71328125 7.63671875 8.7890625 C9.30173256 12.71067096 9.32067024 13.96030281 8 18 C6.27059287 21.55810293 4.3084241 24.9607597 2.3125 28.375 C1.45313843 29.86749268 1.45313843 29.86749268 0.57641602 31.39013672 C-0.64304392 33.50408744 -1.86688308 35.61551702 -3.09472656 37.72460938 C-5.01976007 41.0339699 -6.92902795 44.35204369 -8.8359375 47.671875 C-10.07735304 49.82336227 -11.319519 51.97441676 -12.5625 54.125 C-13.43684692 55.64359619 -13.43684692 55.64359619 -14.32885742 57.19287109 C-16.96337866 61.71851857 -19.53024428 66.04668419 -23 70 C-24.37298244 67.94803718 -25.72269162 65.88595971 -27.0625 63.8125 C-27.45244141 63.23435547 -27.84238281 62.65621094 -28.24414062 62.06054688 C-31.05655806 57.65525584 -31.05655806 57.65525584 -30.79736328 54.65234375 C-29.86208786 51.54124999 -28.52389777 49.04271571 -26.89453125 46.23046875 C-26.24693848 45.10479492 -25.5993457 43.97912109 -24.93212891 42.81933594 C-24.22591556 41.60853165 -23.51936529 40.39792381 -22.8125 39.1875 C-22.09244495 37.94462041 -21.37288651 36.70145299 -20.65380859 35.45800781 C-19.17574099 32.90456709 -17.69340935 30.35366426 -16.20849609 27.80419922 C-14.42070282 24.73091191 -12.65057341 21.64798531 -10.8891449 18.55952454 C-9.30681641 15.78640181 -7.71508063 13.01868285 -6.125 10.25 C-5.5369458 9.21512451 -4.9488916 8.18024902 -4.34301758 7.11401367 C-3.7992749 6.17404541 -3.25553223 5.23407715 -2.6953125 4.265625 C-2.22109863 3.43836914 -1.74688477 2.61111328 -1.25830078 1.75878906 C-0.84306152 1.17838867 -0.42782227 0.59798828 0 0 Z " fill="#B8845A" transform="translate(101,16)"/>
<path d="M0 0 C1.85546875 0.10546875 1.85546875 0.10546875 4 1 C5.73828125 3.36328125 5.73828125 3.36328125 7.3125 6.3125 C7.84488281 7.27800781 8.37726563 8.24351563 8.92578125 9.23828125 C10.14307643 12.36783649 10.06927543 12.93517815 9 16 C8.01388033 17.91665838 6.97085523 19.80437987 5.89453125 21.671875 C5.24677734 22.80077148 4.59902344 23.92966797 3.93164062 25.09277344 C3.22540782 26.31193436 2.51902437 27.53100802 1.8125 28.75 C1.09404655 29.99751727 0.37595124 31.24524085 -0.34179688 32.49316406 C-2.55324959 36.33339801 -4.77499656 40.16760446 -7 44 C-7.35451233 44.61069336 -7.70902466 45.22138672 -8.07427979 45.85058594 C-12.36727023 53.24283932 -16.67617048 60.6257415 -21 68 C-25.44697189 66.51767604 -27.38107552 63.75587364 -29.66455078 59.72949219 C-31.10588078 56.17381091 -31.29039543 53.88875303 -30.08789062 50.20849609 C-27.06740974 43.92805624 -23.27429051 38.10384162 -19.44030762 32.29589844 C-15.55890011 26.4105056 -12.08156879 20.31743253 -8.61334229 14.18249512 C-7.03972144 11.40414522 -5.44689266 8.63702052 -3.8515625 5.87109375 C-3.32385254 4.95255615 -2.79614258 4.03401855 -2.25244141 3.08764648 C-1 1 -1 1 0 0 Z " fill="#B8845A" transform="translate(124,58)"/>
<path d="M0 0 C0.33 0 0.66 0 1 0 C1 14.52 1 29.04 1 44 C-9 47.25 -9 47.25 -12.1015625 48.24707031 C-17.69229009 50.08828904 -22.76847692 52.31289951 -28 55 C-28.66 55 -29.32 55 -30 55 C-28.64694351 51.43095812 -27.06310902 48.1457167 -25.19921875 44.81640625 C-24.64000732 43.81625488 -24.0807959 42.81610352 -23.50463867 41.78564453 C-22.90498291 40.72200684 -22.30532715 39.65836914 -21.6875 38.5625 C-20.76384644 36.91677002 -20.76384644 36.91677002 -19.8215332 35.23779297 C-15.0041329 26.69112917 -10.05477534 18.22737807 -5.00073242 9.81860352 C-4.48873291 8.96322998 -3.9767334 8.10785645 -3.44921875 7.2265625 C-2.99893311 6.47971191 -2.54864746 5.73286133 -2.0847168 4.96337891 C-0.86335194 2.89334072 -0.86335194 2.89334072 0 0 Z " fill="#EFB3A1" transform="translate(157,111)"/>
<path d="M0 0 C2.30275556 1.8670991 3.67823871 3.35647741 5 6 C5.41563522 10.91996107 5.52206458 15.61957205 3 20 C-0.51824511 22.34549674 -1.85775694 22.57991403 -6 22 C-8.875 20.25 -8.875 20.25 -11 17 C-11.97644847 11.29880088 -12.0856927 6.66047118 -8.875 1.75 C-5.48695834 -0.31228623 -3.89180376 -0.74523902 0 0 Z " fill="#BA885C" transform="translate(220,74)"/>
<path d="M0 0 C3.08392784 2.28915878 3.91577359 3.47482353 4.53125 7.3125 C4.5209375 8.529375 4.510625 9.74625 4.5 11 C4.5103125 12.216875 4.520625 13.43375 4.53125 14.6875 C3.91577359 18.52517647 3.08392784 19.71084122 0 22 C-3.89180376 22.74523902 -5.48695834 22.31228623 -8.875 20.25 C-12.0856927 15.33952882 -11.97644847 10.70119912 -11 5 C-8.01087982 0.42840444 -5.43274083 -1.04031207 0 0 Z " fill="#B8855A" transform="translate(306,74)"/>
<path d="M0 0 C3.08392784 2.28915878 3.91577359 3.47482353 4.53125 7.3125 C4.5209375 8.529375 4.510625 9.74625 4.5 11 C4.5103125 12.216875 4.520625 13.43375 4.53125 14.6875 C3.91577359 18.52517647 3.08392784 19.71084122 0 22 C-3.89180376 22.74523902 -5.48695834 22.31228623 -8.875 20.25 C-12.0856927 15.33952882 -11.97644847 10.70119912 -11 5 C-8.01087982 0.42840444 -5.43274083 -1.04031207 0 0 Z " fill="#B9865A" transform="translate(263,74)"/>
<path d="M0 0 C2.97975696 2.21353374 3.89684579 3.39927841 4.53125 7.09375 C4.5209375 8.2178125 4.510625 9.341875 4.5 10.5 C4.5103125 11.6240625 4.520625 12.748125 4.53125 13.90625 C3.89684579 17.60072159 2.97975696 18.78646626 0 21 C-3.86818303 21.55259758 -5.99871124 21.74381451 -9.1875 19.375 C-11.55326687 16.27502961 -11.53547382 14.36664651 -11.5 10.5 C-11.51546875 8.81390625 -11.51546875 8.81390625 -11.53125 7.09375 C-10.38368478 0.41087018 -6.27998419 -0.8971406 0 0 Z " fill="#B88459" transform="translate(242,112)"/>
<path d="M0 0 C2.97975696 2.21353374 3.89684579 3.39927841 4.53125 7.09375 C4.5209375 8.2178125 4.510625 9.341875 4.5 10.5 C4.5103125 11.6240625 4.520625 12.748125 4.53125 13.90625 C3.89684579 17.60072159 2.97975696 18.78646626 0 21 C-3.86818303 21.55259758 -5.99871124 21.74381451 -9.1875 19.375 C-11.55326687 16.27502961 -11.53547382 14.36664651 -11.5 10.5 C-11.51546875 8.81390625 -11.51546875 8.81390625 -11.53125 7.09375 C-10.38368478 0.41087018 -6.27998419 -0.8971406 0 0 Z " fill="#B88559" transform="translate(285,112)"/>
<path d="M0 0 C6.6 0.33 13.2 0.66 20 1 C20 1.33 20 1.66 20 2 C18.329375 2.2165625 18.329375 2.2165625 16.625 2.4375 C13.17857953 2.78372035 13.17857953 2.78372035 11 4 C8.94938967 3.75290429 6.90747329 3.43007496 4.875 3.0625 C3.77929688 2.86785156 2.68359375 2.67320313 1.5546875 2.47265625 C0.71164063 2.31667969 -0.13140625 2.16070312 -1 2 C-0.67 1.34 -0.34 0.68 0 0 Z " fill="#F9D388" transform="translate(255,30)"/>
</svg>
