<?xml version="1.0" encoding="UTF-8"?>
<svg version="1.1" xmlns="http://www.w3.org/2000/svg" width="512" height="512">
<path d="M0 0 C5.18705054 4.8812103 7.89795895 11.69313586 10.625 18.125 C15.3720115 28.93220129 20.82367873 39.22817222 26.60546875 49.51220703 C27.87686067 51.78032393 29.12985105 54.05724774 30.375 56.33984375 C35.78621124 66.20244311 41.79081869 75.62239533 48 85 C53.13739529 78.82649137 54.28638812 71.02358436 54.0625 63.1875 C53.89735646 57.40747623 54.01249083 52.71894866 57.5625 47.9375 C59.93024075 45.50145904 61.65981974 44.47105669 65.0625 44.1875 C66.97265625 44.16796875 66.97265625 44.16796875 69 45 C72.70543917 49.02720948 75.274279 53.05533299 77.56640625 58.03125 C77.8822467 58.69639114 78.19808716 59.36153229 78.52349854 60.04682922 C79.19615499 61.46388899 79.86529974 62.88262034 80.53115845 64.30288696 C82.27518914 68.01827356 84.05009037 71.71875895 85.828125 75.41796875 C86.1811116 76.1527092 86.53409821 76.88744965 86.89778137 77.64445496 C90.03042825 84.13032835 93.34885556 90.49615423 96.8125 96.8125 C97.29726807 97.699375 97.78203613 98.58625 98.28149414 99.5 C102.15821511 107.17290525 102.15821511 107.17290525 109 111.7890625 C109.79519043 112.08538574 110.59038086 112.38170898 111.40966797 112.68701172 C112.26447754 112.99654785 113.11928711 113.30608398 114 113.625 C144.52675437 125.2978098 171.80489124 143.63091685 186.31640625 173.73046875 C190.68009088 183.8587257 191.36682889 194.27437833 191.3125 205.1875 C191.30686035 206.37641846 191.3012207 207.56533691 191.29541016 208.7902832 C190.85432246 240.85211789 175.46557857 271.44724834 152.70263672 293.76855469 C142.08378818 303.74228513 129.87231619 311.30639558 117 318 C116.38060547 318.33064453 115.76121094 318.66128906 115.12304688 319.00195312 C38.53198705 359.51226132 -69.76745904 357.77128187 -150.51708984 332.91748047 C-186.61360511 321.43418381 -226.11849285 304.02553741 -244.82080078 268.87060547 C-255.17140305 248.72962795 -256.74554935 221.59582591 -250 200 C-247.67574635 193.14240477 -245.22018034 186.57762068 -240.9375 180.6875 C-237.51163535 175.00663584 -239.83634631 168.49174912 -241.16796875 162.40234375 C-242.35432284 156.7462665 -242.75595802 151.82689855 -240.5 146.375 C-232.14904443 133.63184634 -213.09807439 128.93977224 -199 126 C-196.69879308 125.65691451 -194.39568306 125.37466969 -192.08569336 125.09765625 C-182.63717206 123.94412088 -175.09535917 121.10210076 -166.53955078 116.97485352 C-134.73008131 101.7336224 -92.90615991 91.52434698 -57.375 91.9375 C-56.35148438 91.94652344 -55.32796875 91.95554687 -54.2734375 91.96484375 C-53.14808594 91.98224609 -53.14808594 91.98224609 -52 92 C-51.86464844 91.42894531 -51.72929687 90.85789062 -51.58984375 90.26953125 C-48.23760363 77.64342923 -41.46055947 67.76105998 -33 58 C-22.42345021 45.5200637 -15.79598181 34.63390849 -15.52148438 18.1640625 C-15.31578378 11.90273714 -14.49944313 5.96230297 -10.3125 1 C-6.78058034 -0.52731661 -3.68432451 -1.10179958 0 0 Z " fill="#F3C066" transform="translate(287,82)"/>
<path d="M0 0 C31.14348218 9.53115965 63.49633165 28.07817603 79.27734375 57.61328125 C85.54152327 69.92857296 87.38108959 81.40981034 87.3125 95.1875 C87.30686035 96.37641846 87.3012207 97.56533691 87.29541016 98.7902832 C86.85432246 130.85211789 71.46557857 161.44724834 48.70263672 183.76855469 C38.08378818 193.74228513 25.87231619 201.30639558 13 208 C12.38060547 208.33064453 11.76121094 208.66128906 11.12304688 209.00195312 C-65.46801295 249.51226132 -173.76745904 247.77128187 -254.51708984 222.91748047 C-290.61360511 211.43418381 -330.11849285 194.02553741 -348.82080078 158.87060547 C-359.17140305 138.72962795 -360.74554935 111.59582591 -354 90 C-346.45036765 67.72518382 -346.45036765 67.72518382 -341 65 C-340.731875 65.76441406 -340.46375 66.52882813 -340.1875 67.31640625 C-335.81794045 79.26082727 -330.16329912 90.21582823 -322.9375 100.6875 C-322.55053955 101.26363037 -322.1635791 101.83976074 -321.76489258 102.43334961 C-317.92629811 107.79366406 -313.04497634 110.88526814 -306.5625 112.25 C-305.386875 112.4975 -304.21125 112.745 -303 113 C-302.85304688 113.8971875 -302.70609375 114.794375 -302.5546875 115.71875 C-299.08557815 135.01816295 -290.25458063 161.76431981 -274.1015625 174.23828125 C-268.84304376 177.22517288 -264.35470091 178.25045659 -258.32714844 178.29052734 C-257.01848816 178.30328705 -255.70982788 178.31604675 -254.36151123 178.32919312 C-252.944134 178.33225166 -251.52675478 178.33447894 -250.109375 178.3359375 C-248.63974887 178.34237367 -247.170124 178.34910262 -245.70050049 178.35610962 C-242.62403396 178.36805841 -239.54767949 178.37179306 -236.47119141 178.37060547 C-232.55302274 178.37040271 -228.63558291 178.39766988 -224.71758652 178.43214989 C-221.68213688 178.45452839 -218.6468594 178.45843965 -215.61133575 178.45738602 C-214.16821031 178.45972688 -212.725079 178.46846387 -211.28203583 178.48405075 C-202.23311454 178.57262302 -193.41319074 178.43272054 -186.08782959 172.43417358 C-169.96219628 156.5995641 -160.38495521 127.90683037 -159.5625 105.875 C-159.73330687 100.74446773 -160.19663018 97.71281339 -164 94 C-177.38973374 83.90539604 -193.90261679 81.57794279 -210 79 C-209.28517558 75.22561579 -208.28301504 71.790008 -206.9375 68.1875 C-206.57527344 67.21167969 -206.21304688 66.23585938 -205.83984375 65.23046875 C-205.56269531 64.49441406 -205.28554687 63.75835937 -205 63 C-196.26327183 63.18270724 -189.14233166 64.97129431 -182.16015625 70.44140625 C-175.59795847 75.48151876 -167.8706958 74.59626483 -160 74 C-158.99259766 73.74669922 -158.99259766 73.74669922 -157.96484375 73.48828125 C-148.58994742 71.15853564 -136.47536915 72.52741051 -128 77 C-133.3432235 81.38077952 -139.00891919 84.841603 -145.07470703 88.10742188 C-148.57014236 90.02694247 -151.42105087 91.93709992 -154 95 C-154.10116603 98.13614707 -152.79705708 99.23676674 -150.75 101.625 C-146.42574694 105.35958219 -142.40039176 106.2228488 -136.8125 106.9375 C-126.89417984 108.41018646 -119.75566644 110.7344229 -111.4453125 116.4765625 C-106.99422488 119.24960431 -103.20069123 119.13601841 -98 119.125 C-96.783125 119.12757813 -95.56625 119.13015625 -94.3125 119.1328125 C-91.19612309 119.12188817 -91.19612309 119.12188817 -89.0234375 118.5 C-85.89644905 117.72730787 -82.83747762 117.86858787 -79.625 117.875 C-78.33851563 117.87242187 -77.05203125 117.86984375 -75.7265625 117.8671875 C-72.3825749 117.98636526 -69.27902051 118.36043872 -66 119 C-66 119.66 -66 120.32 -66 121 C-66.70125 121.35191406 -67.4025 121.70382812 -68.125 122.06640625 C-69.07375 122.56011719 -70.0225 123.05382812 -71 123.5625 C-71.928125 124.03816406 -72.85625 124.51382813 -73.8125 125.00390625 C-76.91921817 126.73568043 -76.91921817 126.73568043 -78.54492188 128.76806641 C-81.74469949 132.32687418 -83.92536402 133.85232142 -88.75390625 134.51586914 C-93.34205773 134.66813461 -97.9169516 134.46681632 -102.5 134.25 C-123.98446377 133.41132077 -146.07324433 135.56591989 -162.875 150.6875 C-164.44113602 152.3789269 -165.73056429 154.07747839 -167 156 C-167.41121094 156.59683594 -167.82242188 157.19367188 -168.24609375 157.80859375 C-171.1998963 163.05184879 -171.38151087 168.24197154 -171.4375 174.125 C-171.44765137 174.88917236 -171.45780273 175.65334473 -171.46826172 176.44067383 C-171.35565576 183.76402633 -169.09230414 189.7773026 -164.09765625 195.23828125 C-149.21676997 207.73600883 -127.86864959 209.17668523 -109.375 209.25 C-108.09753906 209.270625 -106.82007813 209.29125 -105.50390625 209.3125 C-89.16256876 209.37872629 -70.82407397 205.93737652 -58 195 C-57.20232567 193.87268739 -56.42909119 192.72747234 -55.6875 191.5625 C-53 189 -53 189 -50.8046875 188.84765625 C-48.82808655 189.04756888 -46.85546486 189.28831349 -44.88671875 189.5546875 C-23.55569643 191.99864383 0.43537629 190.20990792 18.84375 178.3671875 C21 177 21 177 23.15625 176.0703125 C25.52399929 174.69581397 25.958785 173.50695972 27 171 C27.41378906 170.18402344 27.82757813 169.36804688 28.25390625 168.52734375 C28.90166016 167.24537109 28.90166016 167.24537109 29.5625 165.9375 C29.99691406 165.08027344 30.43132812 164.22304688 30.87890625 163.33984375 C33.12040447 158.66159485 33.25072297 154.40704564 33.3125 149.3125 C33.35600586 148.14557617 33.35600586 148.14557617 33.40039062 146.95507812 C33.49620023 138.1184846 29.76930847 132.41034275 24 126 C24.74459473 125.91024902 25.48918945 125.82049805 26.25634766 125.72802734 C52.93756675 122.53895837 52.93756675 122.53895837 75 108 C75.79167323 102.78436181 75.79167323 102.78436181 73.68359375 98.1953125 C72.47850051 97.02526672 71.24436875 95.88465503 69.98828125 94.76953125 C68.01895867 93.01687285 66.33776176 91.18906468 64.625 89.1875 C62.00305339 86.14416912 59.33090333 83.15647726 56.625 80.1875 C51.89746329 74.93556426 47.40361514 69.52471159 43 64 C42.5040332 63.38189453 42.00806641 62.76378906 41.49707031 62.12695312 C28.48083997 45.85863378 16.5095678 28.87658314 5.5 11.1875 C4.94175537 10.29184326 4.38351074 9.39618652 3.80834961 8.47338867 C0 2.25643298 0 2.25643298 0 0 Z " fill="#464646" transform="translate(391,192)"/>
<path d="M0 0 C6.85601127 6.28148519 6.85601127 6.28148519 7.30078125 11.58984375 C7.32058809 13.03893241 7.32355643 14.48831816 7.3125 15.9375 C7.30686035 16.70312256 7.3012207 17.46874512 7.29541016 18.25756836 C7.03319148 30.63766493 2.46322957 41.6180424 -2 53 C-1.36835938 53.03738281 -0.73671875 53.07476562 -0.0859375 53.11328125 C16.83247955 54.3565655 35.17707529 58.17707529 47.5625 70.5625 C52.68445737 82.81065893 47.82234708 98.99986457 43.02685547 110.79785156 C28.26479339 145.42831004 28.26479339 145.42831004 15.80664062 151.07910156 C8.89710716 153.76782911 1.99909015 153.57918557 -5.31640625 153.53125 C-6.78271236 153.53395159 -8.24901672 153.53783953 -9.71531677 153.54284668 C-12.77221923 153.54870866 -15.8286508 153.54028565 -18.88549805 153.52148438 C-22.78131041 153.49867565 -26.67602131 153.5118499 -30.57179356 153.53577423 C-33.59437698 153.55030522 -36.61670396 153.54559348 -39.63929558 153.53526306 C-41.07485018 153.53261691 -42.51042895 153.53579022 -43.94595528 153.54518127 C-53.46606995 153.59382082 -60.98617771 153.0355155 -68.5625 146.9375 C-82.54088369 130.09175555 -94.54157552 109.37944945 -95 87 C-95.928125 87.02449219 -96.85625 87.04898438 -97.8125 87.07421875 C-104.0329193 86.92938056 -108.67606605 83.22075836 -113 79 C-114.98265491 76.53146191 -116.68784837 73.92697591 -118.375 71.25 C-119.08281616 70.13987549 -119.08281616 70.13987549 -119.80493164 69.00732422 C-124.58998262 61.33081519 -128.4772392 53.32156808 -132 45 C-132.43183594 43.98035156 -132.86367187 42.96070313 -133.30859375 41.91015625 C-137.00925008 32.46196042 -140.52522287 20.10262194 -136.5 10.375 C-128.00541966 -2.5873181 -109.16824436 -6.70198594 -95 -10 C-93.96238525 -10.24991699 -93.96238525 -10.24991699 -92.90380859 -10.50488281 C-64.21165183 -17.11194442 -25.11112762 -16.65662737 0 0 Z " fill="#E2E1DF" transform="translate(183,218)"/>
<path d="M0 0 C5.18705054 4.8812103 7.89795895 11.69313586 10.625 18.125 C15.3720115 28.93220129 20.82367873 39.22817222 26.60546875 49.51220703 C27.87686067 51.78032393 29.12985105 54.05724774 30.375 56.33984375 C35.78621124 66.20244311 41.79081869 75.62239533 48 85 C53.13739529 78.82649137 54.28638812 71.02358436 54.0625 63.1875 C53.89735646 57.40747623 54.01249083 52.71894866 57.5625 47.9375 C59.93024075 45.50145904 61.65981974 44.47105669 65.0625 44.1875 C66.97265625 44.16796875 66.97265625 44.16796875 69 45 C76.12213741 52.23609161 82.35018432 63.67079532 83.390625 73.8046875 C83.05903475 77.7935231 82.26231592 81.21305223 81 85 C80.731875 86.03125 80.46375 87.0625 80.1875 88.125 C75.95648043 102.7945934 67.38973846 111.00970726 55.35546875 119.96875 C50.40924538 124.23414993 47.42477631 130.34730271 45.4375 136.5 C44 140 44 140 41.4375 141.375 C40.633125 141.58125 39.82875 141.7875 39 142 C38.34 142.66 37.68 143.32 37 144 C37.32041397 146.60280568 37.32041397 146.60280568 38 149 C38.99 149.33 39.98 149.66 41 150 C40.81972103 160.45618031 36.06185577 170.17553097 29 177.8125 C19.48896307 186.4026018 8.46137791 191.51668907 -3.375 196.125 C-4.38506104 196.52783203 -5.39512207 196.93066406 -6.43579102 197.34570312 C-12.0184428 199.41774792 -16.16943794 200.45753514 -22.04931641 199.15966797 C-24.61240556 198.94987319 -25.87787089 199.58924374 -28 201 C-28.350625 201.886875 -28.70125 202.77375 -29.0625 203.6875 C-32.00817259 208.72364991 -36.7263693 211.60428678 -42 214 C-45.29060505 213.75142911 -46.16403403 212.86512758 -48.8125 210.6875 C-51 208 -51 208 -50.796875 206 C-48.03917617 199.07871666 -38.69960611 195.42283027 -32.51147461 192.0715332 C-28.48953702 189.90857496 -28.48953702 189.90857496 -25 187 C-31.36748282 184.10568963 -37.77140605 183.86101397 -44.6875 183.875 C-45.97011719 183.87242187 -47.25273437 183.86984375 -48.57421875 183.8671875 C-51.3588552 183.97514376 -53.36035046 184.29884309 -56 185 C-66.47151359 186.28917589 -72.86288333 185.3345668 -81.53076172 179.43237305 C-87.42271649 175.47162641 -92.94379152 174.03522789 -100 173 C-99.7834375 171.99646484 -99.7834375 171.99646484 -99.5625 170.97265625 C-98.34076187 164.65185828 -97.75974691 158.48622326 -97.6875 152.0625 C-97.67009766 151.3413501 -97.65269531 150.6202002 -97.63476562 149.87719727 C-97.63895697 145.38774803 -98.15933201 142.51164255 -101 139 C-103.14365794 137.27756891 -103.14365794 137.27756891 -105.625 135.9375 C-106.42164063 135.47214844 -107.21828125 135.00679687 -108.0390625 134.52734375 C-115.54244393 130.656866 -122.70814557 127.99793528 -131 126.3125 C-132.04857178 126.09827393 -133.09714355 125.88404785 -134.17749023 125.66333008 C-148.6264809 122.99555124 -163.34998799 123.06928968 -178 123 C-175.48788936 121.02149967 -173.12928315 119.46226782 -170.19140625 118.203125 C-169.45575439 117.88778809 -168.72010254 117.57245117 -167.9621582 117.24755859 C-167.170271 116.91836426 -166.37838379 116.58916992 -165.5625 116.25 C-164.72485107 115.90146973 -163.88720215 115.55293945 -163.02416992 115.19384766 C-139.78090762 105.69141077 -115.84404255 99.7950866 -91.125 95.6875 C-90.34728241 95.55826141 -89.56956482 95.42902283 -88.76828003 95.29586792 C-67.65382125 91.81797882 -67.65382125 91.81797882 -57.375 91.9375 C-56.35148437 91.94652344 -55.32796875 91.95554687 -54.2734375 91.96484375 C-53.52320313 91.97644531 -52.77296875 91.98804688 -52 92 C-51.86464844 91.42894531 -51.72929687 90.85789062 -51.58984375 90.26953125 C-48.23760363 77.64342923 -41.46055947 67.76105998 -33 58 C-22.42345021 45.5200637 -15.79598181 34.63390849 -15.52148438 18.1640625 C-15.31578378 11.90273714 -14.49944313 5.96230297 -10.3125 1 C-6.78058034 -0.52731661 -3.68432451 -1.10179958 0 0 Z " fill="#F3C066" transform="translate(287,82)"/>
<path d="M0 0 C1.65902344 0.56074219 1.65902344 0.56074219 3.3515625 1.1328125 C13.08087206 4.77828581 20.53274884 10.11571686 26 19 C28.86635932 27.59907795 28.19813207 39.85632654 24.18359375 47.96875 C23.79300781 48.6390625 23.40242187 49.309375 23 50 C22.49146484 50.94359375 22.49146484 50.94359375 21.97265625 51.90625 C16.23436288 61.21821362 4.9613806 66.57937272 -5.3203125 69.09375 C-15.81905021 71.53049671 -25.87821868 73.19489223 -36.6875 73.1875 C-37.6583252 73.18814453 -38.62915039 73.18878906 -39.62939453 73.18945312 C-46.60935048 73.13812134 -53.1869902 72.6098251 -60 71 C-60.25910156 71.58910156 -60.51820313 72.17820312 -60.78515625 72.78515625 C-66.18340149 82.62697313 -78.26260115 86.29539328 -88.3125 89.25 C-111.7851794 95.78059723 -142.95591628 94.3850668 -164.5859375 82.58984375 C-171.67834844 78.17181368 -176.84198574 73.22561488 -179 65 C-180.39146724 54.07880416 -179.71778171 44.09204967 -173 35 C-163.146442 23.33290371 -148.41749733 18.91484185 -134 16 C-133.10458496 15.81695312 -132.20916992 15.63390625 -131.28662109 15.4453125 C-127.42905339 14.92264102 -123.69559965 15.00473838 -119.8203125 15.1484375 C-118.23571906 15.18543761 -116.65108026 15.22053479 -115.06640625 15.25390625 C-112.59460771 15.30933654 -110.12528176 15.37498881 -107.65478516 15.47314453 C-96.74554763 16.29561425 -96.74554763 16.29561425 -87.33203125 11.73828125 C-86.21864288 10.49460945 -85.10776676 9.24868171 -84 8 C-61.70024512 -7.49826967 -25.15491801 -8.97133439 0 0 Z " fill="#FEDD81" transform="translate(398,310)"/>
<path d="M0 0 C2.82275292 2.14866267 4.29639552 4.92765188 6 8 C6.34659668 8.61713867 6.69319336 9.23427734 7.05029297 9.87011719 C11.87096923 18.63082916 15.71022226 25.89118248 13 36 C12.72542969 37.33224609 12.72542969 37.33224609 12.4453125 38.69140625 C8.94480624 53.88187475 0.95046259 63.74678534 -11.25 73.0625 C-21.65271316 81.23140172 -24.83474393 92.21970197 -27.44360352 104.75610352 C-30.55812213 119.69440018 -36.07146364 131.00913405 -49.25 139.75 C-55.2862712 143.32487906 -61.54266819 146.27134872 -68 149 C-68.65226562 149.28327148 -69.30453125 149.56654297 -69.9765625 149.85839844 C-84.23788976 155.99266706 -84.23788976 155.99266706 -92.08203125 154.33203125 C-94.21155377 153.80750765 -94.21155377 153.80750765 -97 155 C-97.05607422 153.89591797 -97.05607422 153.89591797 -97.11328125 152.76953125 C-97.17902344 151.79371094 -97.24476563 150.81789062 -97.3125 149.8125 C-97.37050781 148.84957031 -97.42851562 147.88664063 -97.48828125 146.89453125 C-98.24394913 142.62010454 -99.70887486 139.99048409 -103.1640625 137.33984375 C-104.38222656 136.64568359 -104.38222656 136.64568359 -105.625 135.9375 C-106.42164063 135.47214844 -107.21828125 135.00679687 -108.0390625 134.52734375 C-115.54244393 130.656866 -122.70814557 127.99793528 -131 126.3125 C-132.04857178 126.09827393 -133.09714355 125.88404785 -134.17749023 125.66333008 C-148.6264809 122.99555124 -163.34998799 123.06928968 -178 123 C-175.48788936 121.02149967 -173.12928315 119.46226782 -170.19140625 118.203125 C-169.45575439 117.88778809 -168.72010254 117.57245117 -167.9621582 117.24755859 C-167.170271 116.91836426 -166.37838379 116.58916992 -165.5625 116.25 C-164.72485107 115.90146973 -163.88720215 115.55293945 -163.02416992 115.19384766 C-139.78090762 105.69141077 -115.84404255 99.7950866 -91.125 95.6875 C-90.34728241 95.55826141 -89.56956482 95.42902283 -88.76828003 95.29586792 C-67.65382125 91.81797882 -67.65382125 91.81797882 -57.375 91.9375 C-56.35148437 91.94652344 -55.32796875 91.95554687 -54.2734375 91.96484375 C-53.52320313 91.97644531 -52.77296875 91.98804688 -52 92 C-51.86464844 91.42894531 -51.72929687 90.85789062 -51.58984375 90.26953125 C-48.23760363 77.64342923 -41.46055947 67.76105998 -33 58 C-22.42345021 45.5200637 -15.79598181 34.63390849 -15.52148438 18.1640625 C-15.31578378 11.90273714 -14.49944313 5.96230297 -10.3125 1 C-6.76306657 -0.53489013 -3.70663196 -1.05285655 0 0 Z " fill="#F4C674" transform="translate(287,82)"/>
<path d="M0 0 C6.65768674 3.20369888 12.14913567 8.09790741 15 15 C15 15.99 15 16.98 15 18 C18.16666667 16.16666667 18.16666667 16.16666667 20 13 C22.86635932 21.59907795 22.19813207 33.85632654 18.18359375 41.96875 C17.79300781 42.6390625 17.40242187 43.309375 17 44 C16.49146484 44.94359375 16.49146484 44.94359375 15.97265625 45.90625 C10.23436288 55.21821362 -1.0386194 60.57937272 -11.3203125 63.09375 C-21.81905021 65.53049671 -31.87821868 67.19489223 -42.6875 67.1875 C-43.6583252 67.18814453 -44.62915039 67.18878906 -45.62939453 67.18945312 C-52.60935048 67.13812134 -59.1869902 66.6098251 -66 65 C-66.25910156 65.58910156 -66.51820313 66.17820312 -66.78515625 66.78515625 C-72.18340149 76.62697313 -84.26260115 80.29539328 -94.3125 83.25 C-117.7851794 89.78059723 -148.95591628 88.3850668 -170.5859375 76.58984375 C-176.54473616 72.87796751 -181.26876884 68.54115465 -184.375 62.1875 C-185.24068873 57.7724875 -185.15948021 53.48316589 -185 49 C-184.70351562 49.60199219 -184.40703125 50.20398438 -184.1015625 50.82421875 C-178.55483493 61.77998916 -170.43997689 67.22153906 -159 71 C-134.73092421 78.21840125 -105.00076245 79.60036597 -81.6796875 68.40625 C-79.07823184 66.99574207 -76.52344898 65.54496877 -74 64 C-75.820173 63.2874461 -75.820173 63.2874461 -78 63 C-79.82850378 63.82671209 -79.82850378 63.82671209 -81.5625 65.1875 C-92.4057521 72.37639642 -105.18884932 74.19509367 -118 74 C-118.66 72.68 -119.32 71.36 -120 70 C-119.54109375 69.55269531 -119.0821875 69.10539062 -118.609375 68.64453125 C-115.83985683 65.91574129 -113.22346402 63.2957612 -110.875 60.1875 C-109 58 -109 58 -106.3125 57 C-105.1678125 56.505 -105.1678125 56.505 -104 56 C-103.33652369 53.51599015 -103.33652369 53.51599015 -103 51 C-102.01 50.34 -101.02 49.68 -100 49 C-101.60076923 45.89064803 -101.60076923 45.89064803 -103.875 45.48046875 C-104.57625 45.38378906 -105.2775 45.28710938 -106 45.1875 C-108.15625 44.73828125 -108.15625 44.73828125 -110 44 C-111.5 40.875 -111.5 40.875 -112 38 C-110.87926138 37.16094435 -109.75325453 36.32892169 -108.625 35.5 C-107.99851562 35.0359375 -107.37203125 34.571875 -106.7265625 34.09375 C-105 33 -105 33 -103 33 C-102.13860726 34.32360348 -101.33683755 35.68615521 -100.5625 37.0625 C-96.83535197 42.86333087 -91.97317313 45.76818052 -86 49 C-85.36835938 49.36222656 -84.73671875 49.72445312 -84.0859375 50.09765625 C-79.21299927 52.58031436 -74.31013968 52.28847841 -69 52 C-69.6290625 51.82984375 -70.258125 51.6596875 -70.90625 51.484375 C-85.42095929 47.37478863 -85.42095929 47.37478863 -90 42 C-90.0625 39.9375 -90.0625 39.9375 -89 38 C-82.54716114 35.54431167 -75.74639558 34.06573348 -69.0625 32.375 C-67.81275391 32.05015625 -66.56300781 31.7253125 -65.27539062 31.390625 C-64.06173828 31.08382813 -62.84808594 30.77703125 -61.59765625 30.4609375 C-60.49945557 30.18040527 -59.40125488 29.89987305 -58.26977539 29.61083984 C-53.1991376 28.66357368 -49.00088317 28.74977921 -44 30 C-44 37.26 -44 44.52 -44 52 C-42.68 51.67 -41.36 51.34 -40 51 C-40 44.07 -40 37.14 -40 30 C-29.2760181 27.85520362 -29.2760181 27.85520362 -24 29 C-21.20737733 29.12896535 -18.41987459 29.09535115 -15.625 29.0625 C-14.88894531 29.05798828 -14.15289062 29.05347656 -13.39453125 29.04882812 C-11.59631842 29.03715142 -9.79814803 29.01922011 -8 29 C-8.56509277 28.88406494 -9.13018555 28.76812988 -9.71240234 28.64868164 C-12.26720691 28.12284704 -14.8211036 27.59272705 -17.375 27.0625 C-18.26445312 26.88009766 -19.15390625 26.69769531 -20.0703125 26.50976562 C-20.92109375 26.33251953 -21.771875 26.15527344 -22.6484375 25.97265625 C-23.43395996 25.81031494 -24.21948242 25.64797363 -25.02880859 25.48071289 C-27 25 -27 25 -29 24 C-29.72693904 22.02111039 -30.39816251 20.02045442 -31 18 C-30.52691406 17.66790527 -30.05382812 17.33581055 -29.56640625 16.99365234 C-27.37668509 15.45540524 -25.18833933 13.91521221 -23 12.375 C-22.25621094 11.85292969 -21.51242187 11.33085937 -20.74609375 10.79296875 C-20.00488281 10.27089844 -19.26367188 9.74882812 -18.5 9.2109375 C-17.75105469 8.6859668 -17.00210938 8.16099609 -16.23046875 7.62011719 C-14.74482248 6.54100722 -13.2879818 5.42107844 -11.86328125 4.26269531 C-5.29508051 -1.05754729 -5.29508051 -1.05754729 0 0 Z " fill="#F7C953" transform="translate(404,316)"/>
<path d="M0 0 C0.33 0 0.66 0 1 0 C2.43843824 31.11288633 -12.42535201 60.57053505 -32.90234375 83.2734375 C-44.34498633 95.46812434 -58.25344524 104.33179153 -73 112 C-73.9290918 112.4959668 -73.9290918 112.4959668 -74.87695312 113.00195312 C-150.29737934 152.89309338 -257.21973905 151.86701592 -337 128 C-342.31936064 126.33236039 -347.60195102 124.55805363 -352.875 122.75 C-353.52017578 122.5295401 -354.16535156 122.3090802 -354.83007812 122.0819397 C-365.63371495 118.36628505 -365.63371495 118.36628505 -368 116 C-359.11396841 111.55698421 -343.55507315 115.33702659 -334.10375977 116.79199219 C-325.82268162 118.01103054 -317.5379465 118.5459906 -309.1875 119 C-298.23221498 119.60014995 -287.37459978 120.49453141 -276.49291992 121.94726562 C-264.45372167 123.54474415 -252.45609953 124.1564027 -240.31640625 124.16796875 C-239.05900131 124.17129715 -237.80159637 124.17462555 -236.50608826 124.17805481 C-233.86156577 124.18308139 -231.21703703 124.18546447 -228.57250977 124.18530273 C-224.60360065 124.18518203 -220.63487933 124.20564787 -216.66601562 124.22460938 C-196.82732116 124.26920376 -177.29099741 123.30988193 -157.6875 120.125 C-156.59614746 119.9506543 -155.50479492 119.77630859 -154.38037109 119.59667969 C-106.43820716 111.75583661 -52.63239416 95.65323636 -22.53125 54.69921875 C-11.07119923 38.52709994 -2.46011754 19.78344524 0 0 Z " fill="#1E1E1E" transform="translate(477,288)"/>
<path d="M0 0 C7.42870907 3.04877655 11.20227094 14.23031634 14.26171875 21.02734375 C17.09581815 28.01903947 16.36147097 33.82964958 14.02734375 40.83203125 C13.75921875 41.86328125 13.49109375 42.89453125 13.21484375 43.95703125 C8.98382418 58.62662465 0.41708221 66.84173851 -11.6171875 75.80078125 C-16.56341087 80.06618118 -19.54787994 86.17933396 -21.53515625 92.33203125 C-22.97265625 95.83203125 -22.97265625 95.83203125 -25.53515625 97.20703125 C-26.74171875 97.51640625 -26.74171875 97.51640625 -27.97265625 97.83203125 C-28.63265625 98.49203125 -29.29265625 99.15203125 -29.97265625 99.83203125 C-29.65224228 102.43483693 -29.65224228 102.43483693 -28.97265625 104.83203125 C-27.48765625 105.32703125 -27.48765625 105.32703125 -25.97265625 105.83203125 C-26.15293522 116.28821156 -30.91080048 126.00756222 -37.97265625 133.64453125 C-47.48369318 142.23463305 -58.51127834 147.34872032 -70.34765625 151.95703125 C-71.35771729 152.35986328 -72.36777832 152.76269531 -73.40844727 153.17773438 C-78.99109905 155.24977917 -83.14209419 156.28956639 -89.02197266 154.99169922 C-91.58506181 154.78190444 -92.85052714 155.42127499 -94.97265625 156.83203125 C-95.32328125 157.71890625 -95.67390625 158.60578125 -96.03515625 159.51953125 C-98.98082884 164.55568116 -103.69902555 167.43631803 -108.97265625 169.83203125 C-112.2632613 169.58346036 -113.13669028 168.69715883 -115.78515625 166.51953125 C-117.97265625 163.83203125 -117.97265625 163.83203125 -117.76953125 161.83203125 C-115.28606321 155.59901343 -107.85932924 152.62787305 -102.28515625 149.64453125 C-95.05633599 145.72460211 -89.30470742 141.20622386 -83.50732422 135.36816406 C-81.86434008 133.7236117 -80.18892264 132.1172369 -78.5078125 130.51171875 C-64.39382898 116.90674525 -54.96631687 103.22643172 -46.984375 85.390625 C-43.15179212 76.89880546 -39.21656947 69.8533967 -32.97265625 62.83203125 C-23.25641573 51.06254745 -12.49375194 37.74505166 -12.97265625 21.58203125 C-13.01949693 7.48298752 -13.01949693 7.48298752 -7.78515625 2.09765625 C-5.18006718 0.27858543 -3.12479449 0.03195086 0 0 Z " fill="#F3C574" transform="translate(353.97265625,126.16796875)"/>
<path d="M0 0 C5.24023091 4.27773952 9.63931483 8.83862405 14 14 C14.33 14.33 14.66 14.66 15 15 C16.02304373 21.59294846 16.02304373 21.59294846 13.63671875 24.875 C0.44885574 37.10722077 -19.47667733 41.74365327 -37 42 C-41.20756777 41.22698968 -44.35427481 39.30011738 -47.92578125 36.9609375 C-59.43776225 29.61784415 -74.13515234 29.73337445 -87.3125 29.6875 C-88.07678314 29.68421692 -88.84106628 29.68093384 -89.62850952 29.67755127 C-102.91050032 29.65902761 -114.58163637 30.8276234 -127 36 C-127 35.34 -127 34.68 -127 34 C-130.41664873 33.97091643 -133.8332655 33.95317309 -137.25 33.9375 C-138.21808594 33.92912109 -139.18617188 33.92074219 -140.18359375 33.91210938 C-141.11816406 33.90888672 -142.05273438 33.90566406 -143.015625 33.90234375 C-144.30388184 33.89448853 -144.30388184 33.89448853 -145.61816406 33.88647461 C-147.89807855 33.99514212 -149.80472798 34.41124603 -152 35 C-159.56582351 35.47919954 -166.29874141 35.82929062 -173 32 C-171.35742488 30.30443859 -169.68688492 28.65099375 -168 27 C-167.10474609 26.07574219 -167.10474609 26.07574219 -166.19140625 25.1328125 C-161.69933757 20.76811817 -157.12659183 17.76875245 -151.5 15.125 C-150.59338623 14.69598389 -150.59338623 14.69598389 -149.66845703 14.25830078 C-141.69659828 10.70648252 -134.02007053 9.71046285 -125.35546875 9.98046875 C-123.52540477 10.01063629 -121.69532579 10.0399051 -119.86523438 10.06835938 C-117.02811114 10.12393164 -114.1917703 10.18737963 -111.35522461 10.26733398 C-96.89764797 10.73975553 -96.89764797 10.73975553 -83.31958008 6.18481445 C-75.47602173 2.17841632 -68.0026109 4.70928982 -60 7 C-57.75196932 7.5703195 -55.50201379 8.13311734 -53.25 8.6875 C-51.5 9.125 -49.75 9.5625 -48 10 C-47.34 8.68 -46.68 7.36 -46 6 C-46 7.65 -46 9.3 -46 11 C-31.1840955 10.67791512 -17.06556427 9.49236816 -3.6015625 2.734375 C-2 2 -2 2 0 2 C0 1.34 0 0.68 0 0 Z " fill="#E8B151" transform="translate(452,277)"/>
<path d="M0 0 C1.87004174 2.8050626 2.96169124 5.25399884 4.1875 8.375 C8.17759198 18.02545503 13.07809086 26.97072082 19 35.5625 C19.39082764 36.14628418 19.78165527 36.73006836 20.18432617 37.33154297 C24.04659442 42.75629947 28.88457969 45.87043783 35.4375 47.25 C36.613125 47.4975 37.78875 47.745 39 48 C39.14695313 48.88558594 39.29390625 49.77117187 39.4453125 50.68359375 C41.29463383 60.89737422 44.37527061 70.29058809 48 80 C46.95134766 80.02505615 45.90269531 80.0501123 44.82226562 80.07592773 C40.9009349 80.17068773 36.97975328 80.27073588 33.05859375 80.37231445 C31.36722319 80.41540567 29.67581632 80.45709676 27.984375 80.49731445 C25.54155573 80.55564829 23.09891495 80.61915449 20.65625 80.68359375 C19.91008423 80.70030624 19.16391846 80.71701874 18.3951416 80.73423767 C13.53739054 80.86877892 8.81417681 81.33162861 4 82 C38.48847382 126.52148439 98.20970207 138.2572238 151 146 C146.73319002 150.26680998 140.3830998 150.33822242 134.625 150.4375 C89.95961301 150.31788727 37.68824354 128.45351581 6 97 C2.69737824 93.49494083 -0.32771322 90.00843017 -3 86 C-6.465 86.495 -6.465 86.495 -10 87 C-10.65264429 84.98135603 -11.29678746 82.95996273 -11.9375 80.9375 C-12.29714844 79.81214844 -12.65679687 78.68679688 -13.02734375 77.52734375 C-19.67367555 53.42438143 -15.00158087 26.2670264 -3.1875 4.625 C-1.21333333 1.21333333 -1.21333333 1.21333333 0 0 Z " fill="#595959" transform="translate(49,257)"/>
<path d="M0 0 C1.10214844 -0.00386719 2.20429688 -0.00773437 3.33984375 -0.01171875 C8.83244562 -0.00512499 14.09133331 0.14584482 19.5 1.125 C18.625 5.875 18.625 5.875 17.5 8.125 C17.26174017 10.41573912 17.03411545 12.70759077 16.8125 15 C15.94326567 21.57653261 15.94326567 21.57653261 14.03515625 23.9375 C12.375 25 12.375 25 9.5 26.125 C9.995 29.095 9.995 29.095 10.5 32.125 C11.758125 32.186875 13.01625 32.24875 14.3125 32.3125 C16.51953125 32.5703125 16.51953125 32.5703125 18.5 33.125 C20.5 35.6875 20.5 35.6875 21.5 38.125 C20.5409375 38.4653125 20.5409375 38.4653125 19.5625 38.8125 C18.881875 39.245625 18.20125 39.67875 17.5 40.125 C17.314375 41.3315625 17.314375 41.3315625 17.125 42.5625 C16.91875 43.408125 16.7125 44.25375 16.5 45.125 C15.59765625 45.56585938 14.6953125 46.00671875 13.765625 46.4609375 C10.15649945 48.30003736 8.24708945 50.25339564 5.625 53.3125 C4.84382813 54.21355469 4.06265625 55.11460937 3.2578125 56.04296875 C2.67773438 56.73003906 2.09765625 57.41710937 1.5 58.125 C1.83 59.115 2.16 60.105 2.5 61.125 C15.03204252 60.4475923 29.37861973 59.610582 39.875 51.8125 C42.5 50.125 42.5 50.125 45.375 50.375 C46.07625 50.6225 46.7775 50.87 47.5 51.125 C38.7118333 60.63879514 22.00758242 64.1877248 9.41796875 65.03125 C8.45503906 65.0621875 7.49210937 65.093125 6.5 65.125 C5.82018066 65.15078125 5.14036133 65.1765625 4.43994141 65.203125 C-15.01976495 65.85654641 -39.21464763 64.96966099 -54.88671875 51.6953125 C-58.42910622 48.24727433 -61.65670951 45.09267781 -63.625 40.5 C-63.4466557 37.11145825 -61.61301706 35.76627133 -59.5 33.125 C-58.98893336 31.53684666 -58.53545164 29.92958058 -58.125 28.3125 C-55.10923876 17.65470505 -47.87156208 12.4981971 -38.5 7.125 C-35.81627947 5.77289653 -34.07675329 5.12592875 -31.07421875 5.12109375 C-27.27567117 6.60246966 -25.0455521 9.2314795 -22.3125 12.1875 C-20.41010481 14.21411446 -18.48743686 16.17866228 -16.5 18.125 C-15.84 18.125 -15.18 18.125 -14.5 18.125 C-15.06860425 14.7781522 -16.00073013 13.37378587 -18.5625 11.1875 C-21.43850408 8.46322755 -21.43850408 8.46322755 -22 5.375 C-21.5 3.125 -21.5 3.125 -19.5 1.125 C-13.0792079 -0.26852356 -6.54153092 -0.02295274 0 0 Z " fill="#FEDC7E" transform="translate(283.5,327.875)"/>
<path d="M0 0 C-0.64529952 5.54764961 -3.14850561 7.60810532 -7.296875 11.078125 C-29.86399533 27.12295622 -68.31171119 26.70336111 -94.30078125 22.75390625 C-107.59254689 20.04502476 -120.66910522 16.26218153 -131 7 C-130.66417621 4.20350372 -130.20397981 3.1797649 -128.05859375 1.2890625 C-94.17666628 -20.2216694 -33.37239919 -25.09397459 0 0 Z " fill="#FB2B02" transform="translate(184,235)"/>
<path d="M0 0 C1.57421875 1.4296875 1.57421875 1.4296875 2.57421875 4.4296875 C-3.81961405 15.11588357 -16.14713994 19.04237278 -27.42578125 22.4296875 C-40.58017462 25.45274685 -54.17522105 25.66670811 -67.61328125 25.6796875 C-68.34122894 25.68069458 -69.06917664 25.68170166 -69.81918335 25.68273926 C-80.62569785 25.67264041 -90.93237702 25.25623454 -101.42578125 22.4296875 C-103.05193359 21.99462891 -103.05193359 21.99462891 -104.7109375 21.55078125 C-113.20059281 18.98563888 -122.57778345 15.36064785 -128.42578125 8.4296875 C-128.42578125 7.4396875 -128.42578125 6.4496875 -128.42578125 5.4296875 C-115.92459895 -4.95515291 -99.90056604 -8.32534648 -84.42578125 -11.5703125 C-83.27722656 -11.82039063 -82.12867188 -12.07046875 -80.9453125 -12.328125 C-55.19753277 -16.96207268 -22.21143676 -15.19081627 0 0 Z " fill="#5CC518" transform="translate(223.42578125,298.5703125)"/>
<path d="M0 0 C0.70125 0.721875 1.4025 1.44375 2.125 2.1875 C10.14867696 10.12177666 18.43605712 14.4052878 29.1875 17.6875 C29.83307861 17.88988281 30.47865723 18.09226562 31.14379883 18.30078125 C43.3281147 21.82778138 55.95950029 22.36504147 68.5625 22.3125 C69.25221893 22.31100952 69.94193787 22.30951904 70.65255737 22.3079834 C91.42054148 22.22788698 113.63007999 20.54649525 132 10 C127.84225369 25.79943597 113.87542525 39.30169368 100.375 47.6875 C88.75563749 54.19732233 76.57798847 57.12719901 63.32421875 57.23828125 C61.93732597 57.25038887 61.93732597 57.25038887 60.52241516 57.26274109 C58.57168421 57.27652677 56.62092971 57.2872734 54.67016602 57.29516602 C52.68702055 57.30669121 50.70390623 57.32715151 48.72094727 57.35668945 C45.83849248 57.39956815 42.95695369 57.41556117 40.07421875 57.42578125 C38.76127083 57.45204338 38.76127083 57.45204338 37.42179871 57.47883606 C31.2783376 57.45746104 26.27932854 56.23701217 21 53 C18.3984375 50.07421875 18.3984375 50.07421875 16.375 46.6875 C16.00802002 46.07793457 15.64104004 45.46836914 15.26293945 44.84033203 C7.06936299 30.91142966 0.57900445 16.32792536 0 0 Z " fill="#F1F1EF" transform="translate(88,305)"/>
<path d="M0 0 C8.73672817 0.18270724 15.85766834 1.97129431 22.83984375 7.44140625 C29.40204153 12.48151876 37.1293042 11.59626483 45 11 C45.67160156 10.83113281 46.34320313 10.66226562 47.03515625 10.48828125 C56.41005258 8.15853564 68.52463085 9.52741051 77 14 C71.6567765 18.38077952 65.99108081 21.841603 59.92529297 25.10742188 C56.42985764 27.02694247 53.57894913 28.93709992 51 32 C50.89883397 35.13614707 52.20294292 36.23676674 54.25 38.625 C58.57425306 42.35958219 62.59960824 43.2228488 68.1875 43.9375 C78.10582016 45.41018646 85.24433356 47.7344229 93.5546875 53.4765625 C98.00577512 56.24960431 101.79930877 56.13601841 107 56.125 C108.216875 56.12757813 109.43375 56.13015625 110.6875 56.1328125 C113.80387691 56.12188817 113.80387691 56.12188817 115.9765625 55.5 C119.10355095 54.72730787 122.16252238 54.86858787 125.375 54.875 C126.66148437 54.87242187 127.94796875 54.86984375 129.2734375 54.8671875 C132.6174251 54.98636526 135.72097949 55.36043872 139 56 C139 56.66 139 57.32 139 58 C138.29875 58.35191406 137.5975 58.70382812 136.875 59.06640625 C135.92625 59.56011719 134.9775 60.05382812 134 60.5625 C133.071875 61.03816406 132.14375 61.51382813 131.1875 62.00390625 C128.08078183 63.73568043 128.08078183 63.73568043 126.45507812 65.76806641 C123.25530051 69.32687418 121.07463598 70.85232142 116.24609375 71.51586914 C111.65794227 71.66813461 107.0830484 71.46681632 102.5 71.25 C81.01553623 70.41132077 58.92675567 72.56591989 42.125 87.6875 C37.28737456 92.91213547 34.70987403 99.16050388 33 106 C29.7 105.67 26.4 105.34 23 105 C23.49628906 104.16339844 23.99257812 103.32679688 24.50390625 102.46484375 C29.54792376 93.86151953 33.95452706 85.1126342 38 76 C38.4021875 75.14019531 38.804375 74.28039062 39.21875 73.39453125 C44.03417731 62.50509903 46.45296208 48.84591435 45 37 C42.0968521 29.74213026 34.79429252 26.70891765 28.0078125 23.65234375 C17.37375709 19.48287598 6.23198157 17.79876478 -5 16 C-4.28517558 12.22561579 -3.28301504 8.790008 -1.9375 5.1875 C-1.57527344 4.21167969 -1.21304688 3.23585938 -0.83984375 2.23046875 C-0.42412109 1.12638672 -0.42412109 1.12638672 0 0 Z " fill="#494948" transform="translate(186,255)"/>
<path d="M0 0 C2.89291059 -0.11732971 4.38648007 -0.11186106 7 1 C9.73670622 4.01785849 11.65722836 7.48192901 13.6875 11 C14.91195713 13.02159903 16.13986752 15.0411102 17.37109375 17.05859375 C18.2835083 18.56848877 18.2835083 18.56848877 19.21435547 20.10888672 C21.74312736 24.20318762 24.45518447 28.146474 27.25 32.0625 C27.73911865 32.74836182 28.2282373 33.43422363 28.73217773 34.14086914 C33.33849521 40.54458545 38.11812616 46.80409538 43 53 C43.66386719 53.84691406 44.32773437 54.69382813 45.01171875 55.56640625 C49.2769497 60.95634312 53.6844553 66.21822802 58.14428711 71.44726562 C59.43430304 72.96078405 60.71729854 74.48027762 62 76 C62.76828125 76.89074219 63.5365625 77.78148437 64.328125 78.69921875 C66 81 66 81 66 84 C50.79877941 91.8582581 36.85744288 93.65963907 20 93 C19.67 92.01 19.34 91.02 19 90 C18.67 90.66 18.34 91.32 18 92 C13.24614325 91.62270978 9.04761351 91.14187191 4.5625 89.5 C-5.86824079 85.84199715 -13.90503623 87.20555211 -23.8125 91.6875 C-26.87055002 92.94669707 -28.74667878 93.29575647 -32 93 C-31.42636719 92.72027344 -30.85273438 92.44054687 -30.26171875 92.15234375 C-21.47809305 87.67709404 -15.91356965 81.85679939 -10 74 C-11.32 73.34 -12.64 72.68 -14 72 C-13.67 70.68 -13.34 69.36 -13 68 C-8.125 68.875 -8.125 68.875 -7 70 C-6.608125 69.47535156 -6.21625 68.95070313 -5.8125 68.41015625 C2.00197428 58.28839107 10.93089759 49.00339681 20 40 C19.67 39.67 19.34 39.34 19 39 C18.67 39.33 18.34 39.66 18 40 C16.33382885 40.04063832 14.66611905 40.042721 13 40 C13 38.68 13 37.36 13 36 C14.32 35.34 15.64 34.68 17 34 C16.67314209 33.51756836 16.34628418 33.03513672 16.00952148 32.53808594 C5.45253882 16.92258775 5.45253882 16.92258775 0.625 9.125 C0.06039062 8.22007812 -0.50421875 7.31515625 -1.0859375 6.3828125 C-2 4 -2 4 -1.1640625 1.6796875 C-0.58785156 0.84824219 -0.58785156 0.84824219 0 0 Z " fill="#F0B754" transform="translate(386,195)"/>
<path d="M0 0 C1.53527344 0.01353516 1.53527344 0.01353516 3.1015625 0.02734375 C4.22691406 0.04474609 4.22691406 0.04474609 5.375 0.0625 C-2.30016674 19.16012077 -20.34872341 40.76265991 -37.625 52.0625 C-38.615 52.0625 -39.605 52.0625 -40.625 52.0625 C-41.63202338 50.40006754 -42.63106718 48.73279199 -43.625 47.0625 C-45.76865794 45.34006891 -45.76865794 45.34006891 -48.25 44 C-49.44496094 43.30197266 -49.44496094 43.30197266 -50.6640625 42.58984375 C-58.16744393 38.719366 -65.33314557 36.06043528 -73.625 34.375 C-74.67357178 34.16077393 -75.72214355 33.94654785 -76.80249023 33.72583008 C-91.2514809 31.05805124 -105.97498799 31.13178968 -120.625 31.0625 C-118.11288936 29.08399967 -115.75428315 27.52476782 -112.81640625 26.265625 C-112.08075439 25.95028809 -111.34510254 25.63495117 -110.5871582 25.31005859 C-109.795271 24.98086426 -109.00338379 24.65166992 -108.1875 24.3125 C-107.34985107 23.96396973 -106.51220215 23.61543945 -105.64916992 23.25634766 C-82.40590762 13.75391077 -58.46904255 7.8575866 -33.75 3.75 C-32.97228241 3.62076141 -32.19456482 3.49152283 -31.39328003 3.35836792 C-10.27882125 -0.11952118 -10.27882125 -0.11952118 0 0 Z " fill="#5A5A59" transform="translate(229.625,173.9375)"/>
<path d="M0 0 C0.33 0 0.66 0 1 0 C1.77657188 19.80258291 1.77657188 19.80258291 -3 28 C-3.50853516 28.94359375 -3.50853516 28.94359375 -4.02734375 29.90625 C-9.76563712 39.21821362 -21.0386194 44.57937272 -31.3203125 47.09375 C-41.81905021 49.53049671 -51.87821868 51.19489223 -62.6875 51.1875 C-63.6583252 51.18814453 -64.62915039 51.18878906 -65.62939453 51.18945312 C-72.60935048 51.13812134 -79.1869902 50.6098251 -86 49 C-86.25910156 49.58910156 -86.51820313 50.17820312 -86.78515625 50.78515625 C-92.18340149 60.62697313 -104.26260115 64.29539328 -114.3125 67.25 C-137.7851794 73.78059723 -168.95591628 72.3850668 -190.5859375 60.58984375 C-196.54473616 56.87796751 -201.26876884 52.54115465 -204.375 46.1875 C-205.24068873 41.7724875 -205.15948021 37.48316589 -205 33 C-204.70351562 33.60199219 -204.40703125 34.20398438 -204.1015625 34.82421875 C-198.55483493 45.77998916 -190.43997689 51.22153906 -179 55 C-154.73092421 62.21840125 -125.00076245 63.60036597 -101.6796875 52.40625 C-99.07823184 50.99574207 -96.52344898 49.54496877 -94 48 C-95.820173 47.2874461 -95.820173 47.2874461 -98 47 C-99.82850378 47.82671209 -99.82850378 47.82671209 -101.5625 49.1875 C-112.4057521 56.37639642 -125.18884932 58.19509367 -138 58 C-138.99 56.02 -138.99 56.02 -140 54 C-139.54109375 53.55269531 -139.0821875 53.10539062 -138.609375 52.64453125 C-135.83985683 49.91574129 -133.22346402 47.2957612 -130.875 44.1875 C-129 42 -129 42 -126.3125 41 C-125.1678125 40.505 -125.1678125 40.505 -124 40 C-123.33652369 37.51599015 -123.33652369 37.51599015 -123 35 C-122.01 34.34 -121.02 33.68 -120 33 C-121.60076923 29.89064803 -121.60076923 29.89064803 -123.875 29.48046875 C-124.57625 29.38378906 -125.2775 29.28710938 -126 29.1875 C-128.15625 28.73828125 -128.15625 28.73828125 -130 28 C-131.5 24.875 -131.5 24.875 -132 22 C-130.87926138 21.16094435 -129.75325453 20.32892169 -128.625 19.5 C-127.99851562 19.0359375 -127.37203125 18.571875 -126.7265625 18.09375 C-125 17 -125 17 -123 17 C-122.13860726 18.32360348 -121.33683755 19.68615521 -120.5625 21.0625 C-113.90135651 31.42972088 -101.58215965 35.49221845 -90.16015625 38.3515625 C-81.96359613 40.03342774 -73.89142066 40.21701953 -65.54858398 40.24023438 C-63.46621605 40.24986716 -61.38486882 40.28093383 -59.30273438 40.3125 C-42.28338543 40.44715631 -23.30835457 37.4532506 -10 26 C-2.81284629 18.25998831 -0.5441122 10.37565675 0 0 Z " fill="#EDB529" transform="translate(424,332)"/>
<path d="M0 0 C1.38800185 2.08200278 2.73991148 4.18834268 4.0625 6.3125 C13.33454693 19.07836171 31.79116199 22.27835362 46.42138672 24.640625 C52.84839899 25.53634192 59.28874761 25.81922182 65.77099609 25.94873047 C67.85680033 25.99670625 69.9358229 26.0888443 72.01953125 26.19140625 C92.66462324 26.81947087 114.53997307 23.51974483 133 14 C131.43670636 19.94051584 128.36463493 24.92085014 125 30 C124.50628906 30.90363281 124.01257813 31.80726563 123.50390625 32.73828125 C119.48940521 36.36448421 115.0519282 35.91332225 109.8125 36.125 C107.62855061 36.26270008 105.44494466 36.40595666 103.26171875 36.5546875 C102.19099121 36.62526367 101.12026367 36.69583984 100.01708984 36.76855469 C82.03607998 38.14790388 59.32551778 43.09090465 46 56 C45.38125 57.36125 45.38125 57.36125 44.75 58.75 C43 61 43 61 41.1328125 61.421875 C34.40742564 61.65458735 28.1371753 60.06678687 22.515625 56.36328125 C19.34918626 53.38859889 17.53612294 50.24067244 15.5 46.4375 C15.10981689 45.72440674 14.71963379 45.01131348 14.31762695 44.27661133 C11.26400106 38.63518842 8.44890829 32.93180008 6 27 C5.63132812 26.15695312 5.26265625 25.31390625 4.8828125 24.4453125 C1.65092726 16.49534662 0.80787851 8.47209441 0 0 Z " fill="#F1F1EF" transform="translate(45,236)"/>
<path d="M0 0 C2.21238023 1.5123693 4.05779322 3.18108336 5.98046875 5.046875 C7.99520809 6.99536566 10.07488668 8.68963128 12.3125 10.375 C12.94800781 10.85710937 13.58351563 11.33921875 14.23828125 11.8359375 C17.99108021 14.31561398 21.81081962 14.28142878 26.1875 14.5625 C28.09595703 14.68818359 28.09595703 14.68818359 30.04296875 14.81640625 C31.50669922 14.90728516 31.50669922 14.90728516 33 15 C29.89670576 20.51037224 25.90215184 24.93585269 21.57055664 29.51416016 C20.6503707 30.50273061 19.74767003 31.50787668 18.86352539 32.52880859 C15.8711547 35.97517498 13.03209631 38.825488 9 41 C3.99968024 40.94614403 -0.27136632 39.51521731 -5 38 C-7.78276955 37.65661914 -10.30611915 37.68911704 -13.125 37.75 C-14.95417969 37.77320313 -14.95417969 37.77320313 -16.8203125 37.796875 C-19.44009055 37.96423183 -21.49086309 38.35216889 -24 39 C-34.47151359 40.28917589 -40.86288333 39.3345668 -49.53076172 33.43237305 C-55.42271649 29.47162641 -60.94379152 28.03522789 -68 27 C-67.57822857 24.0386261 -67.13844532 21.08194496 -66.6875 18.125 C-66.56955078 17.28324219 -66.45160156 16.44148438 -66.33007812 15.57421875 C-66.20439453 14.76855469 -66.07871094 13.96289062 -65.94921875 13.1328125 C-65.78425903 12.01737061 -65.78425903 12.01737061 -65.6159668 10.87939453 C-65 9 -65 9 -62 7 C-59.17822062 6.81988642 -56.81033146 6.72821181 -54.11328125 7.6328125 C-51.24545904 8.13110324 -49.74430073 7.27423258 -47.125 6.0625 C-43.21475614 4.40882859 -40.30149204 3.29975711 -36 4 C-35.21625 4.474375 -34.4325 4.94875 -33.625 5.4375 C-30.18439672 7.48547814 -26.95439459 8.1212075 -23 8 C-18.86361042 6.67044621 -15.61070088 4.74021639 -12.0625 2.3125 C-8.03756598 -0.22344109 -4.67874433 -1.44383126 0 0 Z " fill="#E8B762" transform="translate(255,228)"/>
<path d="M0 0 C11.07109182 3.96731433 20.68017047 11.91248683 29 20 C29.70769531 20.64582031 30.41539062 21.29164063 31.14453125 21.95703125 C36.52283885 27.00626458 40.32555505 32.62596285 44 39 C44.4021875 39.6909375 44.804375 40.381875 45.21875 41.09375 C50.17569533 50.25658834 51.47981256 59.70693158 51.3125 70 C51.31572266 71.02222656 51.31894531 72.04445313 51.32226562 73.09765625 C51.26791438 80.59812843 51.26791438 80.59812843 49 84 C48.66226563 83.17886719 48.32453125 82.35773438 47.9765625 81.51171875 C45.65848756 76.88505806 41.96123897 73.47480573 38.375 69.8125 C33.01219647 64.22888923 27.86234078 58.63490286 23.046875 52.5703125 C20.87983682 49.84910807 18.63151763 47.20985238 16.375 44.5625 C11.77166829 39.05442543 7.43261075 33.36657391 3.125 27.625 C2.48224121 26.76849854 1.83948242 25.91199707 1.17724609 25.02954102 C-7.93813952 12.80418621 -7.93813952 12.80418621 -8.1875 9.5625 C-6.34074506 5.57739723 -3.22314656 2.92018762 0 0 Z " fill="#343333" transform="translate(419,213)"/>
<path d="M0 0 C-1 3 -1 3 -2.78393555 3.97973633 C-3.560354 4.26099365 -4.33677246 4.54225098 -5.13671875 4.83203125 C-6.45023315 5.31289185 -6.45023315 5.31289185 -7.7902832 5.8034668 C-8.74636475 6.13644775 -9.70244629 6.46942871 -10.6875 6.8125 C-11.6777417 7.1628833 -12.6679834 7.5132666 -13.68823242 7.87426758 C-40.07284198 17.03382144 -67.24613876 22.24612418 -95 25 C-95.88955383 25.08886978 -96.77910767 25.17773956 -97.69561768 25.26930237 C-105.4730431 25.98392469 -113.1887557 26.16089576 -120.99609375 26.16796875 C-122.96014915 26.17296135 -122.96014915 26.17296135 -124.96388245 26.17805481 C-127.72291894 26.18399605 -130.48192437 26.18590015 -133.2409668 26.18530273 C-136.02260904 26.18522188 -138.80408518 26.19210724 -141.58569336 26.20581055 C-157.82640684 26.28475507 -173.86117834 25.9960073 -190 24 C-188.75305232 21.50610463 -187.88381165 21.35426459 -185.375 20.25 C-177.66892822 16.50035506 -173.10499463 11.45330822 -169 4 C-166.55490648 5.08670823 -164.68302997 6.25398568 -162.58203125 7.9375 C-147.69943192 19.82556724 -127.62837836 21.17763775 -109.375 21.25 C-108.09753906 21.270625 -106.82007813 21.29125 -105.50390625 21.3125 C-89.16256876 21.37872629 -70.82407397 17.93737652 -58 7 C-57.20232567 5.87268739 -56.42909119 4.72747234 -55.6875 3.5625 C-53 1 -53 1 -50.8046875 0.84765625 C-48.83436343 1.04693404 -46.86819922 1.28906855 -44.90625 1.55859375 C-32.98619784 2.90555964 -20.43631577 2.7676229 -8.65625 0.4375 C-5.73193649 -0.04415164 -2.95850788 -0.06961195 0 0 Z " fill="#363533" transform="translate(391,380)"/>
<path d="M0 0 C1.10681625 -0.00101212 1.10681625 -0.00101212 2.23599243 -0.00204468 C22.23858268 0.02701504 43.71434266 1.54775634 60.25 14.25 C62.16803008 16.34278393 63.15613977 17.56419461 63.54296875 20.390625 C63.4453125 22.34375 63.34765625 24.296875 63.25 26.25 C59.72053844 26.25 58.82355215 25.4881516 55.9375 23.5625 C30.9438453 8.27056697 -5.61926389 8.84834189 -33.4831543 15.05322266 C-45.50918033 17.99594333 -56.41440342 21.71394239 -66.61328125 28.9296875 C-68.75 30.25 -68.75 30.25 -71.75 30.25 C-72.75 29.25 -72.75 29.25 -73.0625 26.5 C-72.6737523 22.45702391 -71.4465395 21.22916649 -68.75 18.25 C-50.59389128 3.31877738 -22.56519749 0.01844251 0 0 Z " fill="#F1EFED" transform="translate(122.75,208.75)"/>
<path d="M0 0 C3.36907415 3.12842599 3.94700995 4.19190178 4.25 8.8125 C4.1675 9.864375 4.085 10.91625 4 12 C-0.29944313 12 -0.95115777 11.61725452 -4.3125 9.3125 C-28.63844056 -5.74472452 -63.08555121 -4.95234653 -90 1 C-90.78665039 1.16628906 -91.57330078 1.33257812 -92.38378906 1.50390625 C-104.71480483 4.17274333 -117.10002364 8.05836516 -127.31640625 15.7421875 C-129 17 -129 17 -131 17 C-132.49986273 14.00027454 -132.5048832 12.34485121 -132 9 C-124.23097985 -3.36238243 -104.28169126 -7.92434221 -91 -11 C-63.08578784 -16.78816227 -24.105349 -18.29859489 0 0 Z " fill="#F0F1ED" transform="translate(224,288)"/>
<path d="M0 0 C2.91764922 1.17246274 3.99982663 2.89361869 5.859375 5.41015625 C35.01302974 43.03809089 90.13039823 58.37340959 135.109375 64.84765625 C135.109375 65.17765625 135.109375 65.50765625 135.109375 65.84765625 C119.47035286 66.50332954 103.43083807 65.08916913 88.03881836 62.2890625 C85.26048699 61.87042569 82.88361164 61.84084654 80.08984375 62.03125 C66.29419314 62.7006869 56.87611377 61.06342245 45.109375 53.84765625 C44.49271973 53.48430176 43.87606445 53.12094727 43.24072266 52.74658203 C26.4769455 42.83319341 10.50771325 30.54965033 0.109375 13.84765625 C-0.40882812 13.0278125 -0.92703125 12.20796875 -1.4609375 11.36328125 C-4.96531258 5.50350653 -4.96531258 5.50350653 -4.640625 2.65234375 C-3.60748693 0.16635526 -2.64993089 -0.21352749 0 0 Z " fill="#333333" transform="translate(44.890625,342.15234375)"/>
<path d="M0 0 C2.20163626 1.5225461 4.06160575 3.1849046 5.98046875 5.05078125 C9.92106279 8.85417859 14.45144125 11.9676275 19 15 C18.27522461 14.98428955 17.55044922 14.9685791 16.80371094 14.95239258 C13.45255651 14.88921857 10.10152803 14.85075114 6.75 14.8125 C5.61046875 14.78736328 4.4709375 14.76222656 3.296875 14.73632812 C-12.47011928 14.60195033 -25.8484333 19.07260075 -37.5625 29.875 C-38.32691406 30.63554687 -39.09132813 31.39609375 -39.87890625 32.1796875 C-42.10245479 34.08792621 -43.08451209 34.90683591 -46 35 C-48.69921875 33.85546875 -48.69921875 33.85546875 -51.6875 32.1875 C-59.13063101 28.28527597 -65.71445174 27.08135754 -73.98046875 26.28515625 C-76.52164688 25.92634386 -78.69599824 25.11483956 -81 24 C-78.08759059 21.54265456 -75.17431304 19.50597367 -71.875 17.625 C-68.07403644 15.3259153 -66.81285384 13.07892115 -65 9 C-62.05180945 6.8379936 -59.59185878 6.73061059 -56 7 C-55.10087891 7.31324219 -55.10087891 7.31324219 -54.18359375 7.6328125 C-51.16725434 8.14003237 -49.36949783 7.21878066 -46.5625 6.0625 C-42.85274072 4.54041518 -40.02621239 3.5714032 -36 4 C-33.82421875 4.91015625 -33.82421875 4.91015625 -31.6875 6.0625 C-28.05669066 7.72537479 -25.22756368 8.5728304 -21.1640625 7.828125 C-18.31684228 6.73857502 -16.02140165 5.14621848 -13.5 3.4375 C-8.48678148 0.09765925 -5.96326277 -1.36861769 0 0 Z " fill="#E7B761" transform="translate(324,273)"/>
<path d="M0 0 C0.49886719 0.43957031 0.99773437 0.87914062 1.51171875 1.33203125 C1.51171875 1.99203125 1.51171875 2.65203125 1.51171875 3.33203125 C0.27421875 2.89890625 -0.96328125 2.46578125 -2.23828125 2.01953125 C-12.88901501 -1.61281538 -12.88901501 -1.61281538 -23.98828125 -2.73046875 C-27.48828125 -2.66796875 -27.48828125 -2.66796875 -29.28613281 -3.63818359 C-32.30622345 -5.05046101 -34.89764961 -4.99453108 -38.22265625 -5.08203125 C-39.51816406 -5.12070313 -40.81367188 -5.159375 -42.1484375 -5.19921875 C-43.51171409 -5.23067142 -44.87499543 -5.26191882 -46.23828125 -5.29296875 C-47.61721153 -5.33117344 -48.99611859 -5.37022662 -50.375 -5.41015625 C-53.74595843 -5.50444879 -57.11691103 -5.59005095 -60.48828125 -5.66796875 C-60.48828125 -5.00796875 -60.48828125 -4.34796875 -60.48828125 -3.66796875 C-61.26429687 -3.86648437 -62.0403125 -4.065 -62.83984375 -4.26953125 C-67.74457672 -4.8051659 -72.04383126 -3.96783822 -76.86328125 -3.04296875 C-77.82830566 -2.8634668 -78.79333008 -2.68396484 -79.78759766 -2.49902344 C-88.2456683 -0.85583712 -96.36236823 1.49145421 -104.48828125 4.33203125 C-104.48828125 5.32203125 -104.48828125 6.31203125 -104.48828125 7.33203125 C-106.46828125 7.00203125 -108.44828125 6.67203125 -110.48828125 6.33203125 C-108.11390288 12.26797717 -102.98574269 13.90819741 -97.48828125 16.33203125 C-98.14828125 16.66203125 -98.80828125 16.99203125 -99.48828125 17.33203125 C-99.48828125 17.99203125 -99.48828125 18.65203125 -99.48828125 19.33203125 C-98.47636719 19.13867188 -97.46445313 18.9453125 -96.421875 18.74609375 C-92.33509899 18.3159068 -89.5193312 18.73386602 -85.55078125 19.70703125 C-75.49230766 22.13376558 -65.80464535 22.58635387 -55.48828125 22.89453125 C-54.12759336 22.9378126 -52.7669161 22.98142964 -51.40625 23.02539062 C-48.10034968 23.13089808 -44.79438126 23.23301381 -41.48828125 23.33203125 C-41.48828125 23.66203125 -41.48828125 23.99203125 -41.48828125 24.33203125 C-70.24554221 27.15768251 -103.39057864 28.0518881 -127.67578125 9.95703125 C-128.27390625 9.42078125 -128.87203125 8.88453125 -129.48828125 8.33203125 C-129.15245746 5.53553497 -128.69226106 4.51179615 -126.546875 2.62109375 C-92.79135899 -18.80938288 -34.03972643 -23.161681 0 0 Z " fill="#F12D06" transform="translate(182.48828125,233.66796875)"/>
<path d="M0 0 C-1.40985073 20.67781067 -19.51305276 43.15350585 -34.1796875 56.45166016 C-49.51125291 69.49253836 -49.51125291 69.49253836 -57 71 C-55.71937515 69.2925002 -54.38232443 67.62626404 -53 66 C-52.34 66 -51.68 66 -51 66 C-50.58427734 65.16662109 -50.58427734 65.16662109 -50.16015625 64.31640625 C-49.35959483 62.7179789 -48.55463202 61.12175099 -47.74609375 59.52734375 C-47.31425781 58.67269531 -46.88242187 57.81804687 -46.4375 56.9375 C-46.00308594 56.08027344 -45.56867188 55.22304688 -45.12109375 54.33984375 C-42.87959553 49.66159485 -42.74927703 45.40704564 -42.6875 40.3125 C-42.65849609 39.53455078 -42.62949219 38.75660156 -42.59960938 37.95507812 C-42.50379977 29.1184846 -46.23069153 23.41034275 -52 17 C-51.25540527 16.91024902 -50.51081055 16.82049805 -49.74365234 16.72802734 C-24.88773272 13.81916214 -24.88773272 13.81916214 -3.671875 1.3203125 C-2 0 -2 0 0 0 Z " fill="#343433" transform="translate(467,301)"/>
<path d="M0 0 C-3.10329424 5.51037224 -7.09784816 9.93585269 -11.42944336 14.51416016 C-12.3496293 15.50273061 -13.25232997 16.50787668 -14.13647461 17.52880859 C-17.1288453 20.97517498 -19.96790369 23.825488 -24 26 C-29.00031976 25.94614403 -33.27136632 24.51521731 -38 23 C-40.78276955 22.65661914 -43.30611915 22.68911704 -46.125 22.75 C-47.95417969 22.77320313 -47.95417969 22.77320313 -49.8203125 22.796875 C-52.81807097 22.88827735 -52.81807097 22.88827735 -54.93359375 23.5 C-58.2328753 24.29831387 -61.56199151 24.22538371 -64.9375 24.25 C-65.99227539 24.2809375 -65.99227539 24.2809375 -67.06835938 24.3125 C-71.58866151 24.34639167 -74.36392219 23.70393262 -78 21 C-76.35720254 19.30420907 -74.69096391 17.64730053 -73 16 C-72.05253906 15.05833984 -72.05253906 15.05833984 -71.0859375 14.09765625 C-50.86536625 -5.05673943 -25.58403178 -1.28638619 0 0 Z " fill="#E8B252" transform="translate(288,243)"/>
<path d="M0 0 C0.33 0 0.66 0 1 0 C1.02578125 1.29292969 1.0515625 2.58585937 1.078125 3.91796875 C1.49737202 18.42112067 3.92918619 30.16241592 11 43 C12.155 42.62875 13.31 42.2575 14.5 41.875 C16.71484375 41.5859375 16.71484375 41.5859375 19 42 C22.17854727 44.94421203 24.49761596 48.47926335 27 52 C58.74664201 90.00096799 120.149513 99.27508892 166 106 C161.73319002 110.26680998 155.3830998 110.33822242 149.625 110.4375 C104.95961301 110.31788727 52.68824354 88.45351581 21 57 C17.69737824 53.49494083 14.67228678 50.00843017 12 46 C8.535 46.495 8.535 46.495 5 47 C4.34735571 44.98135603 3.70321254 42.95996273 3.0625 40.9375 C2.70285156 39.81214844 2.34320313 38.68679688 1.97265625 37.52734375 C-0.27228726 29.38604259 -0.1196524 21.44631751 -0.0625 13.0625 C-0.05798828 11.80630859 -0.05347656 10.55011719 -0.04882812 9.25585938 C-0.03709681 6.17052337 -0.020681 3.08528684 0 0 Z " fill="#575757" transform="translate(34,297)"/>
<path d="M0 0 C5.24023091 4.27773952 9.63931483 8.83862405 14 14 C14.495 14.495 14.495 14.495 15 15 C16.02304373 21.59294846 16.02304373 21.59294846 13.63671875 24.875 C0.47619435 37.08186321 -19.50031059 41.79534081 -37 42 C-42.48897427 40.98596004 -46.55831184 38.31221051 -51 35 C-52.31763319 34.30281638 -53.64499788 33.62144305 -55 33 C-54.67 32.01 -54.34 31.02 -54 30 C-53.16190796 29.93268677 -53.16190796 29.93268677 -52.30688477 29.86401367 C-49.72432835 29.64997788 -47.14356254 29.41883023 -44.5625 29.1875 C-43.68400391 29.11724609 -42.80550781 29.04699219 -41.90039062 28.97460938 C-33.93895408 28.24015951 -25.78322542 26.94846043 -20 21 C-17.46913182 17.16754247 -16.12834313 14.93048767 -15.5 10.375 C-13.61362667 6.13066002 -12.19165727 5.8339742 -8 4.0625 C-2.48231511 2 -2.48231511 2 0 2 C0 1.34 0 0.68 0 0 Z " fill="#DCA94D" transform="translate(452,277)"/>
<path d="M0 0 C2.25923098 1.78595334 4.02049492 3.40292399 5.9375 5.5 C6.45602539 6.04301758 6.97455078 6.58603516 7.50878906 7.14550781 C11.46300633 11.31680001 15.31515207 15.58856234 19 20 C18.67 20.66 18.34 21.32 18 22 C17.34 22 16.68 22 16 22 C15.83209961 22.77432373 15.66419922 23.54864746 15.49121094 24.34643555 C14 27 14 27 10.56347656 28.39379883 C9.09470949 28.77041956 7.61974433 29.12337589 6.140625 29.45703125 C5.35862732 29.64972092 4.57662964 29.84241058 3.77093506 30.04093933 C2.11562923 30.44468578 0.45781603 30.83826818 -1.20214844 31.22241211 C-3.73164963 31.80825002 -6.25245608 32.42354974 -8.7734375 33.04492188 C-10.38499398 33.43404643 -11.99696189 33.82147172 -13.609375 34.20703125 C-14.73469635 34.47879936 -14.73469635 34.47879936 -15.88275146 34.75605774 C-20.00678786 35.7038088 -23.73619597 36.19300651 -28 36 C-30.50611902 32.24082147 -30.70967373 28.34768538 -30 24 C-26.24079867 12.98466588 -18.6458609 6.50856847 -8.7109375 1.03125 C-5.43021546 -0.21674801 -3.4811689 -0.57347441 0 0 Z " fill="#F4C54F" transform="translate(335,314)"/>
<path d="M0 0 C2.30343057 1.79517924 4.29711581 3.82906041 6.3125 5.9375 C6.86228516 6.48857422 7.41207031 7.03964844 7.97851562 7.60742188 C12 11.71882764 12 11.71882764 12 14 C12.66 14 13.32 14 14 14 C18 18.47058824 18 18.47058824 18 21 C17.02149805 22.02104551 16.02019573 23.0206121 15 24 C14.67 24.66 14.34 25.32 14 26 C11.17267124 26.90415954 8.38534992 27.69023762 5.51171875 28.41796875 C4.65697464 28.63947098 3.80223053 28.86097321 2.92158508 29.08918762 C1.10933292 29.55629423 -0.70400545 30.01920339 -2.51831055 30.47827148 C-5.29374783 31.18274028 -8.06385213 31.90584746 -10.83398438 32.63085938 C-12.59345844 33.08186814 -14.35321557 33.53177431 -16.11328125 33.98046875 C-16.94257645 34.19809372 -17.77187164 34.41571869 -18.626297 34.63993835 C-19.79221626 34.93067986 -19.79221626 34.93067986 -20.98168945 35.22729492 C-21.66262161 35.40113205 -22.34355377 35.57496918 -23.04512024 35.7540741 C-25.30249096 36.03805368 -26.85424074 35.7235559 -29 35 C-30.76344942 33.23655058 -30.25558048 30.83111557 -30.3125 28.4375 C-30.24390951 20.18704436 -27.36969158 15.11260863 -22 9 C-19.16015625 6.83203125 -19.16015625 6.83203125 -16.0625 4.8125 C-15.04285156 4.13832031 -14.02320313 3.46414063 -12.97265625 2.76953125 C-5.04836794 -1.94755496 -5.04836794 -1.94755496 0 0 Z " fill="#F4C550" transform="translate(255,334)"/>
<path d="M0 0 C-0.33 0.66 -0.66 1.32 -1 2 C-3.49682617 2.37890625 -3.49682617 2.37890625 -6.79296875 2.5625 C-7.98083984 2.63726562 -9.16871094 2.71203125 -10.39257812 2.7890625 C-11.64490234 2.85867188 -12.89722656 2.92828125 -14.1875 3 C-16.63975127 3.13844388 -19.09161124 3.28404211 -21.54296875 3.4375 C-22.63633545 3.49808594 -23.72970215 3.55867188 -24.85620117 3.62109375 C-28.12407542 4.01495419 -30.92155651 4.85604056 -34 6 C-33.77136154 9.88685386 -32.67815822 11.49532622 -29.875 14 C-28.234375 15.5078125 -28.234375 15.5078125 -27 17 C-27.125 19.875 -27.125 19.875 -28 22 C-28.66 22 -29.32 22 -30 22 C-31.55078125 20.42578125 -31.55078125 20.42578125 -33.3125 18.3125 C-33.93640625 17.58675781 -34.5603125 16.86101562 -35.203125 16.11328125 C-35.79609375 15.41589844 -36.3890625 14.71851563 -37 14 C-40.18508493 10.01799394 -40.18508493 10.01799394 -44.8125 8.71484375 C-52.35462036 9.38956775 -59.45605653 14.54409485 -64.50390625 20.015625 C-68.11772133 24.80888364 -70.65397104 30.17160432 -72.0625 36 C-73 39 -73 39 -75.05859375 40.1875 C-76.01958984 40.5896875 -76.01958984 40.5896875 -77 41 C-77.0823499 39.31335214 -77.1397912 37.62548293 -77.1875 35.9375 C-77.23970703 34.52791016 -77.23970703 34.52791016 -77.29296875 33.08984375 C-76.93425955 29.30665734 -75.54585178 26.45008443 -74 23 C-78.42911406 22.97513238 -82.85819025 22.95706111 -87.28735352 22.94506836 C-88.7915925 22.94006445 -90.29582668 22.93325927 -91.80004883 22.92456055 C-93.97218009 22.91232116 -96.14424659 22.90673214 -98.31640625 22.90234375 C-99.62037354 22.89710693 -100.92434082 22.89187012 -102.26782227 22.88647461 C-108.5608722 22.69921518 -108.5608722 22.69921518 -114 25 C-114.67373588 27.23997227 -114.67373588 27.23997227 -114 30 C-112.25209841 31.91029832 -110.4119189 33.58409185 -108.43359375 35.25390625 C-107.96050781 35.83011719 -107.48742187 36.40632813 -107 37 C-107.28515625 39.21484375 -107.28515625 39.21484375 -108 41 C-112.65312799 39.19773212 -115.5628868 35.3933588 -118.7578125 31.72460938 C-120.29436711 30.0065525 -120.29436711 30.0065525 -123 28 C-128.31760491 28.10033217 -132.4780082 30.40973285 -137 33 C-137.61230469 33.34933594 -138.22460938 33.69867188 -138.85546875 34.05859375 C-145.65767563 38.39819152 -149.53308017 44.67088665 -151.625 52.375 C-151.80289063 53.18710937 -151.98078125 53.99921875 -152.1640625 54.8359375 C-153.21039186 57.5446593 -154.58314144 58.47096704 -157 60 C-158 59 -158 59 -158.4375 55.6875 C-158.30910406 48.53584631 -154.56726387 42.0922667 -150.08984375 36.69921875 C-139.8113922 26.80500838 -126.61136212 22.75186234 -113 20 C-112.10458496 19.81695312 -111.20916992 19.63390625 -110.28662109 19.4453125 C-106.42905339 18.92264102 -102.69559965 19.00473838 -98.8203125 19.1484375 C-97.23571906 19.18543761 -95.65108026 19.22053479 -94.06640625 19.25390625 C-91.59460771 19.30933654 -89.12528176 19.37498881 -86.65478516 19.47314453 C-75.74554763 20.29561425 -75.74554763 20.29561425 -66.33203125 15.73828125 C-65.21864288 14.49460945 -64.10776676 13.24868171 -63 12 C-43.95395603 -1.23694933 -22.13598846 -0.56563705 0 0 Z " fill="#FBDD8D" transform="translate(377,306)"/>
<path d="M0 0 C1.53527344 0.01353516 1.53527344 0.01353516 3.1015625 0.02734375 C4.22691406 0.04474609 4.22691406 0.04474609 5.375 0.0625 C4.385 2.7025 3.395 5.3425 2.375 8.0625 C1.26934692 8.15954224 1.26934692 8.15954224 0.14135742 8.25854492 C-50.8985271 12.7193193 -50.8985271 12.7193193 -98.57446289 30.14501953 C-101.00554557 31.23276911 -102.73568768 31.29185016 -105.390625 31.2578125 C-106.28007813 31.25136719 -107.16953125 31.24492187 -108.0859375 31.23828125 C-109.00632812 31.22152344 -109.92671875 31.20476562 -110.875 31.1875 C-111.81085938 31.17847656 -112.74671875 31.16945312 -113.7109375 31.16015625 C-116.01588657 31.13663636 -118.3203116 31.10376853 -120.625 31.0625 C-116.90046766 27.86157565 -112.67284344 26.17709592 -108.1875 24.3125 C-107.34985107 23.96396973 -106.51220215 23.61543945 -105.64916992 23.25634766 C-82.40590762 13.75391077 -58.46904255 7.8575866 -33.75 3.75 C-32.97228241 3.62076141 -32.19456482 3.49152283 -31.39328003 3.35836792 C-10.27882125 -0.11952118 -10.27882125 -0.11952118 0 0 Z " fill="#666666" transform="translate(229.625,173.9375)"/>
<path d="M0 0 C0.05786668 3.79160297 0.09355054 7.58309311 0.125 11.375 C0.14175781 12.45523437 0.15851563 13.53546875 0.17578125 14.6484375 C0.18544922 16.1953125 0.18544922 16.1953125 0.1953125 17.7734375 C0.21102295 19.20308838 0.21102295 19.20308838 0.22705078 20.66162109 C0 23 0 23 -2 25 C-8.69573372 25.51328851 -14.85199132 24.24260989 -21.375 22.8125 C-22.35210937 22.61591797 -23.32921875 22.41933594 -24.3359375 22.21679688 C-31.96760792 20.56766597 -40.79531488 18.25329745 -46 12 C-46.0625 9.9375 -46.0625 9.9375 -45 8 C-38.54716114 5.54431167 -31.74639558 4.06573348 -25.0625 2.375 C-23.18788086 1.88773437 -23.18788086 1.88773437 -21.27539062 1.390625 C-20.06173828 1.08382813 -18.84808594 0.77703125 -17.59765625 0.4609375 C-16.49945557 0.18040527 -15.40125488 -0.10012695 -14.26977539 -0.38916016 C-9.40762488 -1.29747798 -4.75371537 -1.52118892 0 0 Z " fill="#F3BF3D" transform="translate(360,346)"/>
<path d="M0 0 C0.02887236 3.81248426 0.04675492 7.6249407 0.0625 11.4375 C0.07087891 12.52611328 0.07925781 13.61472656 0.08789062 14.73632812 C0.09111328 15.77080078 0.09433594 16.80527344 0.09765625 17.87109375 C0.10289307 18.82943115 0.10812988 19.78776855 0.11352539 20.77514648 C0 23 0 23 -1 24 C-15.23457876 25.62300805 -30.92778754 21.54513279 -43 14 C-43.66 13.34 -44.32 12.68 -45 12 C-44.625 9.375 -44.625 9.375 -44 7 C-38.0826236 5.4167259 -38.0826236 5.4167259 -35.68554688 4.78442383 C-31.78594444 3.7540594 -27.8984995 2.69163525 -24.01953125 1.5859375 C-22.34635856 1.11977591 -20.67318154 0.65362985 -19 0.1875 C-18.21197998 -0.04348389 -17.42395996 -0.27446777 -16.61206055 -0.51245117 C-10.59837259 -2.16543324 -5.99575003 -1.99858334 0 0 Z " fill="#F3BF3C" transform="translate(279,366)"/>
<path d="M0 0 C1 1 1 1 1.43359375 3.25390625 C0.89714384 6.65142237 -0.47446359 7.67585081 -3.16479492 9.69189453 C-3.7497876 10.10294434 -4.33478027 10.51399414 -4.9375 10.9375 C-5.53216064 11.3691748 -6.12682129 11.80084961 -6.73950195 12.24560547 C-7.93522099 13.10908163 -9.13595023 13.96566585 -10.34179688 14.81494141 C-11.76244434 15.83022745 -13.14362968 16.900342 -14.515625 17.98046875 C-18.96468148 21.34926871 -22.84545015 23.19074022 -28.51953125 22.84765625 C-32.82717561 21.37559511 -35.11551853 18.15935897 -37.87890625 14.671875 C-39.81648745 12.23116499 -41.81035426 10.25922252 -44.125 8.1875 C-45.82421875 6.5390625 -45.82421875 6.5390625 -47 5 C-46.9375 2.0625 -46.9375 2.0625 -46 0 C-32.21839772 -5.30061626 -13.91377998 -4.54375556 0 0 Z " fill="#F3C142" transform="translate(389,311)"/>
<path d="M0 0 C1.65322266 -0.00580078 1.65322266 -0.00580078 3.33984375 -0.01171875 C8.83244562 -0.00512499 14.09133331 0.14584482 19.5 1.125 C19.17702486 2.79370487 18.83986667 4.45965333 18.5 6.125 C18.44714844 6.80304688 18.39429688 7.48109375 18.33984375 8.1796875 C17.6703571 13.62987456 15.93638963 16.11367726 11.6875 19.625 C8.29958241 22.2082231 5.74078139 23.57682 1.5 24.125 C2.325 23.5475 3.15 22.97 4 22.375 C4.825 21.6325 5.65 20.89 6.5 20.125 C6.5 18.805 6.5 17.485 6.5 16.125 C3.2 16.125 -0.1 16.125 -3.5 16.125 C-3.94290923 20.12846023 -3.94290923 20.12846023 -1.5 22.375 C-0.51 23.24125 -0.51 23.24125 0.5 24.125 C-2.5625 24.625 -2.5625 24.625 -6.5 24.125 C-8.51083413 22.39369887 -10.02657199 20.51062347 -11.65625 18.41796875 C-14.14872253 15.31822008 -17.04634931 12.74071931 -19.99609375 10.08203125 C-21.5 8.125 -21.5 8.125 -21.84765625 5.51171875 C-21.5 3.125 -21.5 3.125 -19.5 1.125 C-13.0792079 -0.26852356 -6.54153092 -0.02295274 0 0 Z " fill="#F3BF3D" transform="translate(283.5,327.875)"/>
<path d="M0 0 C4.5531755 0.06743723 8.84455848 1.03276885 13.265625 2.0546875 C14.06742187 2.22871094 14.86921875 2.40273438 15.6953125 2.58203125 C19.40318565 3.41909291 21.79418939 4.03206376 25.015625 6.1796875 C24.68219651 8.99953991 24.46044321 10.71003172 22.4765625 12.8046875 C11.25226743 20.20347376 -4.44690742 25.18680014 -17.984375 24.1796875 C-18.644375 23.5196875 -19.304375 22.8596875 -19.984375 22.1796875 C-19.83866603 17.95412748 -16.88009734 15.94072508 -13.984375 13.1796875 C-13.345 12.2928125 -12.705625 11.4059375 -12.046875 10.4921875 C-9.5707547 7.71593141 -7.54651268 7.07022192 -3.984375 6.1796875 C-4.005 5.3753125 -4.025625 4.5709375 -4.046875 3.7421875 C-3.95670295 0.04513364 -3.73555388 0.22491555 0 0 Z " fill="#F2B828" transform="translate(384.984375,346.8203125)"/>
<path d="M0 0 C4.0141844 6.0212766 4.0141844 6.0212766 4 10 C2.75865697 13.0127486 1.21757663 15.79209978 -0.328125 18.66015625 C-7.27522836 32.53813142 -8.62728496 50.270672 -4.3125 65.1875 C-2.56386 70.00096064 -0.39739863 74.57587181 2.046875 79.07421875 C3 81 3 81 3 83 C-0.465 83.495 -0.465 83.495 -4 84 C-5.11926574 82.07118314 -6.21951885 80.13133191 -7.3125 78.1875 C-7.92738281 77.10855469 -8.54226562 76.02960938 -9.17578125 74.91796875 C-13.67960107 65.91867394 -14.55654187 56.75044074 -14.5 46.8125 C-14.49355469 45.62358154 -14.48710938 44.43466309 -14.48046875 43.2097168 C-14.20029415 29.67746815 -10.08992965 10.08992965 0 0 Z " fill="#676767" transform="translate(49,257)"/>
<path d="M0 0 C6.9979185 2.00649538 13.77885119 3.76217269 21.015625 4.640625 C23.0625 5.0625 23.0625 5.0625 25.0625 7.0625 C23.12361564 10.11660731 21.24098143 12.28418563 18.0625 14.0625 C14.48991088 13.82493653 11.36012192 12.94344681 7.9140625 11.98046875 C1.46975092 10.4445527 -6.41577162 9.89324499 -12.87109375 11.5625 C-16.1703753 12.36081387 -19.49949151 12.28788371 -22.875 12.3125 C-23.92977539 12.3434375 -23.92977539 12.3434375 -25.00585938 12.375 C-29.52616151 12.40889167 -32.30142219 11.76643262 -35.9375 9.0625 C-34.84138257 7.93102394 -33.73669735 6.80731032 -32.60546875 5.7109375 C-31.36217098 4.48219826 -30.16284041 3.20866678 -28.98828125 1.9140625 C-28.27027344 1.17929687 -27.55226562 0.44453125 -26.8125 -0.3125 C-26.14992187 -1.02148438 -25.48734375 -1.73046875 -24.8046875 -2.4609375 C-17.41937424 -6.26427321 -7.50412305 -2.22649805 0 0 Z " fill="#DCA84E" transform="translate(245.9375,254.9375)"/>
<path d="M0 0 C9.20676125 2.48470269 18.16771344 4.70026425 27.6875 5.5625 C24.13639104 7.55219171 20.47634689 8.55053055 16.5625 9.625 C12.01502281 10.80490337 12.01502281 10.80490337 7.6875 12.5625 C7.6875 11.9025 7.6875 11.2425 7.6875 10.5625 C4.27085127 10.53341643 0.8542345 10.51567309 -2.5625 10.5 C-3.53058594 10.49162109 -4.49867188 10.48324219 -5.49609375 10.47460938 C-6.43066406 10.47138672 -7.36523438 10.46816406 -8.328125 10.46484375 C-9.61638184 10.45698853 -9.61638184 10.45698853 -10.93066406 10.44897461 C-13.21057855 10.55764212 -15.11722798 10.97374603 -17.3125 11.5625 C-24.87832351 12.04169954 -31.61124141 12.39179062 -38.3125 8.5625 C-37.21638257 7.43102394 -36.11169735 6.30731032 -34.98046875 5.2109375 C-33.73717098 3.98219826 -32.53784041 2.70866678 -31.36328125 1.4140625 C-30.64527344 0.67929687 -29.92726563 -0.05546875 -29.1875 -0.8125 C-28.52492188 -1.52148438 -27.86234375 -2.23046875 -27.1796875 -2.9609375 C-19.23642293 -7.05161054 -8.05030792 -2.24128861 0 0 Z " fill="#DCA94E" transform="translate(317.3125,300.4375)"/>
<path d="M0 0 C2.93535712 -0.15370325 4.35969193 -0.16065288 7 1 C9.85602732 4.21060082 11.91433445 7.85376236 14.0625 11.5625 C15.23783007 13.52396944 16.41617515 15.48363569 17.59765625 17.44140625 C18.15984863 18.38773926 18.72204102 19.33407227 19.30126953 20.30908203 C21.31601532 23.50059224 23.58129228 26.39269467 26.02905273 29.26147461 C27 31 27 31 26.80883789 33.08032227 C25.58726249 35.97958195 23.55186626 37.25726207 21 39 C20.34 39 19.68 39 19 39 C18.67 39.33 18.34 39.66 18 40 C16.33382885 40.04063832 14.66611905 40.042721 13 40 C13 38.68 13 37.36 13 36 C14.32 35.34 15.64 34.68 17 34 C16.67314209 33.51756836 16.34628418 33.03513672 16.00952148 32.53808594 C5.45253882 16.92258775 5.45253882 16.92258775 0.625 9.125 C0.06039063 8.22007812 -0.50421875 7.31515625 -1.0859375 6.3828125 C-2 4 -2 4 -1.1640625 1.6796875 C-0.77992188 1.12539062 -0.39578125 0.57109375 0 0 Z " fill="#E9B862" transform="translate(386,195)"/>
<path d="M0 0 C2.62187494 1.04874998 3.79371361 1.64931313 5.25 4.125 C5.4975 4.74375 5.745 5.3625 6 6 C5.525625 6.45375 5.05125 6.9075 4.5625 7.375 C2.90972192 8.93258204 2.90972192 8.93258204 2 11 C-0.82732876 11.90415954 -3.61465008 12.69023762 -6.48828125 13.41796875 C-7.34302536 13.63947098 -8.19776947 13.86097321 -9.07841492 14.08918762 C-10.89066708 14.55629423 -12.70400545 15.01920339 -14.51831055 15.47827148 C-17.29374783 16.18274028 -20.06385213 16.90584746 -22.83398438 17.63085938 C-24.59345844 18.08186814 -26.35321557 18.53177431 -28.11328125 18.98046875 C-28.94257645 19.19809372 -29.77187164 19.41571869 -30.626297 19.63993835 C-31.79221626 19.93067986 -31.79221626 19.93067986 -32.98168945 20.22729492 C-33.66262161 20.40113205 -34.34355377 20.57496918 -35.04512024 20.7540741 C-37.30249096 21.03805368 -38.85424074 20.7235559 -41 20 C-42 19 -42 19 -42.0625 15.9375 C-42.041875 14.968125 -42.02125 13.99875 -42 13 C-40.60922699 12.17886823 -39.21211107 11.36847505 -37.8125 10.5625 C-36.64654297 9.88380859 -36.64654297 9.88380859 -35.45703125 9.19140625 C-30.84975649 6.9573541 -26.44260259 6.84162415 -21.375 6.8125 C-20.24835938 6.79832031 -19.12171875 6.78414063 -17.9609375 6.76953125 C-15 7 -15 7 -12 9 C-9.54323084 9.06262425 -9.54323084 9.06262425 -6.9375 8.6875 C-5.62072266 8.53861328 -5.62072266 8.53861328 -4.27734375 8.38671875 C-1.97692804 8.10978136 -1.97692804 8.10978136 0 7 C-0.66 6.34 -1.32 5.68 -2 5 C-1.46428571 1.46428571 -1.46428571 1.46428571 0 0 Z " fill="#F3BF3D" transform="translate(267,349)"/>
<path d="M0 0 C1.98 1.65 3.96 3.3 6 5 C5.67 5.66 5.34 6.32 5 7 C4.34 7 3.68 7 3 7 C2.74814941 8.1614856 2.74814941 8.1614856 2.49121094 9.34643555 C1 12 1 12 -2.43652344 13.39379883 C-3.90529051 13.77041956 -5.38025567 14.12337589 -6.859375 14.45703125 C-8.03237152 14.74606575 -8.03237152 14.74606575 -9.22906494 15.04093933 C-10.88437077 15.44468578 -12.54218397 15.83826818 -14.20214844 16.22241211 C-16.73164963 16.80825002 -19.25245608 17.42354974 -21.7734375 18.04492188 C-23.38499398 18.43404643 -24.99696189 18.82147172 -26.609375 19.20703125 C-27.73469635 19.47879936 -27.73469635 19.47879936 -28.88275146 19.75605774 C-33.00678786 20.7038088 -36.73619597 21.19300651 -41 21 C-42.31161186 18.83969811 -43.05466957 17.54991155 -42.80078125 14.99609375 C-41.74677748 12.36879655 -40.67325159 11.95594622 -38.125 10.8125 C-37.07699219 10.32716797 -37.07699219 10.32716797 -36.0078125 9.83203125 C-31.54742876 7.98366211 -27.63194992 7.84991942 -22.875 7.875 C-22.13378906 7.87113281 -21.39257812 7.86726563 -20.62890625 7.86328125 C-15.1266598 7.8733402 -15.1266598 7.8733402 -14 9 C-11.64686445 9.07271741 -9.29166332 9.08370868 -6.9375 9.0625 C-5.64714844 9.05347656 -4.35679687 9.04445313 -3.02734375 9.03515625 C-2.02832031 9.02355469 -1.02929688 9.01195312 0 9 C-0.66 8.01 -1.32 7.02 -2 6 C-1.45945946 1.45945946 -1.45945946 1.45945946 0 0 Z " fill="#F3BF3D" transform="translate(348,329)"/>
<path d="M0 0 C0.58007812 0.39832031 1.16015625 0.79664063 1.7578125 1.20703125 C6.0639288 4.12751607 10.274163 6.81884446 15 9 C14.01 9.495 14.01 9.495 13 10 C13 10.66 13 11.32 13 12 C14.01191406 11.80664062 15.02382812 11.61328125 16.06640625 11.4140625 C20.15318226 10.98387555 22.96895005 11.40183477 26.9375 12.375 C36.99597359 14.80173433 46.6836359 15.25432262 57 15.5625 C58.36068789 15.60578135 59.72136515 15.64939839 61.08203125 15.69335938 C64.38793157 15.79886683 67.69389999 15.90098256 71 16 C71 16.33 71 16.66 71 17 C45.254208 19.52974822 14.92138449 21.00916868 -8 7 C-5.42215154 4.35247996 -3.08351902 2.05567935 0 0 Z " fill="#FC370F" transform="translate(70,241)"/>
<path d="M0 0 C0.86139274 1.32360348 1.66316245 2.68615521 2.4375 4.0625 C7.71918163 12.28276431 17.53040942 17.4858405 26.9375 19.6875 C27.618125 19.790625 28.29875 19.89375 29 20 C29 20.33 29 20.66 29 21 C26.53460817 21.50184853 24.06884743 21.99606083 21.59765625 22.46875 C18.88142515 22.98626152 18.88142515 22.98626152 15.8125 23.9375 C11.49970391 24.03333991 9.21883264 21.64209265 6 19 C5.01 18.34 4.02 17.68 3 17 C2.6596875 16.01 2.6596875 16.01 2.3125 15 C1.21158128 12.83911596 1.21158128 12.83911596 -0.83203125 12.5078125 C-1.54746094 12.38148438 -2.26289063 12.25515625 -3 12.125 C-5.15625 11.703125 -5.15625 11.703125 -7 11 C-8.5 7.875 -8.5 7.875 -9 5 C-7.87926138 4.16094435 -6.75325453 3.32892169 -5.625 2.5 C-4.99851562 2.0359375 -4.37203125 1.571875 -3.7265625 1.09375 C-2 0 -2 0 0 0 Z " fill="#F3C03E" transform="translate(301,349)"/>
<path d="M0 0 C11.54296106 3.77146252 22.27135862 8.31078775 33 14 C32.42655063 16.86724686 32.1385485 17.8614515 30 20 C24.8753199 19.70478209 20.817323 17.6876836 16.3125 15.4375 C11.4030771 12.85325444 11.4030771 12.85325444 6 12 C4.39453125 9.8828125 4.39453125 9.8828125 2.8125 7.125 C2.01779297 5.76761719 2.01779297 5.76761719 1.20703125 4.3828125 C0 2 0 2 0 0 Z " fill="#585757" transform="translate(391,192)"/>
<path d="M0 0 C0 3.1875 0 3.1875 -1 7 C-2.82581228 8.47846263 -4.72911934 9.49349224 -6.796875 10.60546875 C-10.02825817 12.65086555 -12.16880364 15.37628729 -14.5546875 18.328125 C-16 20 -16 20 -18 21 C-18 14.4 -18 7.8 -18 1 C-11.63535765 -1.54585694 -6.64889918 -1.6622248 0 0 Z " fill="#F3C03E" transform="translate(302,365)"/>
<path d="M0 0 C1.72863281 0.30550781 1.72863281 0.30550781 3.4921875 0.6171875 C4.36101562 0.78476562 5.22984375 0.95234375 6.125 1.125 C5.465 1.785 4.805 2.445 4.125 3.125 C4.0321875 4.300625 4.0321875 4.300625 3.9375 5.5 C3.125 8.125 3.125 8.125 -0.0625 9.9375 C-0.69027344 10.24945313 -1.31804687 10.56140625 -1.96484375 10.8828125 C-4.92882349 12.81030853 -6.58934509 15.5014944 -8.515625 18.41796875 C-9.875 20.125 -9.875 20.125 -12.875 21.125 C-12.875 14.525 -12.875 7.925 -12.875 1.125 C-7.16563146 -0.77812285 -5.55140985 -1.01964671 0 0 Z " fill="#F3C03F" transform="translate(377.875,344.875)"/>
<path d="M0 0 C0.29648438 0.60199219 0.59296875 1.20398438 0.8984375 1.82421875 C6.00826378 11.91703165 12.93736492 17.04564394 23.36328125 20.95703125 C26 22 26 22 29 24 C28.40832031 24.12117188 27.81664062 24.24234375 27.20703125 24.3671875 C26.41683594 24.53476562 25.62664062 24.70234375 24.8125 24.875 C23.98492187 25.04773438 23.15734375 25.22046875 22.3046875 25.3984375 C19.8637715 25.92443511 19.8637715 25.92443511 17.4375 27.5 C15 28 15 28 13.1328125 27.0703125 C7.84613061 23.37961005 2.48245232 18.32381927 0.34375 12.0859375 C-0.06456346 9.60821718 -0.09552873 7.26018361 -0.0625 4.75 C-0.05347656 3.85796875 -0.04445312 2.9659375 -0.03515625 2.046875 C-0.02355469 1.37140625 -0.01195312 0.6959375 0 0 Z " fill="#EBBA3E" transform="translate(219,365)"/>
<path d="M0 0 C0.87462891 0.00451172 1.74925781 0.00902344 2.65039062 0.01367188 C4.78779047 0.02535166 6.92515463 0.04328311 9.0625 0.0625 C9.0625 0.3925 9.0625 0.7225 9.0625 1.0625 C8.38703125 1.25585938 7.7115625 1.44921875 7.015625 1.6484375 C6.12359375 1.90882813 5.2315625 2.16921875 4.3125 2.4375 C3.43078125 2.69273437 2.5490625 2.94796875 1.640625 3.2109375 C-3.192589 4.72089523 -3.192589 4.72089523 -6.421875 8.4453125 C-6.83953125 9.35023438 -7.2571875 10.25515625 -7.6875 11.1875 C-8.11546875 12.09757812 -8.5434375 13.00765625 -8.984375 13.9453125 C-9.29890625 14.64398438 -9.6134375 15.34265625 -9.9375 16.0625 C-11.06338014 15.10520084 -12.1881715 14.14662105 -13.3125 13.1875 C-13.93898438 12.65382813 -14.56546875 12.12015625 -15.2109375 11.5703125 C-18.90973599 8.34014006 -18.90973599 8.34014006 -19.1875 5.5625 C-18.9375 3.0625 -18.9375 3.0625 -16.9375 1.0625 C-11.30205164 -0.10269674 -5.73562859 -0.05670203 0 0 Z " fill="#F4C54F" transform="translate(280.9375,327.9375)"/>
<path d="M0 0 C0.33 0 0.66 0 1 0 C1.02578125 1.29292969 1.0515625 2.58585937 1.078125 3.91796875 C1.5240667 19.3931898 4.58466873 31.28163715 12 45 C9.69 45.66 7.38 46.32 5 47 C4.34735571 44.98135603 3.70321254 42.95996273 3.0625 40.9375 C2.70285156 39.81214844 2.34320313 38.68679688 1.97265625 37.52734375 C-0.27228726 29.38604259 -0.1196524 21.44631751 -0.0625 13.0625 C-0.05798828 11.80630859 -0.05347656 10.55011719 -0.04882812 9.25585938 C-0.03709681 6.17052337 -0.020681 3.08528684 0 0 Z " fill="#494949" transform="translate(34,297)"/>
<path d="M0 0 C0.8125 2.1875 0.8125 2.1875 1 5 C-1.0625 7.875 -1.0625 7.875 -4 10 C-7.75470151 9.9263784 -9.32841161 9.67158839 -12 7 C-11.9375 4.5625 -11.9375 4.5625 -11 2 C-7.20434017 -1.25342271 -4.73763945 -1.21195428 0 0 Z " fill="#DDA549" transform="translate(282,245)"/>
<path d="M0 0 C0.31563182 5.26053037 -0.33409063 8.44573816 -3 13 C-8.19209404 13.21192221 -12.126739 12.5912689 -17 11 C-17 10.34 -17 9.68 -17 9 C-16.34773438 8.76925781 -15.69546875 8.53851563 -15.0234375 8.30078125 C-11.42689442 6.95870839 -2.89729447 0 0 0 Z " fill="#F2B829" transform="translate(419,335)"/>
<path d="M0 0 C2.45160991 1.43144108 3.98164471 2.93241653 6 5 C6 5.66 6 6.32 6 7 C2.93845379 7.88081608 0.12089323 8.19238202 -3.0625 8.25 C-3.91972656 8.27578125 -4.77695312 8.3015625 -5.66015625 8.328125 C-8.43858273 7.93849591 -9.27457227 7.14971323 -11 5 C-8.52945001 -0.47050356 -5.92008115 -0.59200811 0 0 Z " fill="#FEDE87" transform="translate(342,331)"/>
<path d="M0 0 C3.65390695 0.01167382 5.57684533 0.50527092 8.375 2.875 C9.5815625 4.1125 9.5815625 4.1125 10.8125 5.375 C7.76896067 7.40402622 6.40493118 7.78938746 2.875 8.1875 C1.59302734 8.35185547 1.59302734 8.35185547 0.28515625 8.51953125 C-2.74515984 8.34240377 -3.96405962 7.37145343 -6.1875 5.375 C-5.16686033 0.85502434 -4.68355812 0.20397406 0 0 Z " fill="#FEDD80" transform="translate(257.1875,350.625)"/>
<path d="M0 0 C-0.33 2.31 -0.66 4.62 -1 7 C-4.52994613 8.17664871 -7.29455413 8.19850603 -11 8 C-11.99 7.34 -12.98 6.68 -14 6 C-13.8125 4.125 -13.8125 4.125 -13 2 C-8.82344286 -0.53124675 -4.72566806 -0.16019214 0 0 Z " fill="#FEDC80" transform="translate(276,366)"/>
<path d="M0 0 C0.99 0.66 1.98 1.32 3 2 C2.63088042 4.67611698 2.15144437 5.8431469 0.25 7.8125 C-2 9 -2 9 -4.5625 8.875 C-7.17852977 7.93591239 -8.4568112 7.3147832 -10 5 C-9.8125 2.875 -9.8125 2.875 -9 1 C-5.98131566 -0.50934217 -3.32702771 -0.17510672 0 0 Z " fill="#FEDD81" transform="translate(369,323)"/>
<path d="M0 0 C1.60495567 0.11442461 3.20898119 0.24194694 4.8125 0.375 C5.70582031 0.44460938 6.59914063 0.51421875 7.51953125 0.5859375 C10 1 10 1 13 3 C12.625 4.9375 12.625 4.9375 12 7 C8.98131566 8.50934217 6.32702771 8.17510672 3 8 C2.01 7.34 1.02 6.68 0 6 C-0.1875 2.875 -0.1875 2.875 0 0 Z " fill="#FEDC7D" transform="translate(288,366)"/>
<path d="M0 0 C2.3828125 0.0234375 2.3828125 0.0234375 5.125 0.375 C6.03507813 0.48585938 6.94515625 0.59671875 7.8828125 0.7109375 C8.93082031 0.85402344 8.93082031 0.85402344 10 1 C10 3.31 10 5.62 10 8 C8.22880197 7.85866501 6.45804713 7.71176792 4.6875 7.5625 C3.70136719 7.48128906 2.71523437 7.40007812 1.69921875 7.31640625 C-1 7 -1 7 -4 6 C-2.84826645 3.53199953 -1.95216435 1.95216435 0 0 Z " fill="#353535" transform="translate(209,360)"/>
<path d="M0 0 C8.08888889 -0.46666667 8.08888889 -0.46666667 11.5625 1.3125 C13 3 13 3 13 6 C10.1778917 7.91903365 8.87098068 7.99110212 5.375 7.75 C2 7 2 7 0 5 C-0.125 2.375 -0.125 2.375 0 0 Z " fill="#FEDD81" transform="translate(368,347)"/>
<path d="M0 0 C3.875 0.4375 3.875 0.4375 6.875 2.4375 C5.125 6.3125 5.125 6.3125 2.875 7.4375 C-1.68047083 7.69535684 -5.0030636 7.43601462 -9.125 5.4375 C-6.33651779 1.95189724 -4.48882716 0.07453772 0 0 Z " fill="#FDDC7E" transform="translate(388.125,331.5625)"/>
<path d="M0 0 C0 1.98 0 3.96 0 6 C-2.52475462 7.26237731 -4.31200466 7.09856404 -7.125 7.0625 C-8.03507812 7.05347656 -8.94515625 7.04445313 -9.8828125 7.03515625 C-10.58148438 7.02355469 -11.28015625 7.01195312 -12 7 C-12.33 5.68 -12.66 4.36 -13 3 C-9.21656826 -0.94792877 -5.07874402 -0.29300446 0 0 Z " fill="#FEDE82" transform="translate(356,347)"/>
<path d="M0 0 C0.3259574 3.01510598 0.43138108 4.46077366 -1.5 6.875 C-5.25875841 8.56644129 -7.98067496 7.73687626 -12 7 C-12.33 6.01 -12.66 5.02 -13 4 C-11.58774074 3.32404685 -10.16997095 2.65959941 -8.75 2 C-7.56664062 1.443125 -7.56664062 1.443125 -6.359375 0.875 C-4 0 -4 0 0 0 Z " fill="#E0AE5B" transform="translate(271,283)"/>
<path d="M0 0 C-0.3125 2.375 -0.3125 2.375 -1 5 C-5.1795645 7.78637633 -7.14668677 6.79562512 -12 6 C-11.9375 4.1875 -11.9375 4.1875 -11 2 C-4.07110092 -1.7912844 -4.07110092 -1.7912844 0 0 Z " fill="#E0AE5B" transform="translate(202,239)"/>
<path d="M0 0 C5 1 5 1 6 2 C6.1875 4.9375 6.1875 4.9375 6 8 C4 10 4 10 0.875 10.125 C-0.548125 10.063125 -0.548125 10.063125 -2 10 C-1.34 6.7 -0.68 3.4 0 0 Z " fill="#EAB55E" transform="translate(261,177)"/>
<path d="M0 0 C0.66 0.33 1.32 0.66 2 1 C-1 4 -4 7 -7 10 C-7 9.34 -7 8.68 -7 8 C-11.29 7.67 -15.58 7.34 -20 7 C-20 6.01 -20 5.02 -20 4 C-18.33710938 4.06960938 -18.33710938 4.06960938 -16.640625 4.140625 C-15.17711032 4.17815102 -13.71356644 4.21455029 -12.25 4.25 C-11.15558594 4.30027344 -11.15558594 4.30027344 -10.0390625 4.3515625 C-6.32855625 4.41902625 -4.42843039 4.34327652 -1.484375 1.984375 C-0.99453125 1.32953125 -0.5046875 0.6746875 0 0 Z " fill="#ECD081" transform="translate(310,321)"/>
<path d="M0 0 C-0.99 3.3 -1.98 6.6 -3 10 C-4.65 9.67 -6.3 9.34 -8 9 C-8.75 6.75 -8.75 6.75 -9 4 C-6.11791709 -0.10142567 -5.26125642 0 0 0 Z " fill="#ECBB6D" transform="translate(332,222)"/>
<path d="M0 0 C1.23556641 0.01740234 1.23556641 0.01740234 2.49609375 0.03515625 C3.32238281 0.04417969 4.14867187 0.05320312 5 0.0625 C5.63808594 0.07410156 6.27617187 0.08570313 6.93359375 0.09765625 C7.26359375 1.08765625 7.59359375 2.07765625 7.93359375 3.09765625 C3.75621901 4.6890371 0.4019859 5.31043683 -4.06640625 5.09765625 C-2.94676868 0.13926128 -2.94676868 0.13926128 0 0 Z " fill="#FEE18F" transform="translate(255.06640625,350.90234375)"/>
<path d="M0 0 C1.32 0.66 2.64 1.32 4 2 C3.67 3.32 3.34 4.64 3 6 C1.35 6 -0.3 6 -2 6 C-2.33 4.68 -2.66 3.36 -3 2 C-2.01 1.34 -1.02 0.68 0 0 Z " fill="#EDBD6E" transform="translate(255,152)"/>
<path d="M0 0 C1.2065625 0.0309375 1.2065625 0.0309375 2.4375 0.0625 C2.1075 1.7125 1.7775 3.3625 1.4375 5.0625 C-0.2125 5.0625 -1.8625 5.0625 -3.5625 5.0625 C-3.5625 0.08689024 -3.5625 0.08689024 0 0 Z " fill="#EDBD6E" transform="translate(295.5625,262.9375)"/>
<path d="M0 0 C1.67542976 0.28604898 3.34385343 0.61781233 5 1 C4.67 2.32 4.34 3.64 4 5 C2.35 5 0.7 5 -1 5 C-1 1 -1 1 0 0 Z " fill="#E0AE5B" transform="translate(386,195)"/>
<path d="M0 0 C1.32 0.66 2.64 1.32 4 2 C3.34 3.32 2.68 4.64 2 6 C0.35 5.67 -1.3 5.34 -3 5 C-1.125 1.125 -1.125 1.125 0 0 Z " fill="#EDBD6E" transform="translate(235,193)"/>
<path d="M0 0 C1.67542976 0.28604898 3.34385343 0.61781233 5 1 C4.67 2.32 4.34 3.64 4 5 C2.35 5 0.7 5 -1 5 C-1 1 -1 1 0 0 Z " fill="#EAB55E" transform="translate(287,191)"/>
<path d="M0 0 C1.67542976 0.28604898 3.34385343 0.61781233 5 1 C4.67 2.32 4.34 3.64 4 5 C2.35 5 0.7 5 -1 5 C-1 1 -1 1 0 0 Z " fill="#E3AA4B" transform="translate(433,268)"/>
<path d="M0 0 C1.65 0 3.3 0 5 0 C5 1.32 5 2.64 5 4 C1.25 5.125 1.25 5.125 -1 4 C-0.67 2.68 -0.34 1.36 0 0 Z " fill="#EAB65E" transform="translate(345,210)"/>
<path d="M0 0 C1.65 0 3.3 0 5 0 C5 1.32 5 2.64 5 4 C1.25 5.125 1.25 5.125 -1 4 C-0.67 2.68 -0.34 1.36 0 0 Z " fill="#EBB65E" transform="translate(276,165)"/>
<path d="M0 0 C1.65 0 3.3 0 5 0 C4.67 1.65 4.34 3.3 4 5 C2.35 4.67 0.7 4.34 -1 4 C-0.67 2.68 -0.34 1.36 0 0 Z " fill="#E0A84A" transform="translate(419,249)"/>
<path d="M0 0 C1.67542976 0.28604898 3.34385343 0.61781233 5 1 C5 2.32 5 3.64 5 5 C3.35 5 1.7 5 0 5 C-0.5625 3.0625 -0.5625 3.0625 -1 1 C-0.67 0.67 -0.34 0.34 0 0 Z " fill="#E0AE5B" transform="translate(233,239)"/>
<path d="M0 0 C1.65 0 3.3 0 5 0 C4.67 1.65 4.34 3.3 4 5 C2.35 4.67 0.7 4.34 -1 4 C-0.67 2.68 -0.34 1.36 0 0 Z " fill="#EDBD6E" transform="translate(344,172)"/>
<path d="M0 0 C0 1.32 0 2.64 0 4 C-1.98 4 -3.96 4 -6 4 C-6 2.68 -6 1.36 -6 0 C-3.50907189 -1.24546405 -2.58919267 -0.7767578 0 0 Z " fill="#E0AE5B" transform="translate(321,151)"/>
<path d="M0 0 C1.65 0.33 3.3 0.66 5 1 C4.67 2.32 4.34 3.64 4 5 C2.35 4.67 0.7 4.34 -1 4 C-0.67 2.68 -0.34 1.36 0 0 Z " fill="#EAB55E" transform="translate(373,263)"/>
<path d="M0 0 C1.65 0.33 3.3 0.66 5 1 C4.67 2.32 4.34 3.64 4 5 C2.35 4.67 0.7 4.34 -1 4 C-0.67 2.68 -0.34 1.36 0 0 Z " fill="#EBB55E" transform="translate(331,257)"/>
<path d="M0 0 C1.65 0.33 3.3 0.66 5 1 C4.67 2.32 4.34 3.64 4 5 C2.35 4.67 0.7 4.34 -1 4 C-0.67 2.68 -0.34 1.36 0 0 Z " fill="#EAB55E" transform="translate(356,236)"/>
<path d="M0 0 C1.65 0.33 3.3 0.66 5 1 C4.67 2.32 4.34 3.64 4 5 C2.35 4.67 0.7 4.34 -1 4 C-0.67 2.68 -0.34 1.36 0 0 Z " fill="#EAB65E" transform="translate(262,212)"/>
<path d="M0 0 C-4.95 2.475 -4.95 2.475 -10 5 C-10.66 4.01 -11.32 3.02 -12 2 C-10.37787941 1.47026689 -8.75218416 0.95146893 -7.125 0.4375 C-6.22007812 0.14746094 -5.31515625 -0.14257812 -4.3828125 -0.44140625 C-2 -1 -2 -1 0 0 Z " fill="#484233" transform="translate(402,377)"/>
<path d="M0 0 C0.66 0 1.32 0 2 0 C2 0.99 2 1.98 2 3 C-1.13498292 4.85776765 -3.37471432 5.20140476 -7 5 C-6.401875 4.731875 -5.80375 4.46375 -5.1875 4.1875 C-2.95672092 3.1106021 -2.95672092 3.1106021 -1.375 1.375 C-0.694375 0.694375 -0.694375 0.694375 0 0 Z " fill="#FDD76F" transform="translate(379,350)"/>
<path d="M0 0 C0.99 0 1.98 0 3 0 C2.67 1.65 2.34 3.3 2 5 C1.01 5 0.02 5 -1 5 C-0.67 3.35 -0.34 1.7 0 0 Z " fill="#E2B05D" transform="translate(368,165)"/>
</svg>
