<?xml version="1.0" encoding="UTF-8"?>
<svg version="1.1" xmlns="http://www.w3.org/2000/svg" width="512" height="512">
<path d="M0 0 C4.56780921 3.49309072 9.08569789 7.04975544 13.60864258 10.60058594 C26.49725035 20.66282983 40.46098836 28.97561977 54.39208984 37.50390625 C70.45913236 47.34023038 86.43313539 57.3277354 102.18115234 67.66796875 C103.03902344 68.2290332 103.89689453 68.79009766 104.78076172 69.36816406 C125.08738337 82.66878567 125.08738337 82.66878567 133.18115234 89.66796875 C133.93009766 90.27382812 134.67904297 90.8796875 135.45068359 91.50390625 C149.38185966 103.132997 158.32966902 119.45952734 160.05224609 137.6015625 C160.11605469 138.62443359 160.11605469 138.62443359 160.18115234 139.66796875 C160.26042969 140.86099609 160.26042969 140.86099609 160.34130859 142.078125 C160.84564348 156.96696782 156.88212506 169.99901595 147.70068359 181.62109375 C146.07989114 183.80437202 144.76882408 186.0516086 143.43115234 188.41796875 C129.34601692 212.14796435 104.16358654 224.94985694 79.18115234 234.66796875 C78.52115234 234.66796875 77.86115234 234.66796875 77.18115234 234.66796875 C77.05160156 235.70244141 77.05160156 235.70244141 76.91943359 236.7578125 C75.38388401 247.02768083 72.02218754 253.65371349 64.04833984 260.35546875 C59.36577582 263.64697819 53.65736391 263.22019176 48.18115234 262.66796875 C43.20774808 260.96702751 39.6627454 257.46607027 36.18115234 253.66796875 C28.59812329 256.00634775 21.38021006 259.06298459 14.11032104 262.22164917 C10.29010586 263.88060491 6.46374567 265.52529614 2.63818359 267.171875 C1.81886856 267.52484146 0.99955353 267.87780792 0.15541077 268.24147034 C-9.65835114 272.46619134 -19.49073069 276.64689215 -29.32971191 280.8125 C-31.36424846 281.67452692 -33.39818493 282.53797151 -35.43151855 283.40283203 C-38.28965532 284.61834399 -41.14968439 285.82928899 -44.01025391 287.0390625 C-44.87322586 287.40708481 -45.73619781 287.77510712 -46.62532043 288.15428162 C-47.41436264 288.48678421 -48.20340485 288.8192868 -49.01635742 289.16186523 C-49.7057692 289.45415512 -50.39518097 289.74644501 -51.10548401 290.04759216 C-52.81884766 290.66796875 -52.81884766 290.66796875 -54.81884766 290.66796875 C-54.80837402 291.32168457 -54.79790039 291.97540039 -54.78710938 292.64892578 C-54.227265 332.9506339 -54.227265 332.9506339 -65.19384766 344.73046875 C-71.64580122 350.38282123 -77.22389297 351.25534713 -85.66650391 351.00390625 C-92.26367594 350.30086189 -96.15535822 347.79342249 -100.50634766 342.85546875 C-106.43464496 334.66166653 -108.78941281 324.57901697 -109.81884766 314.66796875 C-110.76908813 315.07970337 -110.76908813 315.07970337 -111.73852539 315.49975586 C-141.06840702 328.18665899 -170.58344368 340.43087719 -200.25634766 352.29296875 C-201.47094666 352.77860291 -201.47094666 352.77860291 -202.71008301 353.27404785 C-207.311474 355.11201589 -211.91645783 356.94063137 -216.52508545 358.76037598 C-218.09809588 359.38278265 -219.67019523 360.00749542 -221.24151611 360.63415527 C-223.65215874 361.59548503 -226.06530639 362.55027683 -228.47900391 363.50390625 C-229.55896889 363.93698593 -229.55896889 363.93698593 -230.66075134 364.3788147 C-241.22069091 368.5275522 -252.53972476 370.97506207 -263.81884766 368.66796875 C-263.95419922 369.29703125 -264.08955078 369.92609375 -264.22900391 370.57421875 C-266.14753575 378.20239328 -269.4260203 383.96469038 -276.25634766 388.16796875 C-281.16579788 389.12591026 -285.16225363 389.20889741 -289.88134766 387.66796875 C-305.61198254 376.95774925 -310.07713976 354.99072288 -313.5559082 337.43383789 C-314.82861589 330.72622619 -315.89245108 324.08303936 -316.63134766 317.29296875 C-317.38794819 311.94173951 -319.08686236 309.76588107 -323.12744141 306.32421875 C-326.86520144 302.66414888 -327.74194081 298.0119556 -327.90869141 292.9296875 C-327.44822074 284.39326977 -325.1338167 278.52801016 -318.81884766 272.73046875 C-316.70368477 270.91688182 -315.38263615 269.78863571 -312.64697266 269.203125 C-312.04369141 269.02652344 -311.44041016 268.84992188 -310.81884766 268.66796875 C-310.12298965 266.64998053 -309.4449028 264.62473771 -308.83837891 262.578125 C-304.17459417 249.26578925 -295.33175107 235.81651787 -285.13134766 226.16796875 C-282.52849578 223.38400392 -281.84192578 222.25401326 -281.68994141 218.39453125 C-281.94373633 215.98217128 -282.22923824 213.57294854 -282.54541016 211.16796875 C-282.97809807 205.62956347 -281.67717544 201.39463058 -278.81884766 196.66796875 C-274.72651118 191.93232937 -270.15375241 187.68155351 -263.81884766 186.66796875 C-259.04894689 186.41729829 -254.47385696 186.24720367 -249.82275391 187.4296875 C-246.7228947 187.95405918 -246.7228947 187.95405918 -244.00244141 186.10546875 C-237.77112327 180.57439831 -234.7462668 176.1917134 -232.52954102 168.14868164 C-230.83461425 162.11468092 -227.97120956 158.23380736 -223.81884766 153.66796875 C-223.04541016 152.69988281 -222.27197266 151.73179687 -221.47509766 150.734375 C-212.51980935 139.97080732 -199.61822669 133.34084596 -186.25634766 129.98046875 C-178.22298224 127.6713613 -173.53882326 122.45350281 -167.81884766 116.66796875 C-166.35406003 115.33944044 -164.87684718 114.02432789 -163.38134766 112.73046875 C-162.76001953 112.18132812 -162.13869141 111.6321875 -161.49853516 111.06640625 C-159.81884766 109.66796875 -159.81884766 109.66796875 -157.00634766 107.85546875 C-154.08202858 104.93114967 -153.5933292 102.0627003 -152.54931641 98.12890625 C-150.44114416 91.02650778 -144.78634493 85.86053303 -138.44384766 82.35546875 C-135.81884766 81.66796875 -135.81884766 81.66796875 -133.96728516 81.7578125 C-127.45831946 81.86432285 -124.27047971 78.90177054 -119.75634766 74.60546875 C-117.74585541 72.65316329 -115.77648738 70.67401996 -113.81884766 68.66796875 C-114.03541016 67.99894531 -114.25197266 67.32992187 -114.47509766 66.640625 C-119.33465865 49.87963916 -117.5298621 33.49457398 -109.63134766 17.91796875 C-99.53360889 0.38657548 -84.0610904 -13.59625916 -64.57275391 -19.640625 C-40.11983445 -25.77986861 -19.02112512 -14.31893311 0 0 Z " fill="#70212F" transform="translate(339.81884765625,72.33203125)"/>
<path d="M0 0 C14.75500008 3.47811861 25.52503129 12.17434819 33.67578125 24.54296875 C36.93136769 27.9845887 40.61782778 29.58074834 44.875 31.5625 C46.68258379 32.43681591 48.48851685 33.31455102 50.29296875 34.1953125 C51.23060059 34.65196289 52.16823242 35.10861328 53.13427734 35.57910156 C73.35822198 45.60664951 93.1612809 56.87562749 109.75 72.3125 C118.95656494 80.86965753 128.57003608 88.57809404 140 94 C140.79664063 94.38414062 141.59328125 94.76828125 142.4140625 95.1640625 C145.56681307 96.1832296 148.07436957 96.05531948 151.375 95.875 C157.25190875 95.75492695 160.31210289 96.51133238 165 100 C164.80664062 100.53367187 164.61328125 101.06734375 164.4140625 101.6171875 C164.02347656 102.73480469 164.02347656 102.73480469 163.625 103.875 C163.36976563 104.59429687 163.11453125 105.31359375 162.8515625 106.0546875 C160.18728597 115.2696623 159.70846267 124.0563359 159.5625 133.625 C158.92268238 161.5417671 158.92268238 161.5417671 152 173 C149.77734375 173.28125 149.77734375 173.28125 147 173 C144.75390625 171.09375 144.75390625 171.09375 142.5625 168.5 C141.78519531 167.59121094 141.00789063 166.68242187 140.20703125 165.74609375 C137.84402307 162.80592605 135.59770849 159.81574805 133.484375 156.69140625 C131.5055943 154.43663772 129.72915621 153.26111224 127 152 C123.84074944 151.81507891 123.84074944 151.81507891 120.5625 152.25 C119.47066406 152.35828125 118.37882812 152.4665625 117.25390625 152.578125 C115.17016581 152.84828582 113.09146034 153.16334637 111.0234375 153.53515625 C102.73388032 154.80964889 95.00338689 154.328258 87 152 C78.65816061 151.08430696 78.65816061 151.08430696 71.0625 153.875 C67.73889835 158.91076008 64.57439072 164.03701622 61.7421875 169.3671875 C57.50342579 176.70252963 51.20324987 179.88259769 44 184 C34.40849296 189.89170367 29.93727835 198.33211904 27 209 C26.52010308 211.94184544 26.31705264 214.86521358 26.15625 217.83984375 C26.10102173 218.64684219 26.04579346 219.45384064 25.9888916 220.28529358 C25.81470579 222.83544222 25.65544934 225.38614528 25.5 227.9375 C24.06660285 251.41440196 24.06660285 251.41440196 19.25 260.1875 C17 262 17 262 13.625 262.25 C8.91016834 260.62419598 6.64366517 258.15783872 4 254 C2.31080236 250.41560501 1.68075912 247.23548481 1.25 243.3125 C-0.69954562 229.99816127 -4.99747581 214.07715087 -15.3984375 204.87890625 C-17.88797467 203.08090718 -20.30816201 201.6619979 -23.0625 200.3125 C-23.89910156 199.89613281 -24.73570312 199.47976563 -25.59765625 199.05078125 C-33.13113847 195.75564838 -42.54205045 195.58535793 -50.3359375 198.05859375 C-61.7486791 203.47157788 -68.49053509 211.10806549 -74.91796875 221.63671875 C-77.57566513 225.92992059 -80.40718538 230.40718538 -84 234 C-90.38951792 234.72882903 -95.30171857 233.45665351 -101.125 231 C-109.02085439 227.95324923 -116.50034839 226.38799711 -125 228 C-129.19884378 230.56563015 -130.84062236 233.07732315 -132.5625 237.625 C-132.98015625 238.68074219 -133.3978125 239.73648438 -133.828125 240.82421875 C-134.56229456 242.81381825 -135.26544243 244.81544815 -135.921875 246.83203125 C-136.21578125 247.69183594 -136.5096875 248.55164063 -136.8125 249.4375 C-137.04582031 250.19933594 -137.27914062 250.96117187 -137.51953125 251.74609375 C-139.92733908 255.41180646 -142.95415201 257.36709364 -147 259 C-151.85665917 259.70612718 -156.70591127 259.48406396 -161.59960938 259.36132812 C-166.61286932 259.37782997 -170.08395291 259.48308006 -174.0703125 262.7265625 C-180.91850937 269.68785075 -181.4464834 279.30574515 -182.49609375 288.58203125 C-183.08223322 292.55778349 -184.11288714 295.48310784 -186 299 C-191.52831714 296.81438625 -192.74756902 292.17854977 -195 287 C-200.01904839 275.14083256 -202.88850868 263.58766013 -204.6875 250.875 C-204.81914551 249.95662354 -204.95079102 249.03824707 -205.08642578 248.09204102 C-205.68854752 243.56964482 -206.14263429 239.05592716 -206.32421875 234.49609375 C-206.35733154 233.69872803 -206.39044434 232.9013623 -206.42456055 232.07983398 C-206 230 -206 230 -204.18041992 228.3828125 C-202.78155145 227.56931208 -201.35733402 226.79824181 -199.9140625 226.06640625 C-197.78602495 225.08089667 -197.78602495 225.08089667 -196.5 222.625 C-195.63043604 218.05978923 -195.31500527 214.46784585 -197.3125 210.1875 C-198.98392208 207.77961482 -198.98392208 207.77961482 -202 206 C-201.49044828 200.38037243 -199.97953923 196.22748302 -197.375 191.25 C-197.01599609 190.55116699 -196.65699219 189.85233398 -196.28710938 189.13232422 C-184.99826477 167.47546228 -167.66538032 148.63779282 -149.125 132.83984375 C-146.36444669 130.44973233 -143.68398836 127.97515976 -141 125.5 C-136.39604138 121.25966429 -131.74156094 117.08610987 -127 113 C-126.54109375 113.40992188 -126.0821875 113.81984375 -125.609375 114.2421875 C-124.99578125 114.78101563 -124.3821875 115.31984375 -123.75 115.875 C-122.84507813 116.67550781 -122.84507813 116.67550781 -121.921875 117.4921875 C-116.30293224 121.90054503 -110.92176246 121.62708628 -104 121 C-89.171351 118.16010965 -72.43958035 111.1464136 -63.5625 98.4375 C-59.73013443 92.14222913 -57.98984802 86.37036818 -59 79 C-61.07092155 72.65290529 -64.42463634 68.932629 -70.3125 65.75 C-70.869375 65.5025 -71.42625 65.255 -72 65 C-70.84960919 63.84960919 -69.69888266 62.69955293 -68.546875 61.55078125 C-67.48959702 60.49083338 -66.43774005 59.42545767 -65.390625 58.35546875 C-59.28355474 52.15034919 -52.71130354 46.53682542 -46 41 C-41.25 42.875 -41.25 42.875 -39 44 C-33.28653329 44.68561601 -30.22483851 43.34149569 -25.6015625 40.2890625 C-23.8629165 39.07280141 -23.8629165 39.07280141 -23 37 C-22.87792129 35.21140489 -22.82451552 33.41771619 -22.8125 31.625 C-22.79832031 30.66851562 -22.78414062 29.71203125 -22.76953125 28.7265625 C-23.00254428 25.96989983 -23.59079836 24.35052605 -25 22 C-19.15938593 16.63105064 -13.31401532 11.26716087 -7.4375 5.9375 C-6.25994141 4.86822266 -6.25994141 4.86822266 -5.05859375 3.77734375 C-3 2 -3 2 0 0 Z " fill="#FEE20E" transform="translate(244,146)"/>
<path d="M0 0 C4.4230554 3.22367473 8.71719891 6.59348845 13 10 C32.33296438 25.29024116 53.37821494 38.01403569 74.43139648 50.77709961 C82.99203379 55.9747064 91.47378905 61.28914678 99.91748047 66.67431641 C101.83833507 67.89708786 103.76395522 69.11188303 105.69140625 70.32421875 C156.24947451 102.25675147 156.24947451 102.25675147 163.59277344 132.01904297 C165.30265833 140.3367924 164.60825223 149.25384383 161 157 C160.34 157.33 159.68 157.66 159 158 C158.98582031 156.86304688 158.97164062 155.72609375 158.95703125 154.5546875 C158.57019189 139.2952858 155.56274881 126.70261379 145 115 C135.06583758 105.69106458 122.77005287 100.31110742 109.078125 100.71484375 C97.11017992 101.82354932 86.06396686 105.872167 77.7578125 114.75 C70.13648264 124.50530222 69.06011051 134.98194636 70 147 C70.95284404 150.28302187 72.28178942 153.05897533 74 156 C74.6731582 157.33006776 75.34164978 158.66254076 76 160 C67.06764355 161.03065651 60.28506945 157.10726721 53.171875 151.94921875 C48.53541085 148.22017687 44.1680387 144.23750091 39.8125 140.1875 C19.29332585 121.38553333 -5.31058687 107.38284348 -30.52734375 95.90625 C-39.27583874 91.87871267 -44.53004281 86.98490513 -50.26782227 79.30249023 C-54.16866225 74.35268487 -58.34385818 71.83880916 -63.9375 69.0625 C-73.18498732 64.19320264 -79.71638905 59.35821678 -83 49 C-83.44450736 46.25688131 -83.52505258 43.58826277 -83.5 40.8125 C-83.49427979 40.0692749 -83.48855957 39.3260498 -83.48266602 38.56030273 C-83.00205832 23.55789874 -73.4672761 11.69734425 -63.1015625 1.6171875 C-57.9976166 -2.89796879 -52.06993002 -5.98718802 -46 -9 C-45.27039063 -9.3815625 -44.54078125 -9.763125 -43.7890625 -10.15625 C-28.72048512 -17.02294349 -12.50285563 -8.29221651 0 0 Z " fill="#FE811C" transform="translate(321,78)"/>
<path d="M0 0 C4.56780921 3.49309072 9.08569789 7.04975544 13.60864258 10.60058594 C26.49725035 20.66282983 40.46098836 28.97561977 54.39208984 37.50390625 C70.45913236 47.34023038 86.43313539 57.3277354 102.18115234 67.66796875 C103.03902344 68.2290332 103.89689453 68.79009766 104.78076172 69.36816406 C125.08738337 82.66878567 125.08738337 82.66878567 133.18115234 89.66796875 C133.93009766 90.27382812 134.67904297 90.8796875 135.45068359 91.50390625 C149.38185966 103.132997 158.32966902 119.45952734 160.05224609 137.6015625 C160.11605469 138.62443359 160.11605469 138.62443359 160.18115234 139.66796875 C160.26042969 140.86099609 160.26042969 140.86099609 160.34130859 142.078125 C160.84564348 156.96696782 156.88212506 169.99901595 147.70068359 181.62109375 C146.07989114 183.80437202 144.76882408 186.0516086 143.43115234 188.41796875 C129.34601692 212.14796435 104.16358654 224.94985694 79.18115234 234.66796875 C78.52115234 234.66796875 77.86115234 234.66796875 77.18115234 234.66796875 C77.05160156 235.70244141 77.05160156 235.70244141 76.91943359 236.7578125 C75.38388401 247.02768083 72.02218754 253.65371349 64.04833984 260.35546875 C59.36577582 263.64697819 53.65736391 263.22019176 48.18115234 262.66796875 C43.20774808 260.96702751 39.6627454 257.46607027 36.18115234 253.66796875 C28.59812329 256.00634775 21.38021006 259.06298459 14.11032104 262.22164917 C10.29010586 263.88060491 6.46374567 265.52529614 2.63818359 267.171875 C1.81886856 267.52484146 0.99955353 267.87780792 0.15541077 268.24147034 C-9.65835114 272.46619134 -19.49073069 276.64689215 -29.32971191 280.8125 C-31.36424846 281.67452692 -33.39818493 282.53797151 -35.43151855 283.40283203 C-38.28965532 284.61834399 -41.14968439 285.82928899 -44.01025391 287.0390625 C-44.87322586 287.40708481 -45.73619781 287.77510712 -46.62532043 288.15428162 C-47.41436264 288.48678421 -48.20340485 288.8192868 -49.01635742 289.16186523 C-49.7057692 289.45415512 -50.39518097 289.74644501 -51.10548401 290.04759216 C-52.81884766 290.66796875 -52.81884766 290.66796875 -54.81884766 290.66796875 C-54.80837402 291.32168457 -54.79790039 291.97540039 -54.78710938 292.64892578 C-54.227265 332.9506339 -54.227265 332.9506339 -65.19384766 344.73046875 C-71.64580122 350.38282123 -77.22389297 351.25534713 -85.66650391 351.00390625 C-92.26367594 350.30086189 -96.15535822 347.79342249 -100.50634766 342.85546875 C-106.43464496 334.66166653 -108.78941281 324.57901697 -109.81884766 314.66796875 C-110.76908813 315.07970337 -110.76908813 315.07970337 -111.73852539 315.49975586 C-141.06840702 328.18665899 -170.58344368 340.43087719 -200.25634766 352.29296875 C-201.47094666 352.77860291 -201.47094666 352.77860291 -202.71008301 353.27404785 C-207.311474 355.11201589 -211.91645783 356.94063137 -216.52508545 358.76037598 C-218.09809588 359.38278265 -219.67019523 360.00749542 -221.24151611 360.63415527 C-223.65215874 361.59548503 -226.06530639 362.55027683 -228.47900391 363.50390625 C-229.55896889 363.93698593 -229.55896889 363.93698593 -230.66075134 364.3788147 C-241.22069091 368.5275522 -252.53972476 370.97506207 -263.81884766 368.66796875 C-263.95419922 369.29703125 -264.08955078 369.92609375 -264.22900391 370.57421875 C-266.14753575 378.20239328 -269.4260203 383.96469038 -276.25634766 388.16796875 C-281.16579788 389.12591026 -285.16225363 389.20889741 -289.88134766 387.66796875 C-305.61198254 376.95774925 -310.07713976 354.99072288 -313.5559082 337.43383789 C-314.82861589 330.72622619 -315.89245108 324.08303936 -316.63134766 317.29296875 C-317.38794819 311.94173951 -319.08686236 309.76588107 -323.12744141 306.32421875 C-326.86520144 302.66414888 -327.74194081 298.0119556 -327.90869141 292.9296875 C-327.44822074 284.39326977 -325.1338167 278.52801016 -318.81884766 272.73046875 C-316.70368477 270.91688182 -315.38263615 269.78863571 -312.64697266 269.203125 C-312.04369141 269.02652344 -311.44041016 268.84992188 -310.81884766 268.66796875 C-310.12298965 266.64998053 -309.4449028 264.62473771 -308.83837891 262.578125 C-304.17459417 249.26578925 -295.33175107 235.81651787 -285.13134766 226.16796875 C-282.52849578 223.38400392 -281.84192578 222.25401326 -281.68994141 218.39453125 C-281.94373633 215.98217128 -282.22923824 213.57294854 -282.54541016 211.16796875 C-282.97809807 205.62956347 -281.67717544 201.39463058 -278.81884766 196.66796875 C-274.72651118 191.93232937 -270.15375241 187.68155351 -263.81884766 186.66796875 C-259.04894689 186.41729829 -254.47385696 186.24720367 -249.82275391 187.4296875 C-246.7228947 187.95405918 -246.7228947 187.95405918 -244.00244141 186.10546875 C-237.77112327 180.57439831 -234.7462668 176.1917134 -232.52954102 168.14868164 C-230.83461425 162.11468092 -227.97120956 158.23380736 -223.81884766 153.66796875 C-223.04541016 152.69988281 -222.27197266 151.73179687 -221.47509766 150.734375 C-212.51980935 139.97080732 -199.61822669 133.34084596 -186.25634766 129.98046875 C-178.22298224 127.6713613 -173.53882326 122.45350281 -167.81884766 116.66796875 C-166.35406003 115.33944044 -164.87684718 114.02432789 -163.38134766 112.73046875 C-162.76001953 112.18132812 -162.13869141 111.6321875 -161.49853516 111.06640625 C-159.81884766 109.66796875 -159.81884766 109.66796875 -157.00634766 107.85546875 C-154.08202858 104.93114967 -153.5933292 102.0627003 -152.54931641 98.12890625 C-150.44114416 91.02650778 -144.78634493 85.86053303 -138.44384766 82.35546875 C-135.81884766 81.66796875 -135.81884766 81.66796875 -133.96728516 81.7578125 C-127.45831946 81.86432285 -124.27047971 78.90177054 -119.75634766 74.60546875 C-117.74585541 72.65316329 -115.77648738 70.67401996 -113.81884766 68.66796875 C-114.03541016 67.99894531 -114.25197266 67.32992187 -114.47509766 66.640625 C-119.33465865 49.87963916 -117.5298621 33.49457398 -109.63134766 17.91796875 C-99.53360889 0.38657548 -84.0610904 -13.59625916 -64.57275391 -19.640625 C-40.11983445 -25.77986861 -19.02112512 -14.31893311 0 0 Z M-91.81884766 10.66796875 C-101.02180957 21.5161529 -107.4032801 35.36696406 -107.14306641 49.71875 C-106.38710324 56.59528238 -104.24899737 63.29847497 -99.81884766 68.66796875 C-101.31731559 72.29198088 -103.37673259 74.29973905 -106.31884766 76.85546875 C-107.20443359 77.63277344 -108.09001953 78.41007812 -109.00244141 79.2109375 C-110.3965625 80.42716797 -110.3965625 80.42716797 -111.81884766 81.66796875 C-113.67590028 83.33141918 -115.53020446 84.9979446 -117.38134766 86.66796875 C-118.20763672 87.41046875 -119.03392578 88.15296875 -119.88525391 88.91796875 C-120.87901729 89.81737481 -121.87108795 90.72020904 -122.81884766 91.66796875 C-124.69319012 91.74779091 -126.56844272 91.80660584 -128.44384766 91.85546875 C-133.80955226 92.25789659 -136.78734573 93.21435877 -140.55322266 97.0625 C-143.11065835 100.30665454 -143.78915183 102.79088131 -143.92822266 106.8984375 C-145.14937068 112.06689295 -147.7702442 114.15238851 -151.69384766 117.54296875 C-152.36843018 118.14866699 -153.0430127 118.75436523 -153.73803711 119.37841797 C-158.55210881 123.66734931 -163.48897469 127.80536552 -168.54931641 131.80078125 C-170.86575471 133.61604473 -170.86575471 133.61604473 -172.79150391 135.83203125 C-175.24507582 138.05395572 -176.83154393 138.35731838 -180.06884766 138.91796875 C-192.82676928 141.81891425 -203.81487117 148.21298807 -212.81884766 157.66796875 C-213.94613281 158.81845703 -213.94613281 158.81845703 -215.09619141 159.9921875 C-220.37452855 165.61414153 -223.79909146 170.11895555 -223.88134766 178.04296875 C-224.24842241 182.53963444 -226.0701409 184.32499684 -229.38134766 187.29296875 C-231.18172647 188.76624011 -232.99408405 190.22500994 -234.81884766 191.66796875 C-236.28418023 192.95168965 -237.74324964 194.242621 -239.19384766 195.54296875 C-241.65463296 197.7105541 -244.17706522 199.7244548 -246.81884766 201.66796875 C-249.31246337 200.46415427 -251.50027848 199.21368153 -253.81884766 197.66796875 C-257.86142107 197.00696277 -262.02056809 196.7486853 -265.73681641 198.6484375 C-268.527547 200.88791267 -270.83310604 203.21787309 -271.81884766 206.66796875 C-272.19488842 211.33087423 -272.3265867 213.67201909 -270.19384766 217.85546875 C-268.81884766 220.66796875 -268.81884766 220.66796875 -269.19384766 223.10546875 C-270.68358875 225.45467586 -272.06832924 226.96820127 -274.05712891 228.875 C-282.79795336 237.51802973 -289.63765207 247.71587136 -295.38134766 258.54296875 C-295.78651611 259.30254883 -296.19168457 260.06212891 -296.60913086 260.84472656 C-299.38611374 266.27972084 -301.24061778 271.77868343 -302.81884766 277.66796875 C-304.11822266 277.76078125 -304.11822266 277.76078125 -305.44384766 277.85546875 C-310.24084523 279.0103015 -313.22858309 281.57171091 -316.19384766 285.48046875 C-317.51642362 290.10948462 -317.49872137 294.1382529 -315.56884766 298.48046875 C-313.77760929 300.71951671 -312.30428363 302.23696016 -309.81884766 303.66796875 C-308.49884766 303.66796875 -307.17884766 303.66796875 -305.81884766 303.66796875 C-305.87685547 304.67730469 -305.93486328 305.68664062 -305.99462891 306.7265625 C-306.82951976 328.37244839 -302.51934678 358.64633818 -287.81884766 375.66796875 C-285.94216446 377.93977229 -285.94216446 377.93977229 -282.94384766 378.10546875 C-279.67795958 377.96205608 -279.67795958 377.96205608 -277.56884766 375.48046875 C-273.19519315 368.45138114 -272.6792443 361.7649637 -272.81884766 353.66796875 C-272.23619141 354.02890625 -271.65353516 354.38984375 -271.05322266 354.76171875 C-264.16913316 358.65837318 -258.64607524 359.53563108 -250.81884766 358.66796875 C-249.75585449 358.56609253 -249.75585449 358.56609253 -248.67138672 358.4621582 C-238.70566247 357.11363856 -229.65222251 352.81557541 -220.44384766 348.98046875 C-218.56513482 348.20710677 -216.68597667 347.4348258 -214.80639648 346.66357422 C-210.97521415 345.09051328 -207.1461261 343.51250495 -203.31835938 341.93115234 C-198.3612932 339.8866712 -193.39258685 337.87268696 -188.41650391 335.875 C-169.21385414 328.15982186 -150.12007597 320.20711776 -131.0793457 312.10009766 C-121.71808804 308.11951195 -112.35725834 304.20947977 -102.81884766 300.66796875 C-102.57650391 301.81652344 -102.33416016 302.96507812 -102.08447266 304.1484375 C-98.72093871 323.7600232 -98.72093871 323.7600232 -87.81884766 339.66796875 C-84.28653204 341.43412656 -80.56179709 340.56425681 -76.81884766 339.66796875 C-71.12212471 336.22843791 -68.74210681 331.9673393 -66.81884766 325.66796875 C-63.55405179 312.10049372 -64.17348643 297.53347965 -63.81884766 283.66796875 C-62.63895264 283.17095459 -61.45905762 282.67394043 -60.2434082 282.16186523 C-40.08252356 273.66756788 -19.9237863 265.16902546 0.18115234 256.54296875 C0.89405426 256.23736023 1.60695618 255.93175171 2.34146118 255.61688232 C9.20183108 252.67581024 16.05789306 249.72578932 22.89990234 246.7421875 C23.89248047 246.31115723 24.88505859 245.88012695 25.90771484 245.43603516 C27.68582998 244.66311856 29.46205803 243.8858374 31.23583984 243.10302734 C36.84544903 240.66796875 36.84544903 240.66796875 40.18115234 240.66796875 C41.86474609 242.53125 41.86474609 242.53125 43.61865234 244.98046875 C45.87344162 248.11296123 47.85556718 250.64653463 51.18115234 252.66796875 C55.55904953 252.74756688 57.5332521 252.22546431 60.86865234 249.35546875 C64.68654849 244.1515377 66.91921347 237.03396492 67.41601562 230.64990234 C68.18115234 227.66796875 68.18115234 227.66796875 70.3515625 226.10400391 C71.29821777 225.72550293 72.24487305 225.34700195 73.22021484 224.95703125 C74.26870605 224.52108643 75.31719727 224.0851416 76.39746094 223.63598633 C77.5223291 223.19279053 78.64719727 222.74959473 79.80615234 222.29296875 C82.10475566 221.33486511 84.40164189 220.3726314 86.69677734 219.40625 C87.81375 218.94041504 88.93072266 218.47458008 90.08154297 217.99462891 C108.99436608 209.89977377 127.64022808 197.7334161 136.61865234 178.60546875 C137.99321889 176.02128365 139.14873981 174.55872647 141.11865234 172.48046875 C149.52700142 163.08905399 149.72870547 149.67712835 149.30859375 137.76708984 C148.43042968 123.30261733 140.56872787 110.39185075 130.18115234 100.66796875 C121.15978089 92.78544093 111.24689785 86.12511329 101.18115234 79.66796875 C100.35550781 79.13800293 99.52986328 78.60803711 98.67919922 78.06201172 C93.09232565 74.48285698 87.49152834 70.92603464 81.88427734 67.37890625 C79.40830066 65.81174182 76.93490093 64.24061241 74.46240234 62.66796875 C66.56951295 57.65617923 58.63824507 52.71562088 50.65869141 47.84277344 C33.76152498 37.51153186 17.1909341 27.01630488 1.64501953 14.72192383 C-29.4674429 -9.83524421 -60.93948947 -21.64555411 -91.81884766 10.66796875 Z " fill="#FDFCFC" transform="translate(339.81884765625,72.33203125)"/>
<path d="M0 0 C8.37034181 6.90477655 14.6403772 15.84232544 16.1640625 26.78515625 C17.38420875 47.70957291 17.38420875 47.70957291 13.1640625 56.78515625 C12.71160156 57.80609375 12.25914062 58.82703125 11.79296875 59.87890625 C0.32240989 83.42518536 -25.51607065 94.08777001 -48.8359375 102.78515625 C-49.4959375 102.78515625 -50.1559375 102.78515625 -50.8359375 102.78515625 C-50.91091375 98.55341986 -50.96492291 94.32205037 -51.00073242 90.08984375 C-51.01568336 88.65455375 -51.03605174 87.21930834 -51.06225586 85.78417969 C-51.21253744 77.33305058 -50.94741444 69.77781982 -47.8359375 61.78515625 C-47.5059375 60.77453125 -47.1759375 59.76390625 -46.8359375 58.72265625 C-43.83298305 55.81354412 -40.74470058 56.28050654 -36.6875 56.06640625 C-31.48577023 55.55335893 -27.69642896 53.72852038 -24.08203125 49.953125 C-19.15879631 43.74866265 -17.34890827 38.09854279 -17.515625 30.19140625 C-17.99680272 26.57670531 -19.4257675 24.46312291 -21.8359375 21.78515625 C-24.74412021 20.00114501 -26.94065754 19.51190091 -30.3359375 19.53515625 C-31.08875 19.53 -31.8415625 19.52484375 -32.6171875 19.51953125 C-35.0656096 19.81265221 -36.70897804 20.56698856 -38.8359375 21.78515625 C-38.8359375 22.77515625 -38.8359375 23.76515625 -38.8359375 24.78515625 C-38.3409375 24.62015625 -37.8459375 24.45515625 -37.3359375 24.28515625 C-33.80164584 23.57829792 -30.41669572 23.23370478 -26.8359375 23.78515625 C-24.40474127 25.65530719 -23.19524577 27.0665397 -21.8359375 29.78515625 C-21.1312943 35.35299266 -21.68710989 40.06370793 -24.421875 44.9921875 C-27.47364022 48.86169091 -32.94777759 52.34637811 -37.8671875 53.09375 C-45.23371053 53.4783944 -50.19234742 51.53201009 -55.8359375 46.78515625 C-58.28993072 43.97985453 -60.11992801 41.08691708 -61.8359375 37.78515625 C-62.17496094 37.14707031 -62.51398438 36.50898438 -62.86328125 35.8515625 C-65.91582558 29.08532369 -66.09637474 21.64285809 -63.8046875 14.62890625 C-59.3865481 4.90899956 -52.82649875 -1.45577864 -42.9765625 -5.5234375 C-29.07345591 -10.01403945 -11.90023303 -8.55723471 0 0 Z " fill="#FE905A" transform="translate(458.8359375,191.21484375)"/>
<path d="M0 0 C5.6830958 3.83040657 9.69528704 7.27494653 12.6875 13.55859375 C13.11772461 14.45175293 13.54794922 15.34491211 13.99121094 16.26513672 C14.30864258 16.94205566 14.62607422 17.61897461 14.953125 18.31640625 C-23.15275255 35.5621396 -62.10576714 51.0702939 -101.046875 66.31640625 C-101.79874084 66.61218567 -102.55060669 66.90796509 -103.32525635 67.21270752 C-107.8637368 68.99651503 -112.41656448 70.73406354 -116.984375 72.44140625 C-118.02996582 72.8494751 -119.07555664 73.25754395 -120.15283203 73.67797852 C-128.07437333 76.55506261 -137.7559304 78.61673466 -145.77709961 75.12939453 C-147.67225077 73.96922117 -149.37175527 72.7730321 -151.046875 71.31640625 C-150.76686362 67.3029098 -150.28923711 65.59605483 -147.609375 62.50390625 C-144.21440773 59.60576346 -142.67472141 59.19730817 -138.3203125 59.140625 C-137.37027344 59.11677734 -136.42023438 59.09292969 -135.44140625 59.06835938 C-133.45203067 59.02589534 -131.46238682 58.99437491 -129.47265625 58.97460938 C-123.26517954 58.79498522 -118.15602879 58.0615778 -113.046875 54.31640625 C-109.17130117 49.91282678 -107.66206786 45.23127559 -106.109375 39.62890625 C-104.00368794 32.51085823 -104.00368794 32.51085823 -101.546875 30.00390625 C-93.89128838 26.31281985 -86.88652625 27.87057927 -79.12011719 30.47338867 C-77.55852955 31.02518586 -76.00275176 31.59378076 -74.45410156 32.1809082 C-68.74501397 34.30887528 -63.96292068 35.26858443 -57.984375 33.31640625 C-51.97954721 29.22801286 -48.8218692 22.96151368 -45.171875 16.81640625 C-35.63733157 1.2144261 -18.15205925 -9.94206299 0 0 Z " fill="#FE8F5A" transform="translate(220.046875,349.68359375)"/>
<path d="M0 0 C5.62313657 4.70507346 10.6297996 10.04023036 15.71484375 15.3125 C17.89057487 17.66377902 17.89057487 17.66377902 20.5625 18.625 C24.08773507 18.53686912 25.56024714 16.92176698 28.0625 14.5625 C27.61053755 16.16847325 27.15067673 17.77222508 26.6875 19.375 C26.30464844 20.71498047 26.30464844 20.71498047 25.9140625 22.08203125 C25.0625 24.5625 25.0625 24.5625 23.0625 27.5625 C20.71484375 28.03125 20.71484375 28.03125 18.0625 27.5625 C15.81640625 25.65625 15.81640625 25.65625 13.625 23.0625 C12.84769531 22.15371094 12.07039063 21.24492187 11.26953125 20.30859375 C8.90652307 17.36842605 6.66020849 14.37824805 4.546875 11.25390625 C2.5680943 8.99913772 0.79165621 7.82361224 -1.9375 6.5625 C-5.09675056 6.37757891 -5.09675056 6.37757891 -8.375 6.8125 C-9.46683594 6.92078125 -10.55867188 7.0290625 -11.68359375 7.140625 C-13.76733419 7.41078582 -15.84603966 7.72584637 -17.9140625 8.09765625 C-26.20361968 9.37214889 -33.93411311 8.890758 -41.9375 6.5625 C-50.27933939 5.64680696 -50.27933939 5.64680696 -57.875 8.4375 C-61.19860165 13.47326008 -64.36310928 18.59951622 -67.1953125 23.9296875 C-71.43407421 31.26502963 -77.73425013 34.44509769 -84.9375 38.5625 C-94.52900704 44.45420367 -99.00022165 52.89461904 -101.9375 63.5625 C-102.41739692 66.50434544 -102.62044736 69.42771358 -102.78125 72.40234375 C-102.83647827 73.20934219 -102.89170654 74.01634064 -102.9486084 74.84779358 C-103.12279421 77.39794222 -103.28205066 79.94864528 -103.4375 82.5 C-104.87089715 105.97690196 -104.87089715 105.97690196 -109.6875 114.75 C-111.9375 116.5625 -111.9375 116.5625 -115.3125 116.8125 C-120.02733166 115.18669598 -122.29383483 112.72033872 -124.9375 108.5625 C-126.62669764 104.97810501 -127.25674088 101.79798481 -127.6875 97.875 C-129.63704562 84.56066127 -133.93497581 68.63965087 -144.3359375 59.44140625 C-146.82547467 57.64340718 -149.24566201 56.2244979 -152 54.875 C-153.25490234 54.25044922 -153.25490234 54.25044922 -154.53515625 53.61328125 C-162.06863847 50.31814838 -171.47955045 50.14785793 -179.2734375 52.62109375 C-190.6861791 58.03407788 -197.42803509 65.67056549 -203.85546875 76.19921875 C-206.51316513 80.49242059 -209.34468538 84.96968538 -212.9375 88.5625 C-219.32701792 89.29132903 -224.23921857 88.01915351 -230.0625 85.5625 C-237.95835439 82.51574923 -245.43784839 80.95049711 -253.9375 82.5625 C-258.13634378 85.12813015 -259.77812236 87.63982315 -261.5 92.1875 C-261.91765625 93.24324219 -262.3353125 94.29898438 -262.765625 95.38671875 C-263.49979456 97.37631825 -264.20294243 99.37794815 -264.859375 101.39453125 C-265.15328125 102.25433594 -265.4471875 103.11414063 -265.75 104 C-266.09998047 105.14275391 -266.09998047 105.14275391 -266.45703125 106.30859375 C-268.86483908 109.97430646 -271.89165201 111.92959364 -275.9375 113.5625 C-280.79415917 114.26862718 -285.64341127 114.04656396 -290.53710938 113.92382812 C-295.55036932 113.94032997 -299.02145291 114.04558006 -303.0078125 117.2890625 C-309.85600937 124.25035075 -310.3839834 133.86824515 -311.43359375 143.14453125 C-312.01973322 147.12028349 -313.05038714 150.04560784 -314.9375 153.5625 C-317.42454288 149.15342573 -317.32205846 145.33918751 -317.3125 140.375 C-317.31088867 139.51946533 -317.30927734 138.66393066 -317.30761719 137.7824707 C-317.18699313 131.59220978 -316.39625915 126.81068663 -312.9375 121.5625 C-312.36 120.53125 -311.7825 119.5 -311.1875 118.4375 C-306.07952156 111.91063866 -299.87702127 106.46987474 -291.53515625 104.9375 C-290.36855469 104.81375 -289.20195312 104.69 -288 104.5625 C-279.02930159 103.52489652 -279.02930159 103.52489652 -271.9609375 98.32421875 C-269.92081555 95.53972798 -268.31479495 92.72880367 -266.6875 89.6875 C-263.11981729 83.45174423 -258.95313251 77.90104417 -251.9375 75.5625 C-245.45019177 75.02703964 -239.55083513 75.50351599 -233.25 77.125 C-226.37867243 78.85105118 -221.2269834 79.2072417 -214.8125 76 C-211.08788726 72.84217616 -208.05153305 69.3116319 -204.9375 65.5625 C-196.47635977 55.46682132 -188.62579459 48.79193153 -175.9375 44.5625 C-163.87888995 43.67089368 -154.79649147 45.22557611 -144.9375 52.5625 C-144.133125 53.09875 -143.32875 53.635 -142.5 54.1875 C-132.58948271 63.37285749 -127.70005334 75.86893106 -124.8125 88.75 C-123.3107084 95.3051174 -121.84588777 101.47897883 -118.9375 107.5625 C-116.97731933 107.35186434 -116.97731933 107.35186434 -114.9375 106.5625 C-110.94912507 100.28871544 -111.54880686 92.06226246 -111.5 84.9375 C-111.11818131 69.35711549 -109.09152924 54.56987095 -98.09375 42.546875 C-94.42066457 39.20496941 -90.35639754 36.43377685 -86.3125 33.5625 C-78.3535941 27.7931143 -74.24027013 21.7742006 -69.9152832 13.06811523 C-67.23607426 7.75580755 -64.25208338 3.25609759 -59.375 -0.3125 C-53.15116134 -2.34939265 -46.29430028 -2.29505359 -40 -0.4375 C-32.51562959 1.72085578 -24.57261437 1.25800131 -17.1875 -1 C-10.90582407 -2.92016295 -5.94594593 -2.90971822 0 0 Z " fill="#F8F081" transform="translate(372.9375,291.4375)"/>
<path d="M0 0 C4.06218728 2.85765322 6.34459285 6.6470598 7.91015625 11.34375 C9.16995342 21.67727611 6.49325623 28.4133035 0.22265625 36.52734375 C-9.21598226 46.96273504 -26.39608593 55.56439609 -40.359375 56.58203125 C-53.3786549 56.85476148 -53.3786549 56.85476148 -59.08984375 52.34375 C-63.2594254 48.33131338 -65.22063925 44.57145919 -65.52734375 38.78125 C-65.45342062 32.43310142 -62.78469202 28.33878987 -59.08984375 23.34375 C-58.58324219 22.65410156 -58.07664062 21.96445312 -57.5546875 21.25390625 C-45.35533454 6.11711695 -19.44477906 -9.88119444 0 0 Z " fill="#70202D" transform="translate(130.08984375,298.65625)"/>
<path d="M0 0 C0.495 0.639375 0.99 1.27875 1.5 1.9375 C2.325 2.948125 3.15 3.95875 4 5 C4.55945313 5.70125 5.11890625 6.4025 5.6953125 7.125 C10.51740567 12.90370275 15.41099162 16.45130562 22 20 C29.46184209 24.14918574 35.20848748 28.42709848 40.66796875 35.01171875 C47.47904845 43.19436599 55.39155031 47.44267412 65.1875 51.3125 C82.77310069 58.57524501 96.16617329 69.77994501 110.43310547 82.18017578 C114.28508298 85.52513244 118.14719432 88.85425485 122.0625 92.125 C122.87847656 92.80820313 123.69445312 93.49140625 124.53515625 94.1953125 C129.58787263 97.89476569 133.67602074 99.80487009 140 99 C145.1306105 95.84334191 147.25647369 91.43416463 149.9375 86.25 C156.4151604 73.85256383 163.40880838 64.01639082 176.0625 57.625 C176.74747559 57.27888672 177.43245117 56.93277344 178.13818359 56.57617188 C190.15515492 50.78388142 207.6564553 50.85529205 220.3125 54.875 C227.46855933 57.67279853 231.64582995 61.77582849 236 68 C236.56074219 68.76183594 237.12148438 69.52367187 237.69921875 70.30859375 C244.80851002 80.92776182 248.55968987 94.29018679 247 107 C246.28741874 110.4546661 245.49330838 113.79418201 244 117 C243.01 117.495 243.01 117.495 242 118 C241.98582031 116.86304688 241.97164062 115.72609375 241.95703125 114.5546875 C241.57019189 99.2952858 238.56274881 86.70261379 228 75 C218.06583758 65.69106458 205.77005287 60.31110742 192.078125 60.71484375 C180.11017992 61.82354932 169.06396686 65.872167 160.7578125 74.75 C153.13648264 84.50530222 152.06011051 94.98194636 153 107 C153.95284404 110.28302187 155.28178942 113.05897533 157 116 C157.6731582 117.33006776 158.34164978 118.66254076 159 120 C150.06764355 121.03065651 143.28506945 117.10726721 136.171875 111.94921875 C131.53541085 108.22017687 127.1680387 104.23750091 122.8125 100.1875 C102.29332585 81.38553333 77.68941313 67.38284348 52.47265625 55.90625 C43.72416126 51.87871267 38.46995719 46.98490513 32.73217773 39.30249023 C28.83133775 34.35268487 24.65614182 31.83880916 19.0625 29.0625 C10.83196334 24.72868163 5.67432556 20.74477115 1.0625 12.5625 C-0.22459174 8.2469571 -0.27324212 4.46295464 0 0 Z " fill="#EF6001" transform="translate(238,118)"/>
<path d="M0 0 C3.69118411 2.94969991 6.16159266 5.62149674 7.6640625 10.12890625 C8.56810555 18.33939561 6.96214027 24.57839389 2.12109375 31.2578125 C-5.20628303 40.09426001 -13.85387596 44.72019798 -24.3359375 49.12890625 C-25.08617187 49.47308594 -25.83640625 49.81726563 -26.609375 50.171875 C-33.94480805 53.16506895 -44.26718179 53.92492205 -51.81640625 51.25 C-56.10269299 48.48082115 -57.99985894 44.92307048 -59.3359375 40.12890625 C-60.47709679 33.21208363 -59.17682087 28.42432254 -55.28515625 22.63671875 C-44.17946605 8.34843597 -19.15428654 -10.74344643 0 0 Z " fill="#6F1E2D" transform="translate(333.3359375,222.87109375)"/>
<path d="M0 0 C1 1 1 1 1.3125 4.4375 C1.09822666 15.36544051 -5.66789169 23.80167218 -13.1796875 31.125 C-25.31216607 41.58262462 -43.30057841 50.0413728 -59.51953125 49.39453125 C-63.44350421 48.77040327 -66.81662274 47.38553835 -70 45 C-72.10823486 41.83764771 -72.33482284 40.71578129 -71.6484375 37.0703125 C-67.24789408 23.02038472 -52.6200542 9.80237444 -40.08837891 2.95556641 C-27.44850383 -3.53202097 -12.97365173 -8.39471583 0 0 Z " fill="#FDA2BA" transform="translate(239,262)"/>
<path d="M0 0 C3.79410748 3.17466136 6.25560147 6.39172737 7.1875 11.3125 C7.51888365 18.8068686 3.31046907 24.89788962 -1.5625 30.25 C-12.08520096 40.09638369 -27.05353651 44.43442843 -41.15625 44.27734375 C-46.51787582 43.75443794 -48.98682778 41.17314678 -52.375 37.25 C-55.01978609 31.96042782 -54.59286257 27.95295905 -52.9375 22.5 C-46.97352683 10.37966742 -34.22574697 2.6168542 -22 -2 C-14.73682205 -4.24472232 -6.52079774 -3.96362216 0 0 Z " fill="#6F1F2C" transform="translate(272,187)"/>
<path d="M0 0 C5.07601673 4.65301534 8.50361674 9.17689433 9.40625 16.12890625 C9.70610835 27.11121826 6.62499034 34.80449532 -0.25 43.3125 C-12.75681882 56.47043303 -34.10617112 66.51771314 -52.30737305 67.64111328 C-59.0577954 67.7925574 -64.46828983 66.9321911 -70.00390625 62.96484375 C-74.61716349 58.42380972 -77.18416889 52.97748723 -77.5625 46.5 C-76.93532599 37.12539901 -72.05567335 29.85312828 -66 23 C-65.41476563 22.33226562 -64.82953125 21.66453125 -64.2265625 20.9765625 C-50.86651948 6.71457565 -19.62211299 -12.99534676 0 0 Z M-62.3125 26.375 C-67.62035647 32.42900882 -72.72556688 38.67767829 -73.25 46.9375 C-71.62740901 50.91284794 -69.76210213 52.04370689 -66 54 C-54.62015208 57.79328264 -41.85321014 53.03931386 -31.37109375 48.390625 C-18.06517883 41.54129925 -5.72085352 31.96717494 -0.6328125 17.390625 C0.38875324 13.53137667 0.68694702 10.9842927 0 7 C-19.5450932 -9.93908078 -48.65991908 12.07035551 -62.3125 26.375 Z " fill="#6F1F2D" transform="translate(240,256)"/>
<path d="M0 0 C3.07373529 0.707768 6.11219838 1.51322365 9.16015625 2.32421875 C15.05857923 3.72783247 20.07350422 3.02972864 26 2 C38.20449746 -0.10581379 38.20449746 -0.10581379 41.8203125 2.12109375 C43.5 3.5 43.5 3.5 46 6 C44.28758716 9.42482568 40.25787604 10.18000387 36.8515625 11.578125 C35.56169685 12.11752968 35.56169685 12.11752968 34.24577332 12.66783142 C32.36511287 13.45369794 30.48321026 14.23659664 28.60025024 15.01693726 C23.51565782 17.1241958 18.43966879 19.25197469 13.36328125 21.37890625 C12.29270981 21.82692093 11.22213837 22.27493561 10.11912537 22.73652649 C1.96643822 26.15554311 -6.15720731 29.63872265 -14.26953125 33.15234375 C-15.43633423 33.6576059 -16.60313721 34.16286804 -17.80529785 34.68344116 C-22.41050105 36.67921393 -27.01484134 38.67692605 -31.61663818 40.68054199 C-34.81999113 42.07509985 -38.02510894 43.46553142 -41.23046875 44.85546875 C-42.1929805 45.27642319 -43.15549225 45.69737762 -44.14717102 46.13108826 C-45.46300423 46.70078087 -45.46300423 46.70078087 -46.80541992 47.28198242 C-47.571259 47.61550217 -48.33709808 47.94902191 -49.12614441 48.29264832 C-51 49 -51 49 -53 49 C-50.90285469 41.18336749 -47.19203408 36.21601417 -40.24609375 32.171875 C-37.82298428 30.90764397 -35.35480692 29.77354215 -32.875 28.625 C-24.39463981 24.38481991 -20.97849238 17.59412243 -16.97802734 9.33056641 C-12.91077119 1.1814312 -8.70361118 -1.14038279 0 0 Z " fill="#FD8F5A" transform="translate(330,301)"/>
<path d="M0 0 C2.3125 1.5625 2.3125 1.5625 3.3125 2.5625 C4.25342334 9.93306617 1.23084371 15.68948534 -3.15625 21.51171875 C-11.17363368 30.25616908 -24.01435911 37.01041902 -35.90332031 37.68896484 C-38.39472442 37.76785763 -40.8824295 37.79724326 -43.375 37.8125 C-44.22900391 37.833125 -45.08300781 37.85375 -45.96289062 37.875 C-46.78337891 37.88015625 -47.60386719 37.8853125 -48.44921875 37.890625 C-49.5623645 37.90464355 -49.5623645 37.90464355 -50.69799805 37.91894531 C-53.25717827 37.46043468 -54.15317435 36.63234615 -55.6875 34.5625 C-55.38592688 25.74450186 -48.15933301 18.70751586 -42.125 12.875 C-31.08867932 3.36152047 -14.6059317 -5.69383778 0 0 Z " fill="#FDA1BA" transform="translate(125.6875,302.4375)"/>
<path d="M0 0 C0 9.55984108 -4.4990138 15.11183219 -10.81640625 21.97265625 C-19.61562119 30.31575637 -32.50367511 37.69564369 -44.75 38.5 C-48.09706234 38.35371231 -49.04732162 37.96943812 -52 36.0625 C-54.63318066 32.03044211 -55.66962589 28.81646572 -55 24 C-53.45934026 20.87828869 -51.37383004 18.52446696 -49 16 C-48.50371094 15.41476563 -48.00742188 14.82953125 -47.49609375 14.2265625 C-36.99069005 2.5889975 -15.03801207 -10.02534138 0 0 Z " fill="#FDA1BA" transform="translate(177,219)"/>
<path d="M0 0 C10.46500292 5.5113495 18.94360751 13.82591532 27.2890625 22.078125 C37.53330509 31.98277944 49.24299495 38.76903374 61.96875 45.05859375 C62.6268869 45.38419281 63.2850238 45.70979187 63.96310425 46.04525757 C67.25070473 47.66592257 70.54649131 49.26559261 73.85888672 50.83496094 C84.3813007 55.8832591 94.51768461 61.89598752 100.4921875 72.3125 C101.3671875 75.3125 101.3671875 75.3125 101.4921875 77.3125 C96.46255406 76.07131627 92.95661709 73.68009166 88.81884766 70.7175293 C79.98873838 64.40325654 71.19021927 59.55138811 61.1171875 55.5 C44.66704806 48.8531174 32.85056003 41.41859202 20.19970703 28.984375 C13.12630367 22.05862919 5.87677108 15.61848013 -2.5078125 10.3125 C-3.11496094 9.91289063 -3.72210938 9.51328125 -4.34765625 9.1015625 C-11.01718116 5.21951956 -18.99996007 4.51521422 -26.5078125 3.3125 C-26.5078125 2.6525 -26.5078125 1.9925 -26.5078125 1.3125 C-17.33567425 -3.65020282 -9.60799775 -4.31012983 0 0 Z " fill="#FDCB1A" transform="translate(301.5078125,74.6875)"/>
<path d="M0 0 C0.75872062 5.94331149 -0.73946736 9.08149926 -4.26171875 13.875 C-8.9932522 19.65916673 -14.33722443 22.88469302 -20.9375 26.25 C-21.60571777 26.59168213 -22.27393555 26.93336426 -22.96240234 27.28540039 C-29.70813533 30.5875362 -36.16621577 32.28528546 -43.75 32.3125 C-45.38195312 32.33763672 -45.38195312 32.33763672 -47.046875 32.36328125 C-50.28240047 31.96526026 -51.63213984 31.17820146 -54 29 C-53.83312738 22.49196764 -50.07373198 18.68150651 -46 14 C-45.484375 13.38898438 -44.96875 12.77796875 -44.4375 12.1484375 C-33.16615401 -0.19368636 -15.42718376 -9.19066266 0 0 Z " fill="#FDA1BA" transform="translate(333,229)"/>
<path d="M0 0 C2.64325634 1.82233312 4.67848082 3.78980333 6.7734375 6.22265625 C6.09539062 6.00609375 5.41734375 5.78953125 4.71875 5.56640625 C-4.47480459 2.81597995 -12.28183798 1.49973381 -21.08984375 5.98828125 C-29.140181 10.63893312 -34.52300783 16.78540954 -40.39453125 23.8828125 C-46.67957407 31.42550554 -53.03764939 38.31448239 -63.1640625 39.59375 C-70.94468976 39.76246258 -76.76567811 38.16899204 -83.984375 35.35546875 C-88.50691308 33.77530484 -91.49319142 33.4592093 -96.2265625 34.22265625 C-100.09518614 38.04018486 -101.37915838 42.13434752 -102.9765625 47.16015625 C-105.01628493 53.09846146 -106.85576762 56.97745466 -112.39453125 60.375 C-115.76090251 61.93257476 -118.45848833 62.35117149 -122.12109375 62.3984375 C-123.07693359 62.42228516 -124.03277344 62.44613281 -125.01757812 62.47070312 C-127.01997057 62.51341738 -129.02263902 62.54480546 -131.02539062 62.56445312 C-137.02883691 62.7378233 -140.68396259 63.16440463 -145.2265625 67.22265625 C-147.11224944 70.32280554 -147.11224944 70.32280554 -148.2265625 73.22265625 C-149.2165625 72.56265625 -150.2065625 71.90265625 -151.2265625 71.22265625 C-150.94655112 67.2091598 -150.46892461 65.50230483 -147.7890625 62.41015625 C-144.39409523 59.51201346 -142.85440891 59.10355817 -138.5 59.046875 C-137.54996094 59.02302734 -136.59992188 58.99917969 -135.62109375 58.97460938 C-133.63171817 58.93214534 -131.64207432 58.90062491 -129.65234375 58.88085938 C-123.44486704 58.70123522 -118.33571629 57.9678278 -113.2265625 54.22265625 C-109.35098867 49.81907678 -107.84175536 45.13752559 -106.2890625 39.53515625 C-104.18337544 32.41710823 -104.18337544 32.41710823 -101.7265625 29.91015625 C-94.07097588 26.21906985 -87.06621375 27.77682927 -79.29980469 30.37963867 C-77.73821705 30.93143586 -76.18243926 31.50003076 -74.63378906 32.0871582 C-68.92470147 34.21512528 -64.14260818 35.17483443 -58.1640625 33.22265625 C-52.15923471 29.13426286 -49.0015567 22.86776368 -45.3515625 16.72265625 C-35.64710557 0.84263581 -18.35537341 -9.81063062 0 0 Z " fill="#FC554C" transform="translate(220.2265625,349.77734375)"/>
<path d="M0 0 C0.69480469 0.48726562 1.38960938 0.97453125 2.10546875 1.4765625 C1.78402149 7.69120961 0.71304754 11.05065524 -3.89453125 15.4765625 C-6.15050879 17.03231513 -8.25454362 18.37341051 -10.64453125 19.6640625 C-11.57422729 20.17549805 -11.57422729 20.17549805 -12.52270508 20.69726562 C-20.6831879 25.09030961 -28.47496064 28.10463643 -37.89453125 26.4765625 C-40.45662726 25.05755548 -41.87667479 23.65802895 -43.89453125 21.4765625 C-43.09443783 15.22718416 -39.55599539 12.40083023 -34.89453125 8.4765625 C-25.22188061 1.42534037 -12.04463425 -6.33928118 0 0 Z " fill="#FCA0B9" transform="translate(268.89453125,190.5234375)"/>
<path d="M0 0 C8.41999 6.94573183 14.54138804 15.81520081 16.1640625 26.78515625 C16.22939685 28.72166644 16.24990553 30.66018486 16.2265625 32.59765625 C16.21753906 33.57347656 16.20851563 34.54929688 16.19921875 35.5546875 C16.18761719 36.29074219 16.17601562 37.02679688 16.1640625 37.78515625 C15.8340625 37.78515625 15.5040625 37.78515625 15.1640625 37.78515625 C15.01710938 36.91375 14.87015625 36.04234375 14.71875 35.14453125 C12.52688791 23.50498775 9.00782027 12.21480006 -0.8359375 4.78515625 C-8.51669586 -0.11383852 -16.73581841 -1.59369078 -25.7109375 -1.52734375 C-26.50032715 -1.5224292 -27.2897168 -1.51751465 -28.10302734 -1.51245117 C-38.09247125 -1.31208689 -46.95070572 1.24435279 -54.37109375 8.23046875 C-58.94521715 13.32468199 -60.31451973 18.60000656 -60.15625 25.28125 C-59.31071773 31.89083759 -56.82533993 39.22341688 -51.8359375 43.78515625 C-46.33410019 46.97622189 -41.13861933 47.80230375 -34.8359375 46.78515625 C-31.01354747 45.39167735 -27.42508308 43.69572804 -23.8359375 41.78515625 C-25.10838344 45.73504051 -26.22070632 47.48829742 -29.8359375 49.53515625 C-30.5371875 49.9425 -31.2384375 50.34984375 -31.9609375 50.76953125 C-36.63710562 53.30245565 -40.5516727 53.53794258 -45.8359375 52.78515625 C-53.53249641 49.83705912 -58.09346828 44.98601288 -61.8359375 37.78515625 C-62.17496094 37.14707031 -62.51398438 36.50898438 -62.86328125 35.8515625 C-65.91582558 29.08532369 -66.09637474 21.64285809 -63.8046875 14.62890625 C-59.3865481 4.90899956 -52.82649875 -1.45577864 -42.9765625 -5.5234375 C-29.07345591 -10.01403945 -11.90023303 -8.55723471 0 0 Z " fill="#F8BE6D" transform="translate(458.8359375,191.21484375)"/>
<path d="M0 0 C3.43313587 3.27666587 3.82282334 5.29910406 4.3125 10 C4.06864106 19.49017711 0.0105129 27.04015598 -6.515625 33.68359375 C-13.76798717 40.44562326 -20.68537292 45.44500919 -30 49 C-30.93585938 49.36609375 -31.87171875 49.7321875 -32.8359375 50.109375 C-39.92727106 52.10545407 -49.89450906 52.4922425 -56.6875 49.375 C-60.24530711 47.11594991 -62.75704851 44.60231603 -65 41 C-65.65877573 37.99617931 -65.92493455 35.07085947 -66 32 C-64 35 -64 35 -62.6875 37.5 C-60.68241545 40.47049563 -59.22166009 41.44212875 -56 43 C-44.23154644 44.73104961 -34.56251282 41.9213337 -24 37 C-22.95457031 36.52046875 -21.90914063 36.0409375 -20.83203125 35.546875 C-10.33326344 30.27576951 -3.70695276 23.12085829 0 12 C0.068991 9.93854893 0.08467727 7.87498599 0.0625 5.8125 C0.05347656 4.72582031 0.04445313 3.63914063 0.03515625 2.51953125 C0.02355469 1.68808594 0.01195312 0.85664063 0 0 Z " fill="#F6B002" transform="translate(340,231)"/>
<path d="M0 0 C2.7485892 4.1228838 2.82273616 7.15823409 2 12 C-4.47491372 28.2448903 -18.25285642 38.05510601 -33.81640625 44.78125 C-43.57303854 48.51630432 -54.68894854 51.44998001 -64.9375 48.015625 C-69.36669707 45.92978219 -72.24211219 44.11048247 -75 40 C-74.401875 40.309375 -73.80375 40.61875 -73.1875 40.9375 C-65.6201636 44.6130634 -53.50993435 44.13488636 -45.4609375 41.9453125 C-27.5920205 35.0813793 -11.12239376 24.74422978 -2.9375 6.875 C-1.92764084 4.59412057 -0.95559531 2.3044903 0 0 Z " fill="#F8536D" transform="translate(243,269)"/>
<path d="M0 0 C1.5 1 1.5 1 3 3 C3.99144619 10.06405408 1.90631904 15.12686298 -2 21 C-11.43092725 32.32805769 -25.15146996 41.08917803 -40.0859375 42.515625 C-47.44137185 42.72116608 -52.89980037 42.22321513 -59 38 C-62 34.8125 -62 34.8125 -62 32 C-60.99195312 32.32226562 -59.98390625 32.64453125 -58.9453125 32.9765625 C-43.86941806 37.25475454 -29.91912694 31.92882058 -16.77734375 24.78125 C-14.12423519 23.07967826 -12.19848847 21.23276335 -10 19 C-9.34 19 -8.68 19 -8 19 C-7.72285156 18.41863281 -7.44570312 17.83726562 -7.16015625 17.23828125 C-6.04867401 15.09390643 -4.7972772 13.18048688 -3.4375 11.1875 C-1.00862601 7.37988283 -0.28001495 4.48023913 0 0 Z " fill="#F9536E" transform="translate(131,308)"/>
<path d="M0 0 C0.99 0.495 0.99 0.495 2 1 C-8.36170996 19.80022375 -23.31205335 29.58821257 -43.5625 35.8125 C-51.69617035 37.85177758 -58.9401619 38.23829053 -66.44140625 34.16796875 C-68 33 -68 33 -70 30 C-70.125 27.3125 -70.125 27.3125 -70 25 C-69.2575 25.66 -68.515 26.32 -67.75 27 C-62.3546681 30.49256984 -56.13567453 29.80355567 -50.04736328 28.62060547 C-31.7557265 24.42904521 -14.370164 15.23052782 -1 2 C-0.67 1.34 -0.34 0.68 0 0 Z " fill="#EC7290" transform="translate(237,274)"/>
<path d="M0 0 C3.07373529 0.707768 6.11219838 1.51322365 9.16015625 2.32421875 C15.05857923 3.72783247 20.07350422 3.02972864 26 2 C38.20449746 -0.10581379 38.20449746 -0.10581379 41.8203125 2.12109375 C43.5 3.5 43.5 3.5 46 6 C45.34 6.66 44.68 7.32 44 8 C43.195625 7.505 42.39125 7.01 41.5625 6.5 C35.74182605 4.04918991 30.58776898 4.55515662 24.53515625 6.02734375 C17.1322544 7.56088997 9.70659148 7.0232728 2.19335938 6.74609375 C-4.17494712 6.53523178 -4.17494712 6.53523178 -10.0546875 8.61328125 C-12.31191874 11.38269548 -14.07062443 14.1917924 -15.8125 17.3125 C-19.15812693 23.01360026 -22.66475346 27.10442316 -28 31 C-28.92683594 31.67804688 -29.85367187 32.35609375 -30.80859375 33.0546875 C-32.69032069 34.41912695 -34.58147333 35.77071915 -36.484375 37.10546875 C-40.02634124 39.77294333 -42.57952051 41.73856153 -44 46 C-46.06640625 46.94921875 -46.06640625 46.94921875 -48.5625 47.6875 C-49.38878906 47.93886719 -50.21507812 48.19023437 -51.06640625 48.44921875 C-51.70449219 48.63097656 -52.34257812 48.81273437 -53 49 C-50.90285469 41.18336749 -47.19203408 36.21601417 -40.24609375 32.171875 C-37.82298428 30.90764397 -35.35480692 29.77354215 -32.875 28.625 C-24.39463981 24.38481991 -20.97849238 17.59412243 -16.97802734 9.33056641 C-12.91077119 1.1814312 -8.70361118 -1.14038279 0 0 Z " fill="#F8544B" transform="translate(330,301)"/>
<path d="M0 0 C0.33 0 0.66 0 1 0 C2.24177684 11.86586758 -1.08143763 20.43889189 -8.1171875 29.82421875 C-20.42016642 44.11931704 -38.3877571 55.71819113 -57.53125 57.1953125 C-64.78442169 57.49420694 -70.02809452 56.41971374 -75.6015625 51.62109375 C-76.78357168 50.46219648 -77.90024432 49.23722514 -79 48 C-78.67 47.34 -78.34 46.68 -78 46 C-77.175 46.66 -76.35 47.32 -75.5 48 C-67.78628163 52.33023627 -57.22744864 50.86312665 -48.97900391 48.60986328 C-30.0774593 42.78503495 -13.23091802 33.40630569 -2.87890625 16.12890625 C-0.36561424 11.11434756 -0.28834445 5.49843038 0 0 Z " fill="#F5AF02" transform="translate(249,272)"/>
<path d="M0 0 C0.66 0 1.32 0 2 0 C2.72835633 6.70087825 0.66624558 11.4153701 -3 17 C-10.81779613 26.37838281 -21.70959214 34.10073935 -34 36 C-42.17918212 36.53837654 -49.46504284 36.9498014 -55.9375 31.3125 C-56.4634375 30.6628125 -56.4634375 30.6628125 -57 30 C-56.505 28.515 -56.505 28.515 -56 27 C-55.01 27.33 -54.02 27.66 -53 28 C-35.67539467 28.96145088 -22.56945586 25.75462709 -9.0625 14.1875 C-4.54465692 9.93427345 -1.79301062 5.93845116 0 0 Z " fill="#FB546F" transform="translate(335,234)"/>
<path d="M0 0 C0.66 0 1.32 0 2 0 C4.69218031 4.03827047 4.77072732 7.34153308 4 12 C0.2043853 22.41430226 -5.09480328 29.16131897 -14.875 34.25 C-16.90687365 35.18817376 -18.94802034 36.10665793 -21 37 C-21.72960937 37.34289062 -22.45921875 37.68578125 -23.2109375 38.0390625 C-30.55189075 41.04857207 -40.87257023 41.64723728 -48.48046875 39.203125 C-51.35267268 37.61085843 -53.87269376 35.50271322 -56 33 C-55.67 32.34 -55.34 31.68 -55 31 C-54.29488281 31.48855469 -53.58976563 31.97710937 -52.86328125 32.48046875 C-46.9359124 35.62609833 -38.62364809 34.71788408 -32.31640625 32.80859375 C-31.55199219 32.54175781 -30.78757813 32.27492187 -30 32 C-28.85402344 31.61972656 -27.70804688 31.23945313 -26.52734375 30.84765625 C-15.92247274 27.11838207 -7.45236276 22.06917971 -1.875 11.875 C-0.01325982 7.69425013 0.49240443 4.53012072 0 0 Z " fill="#F7B102" transform="translate(278,196)"/>
<path d="M0 0 C2.77388718 2.17412779 4.02017321 3.50988709 5.3125 6.8125 C5.70830613 11.87513656 5.08075896 14.91307487 1.75 18.8125 C-2.14882847 21.08090929 -5.16099132 22.29844725 -9.6875 21.8125 C-15.11959877 18.94830247 -15.11959877 18.94830247 -16.6875 15.8125 C-17.26467357 11.08156912 -17.12166625 7.66532657 -14.9375 3.375 C-10.65666256 -1.5003982 -6.13121683 -2.70914232 0 0 Z " fill="#6E212B" transform="translate(163.6875,330.1875)"/>
<path d="M0 0 C3 2.4375 3 2.4375 5 5 C5.33 5.33 5.66 5.66 6 6 C6.34950246 11.24253687 6.57053577 14.83437493 3 19 C-1.06979551 21.6227571 -4.17705921 22.61569457 -9 22 C-11.77428577 20.73896101 -13.48317435 19.68910086 -15.3125 17.25 C-16.31516165 13.96856187 -16.35356638 11.41780831 -16 8 C-12.1062891 0.88390767 -7.92209873 -1.41763872 0 0 Z " fill="#6C212D" transform="translate(286,287)"/>
<path d="M0 0 C2.64800492 2.53767138 3.30358281 4.69607648 3.5 8.25 C3.2175113 15.74209151 -1.56677955 21.18777411 -6.7734375 26.2109375 C-10.54971059 29.24520606 -14.71954184 31.6066736 -18.9140625 34.0078125 C-23.36141823 36.87889025 -27.0577178 39.99330053 -29 45 C-29.27520756 48.09920718 -29.27520756 48.09920718 -29.1953125 51.515625 C-29.18886719 52.76601563 -29.18242187 54.01640625 -29.17578125 55.3046875 C-29.15902344 56.60664063 -29.14226562 57.90859375 -29.125 59.25 C-29.11597656 60.56742187 -29.10695313 61.88484375 -29.09765625 63.2421875 C-29.07408533 66.49497462 -29.04118022 69.74739589 -29 73 C-31.475 73.495 -31.475 73.495 -34 74 C-34.07497625 69.76826361 -34.12898541 65.53689412 -34.16479492 61.3046875 C-34.17974586 59.8693975 -34.20011424 58.43415209 -34.22631836 56.99902344 C-34.37659994 48.54789433 -34.11147694 40.99266357 -31 33 C-30.67 31.989375 -30.34 30.97875 -30 29.9375 C-26.99704555 27.02838787 -23.90876308 27.49535029 -19.8515625 27.28125 C-14.64983273 26.76820268 -10.86049146 24.94336413 -7.24609375 21.16796875 C-2.00680983 14.56520853 -0.69516391 8.23220415 0 0 Z " fill="#FB564C" transform="translate(442,220)"/>
<path d="M0 0 C0.66 0.33 1.32 0.66 2 1 C2.68705272 10.31338125 0.71783557 15.82318549 -5.0625 23.0625 C-14.9638543 33.80831949 -30.23053588 39.65094504 -44.6875 40.375 C-49.08548256 40.26735707 -51.65689508 38.9354092 -55 36 C-56.375 33.75 -56.375 33.75 -57 32 C-56.28585938 32.48339844 -55.57171875 32.96679688 -54.8359375 33.46484375 C-48.89909915 36.67858682 -42.58474195 35.73888435 -36.26953125 33.93359375 C-22.02935021 28.86900284 -9.0796136 19.59072937 -1.91015625 6.078125 C-1.02736964 4.06249206 -0.45960405 2.14804418 0 0 Z " fill="#DC3D56" transform="translate(179,223)"/>
<path d="M0 0 C0.33 0 0.66 0 1 0 C1.82817899 10.71111496 -0.35755673 17.6641989 -7 26.0625 C-17.58222295 37.37610769 -32.44217461 44.9345934 -47.80859375 46.23828125 C-55.14534522 46.44541093 -60.24459483 45.29703666 -65.82421875 40.3984375 C-67.26544687 38.98072592 -68.64009506 37.49589544 -70 36 C-69.67 35.34 -69.34 34.68 -69 34 C-68.29423828 34.52400391 -68.29423828 34.52400391 -67.57421875 35.05859375 C-66.95160156 35.51363281 -66.32898438 35.96867187 -65.6875 36.4375 C-65.07261719 36.88996094 -64.45773438 37.34242188 -63.82421875 37.80859375 C-57.67335579 41.82575264 -48.60007268 40.67207064 -41.71484375 39.38671875 C-26.7768293 35.18482373 -11.46625366 27.14697558 -3.4375 13.4375 C-1.15915699 8.88081399 -0.1914547 5.07354958 0 0 Z " fill="#F6B002" transform="translate(138,314)"/>
<path d="M0 0 C3.65571219 4.76832024 4.54758476 7.95509368 4 14 C1.15723799 25.56056552 -8.35559189 34.56098083 -18 41 C-28.53802006 47.14136269 -39.59658566 51.81830158 -52 50 C-55.55708998 48.65910744 -58.77148636 46.9999642 -62 45 C-62 44.01 -62 43.02 -62 42 C-61.28714844 42.48597656 -60.57429688 42.97195313 -59.83984375 43.47265625 C-53.16677193 47.06161234 -45.16111541 45.2736966 -38.125 43.4375 C-23.48132487 38.84213675 -9.58316353 31.88104511 -2 18 C0.78939917 12.29441079 0.18095445 6.21276954 0 0 Z " fill="#F6B002" transform="translate(185,222)"/>
<path d="M0 0 C0.33 0 0.66 0 1 0 C1.4673415 5.72493338 0.36340945 9.42355763 -3 14 C-5.25 16.5625 -5.25 16.5625 -8 19 C-8.52980469 19.48339844 -9.05960937 19.96679688 -9.60546875 20.46484375 C-18.19700947 27.66415186 -29.02113196 30.88147454 -40.13671875 30.43359375 C-44.29049609 29.80457699 -46.68478711 28.56175542 -50 26 C-51.35439668 23.29120665 -51.06501451 20.99066732 -51 18 C-50.34 17.67 -49.68 17.34 -49 17 C-47.824375 18.2065625 -47.824375 18.2065625 -46.625 19.4375 C-43.52890017 22.45988316 -42.17915185 23.16044675 -38 23.25 C-25.90801085 23.05714531 -13.3142821 16.96748624 -4.55859375 8.8125 C-2.19794562 6.06728514 -1.11937672 3.42809121 0 0 Z " fill="#DB3D56" transform="translate(273,196)"/>
<path d="M0 0 C-1.34991366 3.15078009 -2.66274979 4.78663118 -5.46484375 6.7421875 C-6.17374756 7.24459961 -6.88265137 7.74701172 -7.61303711 8.26464844 C-8.38010986 8.79606445 -9.14718262 9.32748047 -9.9375 9.875 C-11.56333367 11.02225698 -13.18830366 12.17073869 -14.8125 13.3203125 C-15.65941406 13.9174707 -16.50632813 14.51462891 -17.37890625 15.12988281 C-22.61308178 18.86440075 -27.7507651 22.73261079 -32.89233398 26.59326172 C-33.64844971 27.1554541 -34.40456543 27.71764648 -35.18359375 28.296875 C-35.84931396 28.79541992 -36.51503418 29.29396484 -37.20092773 29.80761719 C-39 31 -39 31 -42 32 C-40.68535451 22.82954607 -33.05679519 16.62378115 -26.109375 11.14453125 C-18.78771124 6.0947908 -9.03413912 0 0 0 Z " fill="#FFE0DC" transform="translate(219,264)"/>
<path d="M0 0 C2.7485892 4.1228838 2.82273616 7.15823409 2 12 C-3.24344771 25.15526917 -12.53932731 32.55487128 -24 40 C-24.66 39.67 -25.32 39.34 -26 39 C-25.45730469 38.33613281 -24.91460937 37.67226563 -24.35546875 36.98828125 C-23.64003906 36.10527344 -22.92460937 35.22226562 -22.1875 34.3125 C-21.47980469 33.44238281 -20.77210938 32.57226562 -20.04296875 31.67578125 C-17.98092631 29.08500938 -17.98092631 29.08500938 -16.47265625 26.41015625 C-14.95665241 23.92905713 -13.30462622 22.17140772 -11.25 20.125 C-5.86692432 14.25346004 -3.05897917 7.25551622 0 0 Z " fill="#DD3D56" transform="translate(243,269)"/>
<path d="M0 0 C0.495 0.99 0.495 0.99 1 2 C-4.01605139 10.72356764 -11.34480335 15.97972867 -20.1875 20.4375 C-20.86458008 20.77958496 -21.54166016 21.12166992 -22.23925781 21.47412109 C-29.30347782 24.8780427 -35.94786264 25.20262655 -43.6875 25.25 C-44.54150391 25.270625 -45.39550781 25.29125 -46.27539062 25.3125 C-47.09587891 25.31765625 -47.91636719 25.3228125 -48.76171875 25.328125 C-49.8748645 25.34214355 -49.8748645 25.34214355 -51.01049805 25.35644531 C-53.57791126 24.89645963 -54.48188836 24.09651248 -56 22 C-55.6875 18.8125 -55.6875 18.8125 -55 16 C-54.401875 16.639375 -53.80375 17.27875 -53.1875 17.9375 C-49.47948894 21.43362471 -45.78430166 21.34379423 -40.9296875 21.2734375 C-24.96959594 19.78382895 -10.99178396 11.14880945 0 0 Z " fill="#EC7391" transform="translate(126,315)"/>
<path d="M0 0 C2.81972931 2.36493426 2.97850831 3.8280665 3.4375 7.5 C3 11 3 11 1.125 13.375 C-2.39421176 16.06616193 -4.57094483 16.35432441 -9 16 C-11.375 15 -11.375 15 -13 13 C-13.61712546 8.21727772 -13.72784513 6.14029071 -11.125 2.0625 C-7.33781898 -1.61329334 -5.07330461 -1.15706947 0 0 Z " fill="#83DDC1" transform="translate(41,356)"/>
<path d="M0 0 C-3.16441521 3.56587087 -6.66700306 5.58890887 -10.875 7.6875 C-16.96216223 10.80756431 -22.70486727 14.24442785 -28.34326172 18.11791992 C-31.54247054 20.26650665 -34.15492032 21.54973974 -38 22 C-34.25620437 11.47738996 -25.23251121 7.0985609 -15.70703125 2.56640625 C-10.40984567 0.20772745 -5.78966787 -0.1135229 0 0 Z " fill="#FFE0DD" transform="translate(117,308)"/>
<path d="M0 0 C3.9375 0.6875 3.9375 0.6875 6.4375 2.8125 C8.19334708 6.17787356 8.57406938 7.94765491 7.9375 11.6875 C6.0704009 13.99025556 4.58102259 15.36573871 1.9375 16.6875 C-1.93674565 17.04622645 -4.21183906 17.25460729 -7.5 15.0625 C-9.57364192 11.91056429 -9.73109841 10.40193562 -9.0625 6.6875 C-6.63969519 2.59901688 -4.80354484 0.3142506 0 0 Z " fill="#83DFC2" transform="translate(210.0625,169.3125)"/>
<path d="M0 0 C0.99 0.33 1.98 0.66 3 1 C-2.09892555 6.32554446 -7.51202513 10.09976256 -14.0625 13.375 C-14.7225 13.70822266 -15.3825 14.04144531 -16.0625 14.38476562 C-22.80879729 17.63768323 -29.22398965 19.28549279 -36.75 19.3125 C-38.38195312 19.33763672 -38.38195312 19.33763672 -40.046875 19.36328125 C-43.28240047 18.96526026 -44.63213984 18.17820146 -47 16 C-46.67 14.02 -46.34 12.04 -46 10 C-45.48050781 10.4846875 -44.96101563 10.969375 -44.42578125 11.46875 C-39.10380085 14.82819657 -31.03858657 13.82070692 -24.99609375 12.59277344 C-16.05623756 10.28671709 -6.62440239 6.62440239 0 0 Z " fill="#EB7290" transform="translate(326,242)"/>
<path d="M0 0 C0.66 0.33 1.32 0.66 2 1 C-7.10527444 20.99686976 -19.74250067 34.14697263 -40.7578125 42.03515625 C-42.82496595 42.73176752 -44.91062306 43.37318692 -47 44 C-47.33 43.34 -47.66 42.68 -48 42 C-48.66 41.67 -49.32 41.34 -50 41 C-49.04480469 40.70867187 -48.08960938 40.41734375 -47.10546875 40.1171875 C-29.9747661 34.74952285 -15.52477103 26.828605 -6 11 C-4.82921339 8.36356201 -3.92844098 5.73645762 -3 3 C-1.42578125 1.28125 -1.42578125 1.28125 0 0 Z " fill="#772034" transform="translate(242,268)"/>
<path d="M0 0 C-2.48867038 5.59012894 -6.81840317 10.4461969 -12.3515625 13.1484375 C-14.55583896 13.89302587 -16.73083282 14.49086384 -19 15 C-20.2375 15.3403125 -20.2375 15.3403125 -21.5 15.6875 C-27.03068316 16.37883539 -31.35977922 16.83502149 -36.4375 14.25 C-38.78000464 12.19316666 -39.96521967 10.89738492 -41 8 C-40.28585938 8.48339844 -39.57171875 8.96679688 -38.8359375 9.46484375 C-33.59684786 12.30087988 -27.79061003 12.0372461 -22.09423828 10.47851562 C-15.57517285 8.32115037 -5.86369292 0 0 0 Z " fill="#F4516C" transform="translate(163,247)"/>
<path d="M0 0 C0.66 0.33 1.32 0.66 2 1 C-1.42370083 5.51130504 -4.73431046 8.47890453 -9.75 11.1875 C-10.36979736 11.52845703 -10.98959473 11.86941406 -11.62817383 12.22070312 C-19.78865665 16.61374711 -27.58042939 19.62807393 -37 18 C-39.56209601 16.58099298 -40.98214354 15.18146645 -43 13 C-42.67 11.35 -42.34 9.7 -42 8 C-41.21625 8.639375 -40.4325 9.27875 -39.625 9.9375 C-34.42733484 14.02137977 -29.43087989 13.54565041 -23 13 C-14.7701471 10.97005114 -5.98341349 5.98341349 0 0 Z " fill="#EB7190" transform="translate(268,199)"/>
<path d="M0 0 C3.8125 0.9375 3.8125 0.9375 5.8125 2.9375 C5.71302676 6.04106512 4.70372192 7.04981105 2.52734375 9.296875 C1.61082031 10.08578125 0.69429687 10.8746875 -0.25 11.6875 C-1.16910156 12.48671875 -2.08820313 13.2859375 -3.03515625 14.109375 C-3.74542969 14.71265625 -4.45570312 15.3159375 -5.1875 15.9375 C-6.1775 15.6075 -7.1675 15.2775 -8.1875 14.9375 C-9.80367807 11.70514385 -9.76099284 8.4318052 -9.1875 4.9375 C-6.56696365 0.92480371 -4.71304175 -0.46357788 0 0 Z " fill="#84DEC2" transform="translate(82.1875,274.0625)"/>
<path d="M0 0 C-3.26693492 4.73113114 -7.03338716 7.18862522 -11.875 10.0625 C-13.26871756 10.90674635 -14.66195421 11.75178716 -16.0546875 12.59765625 C-16.72209961 12.99871582 -17.38951172 13.39977539 -18.07714844 13.81298828 C-19.88500738 14.92901293 -21.63448037 16.10217027 -23.3828125 17.30859375 C-26 19 -26 19 -28 19 C-27.85682889 14.27535353 -25.57126347 11.87721914 -22.30859375 8.77734375 C-15.97082175 3.89800998 -8.08410544 -0.21848934 0 0 Z " fill="#FFDFDC" transform="translate(160,222)"/>
<path d="M0 0 C0.66 0 1.32 0 2 0 C2.72878014 6.70477733 0.66155476 11.4095143 -3 17 C-8.10512905 23.23082482 -13.7278856 27.5788398 -21 31 C-19.30551328 27.25732302 -17.01843832 24.66573877 -14.2421875 21.68359375 C-12.7031458 19.94636851 -12.7031458 19.94636851 -13 17 C-11.390625 15.421875 -11.390625 15.421875 -9.25 13.75 C-4.48513631 9.76944131 -1.97914545 5.93743635 0 0 Z " fill="#DB3D55" transform="translate(335,234)"/>
<path d="M0 0 C1.49739583 1.26953125 2.99479167 2.5390625 4.4921875 3.80859375 C8.30751495 6.8232955 12.33482409 6.4298727 17 6 C19.66830408 5.30408784 22.23958541 4.48586235 24.8359375 3.55859375 C27 3 27 3 30 4 C13.90470209 14.00693572 13.90470209 14.00693572 7 13 C0.59313078 10.18626156 0.59313078 10.18626156 -1 7 C-1.125 3.9375 -1.125 3.9375 -1 1 C-0.67 0.67 -0.34 0.34 0 0 Z " fill="#F8536D" transform="translate(223,213)"/>
<path d="M0 0 C0.66 0 1.32 0 2 0 C2.08199466 3.27978643 1.50518206 5.38102694 -0.578125 7.93359375 C-10.15413846 17.03080654 -23.50207412 23.62516961 -36.8828125 23.32421875 C-40.30347497 22.80039036 -42.43956372 21.24038175 -45 19 C-45.33 18.01 -45.66 17.02 -46 16 C-43.03824877 16.61277612 -41.61941217 17.25372522 -39 19 C-26.55274807 20.80821565 -14.91757042 15.08818926 -5 8 C-2.56226522 5.29557287 -1.15293086 3.45879257 0 0 Z " fill="#751F33" transform="translate(270,197)"/>
<path d="M0 0 C2.5216604 2.26079898 2.95780733 3.70465133 3.4375 7.0625 C3 10 3 10 1.375 11.875 C-1.69008532 13.32688252 -3.64776095 13.49926965 -7 13 C-8.9375 11.375 -8.9375 11.375 -10 9 C-9.92857348 5.50010028 -9.66021066 3.70736857 -7.25 1.125 C-4.52398089 -0.23800956 -3.00564685 -0.53947508 0 0 Z " fill="#82D8BD" transform="translate(161,334)"/>
<path d="M0 0 C0.66 0.33 1.32 0.66 2 1 C-7.69155735 10.64027927 -20.73444129 19.57943785 -34.75 20.5 C-38.45890077 20.39607283 -38.97368922 20.02147819 -42.0625 17.5 C-42.701875 16.675 -43.34125 15.85 -44 15 C-43.67 14.34 -43.34 13.68 -43 13 C-42.525625 13.495 -42.05125 13.99 -41.5625 14.5 C-37.01046121 17.16460807 -32.51865821 16.5893896 -27.49609375 15.4140625 C-17.67400231 12.22298063 -8.10334865 6.35676222 0 0 Z " fill="#E9708E" transform="translate(167,237)"/>
<path d="M0 0 C2 1.625 2 1.625 3 4 C2.875 7.125 2.875 7.125 2 10 C-1.67346771 12.44897847 -3.66356399 12.31537716 -8 12 C-10 10 -10 10 -10.3125 6.5625 C-10 3 -10 3 -8.9375 1.0625 C-5.84506242 -0.63335287 -3.44485259 -0.43060657 0 0 Z " fill="#82DEC1" transform="translate(285,292)"/>
<path d="M0 0 C-3.70546635 3.90898628 -7.60539595 7.08404565 -12 10.1875 C-12.60328125 10.62513672 -13.2065625 11.06277344 -13.828125 11.51367188 C-17.10708528 13.84814903 -20.15181241 15.6954061 -24 17 C-24 13.76865602 -23.56844934 11.65917443 -21.43359375 9.18359375 C-14.9516923 3.31055975 -8.92288925 -0.7435741 0 0 Z " fill="#FFE0DC" transform="translate(313,235)"/>
<path d="M0 0 C1.5 1 1.5 1 3 3 C3.9882713 10.041433 1.92954775 15.15950779 -2 21 C-4.8323905 24.1970963 -7.82940178 27.14024474 -11 30 C-11.33 29.34 -11.66 28.68 -12 28 C-11.01243851 26.25530803 -10.01895275 24.51327952 -8.9765625 22.80078125 C-7.85157251 20.94388937 -7.85157251 20.94388937 -7.5 18.375 C-6.82455062 15.16661544 -5.09653997 13.47772905 -3 11 C-0.79685756 7.52135404 -0.46767377 4.05317264 0 0 Z " fill="#DB3D55" transform="translate(131,308)"/>
<path d="M0 0 C-3.7687516 4.1272426 -8.69856467 6.49897681 -13.5 9.25 C-14.46292969 9.8171875 -15.42585937 10.384375 -16.41796875 10.96875 C-17.80435547 11.76539063 -17.80435547 11.76539063 -19.21875 12.578125 C-20.06373047 13.06700195 -20.90871094 13.55587891 -21.77929688 14.05957031 C-24 15 -24 15 -27 14 C-20.07117611 4.75392044 -11.68202741 -0.22041561 0 0 Z " fill="#FFDEDC" transform="translate(259,193)"/>
<path d="M0 0 C0.99 0.33 1.98 0.66 3 1 C0.38890554 11.44437783 -7.14544338 17.55708497 -16 23 C-21.80749308 26.05274152 -27.47650287 28.95287039 -34 30 C-34 29.34 -34 28.68 -34 28 C-34.66 27.67 -35.32 27.34 -36 27 C-34.96875 26.814375 -33.9375 26.62875 -32.875 26.4375 C-21.94248955 23.64622074 -11.3242327 17.62600062 -4 9 C-2.30310887 6.08788736 -1.01708031 3.21063411 0 0 Z " fill="#792236" transform="translate(128,312)"/>
<path d="M0 0 C2.49619254 1.87214441 2.96865123 2.7895154 3.4375 5.9375 C2.90740917 9.64813583 1.88937491 10.70549639 -1 13 C-4.09173752 14.54586876 -6.59429552 14.29359521 -10 14 C-12.4375 12 -12.4375 12 -14 10 C-13.67 9.34 -13.34 8.68 -13 8 C-10.02148438 8.04882812 -10.02148438 8.04882812 -7.04296875 8.09765625 C-4.79694539 8.08263217 -4.79694539 8.08263217 -2 7 C-0.77030122 3.48809191 -0.77030122 3.48809191 0 0 Z " fill="#3CB187" transform="translate(215,172)"/>
<path d="M0 0 C0.49065421 6.37850467 0.49065421 6.37850467 -1.875 9.375 C-5.39421176 12.06616193 -7.57094483 12.35432441 -12 12 C-14.375 10.625 -14.375 10.625 -16 9 C-16 8.34 -16 7.68 -16 7 C-15.00419922 6.74476563 -15.00419922 6.74476563 -13.98828125 6.484375 C-10.02159002 5.39570646 -3.041286 0 0 0 Z " fill="#3CB187" transform="translate(44,360)"/>
<path d="M0 0 C0.33 0 0.66 0 1 0 C1.44933921 8.83700441 1.44933921 8.83700441 -2 13 C-6.24137931 16 -6.24137931 16 -9 16 C-9.33 17.32 -9.66 18.64 -10 20 C-10.48195779 16.55266304 -10.70607492 13.42499027 -10 10 C-8.09988126 8.22135004 -6.24015494 7.24446711 -3.9140625 6.09375 C-1.71164964 5.06062084 -1.71164964 5.06062084 -0.5 2.1875 C-0.335 1.465625 -0.17 0.74375 0 0 Z " fill="#EDA705" transform="translate(48,366)"/>
<path d="M0 0 C0.75 1.625 0.75 1.625 1 4 C-1.02291546 7.61234904 -2.53871879 9.6924792 -6 12 C-9.06464321 12.54520806 -11.93597168 12.55270563 -15 12 C-18.0625 9.5 -18.0625 9.5 -20 7 C-19.67 6.34 -19.34 5.68 -19 5 C-18.34 5.515625 -17.68 6.03125 -17 6.5625 C-13.01433134 8.47229957 -10.18754802 8.26049425 -6 7 C-2.59436569 4.82619087 -1.28248017 3.84744051 0 0 Z " fill="#F5B003" transform="translate(168,343)"/>
<path d="M0 0 C0.66 0.33 1.32 0.66 2 1 C1.53730015 5.29227942 -0.90159458 7.02922065 -4.0625 9.75 C-4.98160156 10.54921875 -5.90070313 11.3484375 -6.84765625 12.171875 C-7.55792969 12.77515625 -8.26820312 13.3784375 -9 14 C-9.99 13.67 -10.98 13.34 -12 13 C-12.33 11.02 -12.66 9.04 -13 7 C-12.07767578 6.94392578 -12.07767578 6.94392578 -11.13671875 6.88671875 C-10.32847656 6.82097656 -9.52023438 6.75523437 -8.6875 6.6875 C-7.88699219 6.62949219 -7.08648437 6.57148438 -6.26171875 6.51171875 C-3.58013375 5.90500435 -2.6646627 5.15637846 -1 3 C-0.67 2.01 -0.34 1.02 0 0 Z " fill="#40B088" transform="translate(86,276)"/>
<path d="M0 0 C4.35019062 0.50583612 7.49968887 1.29975999 11 4 C11.8125 6.1875 11.8125 6.1875 12 8 C8.77371174 9.01397631 7.43517654 9.20240769 4.3125 7.75 C2 6 2 6 0 3 C0 2.01 0 1.02 0 0 Z " fill="#FDCA1A" transform="translate(406,154)"/>
<path d="M0 0 C4.75 1.875 4.75 1.875 7 3 C11.55547083 3.25785684 14.8780636 2.99851462 19 1 C18.08486681 3.28783297 17.34515354 4.73449728 15.375 6.25 C11.86735783 7.35767647 8.59699782 7.70975244 5 7 C2.61290633 5.55465003 0.99584939 3.99584939 -1 2 C-0.67 1.34 -0.34 0.68 0 0 Z " fill="#F5AF02" transform="translate(198,187)"/>
<path d="M0 0 C0.75 1.6875 0.75 1.6875 1 4 C-1.15795427 7.35681775 -3.15789851 9.75696717 -7 11 C-12.27085586 11.68750294 -14.84013775 10.16941885 -19 7 C-18.67 6.34 -18.34 5.68 -18 5 C-17.14921875 5.50080078 -17.14921875 5.50080078 -16.28125 6.01171875 C-12.4951402 7.65193413 -8.94157285 6.89120121 -5 6 C-1.74079519 4.20743736 -1.18947111 3.56841333 0 0 Z " fill="#F3AF03" transform="translate(291,301)"/>
<path d="M0 0 C0.99 0.33 1.98 0.66 3 1 C-0.14822199 4.56695102 -3.30063614 6.31721434 -7.625 8.25 C-8.77226562 8.77078125 -9.91953125 9.2915625 -11.1015625 9.828125 C-14 11 -14 11 -16 11 C-16 10.34 -16 9.68 -16 9 C-16.66 8.67 -17.32 8.34 -18 8 C-16.93072266 7.63648438 -16.93072266 7.63648438 -15.83984375 7.265625 C-9.2051788 4.94430767 -9.2051788 4.94430767 -3 1.6875 C-2.01 1.130625 -1.02 0.57375 0 0 Z " fill="#7D2438" transform="translate(318,251)"/>
<path d="M0 0 C0.66 0.33 1.32 0.66 2 1 C0.66407069 5.00778794 -1.8803504 6.19954796 -5.3125 8.3125 C-5.89451172 8.69728516 -6.47652344 9.08207031 -7.07617188 9.47851562 C-8.80078125 10.55078125 -8.80078125 10.55078125 -12 12 C-14.41796875 11.23046875 -14.41796875 11.23046875 -16 10 C-15.26394531 9.61328125 -14.52789062 9.2265625 -13.76953125 8.828125 C-6.51542002 4.97364007 -6.51542002 4.97364007 0 0 Z " fill="#7C2338" transform="translate(162,243)"/>
<path d="M0 0 C0.33 0 0.66 0 1 0 C1.25 2.8125 1.25 2.8125 1 6 C-1.27365095 8.62344341 -2.67535797 8.96104296 -6.125 9.375 C-7.548125 9.189375 -7.548125 9.189375 -9 9 C-9.66 8.01 -10.32 7.02 -11 6 C-9.741875 5.7525 -8.48375 5.505 -7.1875 5.25 C-4.16826586 4.51386164 -3.21509998 4.23591611 -1.0625 1.875 C-0.711875 1.25625 -0.36125 0.6375 0 0 Z " fill="#3EB087" transform="translate(163,338)"/>
<path d="M0 0 C0.75 1.75 0.75 1.75 1 4 C-0.5 6.25 -0.5 6.25 -3 8 C-6.75 8.25 -6.75 8.25 -10 8 C-10.66 6.68 -11.32 5.36 -12 4 C-10.7625 4.0825 -9.525 4.165 -8.25 4.25 C-4.89493302 4.2737948 -4.24552096 4.19641677 -1.5 2 C-1.005 1.34 -0.51 0.68 0 0 Z " fill="#3EAA83" transform="translate(287,296)"/>
<path d="M0 0 C2.96175123 0.61277612 4.38058783 1.25372522 7 3 C9.0492094 3.45139459 9.0492094 3.45139459 11.1875 3.625 C12.445625 3.74875 13.70375 3.8725 15 4 C15.33 4.99 15.66 5.98 16 7 C11.17143834 7.38628493 7.88514023 7.45837619 3.5 5.1875 C1 3 1 3 0 0 Z " fill="#84283D" transform="translate(224,213)"/>
<path d="M0 0 C-0.33 0.99 -0.66 1.98 -1 3 C-3.06640625 3.94921875 -3.06640625 3.94921875 -5.5625 4.6875 C-6.38878906 4.93886719 -7.21507812 5.19023437 -8.06640625 5.44921875 C-8.70449219 5.63097656 -9.34257812 5.81273437 -10 6 C-10.33 5.34 -10.66 4.68 -11 4 C-11.66 3.67 -12.32 3.34 -13 3 C-11.39743892 2.49487756 -9.79288208 1.99608373 -8.1875 1.5 C-7.29417969 1.2215625 -6.40085938 0.943125 -5.48046875 0.65625 C-3 0 -3 0 0 0 Z " fill="#7E2539" transform="translate(205,306)"/>
<path d="M0 0 C0.33 0 0.66 0 1 0 C1.10841951 1.91541138 1.18578079 3.83259773 1.25 5.75 C1.29640625 6.81734375 1.3428125 7.8846875 1.390625 8.984375 C0.91735478 12.63802112 -0.19155042 13.72228105 -3 16 C-3.33 15.34 -3.66 14.68 -4 14 C-3.54625 13.13375 -3.0925 12.2675 -2.625 11.375 C-0.70651328 7.39045066 -0.37738077 4.3776169 0 0 Z " fill="#EEA804" transform="translate(138,314)"/>
<path d="M0 0 C0 3 0 3 -2.3125 5.625 C-5 8 -5 8 -8 9 C-6.4169423 4.7257442 -3.49431596 2.73468206 0 0 Z " fill="#711E31" transform="translate(125,321)"/>
<path d="M0 0 C0.99 0.33 1.98 0.66 3 1 C-0.96 4.465 -0.96 4.465 -5 8 C-5.33 7.34 -5.66 6.68 -6 6 C-4 4 -2 2 0 0 Z " fill="#E16B88" transform="translate(326,242)"/>
<path d="M0 0 C0.66 0.33 1.32 0.66 2 1 C-2.625 6.875 -2.625 6.875 -6 8 C-5.65120368 4.74456771 -4.97866739 3.98126893 -2.4375 1.75 C-1.633125 1.1725 -0.82875 0.595 0 0 Z " fill="#E46D8B" transform="translate(268,199)"/>
<path d="M0 0 C0.66 1.32 1.32 2.64 2 4 C0.68 5.32 -0.64 6.64 -2 8 C-2 4.23312136 -1.76462683 3.08809695 0 0 Z " fill="#7B2236" transform="translate(332,236)"/>
<path d="M0 0 C0.66 0 1.32 0 2 0 C1.42655063 2.86724686 1.1385485 3.8614515 -1 6 C-1.99 6.33 -2.98 6.66 -4 7 C-2.79618552 4.50638429 -1.54571278 2.31856917 0 0 Z " fill="#7B2439" transform="translate(174,230)"/>
<path d="M0 0 C1.32 0 2.64 0 4 0 C3.34 1.32 2.68 2.64 2 4 C0.68 4 -0.64 4 -2 4 C-1.34 2.68 -0.68 1.36 0 0 Z " fill="#FFD7D8" transform="translate(319,230)"/>
</svg>
