<?xml version="1.0" encoding="UTF-8"?>
<svg version="1.1" xmlns="http://www.w3.org/2000/svg" width="512" height="512">
<path d="M0 0 C0.97630371 0.19867676 1.95260742 0.39735352 2.95849609 0.60205078 C50.0787792 10.46031405 92.10441447 31.42098046 127.65625 63.87890625 C129.79924312 65.81831503 131.98344638 67.69329299 134.1875 69.5625 C137.48994908 72.4422356 140.35441822 75.53028659 143.1796875 78.875 C144.40092463 80.30065021 145.657291 81.69688685 146.9453125 83.0625 C158.73598004 95.59280351 168.68374351 109.96443641 177 125 C177.42877441 125.76473633 177.85754883 126.52947266 178.29931641 127.31738281 C193.27626427 154.2110721 203.52162376 183.50133338 208 214 C208.17660156 215.20245361 208.35320312 216.40490723 208.53515625 217.64379883 C210.1391435 229.36025845 210.39963344 240.99902164 210.375 252.8125 C210.37418427 254.29126114 210.37418427 254.29126114 210.37335205 255.79989624 C210.25825919 301.3458236 198.56980354 347.26267338 174 386 C173.56075195 386.69254883 173.12150391 387.38509766 172.66894531 388.09863281 C148.63745965 425.63460941 148.63745965 425.63460941 136 433 C134.80375 432.71125 133.6075 432.4225 132.375 432.125 C129.17666726 431.56981771 128.1199346 431.92961103 125.2578125 433.609375 C120.09983104 437.56965917 120.09983104 437.56965917 117.71875 443.2890625 C117.8115625 444.01867187 117.904375 444.74828125 118 445.5 C118.30224591 448.47635382 118.28969793 449.58536495 116.55078125 452.07421875 C113.85452483 454.61989889 111.00714672 456.84210464 108 459 C107.28054199 459.51723633 106.56108398 460.03447266 105.81982422 460.56738281 C61.91072099 491.6730336 10.62448877 509.4389247 -43.30004883 509.31567383 C-46.16722012 509.31252229 -49.03334631 509.33605161 -51.90039062 509.36132812 C-65.15083066 509.40665614 -77.93462346 508.17267291 -91 506 C-92.70651733 505.71781616 -92.70651733 505.71781616 -94.44750977 505.42993164 C-155.37617834 494.47784445 -214.66889505 458.47412338 -251 408 C-251.85176801 406.85335128 -252.70465463 405.70753275 -253.55859375 404.5625 C-259.60664558 396.36932634 -264.96733588 387.84832238 -270 379 C-270.36448242 378.36819824 -270.72896484 377.73639648 -271.10449219 377.08544922 C-284.52796007 353.63288551 -292.88099623 327.88419353 -298.3125 301.5 C-298.45993652 300.78481201 -298.60737305 300.06962402 -298.75927734 299.33276367 C-301.69409885 283.99634295 -302.40748514 268.76642382 -302.375 253.1875 C-302.37445618 252.20165924 -302.37391235 251.21581848 -302.37335205 250.20010376 C-302.33199259 233.83284135 -301.36539509 218.06630394 -298 202 C-297.78569336 200.9672998 -297.57138672 199.93459961 -297.35058594 198.87060547 C-293.32293994 180.11303141 -286.95076347 162.32879101 -279.1875 144.8125 C-278.81455811 143.96848633 -278.44161621 143.12447266 -278.05737305 142.25488281 C-277.70199463 141.4759668 -277.34661621 140.69705078 -276.98046875 139.89453125 C-276.67004639 139.21237549 -276.35962402 138.53021973 -276.03979492 137.82739258 C-274.883883 135.79592962 -273.85084846 134.43505986 -272 133 C-270.7625 133.04125 -269.525 133.0825 -268.25 133.125 C-266.06950827 133.10038711 -266.06950827 133.10038711 -264 132 C-261.11189385 127.90127792 -259.03459257 123.57147517 -257 119 C-257.66 118.01 -258.32 117.02 -259 116 C-259.88582713 107.90575463 -254.60949702 102.4912216 -250 96.32421875 C-245.06837026 90.28489874 -245.06837026 90.28489874 -240.25 89 C-239.1775 89 -238.105 89 -237 89 C-232.06566316 88.37199349 -229.66735992 85.06755743 -226.546875 81.46875 C-224.82553763 79.1896553 -224.82553763 79.1896553 -224.953125 76.90625 C-225.11296875 76.2565625 -225.2728125 75.606875 -225.4375 74.9375 C-226 71 -226 71 -224.890625 69.0390625 C-223.03368571 66.88399075 -221.0788948 64.94202806 -219 63 C-217.94425781 61.96939453 -217.94425781 61.96939453 -216.8671875 60.91796875 C-182.3367205 28.43591928 -136.95942345 9.14996542 -91 0 C-90.11844238 -0.18079102 -89.23688477 -0.36158203 -88.32861328 -0.54785156 C-60.69054905 -5.95191232 -27.55404459 -5.73548749 0 0 Z " fill="#020202" transform="translate(302,3)"/>
<path d="M0 0 C0 3.84280572 -1.1723084 4.85795358 -3.5 7.875 C-16.61272119 25.52674006 -26.64263853 45.40931229 -34.37890625 65.9453125 C-36.54109812 71.52704756 -39.69176315 75.97335113 -43.27661133 80.72045898 C-59.69186325 102.63239529 -70.66015321 127.01605394 -77.62792969 153.37548828 C-78.05782102 155.00107584 -78.49084021 156.62583948 -78.92700195 158.24975586 C-79.33655044 159.78048856 -79.73685752 161.31373865 -80.12573242 162.84985352 C-81.43809707 167.7838235 -83.40141353 171.61056765 -86 176 C-87.31862467 179.68031004 -86.98834015 183.1862981 -86.81640625 187.0546875 C-86.3113167 202.01232759 -86.10704185 214.74762814 -92.12817383 228.74829102 C-96.05801454 237.96552131 -97.18910829 247.23301242 -93.5 256.875 C-91.26130435 261.05072309 -88.27125529 264.66347562 -85.1953125 268.25 C-84.47085938 269.1575 -83.74640625 270.065 -83 271 C-82.47519043 271.58023926 -81.95038086 272.16047852 -81.40966797 272.75830078 C-75.69588117 279.85724802 -76.43764677 287.24865277 -76.875 295.875 C-77.41044486 307.54446917 -77.53014487 317.69774666 -69.875 327.3125 C-65.83673862 331.54018942 -61.10067274 334.22888824 -56 337 C-46.96909696 341.90634135 -40.25262316 347.09155331 -36.1875 356.8125 C-27.49811447 374.943895 -8.33457396 386.00791858 9.7890625 393.08984375 C14.78353779 394.64385231 19.69274171 395.17434393 24.87841797 395.60449219 C25.70229004 395.67313477 26.52616211 395.74177734 27.375 395.8125 C28.1911377 395.87985352 29.00727539 395.94720703 29.84814453 396.01660156 C37.43700016 396.77745747 43.35222917 399.2046838 50 403 C50.05607422 404.61068359 50.05607422 404.61068359 50.11328125 406.25390625 C50.17899112 407.6901362 50.24543668 409.12633262 50.3125 410.5625 C50.33505859 411.26697266 50.35761719 411.97144531 50.38085938 412.69726562 C50.74194121 419.82042537 52.8416265 425.8416265 58 431 C67.2655207 436.57056609 77.00310151 437.30802932 87.625 435.375 C95.61290296 433.26583461 103.69590199 429.44069045 109 423 C111.72155849 424.04059589 114.13962472 425.08643435 116.625 426.625 C122.15351553 428.87735818 127.89656611 429.08950339 133.5703125 427.09765625 C135.07643583 426.39927233 136.56552878 425.66192096 138.02734375 424.875 C140 424 140 424 144 424 C145.53515625 425.13671875 145.53515625 425.13671875 147.0625 426.6875 C153.43575947 432.45899248 161.41955296 435.75897621 170 436 C170.85335938 436.05027344 171.70671875 436.10054688 172.5859375 436.15234375 C181.80028491 436.47497496 189.48124457 434.97345378 196.52734375 428.79296875 C200.96193808 423.39382074 201.50030649 418.33187594 201.6875 411.625 C201.72166016 410.79355469 201.75582031 409.96210938 201.79101562 409.10546875 C201.87287146 407.07076649 201.93812701 405.03540792 202 403 C203.66666667 402.16666667 205.33333333 401.33333333 207 400.5 C208.09828125 399.94828125 209.1965625 399.3965625 210.328125 398.828125 C212.80744584 397.58712441 215.29747858 396.37189102 217.796875 395.171875 C246.078164 381.49318173 271.69333389 361.89203942 291 337 C291.41862305 336.46842285 291.83724609 335.9368457 292.26855469 335.38916016 C300.20557621 325.25460154 306.56735089 314.4293567 312.73242188 303.14379883 C315.30557007 298.79194708 316.92464871 296.71166868 321.8125 295.1875 C327.8732519 292.91692677 330.95459656 289.7408329 334.02734375 284.12109375 C336.561976 278.33932895 337.41673428 271.71414121 335.1328125 265.7265625 C334.45341565 264.39256431 333.73682704 263.0763753 332.97265625 261.7890625 C330.81591615 257.82204657 330.99948889 254.77650162 331.7421875 250.37890625 C331.92136719 249.27740234 332.10054688 248.17589844 332.28515625 247.04101562 C332.47980469 245.89310547 332.67445313 244.74519531 332.875 243.5625 C337.38566737 216.70069811 337.83544295 189.66883103 332 163 C331.81276367 162.12166504 331.62552734 161.24333008 331.43261719 160.33837891 C325.17835038 131.57847327 313.14874271 100.56599959 293.1875 78.5 C288.69620618 73.28977606 286.77800523 67.74207324 284.59033203 61.32910156 C282.02543421 53.82489274 278.72626875 46.91908244 275.01611328 39.921875 C273.99320916 37.98715581 272.99307696 36.0419341 271.99609375 34.09375 C266.06780509 22.61113319 259.13054081 12.06154425 251 2 C251.33 1.34 251.66 0.68 252 0 C266.83140358 9.55052503 280.57049249 19.9438493 293.21826172 32.26513672 C294.94863127 33.94998271 296.69404209 35.61796939 298.44140625 37.28515625 C305.53567907 44.13050722 311.826356 51.35578139 317.70898438 59.26464844 C318.55007113 60.39521664 319.39744514 61.52114296 320.25195312 62.64160156 C346.07114073 96.50115424 360.00445809 136.22197386 366 178 C366.10602539 178.69633545 366.21205078 179.3926709 366.32128906 180.11010742 C367.38319009 188.03915871 367.24300434 196.07694988 367.25 204.0625 C367.25100708 204.85968445 367.25201416 205.6568689 367.25305176 206.47821045 C367.23603242 226.4674194 364.86293691 245.60779852 360 265 C359.77699219 265.93972656 359.55398438 266.87945312 359.32421875 267.84765625 C349.94420182 305.07999339 330.7405055 338.31723415 305.59375 367.01171875 C304.7378125 367.99785156 303.881875 368.98398437 303 370 C302.20851563 370.85722656 301.41703125 371.71445312 300.6015625 372.59765625 C298.74470145 374.84831381 298.74470145 374.84831381 299.1796875 377.359375 C299.40914063 378.14828125 299.63859375 378.9371875 299.875 379.75 C300.30078125 382.38671875 300.30078125 382.38671875 300 385 C297.61210755 387.59666993 294.99811934 389.61288872 292.22265625 391.78515625 C289.80516119 393.74899492 289.80516119 393.74899492 289.68359375 396.24609375 C289.78800781 396.98988281 289.89242188 397.73367188 290 398.5 C290.30224591 401.47635382 290.28969793 402.58536495 288.55078125 405.07421875 C285.85452483 407.61989889 283.00714672 409.84210464 280 412 C279.28054199 412.51723633 278.56108398 413.03447266 277.81982422 413.56738281 C233.91072099 444.6730336 182.62448877 462.4389247 128.69995117 462.31567383 C125.83277988 462.31252229 122.96665369 462.33605161 120.09960938 462.36132812 C106.84916934 462.40665614 94.06537654 461.17267291 81 459 C79.29348267 458.71781616 79.29348267 458.71781616 77.55249023 458.42993164 C16.62382166 447.47784445 -42.66889505 411.47412338 -79 361 C-79.85176801 359.85335128 -80.70465463 358.70753275 -81.55859375 357.5625 C-87.60664558 349.36932634 -92.96733588 340.84832238 -98 332 C-98.36448242 331.36819824 -98.72896484 330.73639648 -99.10449219 330.08544922 C-112.52796007 306.63288551 -120.88099623 280.88419353 -126.3125 254.5 C-126.45993652 253.78481201 -126.60737305 253.06962402 -126.75927734 252.33276367 C-129.69409885 236.99634295 -130.40748514 221.76642382 -130.375 206.1875 C-130.37445618 205.20165924 -130.37391235 204.21581848 -130.37335205 203.20010376 C-130.33199259 186.83284135 -129.36539509 171.06630394 -126 155 C-125.78569336 153.9672998 -125.57138672 152.93459961 -125.35058594 151.87060547 C-121.32293994 133.11303141 -114.95076347 115.32879101 -107.1875 97.8125 C-106.81455811 96.96848633 -106.44161621 96.12447266 -106.05737305 95.25488281 C-105.70199463 94.4759668 -105.34661621 93.69705078 -104.98046875 92.89453125 C-104.67004639 92.21237549 -104.35962402 91.53021973 -104.03979492 90.82739258 C-102.883883 88.79592962 -101.85084846 87.43505986 -100 86 C-98.7625 86.04125 -97.525 86.0825 -96.25 86.125 C-94.06950827 86.10038711 -94.06950827 86.10038711 -92 85 C-89.11189385 80.90127792 -87.03459257 76.57147517 -85 72 C-85.66 71.01 -86.32 70.02 -87 69 C-87.88582713 60.90575463 -82.60949702 55.4912216 -78 49.32421875 C-73.06837026 43.28489874 -73.06837026 43.28489874 -68.25 42 C-67.1775 42 -66.105 42 -65 42 C-62.02399241 41.68240235 -61.18930827 41.22237521 -59.2109375 38.8984375 C-58.60507813 38.06570312 -57.99921875 37.23296875 -57.375 36.375 C-55.2734375 33.875 -55.2734375 33.875 -53 32 C-50.30002438 31.86285838 -48.07056195 32.36108034 -45.42578125 32.8828125 C-42.30535071 33.03355794 -41.47727769 32.32285138 -39.1875 30.25 C-37.7839989 28.84092945 -36.38906562 27.42330315 -35 26 C-33.08070517 24.26270727 -31.1546028 22.55602283 -29.1875 20.875 C-28.38856323 20.19014526 -28.38856323 20.19014526 -27.57348633 19.49145508 C-19.85600608 13.02551767 -11.38013498 7.55807497 -3 2 C-2.01 1.34 -1.02 0.68 0 0 Z " fill="#EDEDED" transform="translate(130,50)"/>
<path d="M0 0 C6.30336049 5.12017156 7.61007396 12.81405731 9.41796875 20.32617188 C10.90669638 26.14798424 12.70115271 30.88178141 17.6484375 34.66796875 C18.86273438 35.34472656 18.86273438 35.34472656 20.1015625 36.03515625 C21.40673828 36.80085938 21.40673828 36.80085938 22.73828125 37.58203125 C25.25358538 38.96095377 25.25358538 38.96095377 27.74609375 39.61328125 C30.30292941 40.40566996 31.5851076 40.86871233 33.3515625 42.91015625 C34.0118428 46.96167209 34.10738198 50.88568602 34.19140625 54.98046875 C34.39055905 59.86699854 34.80341012 63.39628554 38.3515625 66.91015625 C42.18220824 69.34576085 46.17342948 71.15314412 50.3515625 72.91015625 C52.06090996 73.65784204 53.7693738 74.40755442 55.4765625 75.16015625 C56.18039063 75.4540625 56.88421875 75.74796875 57.609375 76.05078125 C59.3515625 76.91015625 59.3515625 76.91015625 61.3515625 78.91015625 C61.51513672 81.38110352 61.51513672 81.38110352 61.40625 84.4765625 C61.36951172 86.16555664 61.36951172 86.16555664 61.33203125 87.88867188 C61.2625155 90.2509201 61.18458894 92.61293797 61.09765625 94.97460938 C60.92490828 103.92193819 62.17991695 111.17447882 68.5390625 117.84765625 C69.13332031 118.48832031 69.72757812 119.12898438 70.33984375 119.7890625 C71.00371094 120.48902344 71.66757813 121.18898438 72.3515625 121.91015625 C73.98112555 123.69767372 75.60603833 125.48944028 77.2265625 127.28515625 C77.98710937 128.11789062 78.74765625 128.950625 79.53125 129.80859375 C82.50140571 133.23765764 82.43266571 135.09525929 82.2734375 139.5546875 C81.58521623 157.38988736 81.58521623 157.38988736 87.3515625 173.91015625 C88.03834202 175.28879752 88.71890495 176.67054627 89.39453125 178.0546875 C90.76162682 180.84521842 92.15635913 183.61788713 93.58203125 186.37890625 C96.1188302 191.44130416 97.94928089 195.17205974 97.3515625 200.91015625 C95.90927801 204.55828761 94.78573796 205.68170122 91.29296875 207.51953125 C81.90685958 211.31103013 69.61399931 210.13629165 60.4140625 206.34765625 C58.00621859 205.2791356 55.6976467 204.11931253 53.3515625 202.91015625 C52.29324219 202.36875 51.23492187 201.82734375 50.14453125 201.26953125 C36.9437649 194.01673536 27.32742601 185.24897094 20.7265625 171.66015625 C16.01128792 162.01937192 9.37687513 158.20829199 0.3515625 152.91015625 C-1.67688255 151.69359193 -3.69837209 150.46531409 -5.7109375 149.22265625 C-6.56816406 148.70316406 -7.42539063 148.18367187 -8.30859375 147.6484375 C-11.93266119 144.95610026 -14.21916387 142.19797715 -15.6484375 137.91015625 C-15.67400245 135.4396691 -15.64412869 132.99876106 -15.5703125 130.53125 C-15.54302229 129.03713166 -15.51702336 127.54298928 -15.4921875 126.04882812 C-15.44922743 123.70726049 -15.39903848 121.36696284 -15.32617188 119.02612305 C-14.90926018 105.01342311 -17.82403502 96.65264742 -26.8984375 85.91015625 C-27.96751716 84.61962437 -29.03529157 83.32800975 -30.1015625 82.03515625 C-30.56723633 81.48085938 -31.03291016 80.9265625 -31.51269531 80.35546875 C-34.33548854 76.76326413 -34.20964168 73.20298924 -34.21484375 68.765625 C-33.62896738 64.77762515 -32.45963823 61.99630121 -30.78369141 58.3840332 C-24.91497364 45.59527682 -24.99702675 33.87938924 -25.50585938 20.0859375 C-25.53065872 19.31983154 -25.55545807 18.55372559 -25.58100891 17.7644043 C-25.63234151 16.31858073 -25.69911203 14.87319096 -25.78410339 13.42895508 C-25.95833109 9.00441054 -25.36698446 6.42050917 -22.6484375 2.91015625 C-16.32438024 -2.17658546 -7.56642387 -3.1136169 0 0 Z " fill="#FDDE80" transform="translate(82.6484375,223.08984375)"/>
<path d="M0 0 C0.84664719 -0.00761353 1.69329437 -0.01522705 2.56559753 -0.02307129 C4.34456458 -0.03380147 6.12359425 -0.0367545 7.90258789 -0.03222656 C10.58915005 -0.0312559 13.27283423 -0.07292246 15.95898438 -0.1171875 C25.90387997 -0.18520224 33.90654449 0.48088606 42.79296875 5.46875 C43.86546875 6.066875 44.93796875 6.665 46.04296875 7.28125 C56.17664288 15.34212715 62.81181457 24.42549019 64.79296875 37.46875 C65.10817244 42.38227494 65.14781679 47.2928205 65.1640625 52.21484375 C65.17305121 53.63534121 65.18217338 55.05583783 65.19142151 56.47633362 C65.20782216 59.44070724 65.21559568 62.40496909 65.21850586 65.36938477 C65.22389298 69.14301421 65.26162342 72.91557504 65.30725002 76.68890285 C65.33717713 79.61883776 65.34423271 82.54851946 65.34523201 85.47859383 C65.34940022 86.86871316 65.36169573 88.25883567 65.38274956 89.6488018 C65.51215134 98.92610981 64.87899362 107.20878543 58.13768005 114.1806488 C56.48046875 115.59375 56.48046875 115.59375 53.79296875 117.46875 C52.79837646 116.81970703 51.80378418 116.17066406 50.77905273 115.50195312 C44.27206812 112.27412861 37.10309534 112.89347728 30.015625 112.9375 C28.47919978 112.93480041 26.94277623 112.93091412 25.40635681 112.92590332 C22.19627514 112.92002834 18.98664072 112.92850466 15.77661133 112.94726562 C11.68346245 112.97003527 7.59136409 112.95693289 3.49825382 112.93297577 C0.32812237 112.91844658 -2.84176451 112.92315643 -6.01190376 112.93348694 C-7.52002655 112.93613563 -9.0281723 112.9329506 -10.53626823 112.92356873 C-18.7938379 112.88346666 -25.96136105 113.06645251 -33.20703125 117.46875 C-42.63924579 107.68060283 -43.67063786 99.46422348 -43.640625 86.01171875 C-43.6451983 84.61843108 -43.65050724 83.22514565 -43.6565094 81.8318634 C-43.66539931 78.92289015 -43.66306629 76.014192 -43.65307617 73.10522461 C-43.64161246 69.41035744 -43.66177792 65.71644978 -43.69099331 62.02170849 C-43.70950376 59.14657231 -43.70903335 56.27165959 -43.70335579 53.39647865 C-43.70313151 51.38271104 -43.71989556 49.36896394 -43.73716736 47.35527039 C-43.63121864 33.22223475 -39.55566058 22.01826626 -29.83203125 11.71875 C-21.2953095 3.63132939 -11.68577923 0.00297615 0 0 Z " fill="#F48852" transform="translate(245.20703125,172.53125)"/>
<path d="M0 0 C2.74390516 2.00230917 3.8602354 3.11436295 4.39453125 6.5 C3.81714397 11.62216835 1.61042959 15.70979456 -0.625 20.3125 C-23.82974093 69.96193516 -29.68239026 129.0995427 -14 182 C-13.58674376 183.51774077 -13.17539879 185.0360028 -12.765625 186.5546875 C-5.70652526 212.05935527 5.55306793 236.4735525 21 258 C22.02480469 259.43472656 22.02480469 259.43472656 23.0703125 260.8984375 C43.49542974 288.79080191 69.08137893 311.95752164 99.21728516 328.99121094 C100.94908464 329.97118841 102.66814787 330.97356727 104.38671875 331.9765625 C130.63301182 346.94041134 160.24956732 354.94795943 190 359 C190.69488525 359.1038501 191.38977051 359.2077002 192.10571289 359.31469727 C199.83635385 360.35004276 207.65277271 360.19886564 215.4375 360.1875 C216.57924179 360.18659363 216.57924179 360.18659363 217.74404907 360.18566895 C228.95714737 360.16147576 239.9201879 359.80464801 251 358 C252.3298291 357.79866455 252.3298291 357.79866455 253.68652344 357.59326172 C293.95270351 351.46992716 333.55254846 335.72812307 365.43359375 310.0390625 C368.46490578 307.59796813 370.31785748 306.13375344 374.1875 305.375 C377.84345168 306.18743371 379.53107856 307.16800188 382 310 C382.9375 313.1875 382.9375 313.1875 382 317 C354.97549539 352.14585833 292.99522524 369.07484727 251.40290833 374.81359863 C241.17406293 376.13387918 231.00400166 376.33922495 220.69995117 376.31567383 C217.83277988 376.31252229 214.96665369 376.33605161 212.09960938 376.36132812 C198.84916934 376.40665614 186.06537654 375.17267291 173 373 C171.29348267 372.71781616 171.29348267 372.71781616 169.55249023 372.42993164 C108.62382166 361.47784445 49.33110495 325.47412338 13 275 C12.14823199 273.85335128 11.29534537 272.70753275 10.44140625 271.5625 C4.39335442 263.36932634 -0.96733588 254.84832238 -6 246 C-6.36448242 245.36819824 -6.72896484 244.73639648 -7.10449219 244.08544922 C-20.52796007 220.63288551 -28.88099623 194.88419353 -34.3125 168.5 C-34.45993652 167.78481201 -34.60737305 167.06962402 -34.75927734 166.33276367 C-37.69409885 150.99634295 -38.40748514 135.76642382 -38.375 120.1875 C-38.37445618 119.20165924 -38.37391235 118.21581848 -38.37335205 117.20010376 C-38.33199259 100.83284135 -37.36539509 85.06630394 -34 69 C-33.78569336 67.9672998 -33.57138672 66.93459961 -33.35058594 65.87060547 C-29.32293994 47.11303141 -22.95076347 29.32879101 -15.1875 11.8125 C-14.81455811 10.96848633 -14.44161621 10.12447266 -14.05737305 9.25488281 C-13.70199463 8.4759668 -13.34661621 7.69705078 -12.98046875 6.89453125 C-12.67004639 6.21237549 -12.35962402 5.53021973 -12.03979492 4.82739258 C-9.15570355 -0.24126766 -5.62735469 -1.78428319 0 0 Z " fill="#010101" transform="translate(38,136)"/>
<path d="M0 0 C0.33 0 0.66 0 1 0 C1.02578125 0.83660156 1.0515625 1.67320312 1.078125 2.53515625 C1.77573296 16.8519742 4.18223103 31.74540866 14.9375 42.0625 C37.02360535 60.45539899 65.64769043 66.08140056 93.52734375 67.546875 C94.75801575 67.61334229 94.75801575 67.61334229 96.0135498 67.68115234 C98.0089634 67.78873748 100.00447208 67.8945567 102 68 C102.00586624 68.56661346 102.01173248 69.13322693 102.01777649 69.7170105 C102.08209246 75.65540699 102.16660688 81.59328053 102.26245117 87.53125 C102.29554802 89.74244254 102.32362656 91.95371647 102.34643555 94.16503906 C102.38026297 97.35777218 102.43259209 100.54976958 102.48828125 103.7421875 C102.49467117 104.71864227 102.5010611 105.69509705 102.50764465 106.70114136 C102.68450714 115.10208686 104.31208058 122.94471578 108.75 130.1875 C109.19859375 130.94417969 109.6471875 131.70085937 110.109375 132.48046875 C111.79999093 134.97863546 111.79999093 134.97863546 113.76147461 136.31958008 C117.22787618 139.0461449 118.83523645 140.83746347 119.46826172 145.30395508 C119.47290164 149.3259962 119.3236503 153.30053756 119.0625 157.3125 C118.42511616 167.42843683 118.49627007 174.69183991 125 183 C125.66 183.99 126.32 184.98 127 186 C125.99088542 187.66015625 124.98177083 189.3203125 123.97265625 190.98046875 C120.63776148 197.90472817 120.90524548 207.59718293 122.71875 214.890625 C124.73238174 220.1845278 127.51947052 224.55265677 131 229 C129.99088542 230.72526042 128.98177083 232.45052083 127.97265625 234.17578125 C124.61716003 240.46902115 125.07436826 248.58445929 126.89453125 255.30078125 C127.85235303 257.9102533 128.86182238 260.46450611 130 263 C128.9378125 263.50789063 127.875625 264.01578125 126.78125 264.5390625 C116.61499275 269.43289548 116.61499275 269.43289548 107.3828125 275.87109375 C106 277 106 277 104 278 C105.12451727 275.0280615 106.22293791 272.66559313 108 270 C111.76586485 257.19605951 105.7979927 246.07970302 99.8125 235 C99.13182883 233.77065698 98.45085447 232.54148176 97.76953125 231.3125 C94.94791409 226.03053233 93.75441487 222.49416758 93.9453125 216.44921875 C93.98205078 214.56493164 93.98205078 214.56493164 94.01953125 212.64257812 C94.08953736 210.01734906 94.16759182 207.3923216 94.25390625 204.76757812 C94.43465605 194.37446462 92.87390246 188.55657239 85.6875 181 C84.90761719 180.16339844 84.12773437 179.32679688 83.32421875 178.46484375 C82.55722656 177.65144531 81.79023438 176.83804688 81 176 C79.65808025 174.52861861 78.32386737 173.05014478 77 171.5625 C76.443125 170.94503906 75.88625 170.32757813 75.3125 169.69140625 C72.72544985 166.35749936 72.93091198 163.37277443 73.078125 159.3359375 C73.10390625 158.21316406 73.1296875 157.09039062 73.15625 155.93359375 C73.21814529 153.58415174 73.29595469 151.23506845 73.390625 148.88671875 C73.52624983 141.45278289 72.8969976 135.83910535 68 130 C65.3030417 127.85983301 65.3030417 127.85983301 62.25 126.6875 C61.20714844 126.2234375 60.16429687 125.759375 59.08984375 125.28125 C58.07019531 124.8584375 57.05054688 124.435625 56 124 C54.26956737 123.23201283 52.54023934 122.46152723 50.8125 121.6875 C50.09707031 121.38199219 49.38164062 121.07648438 48.64453125 120.76171875 C47 120 47 120 46 119 C45.86649328 116.64731487 45.76870932 114.29257037 45.6875 111.9375 C45.31304351 105.06598021 44.61941506 99.47839889 39.49609375 94.5546875 C35.71667789 91.62585943 31.57875713 89.83726729 27.11328125 88.1875 C23.02897728 85.89243825 21.2995467 82.94910136 19.91015625 78.546875 C19.63042969 77.29390625 19.35070312 76.0409375 19.0625 74.75 C16.51026958 64.22092898 12.28762485 56.09500381 3 50 C-1.40951154 47.81569651 -5.4879696 47.58195037 -10.3125 47.375 C-11.05306641 47.33632812 -11.79363281 47.29765625 -12.55664062 47.2578125 C-14.37071309 47.16418295 -16.18532116 47.08103149 -18 47 C-17.50048454 40.11778697 -16.01948366 34.40629207 -13.5 28 C-13.15195313 27.09805908 -12.80390625 26.19611816 -12.4453125 25.2668457 C-8.96164121 16.47968637 -4.65204404 8.21645742 0 0 Z " fill="#E0E0E0" transform="translate(85,160)"/>
<path d="M0 0 C0.68803711 0.13390137 1.37607422 0.26780273 2.08496094 0.40576172 C5.99326815 1.20505608 9.82962666 2.18702125 13.65625 3.31201172 C15.4284216 3.83221792 17.20535337 4.33624468 18.984375 4.83251953 C22.29393824 5.7663033 25.5843308 6.7518352 28.875 7.75 C29.94089355 8.04865967 31.00678711 8.34731934 32.10498047 8.6550293 C39.32895353 10.94377226 39.32895353 10.94377226 41.11181641 13.75 C41.69606154 15.87948181 41.90412327 17.79533189 42 20 C42.07105957 20.70737305 42.14211914 21.41474609 42.21533203 22.14355469 C42.41239694 24.263334 42.53048316 26.37337113 42.625 28.5 C42.68300781 29.59054688 42.68300781 29.59054688 42.7421875 30.703125 C42.83509655 32.46839688 42.9185657 34.23416157 43 36 C38.58559247 34.57417859 35.57879601 32.18866422 32.25 29.0625 C31.72921875 28.57958496 31.2084375 28.09666992 30.671875 27.59912109 C24.77951249 22.01906824 19.85660533 15.72273237 14.92578125 9.296875 C12.5035605 6.40789772 10.55346871 5.25416543 7 4 C3.43808422 3.59185595 3.43808422 3.59185595 0 5 C-6.23581358 11.27775851 -7.50401446 17.47976856 -7.58496094 26.0715332 C-6.81610118 55.70992932 13.64076003 86.5815762 34 107 C36.3678718 109.14940743 38.75552637 111.24687166 41.22265625 113.28125 C43.08710143 115.08422995 43.90793804 116.67490681 45 119 C41.14686872 119.23382288 37.29557088 119.37489753 33.4375 119.5 C32.35146484 119.56703125 31.26542969 119.6340625 30.14648438 119.703125 C22.15956726 119.89733575 22.15956726 119.89733575 18.84301758 117.33081055 C17.09997114 115.29255738 15.55459279 113.1834257 14 111 C2.77829951 101.09270074 -10.78923838 95.70226606 -25.66796875 95.6640625 C-26.58403397 95.6574057 -27.50009918 95.6507489 -28.44392395 95.64389038 C-30.37608852 95.6338045 -32.30828765 95.6290721 -34.24047852 95.62939453 C-37.16157089 95.62503866 -40.08112917 95.58872363 -43.00195312 95.55078125 C-60.66498638 95.44263156 -74.81168977 99.42412249 -88.40234375 111.34765625 C-90.22944962 113.11586866 -90.22944962 113.11586866 -91.921875 116.16015625 C-93.78483219 118.42459173 -94.72299311 118.94945651 -97.65063477 119.48364258 C-100.89030105 119.59097397 -104.0745391 119.52261014 -107.3125 119.375 C-108.99569336 119.33439453 -108.99569336 119.33439453 -110.71289062 119.29296875 C-113.47722459 119.22239001 -116.23762415 119.12384488 -119 119 C-116.70327324 115.37198472 -114.58380541 112.33888292 -111.25 109.625 C-89.11123887 90.79479911 -69.81754782 59.2509703 -66.78125 29.88427734 C-66.12249542 20.80375714 -66.5249307 13.65964647 -72.328125 6.3203125 C-74.59668114 4.52878919 -76.07704196 4.63158127 -78.9375 4.6875 C-80.21947266 4.69330078 -80.21947266 4.69330078 -81.52734375 4.69921875 C-84.19429526 5.02363465 -85.78072709 5.4901275 -88 7 C-88.67319759 8.33004783 -89.33909056 9.66380356 -90 11 C-91.87108063 13.50358408 -93.94522105 15.83326762 -96 18.1875 C-96.5787085 18.85225342 -97.15741699 19.51700684 -97.75366211 20.2019043 C-109.70814711 33.74264168 -109.70814711 33.74264168 -117 37 C-116.88519969 34.14509764 -116.75847036 31.2915412 -116.625 28.4375 C-116.5940625 27.63763672 -116.563125 26.83777344 -116.53125 26.01367188 C-116.05848471 16.36138053 -116.05848471 16.36138053 -114 12 C-111.4198159 10.20572052 -108.66820866 9.31737096 -105.6875 8.375 C-104.84372803 8.08850586 -103.99995605 7.80201172 -103.13061523 7.50683594 C-93.57378924 4.35961516 -83.85375625 2.00042897 -74 0 C-73.22172852 -0.16516113 -72.44345703 -0.33032227 -71.64160156 -0.50048828 C-48.53360939 -5.26497195 -23.0857606 -4.51208294 0 0 Z " fill="#E0E0E0" transform="translate(293,63)"/>
<path d="M0 0 C-0.57954346 4.05568615 -1.47525975 7.66394445 -2.92578125 11.4921875 C-3.30863281 12.51948975 -3.69148438 13.54679199 -4.0859375 14.60522461 C-4.49070312 15.68425049 -4.89546875 16.76327637 -5.3125 17.875 C-15.77028024 46.36379131 -18.826523 74.92870973 -9.8125 104.3125 C-6.51544725 115.46392165 -7.35012719 125.31714774 -12 136 C-19.12286751 148.65356464 -31.1202076 158.12039234 -44.92578125 162.62890625 C-51.6419798 163.83048603 -59.58916772 164.65618955 -65.5 160.75 C-71.73174777 155.13472621 -75.57866968 146.26287622 -76.13696289 137.96411133 C-78.04200644 93.90940535 -55.74389718 51.98308806 -28 19 C-27.44054687 18.30648437 -26.88109375 17.61296875 -26.3046875 16.8984375 C-20.05281695 9.36711437 -10.55973901 -0.93174168 0 0 Z " fill="#F38752" transform="translate(177,33)"/>
<path d="M0 0 C10.2640091 0.43676634 18.02579936 8.03797074 25 15 C28.1982566 18.51866482 31.13630841 22.20748309 34 26 C34.44714355 26.58861816 34.89428711 27.17723633 35.35498047 27.78369141 C59.10546925 59.37763031 79.00002276 98.50358889 76 139 C74.68507908 147.47457847 71.56392973 155.49861217 64.6875 160.875 C58.11666857 164.67722268 49.50210804 164.18685912 42.34765625 162.30078125 C40.08771349 161.35946942 38.08282004 160.2848047 36 159 C34.89785156 158.34644531 34.89785156 158.34644531 33.7734375 157.6796875 C21.84230199 150.17660228 13.91705245 141.30826161 9 128 C8.63025266 125.11941025 8.43006414 122.56331708 8.4375 119.6875 C8.43459961 118.46522705 8.43459961 118.46522705 8.43164062 117.21826172 C8.60771135 110.05938594 10.19356331 103.52600583 12 96.625 C19.97891744 65.33485514 13.32177921 34.57594162 0.8894043 5.39306641 C0 3 0 3 0 0 Z " fill="#F38852" transform="translate(335,33)"/>
<path d="M0 0 C6.30336049 5.12017156 7.61007396 12.81405731 9.41796875 20.32617188 C10.90669638 26.14798424 12.70115271 30.88178141 17.6484375 34.66796875 C18.86273438 35.34472656 18.86273438 35.34472656 20.1015625 36.03515625 C21.40673828 36.80085938 21.40673828 36.80085938 22.73828125 37.58203125 C25.25358538 38.96095377 25.25358538 38.96095377 27.74609375 39.61328125 C30.30292941 40.40566996 31.5851076 40.86871233 33.3515625 42.91015625 C34.0118428 46.96167209 34.10738198 50.88568602 34.19140625 54.98046875 C34.39055905 59.86699854 34.80341012 63.39628554 38.3515625 66.91015625 C42.18220824 69.34576085 46.17342948 71.15314412 50.3515625 72.91015625 C52.06090996 73.65784204 53.7693738 74.40755442 55.4765625 75.16015625 C56.18039063 75.4540625 56.88421875 75.74796875 57.609375 76.05078125 C59.3515625 76.91015625 59.3515625 76.91015625 61.3515625 78.91015625 C61.51513672 81.38110352 61.51513672 81.38110352 61.40625 84.4765625 C61.36951172 86.16555664 61.36951172 86.16555664 61.33203125 87.88867188 C61.2625155 90.2509201 61.18458894 92.61293797 61.09765625 94.97460938 C60.92490828 103.92193819 62.17991695 111.17447882 68.5390625 117.84765625 C69.13332031 118.48832031 69.72757812 119.12898438 70.33984375 119.7890625 C71.00371094 120.48902344 71.66757813 121.18898438 72.3515625 121.91015625 C73.98112555 123.69767372 75.60603833 125.48944028 77.2265625 127.28515625 C77.98710937 128.11789062 78.74765625 128.950625 79.53125 129.80859375 C82.50140571 133.23765764 82.43266571 135.09525929 82.2734375 139.5546875 C81.58521623 157.38988736 81.58521623 157.38988736 87.3515625 173.91015625 C88.03834202 175.28879752 88.71890495 176.67054627 89.39453125 178.0546875 C90.76162682 180.84521842 92.15635913 183.61788713 93.58203125 186.37890625 C96.1188302 191.44130416 97.94928089 195.17205974 97.3515625 200.91015625 C95.9420719 204.47533836 94.68885212 205.70204138 91.4140625 207.72265625 C86.28893504 209.68876118 80.74421639 209.14923943 75.3515625 208.91015625 C75.25359375 207.99234375 75.155625 207.07453125 75.0546875 206.12890625 C74.17164956 198.88190524 73.11910653 193.1893963 69.3515625 186.91015625 C68.61550781 187.05195313 67.87945312 187.19375 67.12109375 187.33984375 C59.40243929 188.50223029 59.40243929 188.50223029 56.47265625 186.8515625 C54.17313902 184.32930002 53.3763039 182.21323841 53.1015625 178.84765625 C54.84334628 174.75446436 57.60194726 173.12272295 61.3515625 170.91015625 C61.0215625 170.25015625 60.6915625 169.59015625 60.3515625 168.91015625 C60.30189281 166.88602432 60.31532174 164.86019946 60.359375 162.8359375 C60.38451172 160.99805664 60.38451172 160.99805664 60.41015625 159.12304688 C60.45409713 156.54216623 60.50605787 153.9614085 60.56640625 151.38085938 C60.66770691 142.58151527 60.26805903 136.59533006 54.1015625 129.91015625 C53.49054688 129.23855469 52.87953125 128.56695312 52.25 127.875 C50.45543011 126.01765709 48.60294027 124.24661165 46.7265625 122.47265625 C40.76982894 116.48902998 38.05767124 111.41698185 38.0390625 102.84765625 C38.11845658 100.86734113 38.21404962 98.88728589 38.3515625 96.91015625 C36.8665625 97.37421875 36.8665625 97.37421875 35.3515625 97.84765625 C32.5171841 98.29305857 31.57862806 98.05979486 29.140625 96.453125 C27.12937504 94.67059119 25.21484564 92.84615288 23.3515625 90.91015625 C23.0215625 90.58015625 22.6915625 90.25015625 22.3515625 89.91015625 C21.89441964 82.82444196 21.89441964 82.82444196 23.3515625 79.91015625 C26.62918927 78.27134287 29.83492065 78.1438841 33.3515625 78.91015625 C36.3515625 81.41015625 36.3515625 81.41015625 38.3515625 83.91015625 C36.97560915 78.95672419 34.6960362 77.47642676 30.3515625 74.91015625 C26.80042288 73.54980878 23.21672179 72.40702415 19.59375 71.25390625 C16.27152066 69.87698228 14.58668612 68.69069282 12.3515625 65.91015625 C10.93642452 61.6647423 11.07048586 57.33534598 11.00976562 52.890625 C10.81119624 47.9310083 10.0114914 45.28901218 6.3515625 41.91015625 C4.03268001 40.63048689 1.82936849 39.51869499 -0.5859375 38.47265625 C-6.55408342 35.82369309 -11.0530856 33.04627167 -13.45385742 26.82202148 C-14.14056205 24.51010759 -14.72623797 22.19637535 -15.2734375 19.84765625 C-16.52482635 14.66876658 -17.69608719 10.42400976 -20.6484375 5.91015625 C-20.6484375 5.25015625 -20.6484375 4.59015625 -20.6484375 3.91015625 C-21.3084375 3.58015625 -21.9684375 3.25015625 -22.6484375 2.91015625 C-16.08261802 -1.97603499 -7.71307362 -3.17396392 0 0 Z " fill="#FCD24E" transform="translate(82.6484375,223.08984375)"/>
<path d="M0 0 C2.14073266 2.71426709 3.80343509 5.38091515 5.3046875 8.4921875 C5.92875488 9.78527832 5.92875488 9.78527832 6.56542969 11.10449219 C19.93038533 39.37919701 26.08624639 67.45358164 26.25 98.625 C26.25553894 99.32658234 26.26107788 100.02816467 26.26678467 100.75100708 C26.30907075 108.07733845 26.27741648 114.96892849 24 122 C16.42596107 120.39347534 12.04017532 113.12992118 8 107 C2.2122298 101.51684928 -3.56581289 100.5588086 -11.3125 100.6640625 C-15.30331384 101.16291423 -17.65713883 102.81690699 -21 105 C-22.32 105 -23.64 105 -25 105 C-25.02578125 104.07058594 -25.0515625 103.14117187 -25.078125 102.18359375 C-25.44788458 92.36104322 -25.44788458 92.36104322 -30 84 C-31.17558462 83.06810149 -32.36390639 82.15211274 -33.5625 81.25 C-37.65717937 78.0246793 -38.17909669 74.50155557 -39.24609375 69.5625 C-40.33042891 65.8768841 -42.10527647 64.4253089 -45 62 C-45 61.34 -45 60.68 -45 60 C-43.86304688 59.52691406 -42.72609375 59.05382812 -41.5546875 58.56640625 C-20.34171028 49.94239446 -20.34171028 49.94239446 -6 33 C-1.65013431 22.22374257 -0.17103129 11.55238627 0 0 Z " fill="#E0E0E0" transform="translate(426,159)"/>
<path d="M0 0 C0.75941895 0.1124707 1.51883789 0.22494141 2.30126953 0.34082031 C11.36425182 1.68499297 20.2313033 3.2766823 29 6 C28.99097656 6.64582031 28.98195313 7.29164062 28.97265625 7.95703125 C29.23168573 16.18966374 31.56629714 23.01414251 34.56079102 30.5871582 C34.87201904 31.37437256 35.18324707 32.16158691 35.50390625 32.97265625 C35.79080322 33.67656494 36.0777002 34.38047363 36.37329102 35.10571289 C37 37 37 37 37 40 C32.0347821 38.99012517 27.3485443 37.78573122 22.5625 36.125 C12.5819633 32.95638728 2.09922502 31.83268681 -8.24316406 30.39233398 C-10.33640643 30.09443809 -12.42390057 29.75581215 -14.5078125 29.3984375 C-42.98554953 26.14929972 -72.88989837 30.03815301 -99.97265625 39.046875 C-103 40 -103 40 -105 40 C-104.56808366 38.47757149 -104.12912438 36.95714081 -103.6875 35.4375 C-103.44386719 34.59058594 -103.20023438 33.74367187 -102.94921875 32.87109375 C-102 30 -102 30 -100.46875 26.71875 C-98.78001566 22.44301837 -98.23682271 18.60547798 -97.8125 14.0625 C-97.73064453 13.28326172 -97.64878906 12.50402344 -97.56445312 11.70117188 C-97.36635829 9.80179203 -97.18176159 7.90101238 -97 6 C-65.62610853 -2.42632117 -32.2154918 -5.09753327 0 0 Z " fill="#ECECEC" transform="translate(290,17)"/>
<path d="M0 0 C-0.57954346 4.05568615 -1.47525975 7.66394445 -2.92578125 11.4921875 C-3.50005859 13.03314087 -3.50005859 13.03314087 -4.0859375 14.60522461 C-4.49070313 15.68425049 -4.89546875 16.76327637 -5.3125 17.875 C-15.77028024 46.36379131 -18.826523 74.92870973 -9.8125 104.3125 C-6.51544725 115.46392165 -7.35012719 125.31714774 -12 136 C-19.18235304 148.75923892 -31.10275427 157.90342261 -44.89453125 162.65234375 C-48.02186986 163.16873176 -51.0840613 163.09181425 -54.25 163.0625 C-55.51328125 163.05347656 -56.7765625 163.04445312 -58.078125 163.03515625 C-59.04234375 163.02355469 -60.0065625 163.01195312 -61 163 C-61 162.67 -61 162.34 -61 162 C-60.113125 161.75636719 -59.22625 161.51273438 -58.3125 161.26171875 C-47.96359431 157.31985963 -39.89875057 146.34783865 -35.078125 136.72265625 C-29.13823605 121.72228452 -31.79764683 107.03493937 -36.42749023 92.15551758 C-40.79024951 75.72958939 -39.37304269 54.32996572 -35 38 C-34.57074219 36.31970703 -34.57074219 36.31970703 -34.1328125 34.60546875 C-33.45959706 32.05686745 -32.75443668 29.52549017 -32 27 C-32.66 27.33 -33.32 27.66 -34 28 C-29.03327373 16.99127682 -13.12467322 -1.1580594 0 0 Z " fill="#E37A46" transform="translate(177,33)"/>
<path d="M0 0 C10.2640091 0.43676634 18.02579936 8.03797074 25 15 C28.1982566 18.51866482 31.13630841 22.20748309 34 26 C34.44714355 26.58861816 34.89428711 27.17723633 35.35498047 27.78369141 C59.10546925 59.37763031 79.00002276 98.50358889 76 139 C74.68507908 147.47457847 71.56392973 155.49861217 64.6875 160.875 C58.79691031 164.38691347 51.60380965 163.38694197 45 163 C45.99792467 160.49400083 47.00322261 157.9922171 48.03515625 155.5 C48.37417969 154.675 48.71320313 153.85 49.0625 153 C49.40410156 152.175 49.74570312 151.35 50.09765625 150.5 C59.29687723 125.01298082 48.16716129 91.49993946 37.54931641 68.07006836 C29.98474213 51.96884364 21.09796683 35.20654546 9 22 C8.34 22 7.68 22 7 22 C5.82538445 18.89878289 4.66169544 15.79357759 3.5 12.6875 C3.16613281 11.80642578 2.83226562 10.92535156 2.48828125 10.01757812 C2.17246094 9.17001953 1.85664063 8.32246094 1.53125 7.44921875 C1.23798828 6.66893311 0.94472656 5.88864746 0.64257812 5.0847168 C0 3 0 3 0 0 Z " fill="#E47B46" transform="translate(335,33)"/>
<path d="M0 0 C3.27789028 0.57006787 4.56992377 1.11543838 6.875 3.5 C7.308125 4.428125 7.74125 5.35625 8.1875 6.3125 C10.07431716 9.87648797 12.07630735 11.63500924 15.17578125 14.1171875 C16.875 15.5 16.875 15.5 19 17.75 C21.15577502 19.76205669 23.14390195 20.44957767 25.875 21.5 C27.5625 22.6328125 27.5625 22.6328125 28.875 24.5 C28.80859375 27.64453125 28.80859375 27.64453125 28.3125 31.3125 C27.57622895 37.05499819 27.57622895 37.05499819 29.6875 42.1875 C30.409375 42.950625 31.13125 43.71375 31.875 44.5 C33.875 47.5 33.875 47.5 33.8125 50.875 C32.68280923 55.24313763 31.53151528 56.87684774 27.875 59.5 C23.96885318 60.05802097 21.82388329 60.08392818 18.4375 58 C14.91001718 55.93513201 11.87868521 55.85318787 7.875 56.5 C7.029375 57.015625 6.18375 57.53125 5.3125 58.0625 C2.875 59.5 2.875 59.5 -0.625 59.625 C-4.8427144 58.26930609 -5.87303674 56.77289445 -8.08203125 53.09375 C-9.04513774 51.33012745 -9.04513774 51.33012745 -11.125 50.5 C-13.0634456 50.55726575 -15.00105658 50.64494018 -16.9375 50.75 C-22.70259 50.7844802 -22.70259 50.7844802 -26.1875 48.4375 C-28.32423964 45.197927 -29.63969153 42.07824314 -31.125 38.5 C-33.8655062 36.67299587 -34.99689957 36.20163885 -38.0625 35.625 C-41.78429627 34.7629663 -43.72136422 33.57665379 -46.125 30.5 C-47.55162219 27.64675563 -47.43533868 25.66545451 -47.125 22.5 C-44.91513145 18.28116004 -42.44036038 17.12710184 -38.125 15.625 C-34.41890794 14.29711973 -32.55330412 13.3888101 -30.6875 9.875 C-29.9140625 8.204375 -29.9140625 8.204375 -29.125 6.5 C-25.45634759 4.05423173 -23.45299657 4.26392746 -19.125 4.5 C-18.465 4.83 -17.805 5.16 -17.125 5.5 C-12.04057348 6.17028118 -12.04057348 6.17028118 -7.4765625 4.3828125 C-6.98929687 3.92648437 -6.50203125 3.47015625 -6 3 C-3.125 0.5 -3.125 0.5 0 0 Z " fill="#57C447" transform="translate(418.125,273.5)"/>
<path d="M0 0 C3.70713777 1.23571259 4.9315495 2.73821267 7 6 C7 6.66 7 7.32 7 8 C8.03125 8.226875 9.0625 8.45375 10.125 8.6875 C13.25395971 9.55909399 14.31595529 10.26889812 16.9375 12.5 C19.80495077 14.84077614 20.78441974 15.39221994 24.1875 16.125 C29.04275738 17.23932137 29.04275738 17.23932137 31 20 C31.22265625 22.55859375 31.22265625 22.55859375 31.0625 25.4375 C30.85951024 29.2630763 30.8476524 31.7533612 33 35 C34.64821244 36.03013277 36.31503702 37.03114628 38 38 C40.51132854 41.76699281 40.15404338 43.51241424 39.52734375 47.8359375 C39 50 39 50 37.4375 52.5625 C33.79592939 54.71009293 31.19781124 54.33853316 27 54 C26.34 53.67 25.68 53.34 25 53 C19.73811901 52.27324952 19.73811901 52.27324952 15.09375 54.33984375 C13.91923899 55.43450861 12.74982353 56.53466995 11.5859375 57.640625 C10 59 10 59 7.4375 59.75 C4.70194944 58.90829214 4.10032064 58.15615047 2.25 56.0625 C-0.88882042 52.58767008 -3.58577312 52.20796457 -8.14453125 51.91015625 C-10.01650115 51.79247431 -10.01650115 51.79247431 -11 53 C-18.26040062 53.46841294 -18.26040062 53.46841294 -20.875 51.8125 C-22 50 -22 50 -23 47.4375 C-23.86272409 44.68761678 -23.86272409 44.68761678 -27 43 C-28.45767916 42.95632422 -29.91720995 42.96019686 -31.375 43 C-33.76953125 42.81640625 -33.76953125 42.81640625 -36 42 C-38.30403148 38.9014749 -39.69304132 35.618765 -41 32 C-40.43732422 31.34257812 -40.43732422 31.34257812 -39.86328125 30.671875 C-35.81710213 25.65746662 -33.45876381 20.68898772 -31.2734375 14.63671875 C-29.82657968 11.64092419 -28.9553394 10.51050681 -26 9 C-22.72265625 8.6640625 -22.72265625 8.6640625 -19.0625 8.625 C-13.52766401 8.43027107 -13.52766401 8.43027107 -8.875 5.625 C-8.25625 4.75875 -7.6375 3.8925 -7 3 C-4.44011936 0.52269616 -3.61186134 0 0 0 Z " fill="#57C547" transform="translate(341,313)"/>
<path d="M0 0 C1.89755791 -0.01925285 1.89755791 -0.01925285 3.83345032 -0.03889465 C5.22123829 -0.04706227 6.60903069 -0.05450596 7.99682617 -0.0612793 C9.04383981 -0.06739259 9.04383981 -0.06739259 10.11200523 -0.07362938 C13.80708902 -0.09449026 17.50213568 -0.10879138 21.19726562 -0.11816406 C25.01063097 -0.12922377 28.82341202 -0.16361758 32.63657093 -0.20333576 C35.57143729 -0.22950496 38.50616455 -0.23785615 41.44113731 -0.24144554 C42.84654368 -0.24631145 44.25194384 -0.25792575 45.6572361 -0.27648354 C47.62681613 -0.30087456 49.59668039 -0.2974902 51.56640625 -0.29296875 C53.24613274 -0.30176811 53.24613274 -0.30176811 54.95979309 -0.31074524 C58.65993227 0.28734305 60.3014937 1.6077983 62.97729492 4.17700195 C65.83158656 8.50826427 65.30779586 13.09943971 65.28979492 18.11450195 C65.3059082 19.0084668 65.32202148 19.90243164 65.33862305 20.82348633 C65.34224847 25.70693649 65.32775142 29.33018153 61.97729492 33.17700195 C58.14731297 35.93769134 55.4884388 36.554773 50.79760742 36.56518555 C49.57283691 36.57464203 48.34806641 36.58409851 47.08618164 36.59384155 C45.77149902 36.58776886 44.45681641 36.58169617 43.10229492 36.57543945 C41.73136236 36.57746214 40.36043085 36.58037519 38.98950195 36.58413696 C36.12139607 36.58855123 33.25357117 36.58215859 30.38549805 36.56811523 C26.71686433 36.55102343 23.04888912 36.56086949 19.38027954 36.57883263 C16.55089392 36.58969501 13.72166334 36.58621297 10.89227295 36.57844925 C8.88431366 36.57548669 6.87634825 36.58456661 4.8684082 36.59384155 C3.03125244 36.57965683 3.03125244 36.57965683 1.15698242 36.56518555 C0.08174316 36.56279877 -0.99349609 36.56041199 -2.10131836 36.55795288 C-5.46329178 36.11954913 -7.31390772 35.18943604 -10.02270508 33.17700195 C-13.12170587 28.52850076 -12.39127962 23.77006776 -12.39770508 18.30200195 C-12.42219727 17.21274414 -12.44668945 16.12348633 -12.47192383 15.0012207 C-12.50136778 6.98265234 -12.50136778 6.98265234 -10.12426758 2.98168945 C-6.64768019 -0.0037815 -4.52579849 0.03987083 0 0 Z " fill="#E57B46" transform="translate(230.022705078125,299.822998046875)"/>
<path d="M0 0 C10.86115553 -0.96211023 20.42638857 2.18008182 29 9 C37.85166496 16.55629935 43.24034007 25.41498463 45 37 C45.31520369 41.91352494 45.35484804 46.8240705 45.37109375 51.74609375 C45.38008246 53.16659121 45.38920463 54.58708783 45.39845276 56.00758362 C45.41485341 58.97195724 45.42262693 61.93621909 45.42553711 64.90063477 C45.43092423 68.67426421 45.46865467 72.44682504 45.51428127 76.22015285 C45.54420838 79.15008776 45.55126396 82.07976946 45.55226326 85.00984383 C45.55643147 86.39996316 45.56872698 87.79008567 45.58978081 89.1800518 C45.71918259 98.45735981 45.08602487 106.74003543 38.3447113 113.7118988 C36.6875 115.125 36.6875 115.125 34 117 C32.99388672 116.35256836 31.98777344 115.70513672 30.95117188 115.03808594 C24.60018525 111.88483533 17.70210625 112.39467728 10.78125 112.390625 C9.31292922 112.37562371 7.84462518 112.3588925 6.37634277 112.34051514 C2.53608371 112.2970472 -1.30394782 112.27688868 -5.14440918 112.26177979 C-9.07297099 112.24213392 -13.00128972 112.20017267 -16.9296875 112.16015625 C-24.61972598 112.08507732 -32.30966172 112.03465151 -40 112 C-40 111.67 -40 111.34 -40 111 C-20.53 110.67 -1.06 110.34 19 110 C20.69834181 104.90497458 21.25808036 102.1492273 21.29052734 96.99169922 C21.29724457 96.31759506 21.30396179 95.64349091 21.31088257 94.94895935 C21.32978033 92.73412567 21.33378331 90.51959666 21.3359375 88.3046875 C21.34237387 86.75017172 21.34910284 85.19565712 21.35610962 83.6411438 C21.36806385 80.38475746 21.37179264 77.12847703 21.37060547 73.87207031 C21.37040301 69.72991353 21.39763672 65.58844849 21.43214989 61.446455 C21.45456164 58.23421203 21.45843859 55.02213136 21.45738602 51.80981827 C21.4597232 50.28461461 21.46843868 48.75940517 21.48405075 47.23427963 C21.61452505 33.16519455 18.93826367 21.25248579 10 10 C7.4039891 7.42672788 4.74307956 5.02624548 1.94140625 2.6796875 C1.30074219 2.12539062 0.66007812 1.57109375 0 1 C0 0.67 0 0.34 0 0 Z " fill="#E37A46" transform="translate(265,173)"/>
<path d="M0 0 C2.44906683 0.4247498 2.44906683 0.4247498 5 0.4375 C8.17956258 0.69504925 9.77376605 0.86757037 12.5625 2.5 C14.37308705 5.64884705 14.41205163 8.24531103 14.67578125 11.8203125 C15.16972809 15.14106352 16.5954081 16.72538604 19 19 C20.96374635 20.38617389 22.95912192 21.73012031 25 23 C26.55950551 24.55950551 26.28196698 26.08877131 26.375 28.25 C26.28933153 31.60713324 25.99489226 33.00962612 24.375 36.0625 C19.63823766 38.78175245 15.61727155 38.06246247 10.2578125 37.85546875 C6.78959697 37.705418 6.78959697 37.705418 3.875 40.3125 C3.25625 41.199375 2.6375 42.08625 2 43 C0.125 44.875 0.125 44.875 -2 46 C-6.16165352 45.92433357 -8.29925594 45.59563245 -11.5 42.875 C-13.96309665 40.61933544 -13.96309665 40.61933544 -17.625 41.125 C-21.09819189 41.82847492 -21.09819189 41.82847492 -24 44 C-27.71609848 44.40539256 -30.03429351 44.64394733 -33.19824219 42.53417969 C-35.85682886 38.79486673 -35.50169125 35.55642441 -35.390625 31.078125 C-35.38496521 30.21813904 -35.37930542 29.35815308 -35.37347412 28.47210693 C-35.35111951 25.73083351 -35.30092602 22.99087696 -35.25 20.25 C-35.22993376 18.38934182 -35.21168321 16.52866311 -35.1953125 14.66796875 C-35.15125784 10.11147334 -35.08223754 5.55595978 -35 1 C-31.73600026 -0.41900486 -28.88839435 -1.29721499 -25.34765625 -1.6328125 C-24.48849609 -1.71660156 -23.62933594 -1.80039063 -22.74414062 -1.88671875 C-21.41672852 -2.00466797 -21.41672852 -2.00466797 -20.0625 -2.125 C-19.18142578 -2.21136719 -18.30035156 -2.29773438 -17.39257812 -2.38671875 C-4.56363209 -3.59754062 -4.56363209 -3.59754062 0 0 Z " fill="#57C647" transform="translate(360,229)"/>
<path d="M0 0 C1.65235405 -0.02398109 1.65235405 -0.02398109 3.33808899 -0.04844666 C4.52871445 -0.05380936 5.7193399 -0.05917206 6.94604492 -0.06469727 C8.78280037 -0.07823997 8.78280037 -0.07823997 10.65666199 -0.09205627 C13.2499242 -0.10657652 15.8432232 -0.11544989 18.43652344 -0.11914062 C22.40061397 -0.13102586 26.36314293 -0.18018929 30.3269043 -0.23071289 C32.8457769 -0.24017808 35.36465908 -0.24741265 37.88354492 -0.25219727 C39.66037407 -0.28149574 39.66037407 -0.28149574 41.47309875 -0.31138611 C50.65749442 -0.26114402 50.65749442 -0.26114402 54.34716797 2.71630859 C58.37809531 7.32202837 57.94535754 11.12015414 57.89916992 17.09155273 C57.51080721 21.46994329 56.65347381 23.1825069 53.61401367 26.30639648 C50.44502929 28.28306217 47.98756097 28.56280259 44.28222656 28.58105469 C42.68520653 28.59535271 42.68520653 28.59535271 41.05592346 28.60993958 C39.91106979 28.60902817 38.76621613 28.60811676 37.58666992 28.60717773 C36.40560165 28.61146286 35.22453339 28.61574799 34.00767517 28.62016296 C31.51033163 28.62590512 29.01297137 28.62640738 26.515625 28.62207031 C22.69461535 28.61891145 18.87438065 28.64236837 15.0534668 28.66772461 C12.62703548 28.6699977 10.20060209 28.67070105 7.77416992 28.66967773 C6.63134048 28.67888748 5.48851105 28.68809723 4.31105042 28.69758606 C3.24321823 28.69135727 2.17538605 28.68512848 1.07519531 28.67871094 C-0.32900917 28.67965508 -0.32900917 28.67965508 -1.76158142 28.68061829 C-5.97067869 28.08043043 -8.59999668 26.32629115 -11.17114258 22.98999023 C-13.32685257 18.22801993 -13.02270368 13.4208978 -12.38598633 8.30639648 C-10.08377567 2.40416035 -6.17145453 0.06768864 0 0 Z " fill="#F38852" transform="translate(233.385986328125,350.693603515625)"/>
<path d="M0 0 C1.06488647 -0.00195374 2.12977295 -0.00390747 3.22692871 -0.00592041 C5.4728309 -0.00192941 7.71876026 0.01929453 9.96435547 0.05664062 C13.39562224 0.10921217 16.82237461 0.09780403 20.25390625 0.078125 C22.44012808 0.08994003 24.62633374 0.10544152 26.8125 0.125 C27.83452515 0.12115295 28.85655029 0.11730591 29.9095459 0.11334229 C34.50948842 0.21966089 37.86971594 0.31823167 41.53710938 3.28027344 C45.10103895 7.16005003 45.19044089 9.50925926 45.125 14.60546875 C44.73760753 18.59699473 43.02493736 20.86727282 40.09469604 23.46594238 C37.54338578 25.09041878 36.14141139 25.24870586 33.14111328 25.27929688 C32.19978546 25.29520874 31.25845764 25.31112061 30.28860474 25.32751465 C29.2781308 25.32771606 28.26765686 25.32791748 27.2265625 25.328125 C26.18104218 25.33573853 25.13552185 25.34335205 24.05831909 25.35119629 C21.84766018 25.36199658 19.63695025 25.36485069 17.42626953 25.36035156 C14.05023658 25.35938046 10.67648536 25.4009796 7.30078125 25.4453125 C5.1510464 25.45052053 3.00130366 25.45320768 0.8515625 25.453125 C-0.65807571 25.4777179 -0.65807571 25.4777179 -2.19821167 25.50280762 C-6.73582728 25.4582498 -10.06815699 25.3956864 -13.71533203 22.50976562 C-16.60643603 19.2880632 -17.28848016 16.81738552 -17.53125 12.609375 C-17.59183594 11.88234375 -17.65242187 11.1553125 -17.71484375 10.40625 C-15.41857579 0.99010718 -8.58726173 -0.17177231 0 0 Z " fill="#E47B46" transform="translate(242.09375,393.140625)"/>
<path d="M0 0 C0.14685185 3.33285926 0.23457648 6.66487345 0.3125 10 C0.35439453 10.93457031 0.39628906 11.86914062 0.43945312 12.83203125 C0.57045364 20.32526089 -1.25397519 25.04359002 -6.40844727 30.48754883 C-13.44130725 36.8413579 -19.55521209 37.33843684 -28.6953125 37.3984375 C-32.25576177 36.96916347 -34.15204885 36.13857138 -37 34 C-39.12677 29.74646 -38.59043743 24.60772741 -38 20 C-33.74106095 10.1816825 -22.99918412 5.73692535 -13.69921875 1.98046875 C-8.92302992 0.2455579 -5.13040462 -0.09866163 0 0 Z " fill="#F18651" transform="translate(233,435)"/>
<path d="M0 0 C5.63104318 -0.30714781 9.7288261 0.6004994 14.875 2.625 C15.57608887 2.89715332 16.27717773 3.16930664 16.99951172 3.44970703 C25.42477749 6.8326823 34.15837437 11.27298631 38 20 C38.68044163 24.10374877 38.89651009 27.92495415 38 32 C36.1171307 34.25944316 34.62500565 35.68749717 32 37 C21.3589032 37.7837635 13.90209122 36.78594399 5.640625 29.98828125 C0.32390986 23.54492886 -0.55924866 17.68319533 -0.25 9.5 C-0.23195313 8.5821875 -0.21390625 7.664375 -0.1953125 6.71875 C-0.14863102 4.47803908 -0.08318522 2.23960201 0 0 Z " fill="#F18751" transform="translate(279,435)"/>
<path d="M0 0 C2 3 2 3 2.8125 5.5625 C4.40131422 8.82375024 5.61163665 8.74159209 9 10 C11.95534984 11.33691823 14.88196269 12.73465288 17.8125 14.125 C18.60076172 14.49753906 19.38902344 14.87007813 20.20117188 15.25390625 C22.13473705 16.16795524 24.06745388 17.08379842 26 18 C21.81180416 23.17825147 17.50224837 27.31470775 12.1875 31.3125 C11.45917969 31.86574951 10.73085938 32.41899902 9.98046875 32.98901367 C-10.18090199 48 -10.18090199 48 -15 48 C-15.90049522 17.91678922 -15.90049522 17.91678922 -10 5 C-7.6171875 3.3203125 -7.6171875 3.3203125 -4.875 2.125 C-3.96492188 1.71507812 -3.05484375 1.30515625 -2.1171875 0.8828125 C-1.41851562 0.59148437 -0.71984375 0.30015625 0 0 Z " fill="#DEDEDE" transform="translate(363,381)"/>
<path d="M0 0 C3.52493128 3.45556769 6.80565264 7.0363098 10.0625 10.75 C17.20570719 18.69454427 25.51343327 25.04111285 35 30 C34.41552465 35.4672798 33.43924324 40.57608637 32 45.875 C30.41966576 51.90336948 29.30031628 57.75342145 29 64 C15.66184248 51.43269922 0.67815115 25.38413186 -0.09765625 6.640625 C-0.08605469 5.85171875 -0.07445312 5.0628125 -0.0625 4.25 C-0.05347656 3.45078125 -0.04445313 2.6515625 -0.03515625 1.828125 C-0.02355469 1.22484375 -0.01195312 0.6215625 0 0 Z " fill="#C76635" transform="translate(300,86)"/>
<path d="M0 0 C0.33 0 0.66 0 1 0 C1.22827647 6.29302699 0.75136886 11.31467305 -1.3125 17.25 C-1.70356934 18.39130371 -1.70356934 18.39130371 -2.10253906 19.55566406 C-7.59342032 34.78346157 -15.75190645 49.45346571 -26 62 C-26.33 62 -26.66 62 -27 62 C-27.14099121 61.40050537 -27.28198242 60.80101074 -27.42724609 60.18334961 C-28.07479218 57.43432822 -28.72487704 54.68591307 -29.375 51.9375 C-29.70757812 50.52307617 -29.70757812 50.52307617 -30.046875 49.08007812 C-30.99841131 45.06403517 -31.95110394 41.07476527 -33.1640625 37.12890625 C-34.57075137 31.86368296 -34.57075137 31.86368296 -34 29 C-31.83203125 27.40234375 -31.83203125 27.40234375 -28.8125 25.9375 C-17.95505592 20.04784873 -9.61178962 11.05309891 -1.609375 1.765625 C-1.07828125 1.18296875 -0.5471875 0.6003125 0 0 Z " fill="#C86736" transform="translate(211,87)"/>
<path d="M0 0 C3.06345144 -0.10822792 6.1230601 -0.18741479 9.1875 -0.25 C10.05181641 -0.28351563 10.91613281 -0.31703125 11.80664062 -0.3515625 C15.95693671 -0.41516857 18.35011784 -0.38398266 21.98828125 1.765625 C26.56435694 6.84817897 26.33603261 11.38131544 26.3125 17.9375 C26.32861328 18.83146484 26.34472656 19.72542969 26.36132812 20.64648438 C26.36495355 25.52993453 26.35045649 29.15317958 23 33 C19.13803221 35.79513524 16.47548787 36.369504 11.7409668 36.34057617 C9.87960335 36.34023628 9.87960335 36.34023628 7.9806366 36.33988953 C6.63682693 36.32457212 5.29302099 36.30892417 3.94921875 36.29296875 C2.5663143 36.28736898 1.18340388 36.28310068 -0.19950867 36.28010559 C-3.82789731 36.26868664 -7.45592199 36.2392455 -11.08416748 36.20599365 C-14.79108762 36.17522872 -18.49806694 36.16158659 -22.20507812 36.14648438 C-29.47021747 36.11437241 -36.73505761 36.06321247 -44 36 C-44 35.67 -44 35.34 -44 35 C-29.48 34.67 -14.96 34.34 0 34 C1.97368099 30.05263802 2.25601108 28.55511312 2.265625 24.31640625 C2.26820313 23.22392578 2.27078125 22.13144531 2.2734375 21.00585938 C2.26183594 19.30139648 2.26183594 19.30139648 2.25 17.5625 C2.25773437 16.43005859 2.26546875 15.29761719 2.2734375 14.13085938 C2.26957031 12.49020508 2.26957031 12.49020508 2.265625 10.81640625 C2.26336914 9.82068604 2.26111328 8.82496582 2.25878906 7.79907227 C1.98697093 4.8590771 1.22899661 2.67004701 0 0 Z " fill="#C56635" transform="translate(269,300)"/>
<path d="M0 0 C3.04317386 -0.13558695 6.08025562 -0.23437239 9.125 -0.3125 C10.40890625 -0.3753418 10.40890625 -0.3753418 11.71875 -0.43945312 C16.10830724 -0.52386769 19.06544754 -0.44503851 22.5546875 2.39453125 C26.82411838 6.94358939 26.33206742 10.72021246 26.28515625 16.78515625 C25.89679354 21.1635468 25.03946013 22.87611042 22 26 C18.80014407 28.00669574 16.33390387 28.24455095 12.58886719 28.22705078 C11.50804871 28.22689972 10.42723022 28.22674866 9.31365967 28.22659302 C8.15312073 28.21627045 6.99258179 28.20594788 5.796875 28.1953125 C4.00748505 28.19106766 4.00748505 28.19106766 2.1819458 28.18673706 C-1.62880476 28.17554053 -5.43932045 28.15043653 -9.25 28.125 C-11.83332994 28.11496954 -14.41666356 28.1058438 -17 28.09765625 C-23.33341349 28.07560289 -29.66668997 28.04213035 -36 28 C-36 27.67 -36 27.34 -36 27 C-23.79 27 -11.58 27 1 27 C1.93878402 22.30607991 2.18340816 18.23834926 2.1875 13.5 C2.20586914 12.38044922 2.20586914 12.38044922 2.22460938 11.23828125 C2.23578018 7.03061167 1.92944399 3.84363545 0 0 Z " fill="#DD7744" transform="translate(265,351)"/>
<path d="M0 0 C0.66163651 0.02644089 1.32327301 0.05288177 2.00495911 0.0801239 C4.11491198 0.16778748 6.22312349 0.27696236 8.33203125 0.38671875 C9.76360979 0.44998847 11.19525112 0.51185419 12.62695312 0.57226562 C16.134153 0.72068626 19.6381743 0.89815848 23.14453125 1.07421875 C22.48453125 6.35421875 21.82453125 11.63421875 21.14453125 17.07421875 C9.86443085 17.48943717 -0.91406798 17.25088456 -12.04296875 15.19921875 C-12.99252441 15.02551758 -13.94208008 14.85181641 -14.92041016 14.67285156 C-21.57600722 13.35368028 -21.57600722 13.35368028 -23.85546875 11.07421875 C-22.87964844 10.53152344 -21.90382812 9.98882812 -20.8984375 9.4296875 C-19.61313508 8.70729125 -18.32798688 7.98462057 -17.04296875 7.26171875 C-16.40037109 6.90529297 -15.75777344 6.54886719 -15.09570312 6.18164062 C-11.49216049 4.24377586 -11.49216049 4.24377586 -8.57421875 1.45117188 C-5.84934298 -0.73182519 -3.41680644 -0.15858595 0 0 Z " fill="#C56535" transform="translate(166.85546875,195.92578125)"/>
<path d="M0 0 C4.12254982 3.35704734 8.486684 5.85327682 13.1875 8.3125 C10.40981243 11.09018757 7.35908436 11.23369965 3.625 11.875 C2.89337646 12.00430908 2.16175293 12.13361816 1.40795898 12.2668457 C-0.66382179 12.62668495 -2.7373765 12.97254437 -4.8125 13.3125 C-5.62460937 13.44914062 -6.43671875 13.58578125 -7.2734375 13.7265625 C-15.03503233 14.80030092 -22.99613878 14.39326607 -30.8125 14.3125 C-31.1285849 12.95916562 -31.44014351 11.60477399 -31.75 10.25 C-32.01103516 9.11884766 -32.01103516 9.11884766 -32.27734375 7.96484375 C-32.92338811 4.76291587 -33.37283948 1.54855986 -33.8125 -1.6875 C-29.9375877 -1.85624763 -26.06255773 -2.02212845 -22.1875 -2.1875 C-20.54587891 -2.25904297 -20.54587891 -2.25904297 -18.87109375 -2.33203125 C-17.80761719 -2.37714844 -16.74414062 -2.42226562 -15.6484375 -2.46875 C-14.67438965 -2.51064453 -13.7003418 -2.55253906 -12.69677734 -2.59570312 C-3.34518835 -2.89333284 -3.34518835 -2.89333284 0 0 Z " fill="#C66635" transform="translate(355.8125,198.6875)"/>
<path d="M0 0 C2.87659826 -0.1356886 5.74673463 -0.23440753 8.625 -0.3125 C9.43324219 -0.35439453 10.24148438 -0.39628906 11.07421875 -0.43945312 C15.35404786 -0.52644152 18.12882671 -0.36802858 21.5234375 2.39453125 C25.20742357 6.27027054 25.28503043 8.58450555 25.21875 13.74609375 C24.83997199 17.64886002 23.08374766 19.82876229 20.5 22.62109375 C16.56406413 24.79200838 12.66092154 24.31455018 8.25 24.1875 C6.91775391 24.16719727 6.91775391 24.16719727 5.55859375 24.14648438 C3.37177422 24.11121309 1.18620034 24.06192752 -1 24 C-0.67386719 23.33097656 -0.34773438 22.66195313 -0.01171875 21.97265625 C1.2294841 18.32572433 1.22951879 15.28412945 1.1875 11.4375 C1.18105469 10.13683594 1.17460937 8.83617187 1.16796875 7.49609375 C1.03533992 4.73556345 0.72008294 2.62067091 0 0 Z " fill="#CA6836" transform="translate(262,394)"/>
<path d="M0 0 C2.4632593 2.14541939 2.92022388 3.45433133 3.390625 6.671875 C2.84369817 11.33169162 0.64931104 13.93181886 -2.1875 17.5625 C-2.91163086 18.53219727 -2.91163086 18.53219727 -3.65039062 19.52148438 C-11.40048257 29.74744462 -11.40048257 29.74744462 -16.5625 30.5625 C-20 30 -20 30 -22.4375 28.375 C-24.46207068 25.29765257 -24.3263637 23.64364956 -24 20 C-19.44069579 10.24023942 -11.7516098 -2.68019171 0 0 Z " fill="#020202" transform="translate(67,93)"/>
<path d="M0 0 C2 0 2 0 3.5078125 1.21484375 C4.30832031 2.06755859 4.30832031 2.06755859 5.125 2.9375 C5.66382813 3.48277344 6.20265625 4.02804687 6.7578125 4.58984375 C9.81266715 10.51703029 7.86001281 18.40547524 6.8125 24.75 C6.68447998 25.54768799 6.55645996 26.34537598 6.42456055 27.16723633 C4.78936686 36.8890693 2.41643133 46.44756729 0 56 C-2.35171131 55.40138258 -4.6859378 54.73075648 -7 54 C-7.33 53.34 -7.66 52.68 -8 52 C-7.41012326 50.53864707 -6.75145233 49.10483963 -6.0625 47.6875 C-2.95032644 40.22044469 -2.62794471 32.03857988 -5.375 24.375 C-6.91438854 20.97801868 -6.91438854 20.97801868 -9 18 C-8.071875 17.071875 -7.14375 16.14375 -6.1875 15.1875 C-2.27632235 10.69380653 -1.18123891 5.73004488 0 0 Z " fill="#DBDBDB" transform="translate(305,370)"/>
<path d="M0 0 C5.28 0 10.56 0 16 0 C16.13491171 4.23023155 16.23410046 8.45616484 16.3125 12.6875 C16.35439453 13.88568359 16.39628906 15.08386719 16.43945312 16.31835938 C16.5776128 26.23822434 16.5776128 26.23822434 13.66796875 29.29296875 C10.36295012 31.4076 8.84817191 31.80170248 5 31 C2.40888568 29.34214208 1.41057581 28.63789047 0 26 C-0.62649087 21.54970187 -0.46924072 17.17028461 -0.3125 12.6875 C-0.28994141 11.46998047 -0.26738281 10.25246094 -0.24414062 8.99804688 C-0.18531952 5.99817071 -0.09564264 2.99892804 0 0 Z " fill="#C56535" transform="translate(248,433)"/>
<path d="M0 0 C0 0.33 0 0.66 0 1 C-1.2375 1.12375 -2.475 1.2475 -3.75 1.375 C-6.86359338 1.77657653 -9.41087817 2.10794943 -12 4 C-12.66743452 5.33294913 -13.33400429 6.6663314 -14 8 C-15.87108063 10.50358408 -17.94522105 12.83326762 -20 15.1875 C-20.5787085 15.85225342 -21.15741699 16.51700684 -21.75366211 17.2019043 C-33.70814711 30.74264168 -33.70814711 30.74264168 -41 34 C-40.88519969 31.14509764 -40.75847036 28.2915412 -40.625 25.4375 C-40.5940625 24.63763672 -40.563125 23.83777344 -40.53125 23.01367188 C-40.05295068 13.24839408 -40.05295068 13.24839408 -38 9 C-35.20163724 7.18044544 -32.23553565 6.23626687 -29.0625 5.25 C-27.77122192 4.816875 -27.77122192 4.816875 -26.45385742 4.375 C-23.97737063 3.5547089 -21.49113515 2.77441354 -19 2 C-17.87078125 1.62359375 -16.7415625 1.2471875 -15.578125 0.859375 C-9.94807396 -0.89007589 -5.7844327 -1.20054264 0 0 Z " fill="#D7D7D7" transform="translate(217,66)"/>
<path d="M0 0 C3.375 -0.125 3.375 -0.125 7 0 C9 2 9 2 9.03149414 4.4831543 C8.92957764 5.52383057 8.82766113 6.56450684 8.72265625 7.63671875 C8.61324707 8.80638184 8.50383789 9.97604492 8.39111328 11.18115234 C8.2620459 12.44137207 8.13297852 13.7015918 8 15 C7.87737793 16.27955566 7.75475586 17.55911133 7.62841797 18.87744141 C7.24367183 22.85708251 6.84292194 26.8349299 6.4375 30.8125 C6.29738472 32.19855343 6.15741006 33.58462108 6.01757812 34.97070312 C5.67975939 38.31394373 5.34054343 41.65703603 5 45 C-3.78571429 43.9375 -3.78571429 43.9375 -7 43 C-6.34625691 37.48794205 -5.54165648 32.03031993 -4.58984375 26.5625 C-4.45808243 25.79695801 -4.32632111 25.03141602 -4.19056702 24.24267578 C-3.7745906 21.82815132 -3.35609043 19.41407251 -2.9375 17 C-2.65282689 15.35028938 -2.36832015 13.70055004 -2.08398438 12.05078125 C-1.39124384 8.03351995 -0.69624155 4.01665595 0 0 Z " fill="#49A63B" transform="translate(328,381)"/>
<path d="M0 0 C3.16685549 2.67964695 4.82455737 4.43239149 6.0625 8.4375 C5.98541095 12.83157589 4.78058336 14.66329997 2 18 C-1.06429776 19.53214888 -3.6165642 19.22938548 -7 19 C-7.804375 18.505 -8.60875 18.01 -9.4375 17.5 C-12.96498282 15.43513201 -15.99631479 15.35318787 -20 16 C-20.845625 16.515625 -21.69125 17.03125 -22.5625 17.5625 C-25 19 -25 19 -28.5625 19.125 C-32.25858895 17.91537089 -32.62482755 17.60646283 -34.4375 14.4375 C-34.953125 13.303125 -35.46875 12.16875 -36 11 C-32.69237021 9.58244438 -29.60558629 8.27041897 -26 8 C-24.948125 8.7115625 -24.948125 8.7115625 -23.875 9.4375 C-19.38540269 11.87749854 -14.99790451 11.64678764 -10 11 C-4.543634 8.51983364 -2.58457423 5.16914846 0 0 Z " fill="#4EB240" transform="translate(446,314)"/>
<path d="M0 0 C3.65316671 1.24976756 4.78065836 1.67098753 7 5 C7.23431447 9.24109184 6.65178798 12.93106772 4.4375 16.5625 C0.79592939 18.71009293 -1.80218876 18.33853316 -6 18 C-6.66 17.67 -7.32 17.34 -8 17 C-13.26188099 16.27324952 -13.26188099 16.27324952 -17.90625 18.33984375 C-19.08006749 19.43386225 -20.2482084 20.534008 -21.41015625 21.640625 C-23 23 -23 23 -25.625 23.75 C-29.34406107 22.57555966 -30.72797444 20.11592077 -33 17 C-30.9375 14.4375 -30.9375 14.4375 -28 12 C-24.75 12.1875 -24.75 12.1875 -21 13 C-15.66056858 13.54909046 -11.18415214 13.44336676 -6.57421875 10.48828125 C-3.4962479 7.57833858 -1.76284007 3.80188549 0 0 Z " fill="#4EB340" transform="translate(374,349)"/>
<path d="M0 0 C5.75 2.75 5.75 2.75 8 5 C8.83703026 9.48472004 8.51254776 13.0340446 6.375 17.0625 C1.63823766 19.78175245 -2.38272845 19.06246247 -7.7421875 18.85546875 C-11.21040303 18.705418 -11.21040303 18.705418 -14.125 21.3125 C-15.053125 22.6428125 -15.053125 22.6428125 -16 24 C-17.875 25.875 -17.875 25.875 -20 27 C-23.5625 26.9375 -23.5625 26.9375 -27 26 C-28.9375 23.9375 -28.9375 23.9375 -30 22 C-28.01721635 19.28075386 -26.82841908 17.71634766 -24 16 C-20.64659819 15.7194873 -17.42627019 15.87818741 -14.06640625 16.0234375 C-10.8268154 16.19340525 -10.8268154 16.19340525 -7.4375 14.5 C-3.37698318 10.33536737 -1.27144355 5.6396704 0 0 Z " fill="#50B541" transform="translate(378,248)"/>
<path d="M0 0 C2.875 1.625 2.875 1.625 5 4 C5.625 6.9375 5.625 6.9375 5 10 C1.18541173 14.93652599 -2.6137529 16.33926886 -8.5625 17.5 C-11 17 -11 17 -13.875 14.375 C-16 11 -16 11 -16.1875 7.875 C-14.60275315 4.03824447 -12.60171449 2.94492582 -9 1 C-5.66660588 -0.11113137 -3.49519344 -0.34951934 0 0 Z " fill="#090804" transform="translate(152,394)"/>
<path d="M0 0 C2.10546875 -0.1484375 2.10546875 -0.1484375 6.04296875 0.2265625 C8.80683057 2.6449416 9.84132452 4.19313584 10.54296875 7.7890625 C9.85588259 11.13860751 8.78099874 12.19059148 6.04296875 14.2265625 C1.05318344 16.20364724 -2.75029432 16.62837629 -7.95703125 15.2265625 C-10.54515285 12.97239208 -10.89945768 11.62135271 -11.39453125 8.2265625 C-10.95703125 5.2265625 -10.95703125 5.2265625 -9.26953125 2.9140625 C-6.126419 0.62044004 -3.77877382 0.43746284 0 0 Z " fill="#070603" transform="translate(74.95703125,270.7734375)"/>
<path d="M0 0 C3.625 0.375 3.625 0.375 6.0625 1.9375 C8.25021565 5.35033641 8.09279646 7.36531604 7.625 11.375 C6.8316036 14.21505591 5.84084422 16.66273213 4.625 19.375 C1.53326248 20.92086876 -0.96929552 20.66859521 -4.375 20.375 C-6.8125 18.8125 -6.8125 18.8125 -8.375 16.375 C-9.10685265 10.8338299 -7.84136431 7.21286846 -5.375 2.375 C-3.375 0.375 -3.375 0.375 0 0 Z " fill="#060503" transform="translate(109.375,352.625)"/>
<path d="M0 0 C3.63232254 2.2531324 6.42782965 4.90204207 7.57421875 9.10546875 C7.75663861 12.45821997 7.17523342 14.71261719 5.4375 17.5625 C3 19 3 19 -0.3125 19.1875 C-5.19850084 17.6140421 -8.19907778 15.32118679 -11 11 C-11.91133554 7.41366519 -11.6851625 4.370325 -10 1 C-6.62677348 -0.68661326 -3.58956669 -0.90394198 0 0 Z " fill="#050402" transform="translate(116,302)"/>
<path d="M0 0 C0.66 0.33 1.32 0.66 2 1 C-4.69324736 12.56846871 -11.48296686 23.67403946 -20 34 C-21.21993053 30.34020841 -20.64075683 29.19626714 -19.41796875 25.59765625 C-18.88526367 24.01500977 -18.88526367 24.01500977 -18.34179688 22.40039062 C-17.77041992 20.74813477 -17.77041992 20.74813477 -17.1875 19.0625 C-16.63352539 17.41604492 -16.63352539 17.41604492 -16.06835938 15.73632812 C-12.779307 6.05812912 -12.779307 6.05812912 -11 3 C-9.16015625 2.20703125 -9.16015625 2.20703125 -7.0625 1.8125 C-6.37285156 1.67457031 -5.68320312 1.53664063 -4.97265625 1.39453125 C-4.32167969 1.26433594 -3.67070312 1.13414062 -3 1 C-2.01 0.67 -1.02 0.34 0 0 Z " fill="#D5D5D5" transform="translate(429,345)"/>
<path d="M0 0 C5.41139241 -0.36075949 5.41139241 -0.36075949 7.9375 1.1875 C9.45649653 3.77872937 8.72031088 5.11672098 8 8 C7.3634999 10.0352942 6.69531756 12.06082352 6.00390625 14.078125 C5.61009766 15.23957031 5.21628906 16.40101563 4.81054688 17.59765625 C3.98370492 20.01736589 3.15559589 22.43664296 2.32617188 24.85546875 C0.59240396 29.97475083 -1.0864334 34.99438447 -2.16015625 40.296875 C-2.43730469 41.51890625 -2.71445312 42.7409375 -3 44 C-3.99 44.495 -3.99 44.495 -5 45 C-7.4750171 43.88568235 -9.67883419 42.41849022 -12 41 C-8 37 -8 37 -5.9375 35.125 C-0.58508073 29.25460467 0.22216959 22.74377555 0.171875 15.13671875 C-0.04012835 12.50113167 -1.01213041 10.43674498 -2 8 C-1.70647502 5.0060452 -1.34525472 2.69050945 0 0 Z " fill="#48A53A" transform="translate(395,339)"/>
<path d="M0 0 C0.66 0 1.32 0 2 0 C2 6.93 2 13.86 2 21 C-2.62 21.33 -7.24 21.66 -12 22 C-13 16 -13 16 -11.6875 14.125 C-10 13 -10 13 -8 13 C-7.5978125 12.15695312 -7.5978125 12.15695312 -7.1875 11.296875 C-5.9196021 8.84449354 -4.51027658 6.56072317 -3 4.25 C-2.484375 3.45078125 -1.96875 2.6515625 -1.4375 1.828125 C-0.963125 1.22484375 -0.48875 0.6215625 0 0 Z " fill="#D8D8D8" transform="translate(321,286)"/>
<path d="M0 0 C0.66 0.226875 1.32 0.45375 2 0.6875 C2.99 1.0175 3.98 1.3475 5 1.6875 C5 5.3175 5 8.9475 5 12.6875 C1.7 12.3575 -1.6 12.0275 -5 11.6875 C-5.29296875 4.0703125 -5.29296875 4.0703125 -5 1.6875 C-2 -0.3125 -2 -0.3125 0 0 Z " fill="#459E38" transform="translate(343,286.3125)"/>
<path d="M0 0 C2 3 2 3 1.79980469 5.06884766 C1.59258789 5.84276855 1.38537109 6.61668945 1.171875 7.4140625 C0.94886719 8.25710938 0.72585938 9.10015625 0.49609375 9.96875 C0.24988281 10.8453125 0.00367188 11.721875 -0.25 12.625 C-0.48074219 13.50929688 -0.71148437 14.39359375 -0.94921875 15.3046875 C-2.26067918 20.1356039 -2.26067918 20.1356039 -3 22 C-3.66 22.33 -4.32 22.66 -5 23 C-7.4750171 21.88568235 -9.67883419 20.41849022 -12 19 C-8 15 -8 15 -5.9375 13.125 C-2.43323807 9.28161594 -0.7512738 5.10866181 0 0 Z " fill="#419535" transform="translate(395,361)"/>
<path d="M0 0 C2.6635969 0.35994553 4.58183452 0.71161002 6.8125 2.25 C8.39364795 4.58011277 8.22337696 6.24501755 8 9 C6.84775972 8.07038578 5.70340824 7.1309875 4.5625 6.1875 C3.60537109 5.40439453 3.60537109 5.40439453 2.62890625 4.60546875 C1 3 1 3 0 0 Z " fill="#4CAD3E" transform="translate(364,329)"/>
<path d="M0 0 C7.38461538 -0.49230769 7.38461538 -0.49230769 10.5 2 C10.995 2.66 11.49 3.32 12 4 C11.67 4.99 11.34 5.98 11 7 C10.54109375 6.66226563 10.0821875 6.32453125 9.609375 5.9765625 C5.01807574 2.63691049 5.01807574 2.63691049 0 0 Z " fill="#459D38" transform="translate(362,230)"/>
<path d="M0 0 C4.12751449 0.60698743 7.3321148 2.03810791 11 4 C11 4.33 11 4.66 11 5 C4.61764706 5.49095023 4.61764706 5.49095023 1.5625 3.0625 C0 1 0 1 0 0 Z " fill="#4EB23F" transform="translate(325,268)"/>
<path d="M0 0 C3 0 3 0 4.38671875 1.3125 C5.59114583 2.875 6.79557292 4.4375 8 6 C3.50347222 6.36458333 3.50347222 6.36458333 1.1875 4.6875 C0 3 0 3 0 0 Z " fill="#4EB23F" transform="translate(319,360)"/>
</svg>
