<?xml version="1.0" encoding="UTF-8"?>
<svg version="1.1" xmlns="http://www.w3.org/2000/svg" width="512" height="512">
<path d="M0 0 C1.00038514 -0.00743927 1.00038514 -0.00743927 2.02098009 -0.01502883 C4.24782157 -0.02794566 6.47405955 -0.01961312 8.70091534 -0.01129913 C10.31675585 -0.01618991 11.93259287 -0.02238058 13.54842395 -0.02975702 C17.98277195 -0.0461561 22.41694217 -0.04383867 26.8513099 -0.03838205 C31.63603943 -0.03571181 36.42072157 -0.05024358 41.20543194 -0.06247711 C50.57722045 -0.08353378 59.9489471 -0.08807182 69.32075647 -0.08628923 C76.93874236 -0.08498168 84.55670895 -0.08878538 92.1746912 -0.09621429 C94.36893533 -0.09831349 96.56317945 -0.10041109 98.75742358 -0.10250711 C99.84956023 -0.10355064 100.94169689 -0.10459417 102.06692859 -0.10566932 C122.72341625 -0.12457277 143.37986839 -0.12352122 164.03636112 -0.11669999 C182.93087304 -0.1111249 201.82524935 -0.13194836 220.71972958 -0.16506046 C240.12232408 -0.19879899 259.52485363 -0.21396556 278.92747802 -0.20934343 C289.81984999 -0.20709886 300.71209664 -0.21234024 311.60444355 -0.23723602 C320.87793299 -0.25825125 330.15122839 -0.26183891 339.42472581 -0.24293643 C344.15514072 -0.23377988 348.88519385 -0.23263314 353.61558056 -0.25329208 C357.94912581 -0.27200839 362.28201317 -0.26749141 366.61553343 -0.24474627 C368.1800957 -0.24056215 369.74470846 -0.24475428 371.30921731 -0.25834221 C381.23395098 -0.33864388 389.61314283 0.32025392 397.17920905 7.37286997 C403.25814075 13.72950254 405.50181467 19.94837197 405.44864178 28.66997528 C405.45893665 29.86655258 405.45893665 29.86655258 405.46943951 31.08730316 C405.4876344 33.70562143 405.48388059 36.32333631 405.47818279 38.9417038 C405.4827481 40.77341658 405.48805471 42.60512764 405.49406719 44.43683624 C405.50298393 48.26901473 405.50059155 52.10098467 405.49063396 55.93315887 C405.47914595 60.83010313 405.49936046 65.72632608 405.5285511 70.62317562 C405.54694763 74.40401488 405.54661378 78.18468238 405.54091358 81.96555519 C405.54076079 83.7703687 405.54677009 85.57519416 405.55920506 87.37996483 C405.57417906 89.90937942 405.56339206 92.43747533 405.54629803 94.96685028 C405.555966 95.70320206 405.56563396 96.43955383 405.5755949 97.1982193 C405.48500667 103.63949269 403.32900012 108.77624731 399.07974529 113.62529755 C398.42876873 114.16412567 397.77779217 114.7029538 397.10708904 115.25811005 C396.45869061 115.81240692 395.81029217 116.3667038 395.14224529 116.93779755 C390.50469395 120.13313088 386.63467375 120.65720524 381.04458904 120.63311005 C379.84833904 120.6382663 378.65208904 120.64342255 377.41958904 120.64873505 C374.04458904 120.38311005 374.04458904 120.38311005 369.04458904 118.38311005 C369.04458904 158.64311005 369.04458904 198.90311005 369.04458904 240.38311005 C373.00458904 240.38311005 376.96458904 240.38311005 381.04458904 240.38311005 C385.55235407 244.89087507 385.55235407 244.89087507 385.57583904 249.88311005 C385.58099529 250.93498505 385.58615154 251.98686005 385.59146404 253.07061005 C385.57599529 254.16373505 385.56052654 255.25686005 385.54458904 256.38311005 C385.56005779 257.47623505 385.57552654 258.56936005 385.59146404 259.69561005 C385.58630779 260.74748505 385.58115154 261.79936005 385.57583904 262.88311005 C385.57132732 263.84217255 385.56681561 264.80123505 385.56216717 265.78936005 C384.90179404 269.09870159 383.64627746 270.3015174 381.04458904 272.38311005 C378.26316861 272.89066852 375.89886615 272.57339519 373.04458904 272.38311005 C373.05593569 273.04399817 373.06728233 273.70488628 373.07897282 274.38580132 C373.14524103 281.27424088 372.74775345 288.01067271 372.0665617 294.86211395 C371.96248501 295.95141708 371.85840832 297.04072021 371.75117779 298.16303253 C371.40898152 301.72911503 371.05910818 305.29439309 370.70865154 308.85967255 C370.46651811 311.35584892 370.22469162 313.85205509 369.98315716 316.34828949 C369.41256325 322.23084496 368.83648811 328.11284648 368.25846422 333.99467599 C367.73400376 339.33765081 367.21752318 344.68137348 366.70303786 350.02531683 C366.1432054 355.83769948 365.57707334 361.64945339 365.0083456 367.46097183 C364.76828969 369.92069099 364.52988939 372.38057233 364.29320431 374.84061813 C363.96132765 378.28193015 363.62228461 381.72246481 363.28140545 385.1628952 C363.18573788 386.16988968 363.0900703 387.17688416 362.99150372 388.21439362 C361.18955856 406.12464505 361.18955856 406.12464505 355.04458904 412.38311005 C350.5458555 416.01216001 346.74309474 416.5531132 341.04458904 416.38311005 C341.10259686 417.54068817 341.16060467 418.6982663 341.22037029 419.89092255 C341.26729169 421.42994453 341.3127893 422.96901037 341.35708904 424.50811005 C341.39898357 425.26865692 341.44087811 426.0292038 341.48404217 426.81279755 C341.57383208 430.97904954 341.3334215 433.57800229 338.65005779 436.87529755 C334.66067508 440.71515317 332.49932519 440.48412368 327.04458904 440.38311005 C327.36097332 441.36984711 327.36097332 441.36984711 327.6837492 442.37651825 C327.98071697 443.30295135 328.27768475 444.22938446 328.58365154 445.1838913 C328.91429607 446.21522186 329.24494061 447.24655243 329.58560467 448.30913544 C330.31247267 450.5799431 331.03771492 452.85127176 331.76138592 455.12310028 C333.45007959 460.4226843 335.14769003 465.71746414 336.91177654 470.99248505 C337.18940838 471.83512909 337.46704021 472.67777313 337.75308514 473.54595184 C338.26482516 475.09743016 338.78540035 476.64603434 339.3165617 478.19097137 C340.92078349 483.10312773 341.60919347 487.20937912 341.04458904 492.38311005 C339.54458904 494.8479538 339.54458904 494.8479538 337.04458904 496.38311005 C334.20962478 496.81130777 331.8679925 496.98908637 329.04458904 496.94561005 C328.33302654 496.9694577 327.62146404 496.99330536 326.88833904 497.01787567 C323.52647155 497.00846746 321.54356364 496.84580994 319.03970623 494.52397919 C316.23189492 490.10370355 314.88464992 485.49018118 313.37271404 480.50029755 C313.04543316 479.44907715 312.71815228 478.39785675 312.38095379 477.31478119 C311.69345583 475.09910087 311.01129405 472.88175862 310.33413982 470.6628952 C309.29511751 467.25984091 308.23967309 463.86222379 307.18130779 460.4651413 C306.51497898 458.31049133 305.84958202 456.15555293 305.18521404 454.00029755 C304.86965557 452.98152527 304.5540971 451.96275299 304.22897625 450.91310883 C303.94157574 449.96847778 303.65417522 449.02384674 303.35806561 448.05059052 C303.10365704 447.21961853 302.84924847 446.38864655 302.58713055 445.53249359 C302.04458904 443.38311005 302.04458904 443.38311005 302.04458904 440.38311005 C301.39232342 440.44111786 300.74005779 440.49912567 300.06802654 440.5588913 C292.0386805 440.97338556 292.0386805 440.97338556 288.48208904 438.00811005 C281.93938118 430.96211697 285.04458904 430.14174999 285.04458904 416.38311005 C228.28458904 416.38311005 171.52458904 416.38311005 113.04458904 416.38311005 C113.04458904 420.67311005 113.04458904 424.96311005 113.04458904 429.38311005 C110.17006056 448.86182278 98.51559371 466.51200674 83.04458904 478.38311005 C64.0834394 490.97840609 42.4359234 495.80909955 19.78287029 491.7698288 C-0.52740337 486.41508766 -18.57153763 473.86368738 -29.20541096 455.63311005 C-39.43979915 437.40271442 -42.39366028 415.6229938 -37.45541096 395.19561005 C-31.42190289 376.54272241 -19.37677737 360.40185149 -2.54916096 350.1604538 C-0.95541096 349.38311005 -0.95541096 349.38311005 1.04458904 349.38311005 C1.04458904 323.97311005 1.04458904 298.56311005 1.04458904 272.38311005 C-0.93541096 272.05311005 -2.91541096 271.72311005 -4.95541096 271.38311005 C-6.95541096 268.38311005 -6.95541096 268.38311005 -6.95541096 264.38311005 C-7.88289143 264.40405731 -8.81037189 264.42500458 -9.76595783 264.44658661 C-13.24001924 264.51516503 -16.71335107 264.56510331 -20.18783283 264.60283661 C-21.68534485 264.62282923 -23.18278004 264.65003303 -24.68002033 264.68486786 C-41.93714227 265.07602929 -41.93714227 265.07602929 -48.94369221 258.52373505 C-49.38068439 257.8998288 -49.81767658 257.27592255 -50.26791096 256.63311005 C-50.94273518 255.71271942 -50.94273518 255.71271942 -51.63119221 254.77373505 C-56.53211161 245.92605755 -58.19540237 235.60678188 -60.47591877 225.84185028 C-60.98055634 223.69048812 -61.49832881 221.54262285 -62.01791096 219.3948288 C-62.31826252 218.12083221 -62.61861408 216.84683563 -62.92806721 215.53423309 C-64.1207702 211.81001036 -64.1207702 211.81001036 -66.95541096 209.38311005 C-69.10733804 208.94533682 -69.10733804 208.94533682 -71.48275471 209.0120163 C-72.79469807 208.98591278 -72.79469807 208.98591278 -74.13314533 208.95928192 C-75.96906769 208.95018676 -77.80501341 208.94496179 -79.64095783 208.94365692 C-86.34799992 208.80053387 -86.34799992 208.80053387 -89.55306721 206.5979538 C-91.02339917 204.27573034 -91.49792081 203.10374039 -91.45541096 200.38311005 C-91.47087971 199.39311005 -91.47087971 199.39311005 -91.48666096 198.38311005 C-90.69998493 195.42150618 -89.33674472 194.28803099 -86.95541096 192.38311005 C-82.70638123 191.65494299 -78.47233751 191.76650838 -74.16586018 191.80669403 C-72.092764 191.82052762 -70.02421735 191.78652727 -67.95150471 191.74834442 C-66.63537189 191.75027802 -65.31923908 191.75221161 -63.96322346 191.7542038 C-62.7632674 191.7534787 -61.56331135 191.7527536 -60.32699299 191.75200653 C-56.11570427 192.54028903 -53.53317306 194.02232378 -50.95541096 197.38311005 C-49.46615409 200.51300137 -48.56450976 203.72551747 -47.66634846 207.0667038 C-47.39577625 207.99982895 -47.12520405 208.9329541 -46.84643269 209.89435577 C-45.98790076 212.86451744 -45.15741128 215.84152935 -44.33041096 218.82061005 C-43.49267263 221.79487031 -42.64884581 224.76706039 -41.79296589 227.73615265 C-41.26282165 229.57937616 -40.74350762 231.42576029 -40.23675251 233.27555084 C-38.80084733 238.31432128 -37.28776926 242.29968883 -33.95541096 246.38311005 C-30.90777161 247.39898983 -28.60822129 247.58115411 -25.41244221 247.6995163 C-24.33929768 247.74141083 -23.26615314 247.78330536 -22.16048908 247.82646942 C-21.0409383 247.86578583 -19.92138752 247.90510223 -18.76791096 247.94561005 C-17.63675861 247.98879364 -16.50560627 248.03197723 -15.34017658 248.07646942 C-12.54537742 248.18260104 -9.75048934 248.28465389 -6.95541096 248.38311005 C-6.85228596 247.43436005 -6.74916096 246.48561005 -6.64291096 245.50811005 C-5.95541096 242.38311005 -5.95541096 242.38311005 -2.95541096 240.38311005 C1.00458904 240.38311005 4.96458904 240.38311005 9.04458904 240.38311005 C9.04458904 200.12311005 9.04458904 159.86311005 9.04458904 118.38311005 C7.39458904 119.04311005 5.74458904 119.70311005 4.04458904 120.38311005 C-3.79149304 121.1882511 -11.57463672 121.50771396 -17.95541096 116.38311005 C-23.15845896 111.4283188 -26.68195303 107.05872738 -27.22956562 99.69812775 C-27.25046883 98.25054081 -27.26051132 96.80277114 -27.26180744 95.35503387 C-27.27013096 94.56082031 -27.27845448 93.76660675 -27.28703022 92.94832611 C-27.31107647 90.32888088 -27.31989707 87.70968513 -27.32650471 85.0901413 C-27.33547732 83.26036253 -27.34459928 81.4305845 -27.35386372 79.60080719 C-27.37034322 75.76512117 -27.37805155 71.92952229 -27.38094807 68.09380341 C-27.38632123 63.19915844 -27.42396142 58.30534292 -27.46969223 53.41093159 C-27.4995664 49.63002348 -27.50667392 45.84931226 -27.50767422 42.06829643 C-27.51185839 40.26510774 -27.52421963 38.46191748 -27.54519176 36.6588459 C-27.76012593 16.57638757 -27.76012593 16.57638757 -19.96540546 8.25989532 C-14.08575969 2.60080468 -8.14708634 0.01082308 0 0 Z M68.04458904 103.38311005 C67.52896404 104.57936005 67.01333904 105.77561005 66.48208904 107.00811005 C63.8155459 112.34119634 60.06933256 115.85781203 54.75943279 118.5354538 C51.41378163 119.58006718 48.54554256 119.61210842 45.04458904 119.57061005 C43.84833904 119.56416473 42.65208904 119.55771942 41.41958904 119.5510788 C38.04458904 119.38311005 38.04458904 119.38311005 33.04458904 118.38311005 C33.04458904 158.64311005 33.04458904 198.90311005 33.04458904 240.38311005 C42.28458904 240.38311005 51.52458904 240.38311005 61.04458904 240.38311005 C61.04869793 238.37555634 61.05280682 236.36800262 61.05704021 234.29961395 C61.0743109 227.63384968 61.11893374 220.96846487 61.17667961 214.30293465 C61.21083253 210.26529527 61.23604119 206.22802955 61.24014568 202.19023895 C61.24445403 198.28654409 61.2731235 194.38369044 61.31802082 190.48025894 C61.33091555 188.99813378 61.33533222 187.51590752 61.33074284 186.03373337 C61.30776551 176.35139001 61.95291447 167.92863427 68.78572369 160.48677826 C74.65469849 154.950779 81.18628012 153.07243539 89.04458904 152.38311005 C89.08197186 151.26291473 89.11935467 150.14271942 89.15787029 148.9885788 C89.22353161 147.51588914 89.28997891 146.04323439 89.35708904 144.57061005 C89.39092693 143.46362762 89.39092693 143.46362762 89.42544842 142.33428192 C89.69407267 136.9373764 89.69407267 136.9373764 91.12735271 134.67095184 C94.09114077 132.68012261 96.6986407 132.99382882 100.23208904 132.98467255 C100.93100262 132.98180237 101.62991619 132.97893219 102.35000896 132.97597504 C103.82601006 132.97393579 105.30203826 132.97945602 106.77798748 132.99199677 C109.03674042 133.00805425 111.29370422 132.99214534 113.55240154 132.9729538 C114.98730132 132.97493626 116.42219999 132.97877999 117.85708904 132.98467255 C119.16290936 132.98805634 120.46872967 132.99144012 121.81412029 132.99492645 C125.04458904 133.38311005 125.04458904 133.38311005 126.96182537 134.67095184 C128.8546665 137.66407357 128.62680601 141.1263507 128.73208904 144.57061005 C128.7662492 145.32019989 128.80040936 146.06978973 128.83560467 146.84209442 C128.91793198 148.68857842 128.98294185 150.53581998 129.04458904 152.38311005 C129.73423748 152.45787567 130.42388592 152.5326413 131.13443279 152.60967255 C139.33423618 153.75697014 145.57692013 156.10510166 150.90005779 162.67217255 C154.71044551 168.22936508 156.16198667 172.17055487 156.24991131 178.96587372 C156.25981091 179.6295546 156.2697105 180.29323547 156.27991009 180.97702789 C156.31146995 183.16834204 156.33626059 185.35967786 156.36099529 187.5510788 C156.38156959 189.0713736 156.40256619 190.59166273 156.42396832 192.11194611 C156.47913988 196.11169092 156.5285708 200.11148694 156.57681561 204.1113205 C156.63590294 208.91133216 156.70210385 213.71125032 156.76711559 218.51118469 C156.86506329 225.80176933 156.95396151 233.09241418 157.04458904 240.38311005 C167.60458904 240.38311005 178.16458904 240.38311005 189.04458904 240.38311005 C189.08197186 237.81916473 189.11935467 235.25521942 189.15787029 232.6135788 C189.20407741 230.13131409 189.25531389 227.64920069 189.30704021 225.16704559 C189.34030077 223.44155312 189.36832923 221.71595155 189.39102459 219.99028778 C189.42455057 217.51007839 189.4768631 215.03086975 189.53287029 212.5510788 C189.54245518 211.3931205 189.54245518 211.3931205 189.5522337 210.2117691 C189.69713129 204.93740092 189.69713129 204.93740092 191.28482342 202.40459442 C193.52960784 201.10157305 195.12069216 200.95393479 197.71255779 200.8713913 C198.60523357 200.83594208 199.49790936 200.80049286 200.41763592 200.76396942 C201.34640545 200.74141083 202.27517498 200.71885223 203.23208904 200.69561005 C204.17246014 200.66144989 205.11283123 200.62728973 206.08169842 200.59209442 C208.40254297 200.50962786 210.72301052 200.44047601 213.04458904 200.38311005 C213.08197186 199.55166473 213.11935467 198.72021942 213.15787029 197.8635788 C213.25648357 196.23355927 213.25648357 196.23355927 213.35708904 194.57061005 C213.41509686 193.49166473 213.47310467 192.41271942 213.53287029 191.3010788 C214.04458904 188.38311005 214.04458904 188.38311005 215.08755779 186.5198288 C218.235013 184.69166619 221.51007469 184.9515075 225.04458904 185.00811005 C225.76904217 184.99650848 226.49349529 184.98490692 227.23990154 184.9729538 C232.50610218 185.00210251 232.50610218 185.00210251 234.74803448 186.58838654 C236.48003438 188.98586446 236.44130142 190.55155218 236.47696209 193.49712372 C236.49690228 194.55250336 236.51684246 195.607883 236.53738689 196.69524384 C236.54363079 197.80266937 236.54987469 198.91009491 236.55630779 200.0510788 C236.57294476 201.07028412 236.58958172 202.08948944 236.60672283 203.13957977 C236.66459147 206.94971291 236.69679161 210.76020096 236.73208904 214.57061005 C236.83521404 223.08873505 236.93833904 231.60686005 237.04458904 240.38311005 C254.20458904 240.38311005 271.36458904 240.38311005 289.04458904 240.38311005 C289.33339759 229.08989302 289.33339759 229.08989302 289.61270428 217.79644012 C289.65085477 216.37349796 289.68932621 214.95056435 289.72818279 213.5276413 C289.74465862 212.79750824 289.76113445 212.06737518 289.77810955 211.31511688 C289.86184117 208.36946848 290.00044215 205.58651168 290.62662029 202.70146942 C291.13568342 199.87783423 290.72218703 197.92630354 290.04849529 195.1448288 C289.7052824 193.66659637 289.7052824 193.66659637 289.35513592 192.15850067 C289.10828045 191.13949677 288.86142498 190.12049286 288.60708904 189.07061005 C286.98972264 182.36518913 285.70579732 176.2994191 286.04458904 169.38311005 C288.02458904 169.38311005 290.00458904 169.38311005 292.04458904 169.38311005 C292.28693279 170.36408661 292.52927654 171.34506317 292.77896404 172.3557663 C295.10276673 181.72578761 297.52713593 191.06317726 300.04458904 200.38311005 C301.69458904 200.38311005 303.34458904 200.38311005 305.04458904 200.38311005 C305.37458904 184.87311005 305.70458904 169.36311005 306.04458904 153.38311005 C308.02458904 153.38311005 310.00458904 153.38311005 312.04458904 153.38311005 C312.37458904 168.89311005 312.70458904 184.40311005 313.04458904 200.38311005 C314.69458904 200.38311005 316.34458904 200.38311005 318.04458904 200.38311005 C320.82831454 190.07740289 323.48439439 179.74645118 326.04458904 169.38311005 C328.02458904 169.38311005 330.00458904 169.38311005 332.04458904 169.38311005 C332.43449711 177.34294052 330.59869506 184.46133037 328.73404217 192.15850067 C328.50523357 193.14398895 328.27642498 194.12947723 328.04068279 195.1448288 C327.82597332 196.03130096 327.61126385 196.91777313 327.39004803 197.83110809 C327.00495858 200.67587135 327.43743983 202.58574135 328.04458904 205.38311005 C328.19234425 208.1036682 328.29949608 210.80538858 328.36099529 213.5276413 C328.38177639 214.29742813 328.40255749 215.06721497 328.42396832 215.86032867 C328.48904953 218.30533672 328.54815496 220.75044688 328.60708904 223.19561005 C328.65031373 224.85903182 328.69392925 226.52244348 328.73794842 228.18584442 C328.84541953 232.25149676 328.94479989 236.31723293 329.04458904 240.38311005 C334.32458904 240.38311005 339.60458904 240.38311005 345.04458904 240.38311005 C345.04458904 200.12311005 345.04458904 159.86311005 345.04458904 118.38311005 C343.39458904 118.71311005 341.74458904 119.04311005 340.04458904 119.38311005 C324.49835948 120.51610886 324.49835948 120.51610886 318.04458904 115.38311005 C314.32594897 111.86457617 311.54945667 108.34917321 310.04458904 103.38311005 C309.38458904 103.38311005 308.72458904 103.38311005 308.04458904 103.38311005 C307.52896404 104.57936005 307.01333904 105.77561005 306.48208904 107.00811005 C303.81809965 112.33608883 300.07322638 115.87909286 294.74771404 118.52373505 C288.23900503 120.59297779 279.83505417 120.65557789 273.54458904 117.82061005 C268.05675779 114.49964779 263.9118018 109.54491216 262.04458904 103.38311005 C261.38458904 103.38311005 260.72458904 103.38311005 260.04458904 103.38311005 C259.52896404 104.57936005 259.01333904 105.77561005 258.48208904 107.00811005 C255.81809965 112.33608883 252.07322638 115.87909286 246.74771404 118.52373505 C240.23900503 120.59297779 231.83505417 120.65557789 225.54458904 117.82061005 C220.05675779 114.49964779 215.9118018 109.54491216 214.04458904 103.38311005 C213.38458904 103.38311005 212.72458904 103.38311005 212.04458904 103.38311005 C211.52896404 104.57936005 211.01333904 105.77561005 210.48208904 107.00811005 C207.81809965 112.33608883 204.07322638 115.87909286 198.74771404 118.52373505 C192.23900503 120.59297779 183.83505417 120.65557789 177.54458904 117.82061005 C172.05675779 114.49964779 167.9118018 109.54491216 166.04458904 103.38311005 C165.38458904 103.38311005 164.72458904 103.38311005 164.04458904 103.38311005 C163.52896404 104.57936005 163.01333904 105.77561005 162.48208904 107.00811005 C159.81809965 112.33608883 156.07322638 115.87909286 150.74771404 118.52373505 C144.23900503 120.59297779 135.83505417 120.65557789 129.54458904 117.82061005 C124.05675779 114.49964779 119.9118018 109.54491216 118.04458904 103.38311005 C117.38458904 103.38311005 116.72458904 103.38311005 116.04458904 103.38311005 C115.52896404 104.57936005 115.01333904 105.77561005 114.48208904 107.00811005 C111.81809965 112.33608883 108.07322638 115.87909286 102.74771404 118.52373505 C96.23900503 120.59297779 87.83505417 120.65557789 81.54458904 117.82061005 C76.05675779 114.49964779 71.9118018 109.54491216 70.04458904 103.38311005 C69.38458904 103.38311005 68.72458904 103.38311005 68.04458904 103.38311005 Z M97.04458904 140.38311005 C97.04458904 144.34311005 97.04458904 148.30311005 97.04458904 152.38311005 C104.96458904 152.38311005 112.88458904 152.38311005 121.04458904 152.38311005 C121.04458904 148.42311005 121.04458904 144.46311005 121.04458904 140.38311005 C113.12458904 140.38311005 105.20458904 140.38311005 97.04458904 140.38311005 Z M0.04458904 386.38311005 C-5.95789763 394.47877155 -9.95541096 402.21009479 -9.95541096 412.38311005 C-6.32541096 412.38311005 -2.69541096 412.38311005 1.04458904 412.38311005 C1.04458904 403.80311005 1.04458904 395.22311005 1.04458904 386.38311005 C0.71458904 386.38311005 0.38458904 386.38311005 0.04458904 386.38311005 Z M-9.95541096 420.38311005 C-8.77214026 431.0325463 -6.49657472 438.02495636 0.04458904 446.38311005 C5.21531619 442.02704174 10.19578736 437.53235983 15.04458904 432.82061005 C16.08292889 431.85091278 16.08292889 431.85091278 17.14224529 430.86162567 C17.79064373 430.22805145 18.43904217 429.59447723 19.10708904 428.9417038 C19.69619061 428.37765839 20.28529217 427.81361298 20.89224529 427.23247528 C22.56523973 425.01795004 22.56523973 425.01795004 21.04458904 420.38311005 C10.81458904 420.38311005 0.58458904 420.38311005 -9.95541096 420.38311005 Z M53.04458904 420.38311005 C52.71458904 422.03311005 52.38458904 423.68311005 52.04458904 425.38311005 C53.85387811 428.02379927 53.85387811 428.02379927 56.54068279 430.4651413 C57.00821468 430.9241835 57.47574657 431.38322571 57.9574461 431.85617828 C59.45216386 433.31734119 60.96637491 434.75627003 62.48208904 436.19561005 C63.49972197 437.18314602 64.51601596 438.17206374 65.53091717 439.16240692 C68.02014496 441.5855263 70.52728854 443.98912912 73.04458904 446.38311005 C78.95764375 440.6475225 82.3127776 433.41241764 84.04458904 425.38311005 C84.04458904 423.73311005 84.04458904 422.08311005 84.04458904 420.38311005 C73.81458904 420.38311005 63.58458904 420.38311005 53.04458904 420.38311005 Z M28.04458904 431.38311005 C25.40389982 433.19239911 25.40389982 433.19239911 22.96255779 435.8792038 C22.50351559 436.34673569 22.04447338 436.81426758 21.57152081 437.2959671 C20.1103579 438.79068486 18.67142905 440.30489591 17.23208904 441.82061005 C16.24455307 442.83824297 15.25563535 443.85453697 14.26529217 444.86943817 C11.84217279 447.35866596 9.43856997 449.86580954 7.04458904 452.38311005 C12.78017659 458.29616475 20.01528145 461.65129861 28.04458904 463.38311005 C29.69458904 463.38311005 31.34458904 463.38311005 33.04458904 463.38311005 C33.04458904 453.15311005 33.04458904 442.92311005 33.04458904 432.38311005 C31.39458904 432.05311005 29.74458904 431.72311005 28.04458904 431.38311005 Z M41.04458904 432.38311005 C41.04458904 442.61311005 41.04458904 452.84311005 41.04458904 463.38311005 C51.6940253 462.19983935 58.68643535 459.9242738 67.04458904 453.38311005 C62.68425825 448.18451411 58.13531031 443.26164118 53.35708904 438.44561005 C52.69386639 437.76176239 52.03064373 437.07791473 51.34732342 436.37334442 C50.70730389 435.72816864 50.06728436 435.08299286 49.40787029 434.4182663 C48.83335125 433.83440155 48.25883221 433.2505368 47.6669035 432.64897919 C45.26719273 430.77651864 43.68978886 431.06051014 41.04458904 432.38311005 Z " fill="#1676A6" transform="translate(98.95541095733643,7.616889953613281)"/>
<path d="M0 0 C122.76 0 245.52 0 372 0 C372 12.375498 372 12.375498 371.59585571 16.55215454 C371.50619034 17.50506882 371.41652496 18.45798309 371.32414246 19.43977356 C371.22442642 20.44271957 371.12471039 21.44566559 371.02197266 22.47900391 C370.91789597 23.56830704 370.81381927 24.65761017 370.70658875 25.77992249 C370.36439248 29.34600498 370.01451914 32.91128305 369.6640625 36.4765625 C369.42192907 38.97273887 369.18010257 41.46894504 368.93856812 43.96517944 C368.3679742 49.84773492 367.79189907 55.72973644 367.21387517 61.61156595 C366.68941471 66.95454077 366.17293414 72.29826343 365.65844882 77.64220679 C365.09861636 83.45458943 364.53248429 89.26634334 363.96375656 95.07786179 C363.72370065 97.53758094 363.48530035 99.99746229 363.24861526 102.45750809 C362.91673861 105.8988201 362.57769556 109.33935477 362.23681641 112.77978516 C362.14114883 113.78677963 362.04548126 114.79377411 361.94691467 115.83128357 C360.14496951 133.74153501 360.14496951 133.74153501 354 140 C349.50126646 143.62904997 345.6985057 144.17000315 340 144 C340.05800781 145.15757812 340.11601562 146.31515625 340.17578125 147.5078125 C340.22270265 149.04683448 340.26820026 150.58590033 340.3125 152.125 C340.35439453 152.88554687 340.39628906 153.64609375 340.43945312 154.4296875 C340.52924304 158.5959395 340.28883246 161.19489224 337.60546875 164.4921875 C333.61608604 168.33204313 331.45473615 168.10101363 326 168 C326.31638428 168.98673706 326.31638428 168.98673706 326.63916016 169.9934082 C326.93612793 170.91984131 327.2330957 171.84627441 327.5390625 172.80078125 C327.86970703 173.83211182 328.20035156 174.86344238 328.54101562 175.92602539 C329.26788363 178.19683306 329.99312588 180.46816171 330.71679688 182.73999023 C332.40549055 188.03957425 334.10310099 193.33435409 335.8671875 198.609375 C336.14481934 199.45201904 336.42245117 200.29466309 336.70849609 201.1628418 C337.22023612 202.71432011 337.74081131 204.26292429 338.27197266 205.80786133 C339.87619445 210.72001769 340.56460442 214.82626907 340 220 C338.5 222.46484375 338.5 222.46484375 336 224 C333.16503573 224.42819773 330.82340346 224.60597632 328 224.5625 C327.2884375 224.58634766 326.576875 224.61019531 325.84375 224.63476562 C322.48188251 224.62535741 320.4989746 224.4626999 317.99511719 222.14086914 C315.18730588 217.72059351 313.84006088 213.10707113 312.328125 208.1171875 C311.83720367 206.5403569 311.83720367 206.5403569 311.33636475 204.93167114 C310.64886679 202.71599082 309.96670501 200.49864858 309.28955078 198.27978516 C308.25052847 194.87673086 307.19508405 191.47911374 306.13671875 188.08203125 C305.47038994 185.92738129 304.80499297 183.77244288 304.140625 181.6171875 C303.82506653 180.59841522 303.50950806 179.57964294 303.18438721 178.52999878 C302.89698669 177.58536774 302.60958618 176.64073669 302.31347656 175.66748047 C302.05906799 174.83650848 301.80465942 174.0055365 301.5425415 173.14938354 C301 171 301 171 301 168 C300.02160156 168.08701172 300.02160156 168.08701172 299.0234375 168.17578125 C290.99409145 168.59027551 290.99409145 168.59027551 287.4375 165.625 C280.89479214 158.57900692 284 157.75863994 284 144 C227.24 144 170.48 144 112 144 C112 148.29 112 152.58 112 157 C109.12547152 176.47871274 97.47100467 194.1288967 82 206 C63.03885036 218.59529605 41.39133436 223.42598951 18.73828125 219.38671875 C-1.57199242 214.03197761 -19.61612667 201.48057734 -30.25 183.25 C-40.48438819 165.01960438 -43.43824932 143.23988375 -38.5 122.8125 C-32.46649193 104.15961237 -20.42136641 88.01874144 -3.59375 77.77734375 C-2 77 -2 77 0 77 C0 51.59 0 26.18 0 0 Z M-1 114 C-7.00248667 122.09566151 -11 129.82698474 -11 140 C-7.37 140 -3.74 140 0 140 C0 131.42 0 122.84 0 114 C-0.33 114 -0.66 114 -1 114 Z M-11 148 C-9.81672931 158.64943625 -7.54116376 165.64184631 -1 174 C4.17072715 169.64393169 9.15119832 165.14924978 14 160.4375 C15.03833984 159.46780273 15.03833984 159.46780273 16.09765625 158.47851562 C16.74605469 157.84494141 17.39445312 157.21136719 18.0625 156.55859375 C18.65160156 155.99454834 19.24070312 155.43050293 19.84765625 154.84936523 C21.52065069 152.63483999 21.52065069 152.63483999 20 148 C9.77 148 -0.46 148 -11 148 Z M52 148 C51.67 149.65 51.34 151.3 51 153 C52.80928907 155.64068923 52.80928907 155.64068923 55.49609375 158.08203125 C55.96362564 158.54107346 56.43115753 159.00011566 56.91285706 159.47306824 C58.40757481 160.93423114 59.92178586 162.37315999 61.4375 163.8125 C62.45513293 164.80003597 63.47142692 165.78895369 64.48632812 166.77929688 C66.97555591 169.20241626 69.48269949 171.60601908 72 174 C77.91305471 168.26441245 81.26818856 161.02930759 83 153 C83 151.35 83 149.7 83 148 C72.77 148 62.54 148 52 148 Z M27 159 C24.35931077 160.80928907 24.35931077 160.80928907 21.91796875 163.49609375 C21.45892654 163.96362564 20.99988434 164.43115753 20.52693176 164.91285706 C19.06576886 166.40757481 17.62684001 167.92178586 16.1875 169.4375 C15.19996403 170.45513293 14.21104631 171.47142692 13.22070312 172.48632812 C10.79758374 174.97555591 8.39398092 177.48269949 6 180 C11.73558755 185.91305471 18.97069241 189.26818856 27 191 C28.65 191 30.3 191 32 191 C32 180.77 32 170.54 32 160 C30.35 159.67 28.7 159.34 27 159 Z M40 160 C40 170.23 40 180.46 40 191 C50.64943625 189.81672931 57.64184631 187.54116376 66 181 C61.63966921 175.80140407 57.09072127 170.87853113 52.3125 166.0625 C51.64927734 165.37865234 50.98605469 164.69480469 50.30273438 163.99023438 C49.66271484 163.34505859 49.02269531 162.69988281 48.36328125 162.03515625 C47.78876221 161.4512915 47.21424316 160.86742676 46.62231445 160.26586914 C44.22260368 158.39340859 42.64519982 158.67740009 40 160 Z " fill="#5097C1" transform="translate(100,280)"/>
<path d="M0 0 C1.06476563 0.35191406 2.12953125 0.70382812 3.2265625 1.06640625 C23.29753488 8.18760605 38.49628493 22.34733649 47.8125 41.375 C48.57889111 43.23509508 49.30675713 45.11142293 50 47 C50.391875 48.04800781 50.78375 49.09601563 51.1875 50.17578125 C57.09205044 68.60699948 55.79418127 89.54083215 47.26416016 106.8605957 C36.75053953 127.09564552 20.36181996 139.82458163 -0.94140625 147.08984375 C-21.44898179 153.19235346 -42.89411568 148.99328466 -61.30078125 139.1328125 C-79.94274947 128.6766259 -91.04092407 111.02556417 -97 91 C-101.73415699 70.57701735 -97.77613928 49.34896117 -87.05566406 31.66455078 C-78.37260183 17.97326533 -66.22217111 8.0001888 -51.125 2.3125 C-50.32690918 2.01142334 -49.52881836 1.71034668 -48.70654297 1.40014648 C-33.24885794 -4.31096843 -15.76437988 -5.49766189 0 0 Z M-59 43 C-65.00248667 51.09566151 -69 58.82698474 -69 69 C-65.37 69 -61.74 69 -58 69 C-58 60.42 -58 51.84 -58 43 C-58.33 43 -58.66 43 -59 43 Z M-69 77 C-67.81672931 87.64943625 -65.54116376 94.64184631 -59 103 C-53.82927285 98.64393169 -48.84880168 94.14924978 -44 89.4375 C-42.96166016 88.46780273 -42.96166016 88.46780273 -41.90234375 87.47851562 C-41.25394531 86.84494141 -40.60554688 86.21136719 -39.9375 85.55859375 C-39.34839844 84.99454834 -38.75929688 84.43050293 -38.15234375 83.84936523 C-36.47934931 81.63483999 -36.47934931 81.63483999 -38 77 C-48.23 77 -58.46 77 -69 77 Z M-6 77 C-6.33 78.65 -6.66 80.3 -7 82 C-5.19071093 84.64068923 -5.19071093 84.64068923 -2.50390625 87.08203125 C-2.03637436 87.54107346 -1.56884247 88.00011566 -1.08714294 88.47306824 C0.40757481 89.93423114 1.92178586 91.37315999 3.4375 92.8125 C4.45513293 93.80003597 5.47142692 94.78895369 6.48632812 95.77929688 C8.97555591 98.20241626 11.48269949 100.60601908 14 103 C19.91305471 97.26441245 23.26818856 90.02930759 25 82 C25 80.35 25 78.7 25 77 C14.77 77 4.54 77 -6 77 Z M-31 88 C-33.64068923 89.80928907 -33.64068923 89.80928907 -36.08203125 92.49609375 C-36.54107346 92.96362564 -37.00011566 93.43115753 -37.47306824 93.91285706 C-38.93423114 95.40757481 -40.37315999 96.92178586 -41.8125 98.4375 C-42.80003597 99.45513293 -43.78895369 100.47142692 -44.77929688 101.48632812 C-47.20241626 103.97555591 -49.60601908 106.48269949 -52 109 C-46.26441245 114.91305471 -39.02930759 118.26818856 -31 120 C-29.35 120 -27.7 120 -26 120 C-26 109.77 -26 99.54 -26 89 C-27.65 88.67 -29.3 88.34 -31 88 Z M-18 89 C-18 99.23 -18 109.46 -18 120 C-7.35056375 118.81672931 -0.35815369 116.54116376 8 110 C3.63966921 104.80140407 -0.90927873 99.87853113 -5.6875 95.0625 C-6.35072266 94.37865234 -7.01394531 93.69480469 -7.69726562 92.99023438 C-8.33728516 92.34505859 -8.97730469 91.69988281 -9.63671875 91.03515625 C-10.21123779 90.4512915 -10.78575684 89.86742676 -11.37768555 89.26586914 C-13.77739632 87.39340859 -15.35480018 87.67740009 -18 89 Z " fill="#414042" transform="translate(158,351)"/>
<path d="M0 0 C1.38177674 -0.00350281 2.76354945 -0.0091632 4.14530945 -0.01681519 C7.89136588 -0.03105033 11.63668715 -0.01401494 15.38267326 0.00946999 C19.30544621 0.02959424 23.2281891 0.02369861 27.15100098 0.0213623 C33.73832303 0.02141586 40.32535809 0.0411625 46.91259766 0.07324219 C54.52496883 0.11013438 62.13696411 0.11891759 69.74941301 0.11194468 C77.07666117 0.1056362 84.40378063 0.11640032 91.73100281 0.13591003 C94.84732398 0.14407805 97.9635793 0.14679469 101.07991028 0.1452179 C104.75065178 0.14433798 108.42103688 0.15858337 112.09168434 0.18444443 C114.07901385 0.19500583 116.06640425 0.19093756 118.05375671 0.18643188 C119.23979996 0.19778168 120.4258432 0.20913147 121.64782715 0.2208252 C122.67650658 0.22455391 123.705186 0.22828262 124.76503754 0.23212433 C128.02772903 0.67801316 129.92266195 1.68405782 132.56835938 3.61523438 C134.13892143 6.75635849 133.72454754 10.11651468 133.72949219 13.56567383 C133.73445709 14.38698792 133.739422 15.208302 133.74453735 16.05450439 C133.75917549 18.77918325 133.76596408 21.50380386 133.77148438 24.22851562 C133.77723492 26.11940005 133.78299267 28.01028445 133.78875732 29.90116882 C133.79927233 33.86990633 133.80511157 37.83862356 133.80859375 41.80737305 C133.81407639 46.89180954 133.83809739 51.97597795 133.8665657 57.06033039 C133.88519471 60.96797975 133.89039785 64.87556461 133.89192963 68.78325462 C133.89495661 70.65753837 133.90298669 72.53182096 133.91611481 74.40606117 C133.93317913 77.02978482 133.93129407 79.65285462 133.92480469 82.27661133 C133.93401947 83.05030563 133.94323425 83.82399994 133.95272827 84.62113953 C133.91797745 89.1087715 133.43897076 92.09625496 130.56835938 95.61523438 C127.41514893 96.66630452 125.1926177 96.74613088 121.88160706 96.75567627 C120.69686798 96.76138641 119.51212891 96.76709656 118.29148865 96.77297974 C116.99010452 96.7740976 115.6887204 96.77521545 114.34790039 96.77636719 C112.96480171 96.78099599 111.58170431 96.78602074 110.1986084 96.79141235 C106.44037335 96.80453024 102.68215616 96.81097983 98.9239018 96.81542301 C96.57653834 96.81835404 94.22917977 96.82245885 91.88181877 96.82692719 C84.53913348 96.840599 77.19645935 96.85026784 69.85376221 96.85412908 C61.37415618 96.85861261 52.89471112 96.87617544 44.41515404 96.90512967 C37.86221566 96.92672984 31.30932264 96.93683242 24.75634903 96.93817019 C20.84157273 96.9392192 16.9269478 96.94514739 13.01220894 96.96298981 C9.33089644 96.97944238 5.6498496 96.98163988 1.96851349 96.9728508 C-0.02742438 96.97171074 -2.02335333 96.98544886 -4.01924133 96.99960327 C-5.80057968 96.99124954 -5.80057968 96.99124954 -7.61790466 96.98272705 C-8.65010352 96.98419361 -9.68230238 96.98566017 -10.74577999 96.98717117 C-13.85342908 96.5568253 -15.20461744 95.79689534 -17.43164062 93.61523438 C-18.67142121 89.89589263 -18.60324195 86.42666602 -18.62451172 82.55126953 C-18.63268921 81.72980942 -18.6408667 80.9083493 -18.64929199 80.06199646 C-18.67411121 77.34277066 -18.69065124 74.62359686 -18.70507812 71.90429688 C-18.7104018 70.97552105 -18.71572548 70.04674522 -18.72121048 69.08982468 C-18.74792429 64.17577693 -18.76730666 59.26175446 -18.78173828 54.34765625 C-18.79509099 50.27939436 -18.82297044 46.21163245 -18.86376953 42.14355469 C-18.91303059 37.23172237 -18.93785094 32.32034442 -18.94496536 27.4082756 C-18.95168521 25.53674739 -18.96692634 23.6652296 -18.99085617 21.79384232 C-19.02244271 19.17468489 -19.02255497 16.55728581 -19.01513672 13.93798828 C-19.03154205 13.16586502 -19.04794739 12.39374176 -19.06484985 11.59822083 C-19.02363729 8.04228995 -18.49782569 5.73152569 -16.73464966 2.6335144 C-11.41766323 -0.6153921 -6.10994199 -0.06269244 0 0 Z " fill="#D2CCBB" transform="translate(294.431640625,303.384765625)"/>
<path d="M0 0 C0.69512695 -0.0038269 1.39025391 -0.00765381 2.10644531 -0.01159668 C3.57228041 -0.0143118 5.03816428 -0.00697835 6.50390625 0.00976562 C8.74328975 0.03118581 10.97946587 0.00995557 13.21875 -0.015625 C14.64584039 -0.01298165 16.07292879 -0.0078565 17.5 0 C19.44132812 0.00676758 19.44132812 0.00676758 21.421875 0.01367188 C24.75 0.53125 24.75 0.53125 27.17871094 2.32128906 C29.52992792 5.62819026 29.17865141 8.89214622 29 12.78125 C28.98195313 13.52632812 28.96390625 14.27140625 28.9453125 15.0390625 C28.89835649 16.87034701 28.82661652 18.70096649 28.75 20.53125 C30.57337891 20.469375 30.57337891 20.469375 32.43359375 20.40625 C38.93137486 20.41769227 44.02307394 23.09029372 48.8359375 27.3984375 C54.45170305 33.48810732 57.13705151 39.24902903 57.09057617 47.56811523 C57.09093778 48.2429876 57.09129938 48.91785997 57.09167194 49.61318302 C57.08945366 51.77238428 57.06670675 53.93078367 57.04296875 56.08984375 C57.03855138 57.4329796 57.03549486 58.77612063 57.03381348 60.1192627 C57.01816037 65.06917116 56.97627651 70.01896867 56.9375 74.96875 C56.875625 86.044375 56.81375 97.12 56.75 108.53125 C25.07 108.53125 -6.61 108.53125 -39.25 108.53125 C-39.353125 97.5175 -39.45625 86.50375 -39.5625 75.15625 C-39.60802002 71.69721191 -39.65354004 68.23817383 -39.70043945 64.67431641 C-39.72302246 60.40307617 -39.72302246 60.40307617 -39.72721863 58.39437866 C-39.73482431 57.0114026 -39.75225798 55.62845667 -39.77787781 54.24569702 C-39.95269005 44.30102603 -39.3179781 35.99558507 -32.27339172 28.40005493 C-27.23760379 23.60854195 -22.16212811 20.33961139 -15.03125 20.46484375 C-13.7834375 20.48675781 -12.535625 20.50867188 -11.25 20.53125 C-11.29640625 19.42265625 -11.3428125 18.3140625 -11.390625 17.171875 C-11.42815102 15.70836032 -11.46455029 14.24481644 -11.5 12.78125 C-11.53351563 12.05164063 -11.56703125 11.32203125 -11.6015625 10.5703125 C-11.66180552 7.25694666 -11.62893279 5.06420519 -9.67871094 2.32128906 C-6.35901107 -0.12543786 -4.09954949 0.01429126 0 0 Z M-3.25 8.53125 C-3.25 12.49125 -3.25 16.45125 -3.25 20.53125 C4.67 20.53125 12.59 20.53125 20.75 20.53125 C20.75 16.57125 20.75 12.61125 20.75 8.53125 C12.83 8.53125 4.91 8.53125 -3.25 8.53125 Z " fill="#FFA154" transform="translate(199.25,139.46875)"/>
<path d="M0 0 C1.03833984 0.75023437 1.03833984 0.75023437 2.09765625 1.515625 C3.02771484 2.17304688 3.02771484 2.17304688 3.9765625 2.84375 C13.7253369 10.43339987 21.28339262 23.10671524 23.8125 35.1875 C25.87048583 51.98968564 22.506635 68.2613668 12.28515625 81.94140625 C3.22795093 92.80640053 -10.66891692 101.18606438 -24.93530273 102.73657227 C-41.38845465 103.6243526 -56.08668644 99.90267706 -69.08984375 89.328125 C-79.34442927 79.74597132 -87.47094531 65.6011542 -88.23828125 51.3515625 C-88.57216395 34.88674276 -84.43726899 19.75569317 -72.9375 7.421875 C-52.43038258 -11.78632712 -23.75288953 -15.70307889 0 0 Z M-68.90234375 16.515625 C-74.90483042 24.61128651 -78.90234375 32.34260974 -78.90234375 42.515625 C-75.27234375 42.515625 -71.64234375 42.515625 -67.90234375 42.515625 C-67.90234375 33.935625 -67.90234375 25.355625 -67.90234375 16.515625 C-68.23234375 16.515625 -68.56234375 16.515625 -68.90234375 16.515625 Z M-78.90234375 50.515625 C-77.71907306 61.16506125 -75.44350751 68.15747131 -68.90234375 76.515625 C-63.7316166 72.15955669 -58.75114543 67.66487478 -53.90234375 62.953125 C-52.86400391 61.98342773 -52.86400391 61.98342773 -51.8046875 60.99414062 C-51.15628906 60.36056641 -50.50789063 59.72699219 -49.83984375 59.07421875 C-49.25074219 58.51017334 -48.66164063 57.94612793 -48.0546875 57.36499023 C-46.38169306 55.15046499 -46.38169306 55.15046499 -47.90234375 50.515625 C-58.13234375 50.515625 -68.36234375 50.515625 -78.90234375 50.515625 Z M-15.90234375 50.515625 C-16.23234375 52.165625 -16.56234375 53.815625 -16.90234375 55.515625 C-15.09305468 58.15631423 -15.09305468 58.15631423 -12.40625 60.59765625 C-11.93871811 61.05669846 -11.47118622 61.51574066 -10.98948669 61.98869324 C-9.49476894 63.44985614 -7.98055789 64.88878499 -6.46484375 66.328125 C-5.44721082 67.31566097 -4.43091683 68.30457869 -3.41601562 69.29492188 C-0.92678784 71.71804126 1.58035574 74.12164408 4.09765625 76.515625 C10.01071096 70.78003745 13.36584481 63.54493259 15.09765625 55.515625 C15.09765625 53.865625 15.09765625 52.215625 15.09765625 50.515625 C4.86765625 50.515625 -5.36234375 50.515625 -15.90234375 50.515625 Z M-40.90234375 61.515625 C-43.54303298 63.32491407 -43.54303298 63.32491407 -45.984375 66.01171875 C-46.44341721 66.47925064 -46.90245941 66.94678253 -47.37541199 67.42848206 C-48.83657489 68.92319981 -50.27550374 70.43741086 -51.71484375 71.953125 C-52.70237972 72.97075793 -53.69129744 73.98705192 -54.68164062 75.00195312 C-57.10476001 77.49118091 -59.50836283 79.99832449 -61.90234375 82.515625 C-56.1667562 88.42867971 -48.93165134 91.78381356 -40.90234375 93.515625 C-39.25234375 93.515625 -37.60234375 93.515625 -35.90234375 93.515625 C-35.90234375 83.285625 -35.90234375 73.055625 -35.90234375 62.515625 C-37.55234375 62.185625 -39.20234375 61.855625 -40.90234375 61.515625 Z M-27.90234375 62.515625 C-27.90234375 72.745625 -27.90234375 82.975625 -27.90234375 93.515625 C-17.2529075 92.33235431 -10.26049744 90.05678876 -1.90234375 83.515625 C-6.26267454 78.31702907 -10.81162248 73.39415613 -15.58984375 68.578125 C-16.25306641 67.89427734 -16.91628906 67.21042969 -17.59960938 66.50585938 C-18.23962891 65.86068359 -18.87964844 65.21550781 -19.5390625 64.55078125 C-20.11358154 63.9669165 -20.68810059 63.38305176 -21.2800293 62.78149414 C-23.67974007 60.90903359 -25.25714393 61.19302509 -27.90234375 62.515625 Z " fill="#5198C1" transform="translate(167.90234375,377.484375)"/>
<path d="M0 0 C15.84 0 31.68 0 48 0 C48.16043524 25.38441977 48.16043524 25.38441977 48.1953125 36.22265625 C48.21920391 43.61193359 48.24743771 51.00101225 48.30175781 58.39013672 C48.34528731 64.34885839 48.36915244 70.30736693 48.37950897 76.26623535 C48.38688751 78.53718418 48.40129607 80.80812163 48.42292023 83.07897949 C48.45204786 86.26514701 48.45595198 89.45043905 48.45410156 92.63671875 C48.47567322 94.03826454 48.47567322 94.03826454 48.49768066 95.46812439 C48.45313631 102.57796664 46.75769556 107.85304721 42.03515625 113.2421875 C41.38417969 113.78101562 40.73320312 114.31984375 40.0625 114.875 C39.41410156 115.42929688 38.76570313 115.98359375 38.09765625 116.5546875 C31.59642443 121.03412097 24.62859083 120.67463728 17 120 C10.34040667 118.31914417 5.81452553 113.53621678 2 108 C-0.60413388 103.14890247 -0.26782005 98.33614176 -0.22705078 92.97729492 C-0.22734283 91.97194702 -0.22763489 90.96659912 -0.22793579 89.93078613 C-0.22654452 86.61392531 -0.21099266 83.29729024 -0.1953125 79.98046875 C-0.19158165 77.67833072 -0.18873502 75.37619109 -0.18673706 73.0740509 C-0.17910627 67.01925257 -0.15946243 60.96455041 -0.1373291 54.90979004 C-0.1132588 47.64270261 -0.10408706 40.375583 -0.09242249 33.1084671 C-0.07303782 22.07224454 -0.0347112 11.03623295 0 0 Z " fill="#C23A43" transform="translate(360,8)"/>
<path d="M0 0 C15.84 0 31.68 0 48 0 C48.16043524 25.38441977 48.16043524 25.38441977 48.1953125 36.22265625 C48.21920391 43.61193359 48.24743771 51.00101225 48.30175781 58.39013672 C48.34528731 64.34885839 48.36915244 70.30736693 48.37950897 76.26623535 C48.38688751 78.53718418 48.40129607 80.80812163 48.42292023 83.07897949 C48.45204786 86.26514701 48.45595198 89.45043905 48.45410156 92.63671875 C48.47567322 94.03826454 48.47567322 94.03826454 48.49768066 95.46812439 C48.45313631 102.57796664 46.75769556 107.85304721 42.03515625 113.2421875 C41.38417969 113.78101562 40.73320312 114.31984375 40.0625 114.875 C39.41410156 115.42929688 38.76570313 115.98359375 38.09765625 116.5546875 C31.59642443 121.03412097 24.62859083 120.67463728 17 120 C10.34040667 118.31914417 5.81452553 113.53621678 2 108 C-0.60413388 103.14890247 -0.26782005 98.33614176 -0.22705078 92.97729492 C-0.22734283 91.97194702 -0.22763489 90.96659912 -0.22793579 89.93078613 C-0.22654452 86.61392531 -0.21099266 83.29729024 -0.1953125 79.98046875 C-0.19158165 77.67833072 -0.18873502 75.37619109 -0.18673706 73.0740509 C-0.17910627 67.01925257 -0.15946243 60.96455041 -0.1373291 54.90979004 C-0.1132588 47.64270261 -0.10408706 40.375583 -0.09242249 33.1084671 C-0.07303782 22.07224454 -0.0347112 11.03623295 0 0 Z " fill="#E0D7C9" transform="translate(312,8)"/>
<path d="M0 0 C15.84 0 31.68 0 48 0 C48.16043524 25.38441977 48.16043524 25.38441977 48.1953125 36.22265625 C48.21920391 43.61193359 48.24743771 51.00101225 48.30175781 58.39013672 C48.34528731 64.34885839 48.36915244 70.30736693 48.37950897 76.26623535 C48.38688751 78.53718418 48.40129607 80.80812163 48.42292023 83.07897949 C48.45204786 86.26514701 48.45595198 89.45043905 48.45410156 92.63671875 C48.47567322 94.03826454 48.47567322 94.03826454 48.49768066 95.46812439 C48.45313631 102.57796664 46.75769556 107.85304721 42.03515625 113.2421875 C41.38417969 113.78101562 40.73320312 114.31984375 40.0625 114.875 C39.41410156 115.42929688 38.76570313 115.98359375 38.09765625 116.5546875 C31.59642443 121.03412097 24.62859083 120.67463728 17 120 C10.34040667 118.31914417 5.81452553 113.53621678 2 108 C-0.60413388 103.14890247 -0.26782005 98.33614176 -0.22705078 92.97729492 C-0.22734283 91.97194702 -0.22763489 90.96659912 -0.22793579 89.93078613 C-0.22654452 86.61392531 -0.21099266 83.29729024 -0.1953125 79.98046875 C-0.19158165 77.67833072 -0.18873502 75.37619109 -0.18673706 73.0740509 C-0.17910627 67.01925257 -0.15946243 60.96455041 -0.1373291 54.90979004 C-0.1132588 47.64270261 -0.10408706 40.375583 -0.09242249 33.1084671 C-0.07303782 22.07224454 -0.0347112 11.03623295 0 0 Z " fill="#C33B43" transform="translate(264,8)"/>
<path d="M0 0 C15.84 0 31.68 0 48 0 C48.16043524 25.38441977 48.16043524 25.38441977 48.1953125 36.22265625 C48.21920391 43.61193359 48.24743771 51.00101225 48.30175781 58.39013672 C48.34528731 64.34885839 48.36915244 70.30736693 48.37950897 76.26623535 C48.38688751 78.53718418 48.40129607 80.80812163 48.42292023 83.07897949 C48.45204786 86.26514701 48.45595198 89.45043905 48.45410156 92.63671875 C48.47567322 94.03826454 48.47567322 94.03826454 48.49768066 95.46812439 C48.45313631 102.57796664 46.75769556 107.85304721 42.03515625 113.2421875 C41.38417969 113.78101562 40.73320312 114.31984375 40.0625 114.875 C39.41410156 115.42929688 38.76570313 115.98359375 38.09765625 116.5546875 C31.59642443 121.03412097 24.62859083 120.67463728 17 120 C10.34040667 118.31914417 5.81452553 113.53621678 2 108 C-0.60413388 103.14890247 -0.26782005 98.33614176 -0.22705078 92.97729492 C-0.22734283 91.97194702 -0.22763489 90.96659912 -0.22793579 89.93078613 C-0.22654452 86.61392531 -0.21099266 83.29729024 -0.1953125 79.98046875 C-0.19158165 77.67833072 -0.18873502 75.37619109 -0.18673706 73.0740509 C-0.17910627 67.01925257 -0.15946243 60.96455041 -0.1373291 54.90979004 C-0.1132588 47.64270261 -0.10408706 40.375583 -0.09242249 33.1084671 C-0.07303782 22.07224454 -0.0347112 11.03623295 0 0 Z " fill="#E0D7C9" transform="translate(216,8)"/>
<path d="M0 0 C15.84 0 31.68 0 48 0 C48.16043524 25.38441977 48.16043524 25.38441977 48.1953125 36.22265625 C48.21920391 43.61193359 48.24743771 51.00101225 48.30175781 58.39013672 C48.34528731 64.34885839 48.36915244 70.30736693 48.37950897 76.26623535 C48.38688751 78.53718418 48.40129607 80.80812163 48.42292023 83.07897949 C48.45204786 86.26514701 48.45595198 89.45043905 48.45410156 92.63671875 C48.47567322 94.03826454 48.47567322 94.03826454 48.49768066 95.46812439 C48.45313631 102.57796664 46.75769556 107.85304721 42.03515625 113.2421875 C41.38417969 113.78101562 40.73320312 114.31984375 40.0625 114.875 C39.41410156 115.42929688 38.76570313 115.98359375 38.09765625 116.5546875 C31.59642443 121.03412097 24.62859083 120.67463728 17 120 C10.34040667 118.31914417 5.81452553 113.53621678 2 108 C-0.60413388 103.14890247 -0.26782005 98.33614176 -0.22705078 92.97729492 C-0.22734283 91.97194702 -0.22763489 90.96659912 -0.22793579 89.93078613 C-0.22654452 86.61392531 -0.21099266 83.29729024 -0.1953125 79.98046875 C-0.19158165 77.67833072 -0.18873502 75.37619109 -0.18673706 73.0740509 C-0.17910627 67.01925257 -0.15946243 60.96455041 -0.1373291 54.90979004 C-0.1132588 47.64270261 -0.10408706 40.375583 -0.09242249 33.1084671 C-0.07303782 22.07224454 -0.0347112 11.03623295 0 0 Z " fill="#C33B44" transform="translate(168,8)"/>
<path d="M0 0 C15.84 0 31.68 0 48 0 C48.16043524 24.84517912 48.16043524 24.84517912 48.1953125 35.46289062 C48.21919288 42.69844342 48.24739684 49.93379309 48.30175781 57.16918945 C48.3453253 63.00472294 48.3691604 68.8400385 48.37950897 74.67572212 C48.38688072 76.89839672 48.40127598 79.12105984 48.42292023 81.34364128 C48.45209853 84.46494894 48.4559499 87.58536428 48.45410156 90.70678711 C48.47567322 92.07488777 48.47567322 92.07488777 48.49768066 93.47062683 C48.45077828 100.82502398 46.53601215 106.69763825 42.03515625 112.55859375 C41.05869141 113.48865234 41.05869141 113.48865234 40.0625 114.4375 C39.41410156 115.07558594 38.76570313 115.71367188 38.09765625 116.37109375 C31.84810372 121.22409823 24.55959149 120.6685353 17 120 C10.34040667 118.31914417 5.81452553 113.53621678 2 108 C-0.60413388 103.14890247 -0.26782005 98.33614176 -0.22705078 92.97729492 C-0.22734283 91.97194702 -0.22763489 90.96659912 -0.22793579 89.93078613 C-0.22654452 86.61392531 -0.21099266 83.29729024 -0.1953125 79.98046875 C-0.19158165 77.67833072 -0.18873502 75.37619109 -0.18673706 73.0740509 C-0.17910627 67.01925257 -0.15946243 60.96455041 -0.1373291 54.90979004 C-0.1132588 47.64270261 -0.10408706 40.375583 -0.09242249 33.1084671 C-0.07303782 22.07224454 -0.0347112 11.03623295 0 0 Z " fill="#E0D7C9" transform="translate(408,8)"/>
<path d="M0 0 C15.84 0 31.68 0 48 0 C48.16043524 25.38441977 48.16043524 25.38441977 48.1953125 36.22265625 C48.21920391 43.61193359 48.24743771 51.00101225 48.30175781 58.39013672 C48.34528731 64.34885839 48.36915244 70.30736693 48.37950897 76.26623535 C48.38688751 78.53718418 48.40129607 80.80812163 48.42292023 83.07897949 C48.45204786 86.26514701 48.45595198 89.45043905 48.45410156 92.63671875 C48.47567322 94.03826454 48.47567322 94.03826454 48.49768066 95.46812439 C48.45313631 102.57796664 46.75769556 107.85304721 42.03515625 113.2421875 C41.38417969 113.78101562 40.73320312 114.31984375 40.0625 114.875 C39.41410156 115.42929688 38.76570313 115.98359375 38.09765625 116.5546875 C33.4601049 119.75002083 29.59008471 120.27409519 24 120.25 C22.205625 120.25773437 22.205625 120.25773437 20.375 120.265625 C17.14195026 120.01117201 14.90582541 119.38687122 12 118 C12 117.34 12 116.68 12 116 C11.40445313 115.73703125 10.80890625 115.4740625 10.1953125 115.203125 C7.89488292 113.94239135 6.57755593 112.728887 4.875 110.75 C4.37742187 110.18796875 3.87984375 109.6259375 3.3671875 109.046875 C-0.40679708 103.39668095 -0.2779466 97.57945732 -0.22705078 91.04736328 C-0.22734283 90.0613765 -0.22763489 89.07538971 -0.22793579 88.05952454 C-0.22654675 84.81302981 -0.21100542 81.56676695 -0.1953125 78.3203125 C-0.19158086 76.06444423 -0.1887346 73.80857433 -0.18673706 71.55270386 C-0.1791125 65.62450664 -0.15947403 59.69640791 -0.1373291 53.76824951 C-0.1132419 46.65048254 -0.10408409 39.53268257 -0.09242249 32.41488647 C-0.07304905 21.60985588 -0.03471809 10.80504127 0 0 Z " fill="#E0D7C9" transform="translate(120,8)"/>
<path d="M0 0 C4.45798044 -0.14667378 8.91533054 -0.23453375 13.375 -0.3125 C14.62667969 -0.35439453 15.87835938 -0.39628906 17.16796875 -0.43945312 C26.26833385 -0.55856785 33.31638096 0.64283444 40.14013672 6.9909668 C46.21092396 13.354491 48.45723498 19.56372718 48.40405273 28.28686523 C48.41091599 29.08458344 48.41777924 29.88230164 48.42485046 30.70419312 C48.44304536 33.32251138 48.43929154 35.94022626 48.43359375 38.55859375 C48.43815905 40.39030653 48.44346567 42.2220176 48.44947815 44.0537262 C48.45839489 47.88590469 48.45600251 51.71787462 48.44604492 55.55004883 C48.43455691 60.44699308 48.45477142 65.34321604 48.48396206 70.24006557 C48.50235859 74.02090483 48.50202473 77.80157233 48.49632454 81.58244514 C48.49617175 83.38725865 48.50218105 85.19208411 48.51461601 86.99685478 C48.52959002 89.52626937 48.51880302 92.05436528 48.50170898 94.58374023 C48.51137695 95.32009201 48.52104492 96.05644379 48.53100586 96.81510925 C48.44041762 103.25638265 46.28441108 108.39313726 42.03515625 113.2421875 C41.38417969 113.78101562 40.73320312 114.31984375 40.0625 114.875 C39.41410156 115.42929688 38.76570313 115.98359375 38.09765625 116.5546875 C33.4601049 119.75002083 29.59008471 120.27409519 24 120.25 C22.205625 120.25773437 22.205625 120.25773437 20.375 120.265625 C17.14195026 120.01117201 14.90582541 119.38687122 12 118 C12 117.34 12 116.68 12 116 C11.40445312 115.73703125 10.80890625 115.4740625 10.1953125 115.203125 C7.89488292 113.94239135 6.57755593 112.728887 4.875 110.75 C4.37742187 110.18796875 3.87984375 109.6259375 3.3671875 109.046875 C-0.40679708 103.39668095 -0.2779466 97.57945732 -0.22705078 91.04736328 C-0.22734283 90.0613765 -0.22763489 89.07538971 -0.22793579 88.05952454 C-0.22654675 84.81302981 -0.21100542 81.56676695 -0.1953125 78.3203125 C-0.19158086 76.06444423 -0.1887346 73.80857433 -0.18673706 71.55270386 C-0.1791125 65.62450664 -0.15947403 59.69640791 -0.1373291 53.76824951 C-0.11684536 47.71530489 -0.10772993 41.66234431 -0.09765625 35.609375 C-0.0762271 23.73954014 -0.04210529 11.86977827 0 0 Z " fill="#C23942" transform="translate(456,8)"/>
<path d="M0 0 C1.30388672 0.01353516 2.60777344 0.02707031 3.95117188 0.04101562 C7.15537622 0.07622666 10.35872105 0.12547906 13.5625 0.1875 C13.65531698 13.20076662 13.72632463 26.21395406 13.76974869 39.2274847 C13.79059359 45.27067218 13.81885512 51.31363262 13.86425781 57.35668945 C13.9078253 63.19222294 13.9316604 69.0275385 13.94200897 74.86322212 C13.94938072 77.08589672 13.96377598 79.30855984 13.98542023 81.53114128 C14.01459853 84.65244894 14.0184499 87.77286428 14.01660156 90.89428711 C14.03817322 92.26238777 14.03817322 92.26238777 14.06018066 93.65812683 C14.01012206 101.5074265 11.93477036 108.00679851 6.4375 113.75 C3.5625 116.1875 3.5625 116.1875 1.5625 116.1875 C1.5625 116.8475 1.5625 117.5075 1.5625 118.1875 C-5.01678751 121.28509299 -12.86967292 121.34040204 -19.8828125 119.5703125 C-25.82730166 116.93608789 -30.6050641 111.8301062 -33.50868225 106.05815125 C-34.69085899 102.40445584 -34.74049535 98.95841472 -34.74389648 95.15942383 C-34.75222 94.36521027 -34.76054352 93.5709967 -34.76911926 92.75271606 C-34.79316551 90.13327083 -34.80198611 87.51407508 -34.80859375 84.89453125 C-34.81756636 83.06475249 -34.82668832 81.23497445 -34.83595276 79.40519714 C-34.85243227 75.56951112 -34.86014059 71.73391225 -34.86303711 67.89819336 C-34.86841027 63.00354839 -34.90605046 58.10973287 -34.95178127 53.21532154 C-34.98165545 49.43441343 -34.98876296 45.65370222 -34.98976326 41.87268639 C-34.99394743 40.0694977 -35.00630867 38.26630744 -35.02728081 36.46323586 C-35.24221497 16.38077752 -35.24221497 16.38077752 -27.44749451 8.06428528 C-19.01537074 -0.05153573 -11.29022532 -0.22227097 0 0 Z " fill="#C43C44" transform="translate(106.4375,7.8125)"/>
<path d="M0 0 C0.69512695 -0.0038269 1.39025391 -0.00765381 2.10644531 -0.01159668 C3.57228041 -0.0143118 5.03816428 -0.00697835 6.50390625 0.00976562 C8.74328975 0.03118581 10.97946587 0.00995557 13.21875 -0.015625 C14.64584039 -0.01298165 16.07292879 -0.0078565 17.5 0 C19.44132812 0.00676758 19.44132812 0.00676758 21.421875 0.01367188 C24.75 0.53125 24.75 0.53125 27.17871094 2.32128906 C29.52992792 5.62819026 29.17865141 8.89214622 29 12.78125 C28.98195313 13.52632812 28.96390625 14.27140625 28.9453125 15.0390625 C28.89835649 16.87034701 28.82661652 18.70096649 28.75 20.53125 C30.57337891 20.469375 30.57337891 20.469375 32.43359375 20.40625 C38.93137486 20.41769227 44.02307394 23.09029372 48.8359375 27.3984375 C58.29950247 37.66061555 56.75 45.54815787 56.75 60.53125 C25.07 60.53125 -6.61 60.53125 -39.25 60.53125 C-39.25 35.99150105 -39.25 35.99150105 -32.3828125 28.4921875 C-27.29135176 23.6780826 -22.23302327 20.33836633 -15.03125 20.46484375 C-13.7834375 20.48675781 -12.535625 20.50867188 -11.25 20.53125 C-11.29640625 19.42265625 -11.3428125 18.3140625 -11.390625 17.171875 C-11.42815102 15.70836032 -11.46455029 14.24481644 -11.5 12.78125 C-11.53351563 12.05164063 -11.56703125 11.32203125 -11.6015625 10.5703125 C-11.66180552 7.25694666 -11.62893279 5.06420519 -9.67871094 2.32128906 C-6.35901107 -0.12543786 -4.09954949 0.01429126 0 0 Z M-3.25 8.53125 C-3.25 12.49125 -3.25 16.45125 -3.25 20.53125 C4.67 20.53125 12.59 20.53125 20.75 20.53125 C20.75 16.57125 20.75 12.61125 20.75 8.53125 C12.83 8.53125 4.91 8.53125 -3.25 8.53125 Z " fill="#FFA153" transform="translate(199.25,139.46875)"/>
<path d="M0 0 C0.66 0 1.32 0 2 0 C2.20753906 0.58007812 2.41507813 1.16015625 2.62890625 1.7578125 C3.09103516 2.92957031 3.09103516 2.92957031 3.5625 4.125 C3.85253906 4.89070313 4.14257812 5.65640625 4.44140625 6.4453125 C6.05240292 9.0858935 7.05676096 9.73668317 9.54774475 11.40567017 C11.89648948 13.39868416 12.87663809 14.51309395 13.63960075 17.52448654 C13.8622854 20.72360706 13.86558969 23.85768873 13.79467773 27.06396484 C13.79569992 28.27428375 13.79672211 29.48460266 13.79777527 30.7315979 C13.7937431 34.03813355 13.75873327 37.3415818 13.70975757 40.64757109 C13.66589397 44.10680189 13.66187836 47.56607721 13.65357971 51.02554321 C13.63185295 57.57060856 13.57445228 64.11485204 13.50413328 70.65955603 C13.42579608 78.11288313 13.38738006 85.56625021 13.35226524 93.01988673 C13.27916525 108.34714766 13.150834 123.67327698 13 139 C5.08 139 -2.84 139 -11 139 C-11.15808974 122.93599771 -11.28700345 106.87266042 -11.3626852 90.80809593 C-11.3987615 83.34883121 -11.44793433 75.89008452 -11.52807617 68.43115234 C-11.59790492 61.92897048 -11.643021 55.42716381 -11.65861946 48.92461741 C-11.66773628 45.48216397 -11.68911819 42.04078376 -11.7401104 38.59867477 C-11.79660926 34.75356879 -11.79792552 30.9095072 -11.79467773 27.06396484 C-11.81984467 25.92604492 -11.8450116 24.788125 -11.87094116 23.61572266 C-11.80145828 16.02234557 -11.80145828 16.02234557 -9.44299507 13.01387405 C-7.54774475 11.40567017 -7.54774475 11.40567017 -5.65551853 10.13785744 C-3.33354671 8.54193878 -2.54499421 6.71878471 -1.5625 4.125 C-1.25441406 3.34382813 -0.94632813 2.56265625 -0.62890625 1.7578125 C-0.31759766 0.88769531 -0.31759766 0.88769531 0 0 Z " fill="#58595B" transform="translate(119,109)"/>
<path d="M0 0 C0.66 0 1.32 0 2 0 C2.20753906 0.58007812 2.41507812 1.16015625 2.62890625 1.7578125 C3.09103516 2.92957031 3.09103516 2.92957031 3.5625 4.125 C3.85253906 4.89070313 4.14257812 5.65640625 4.44140625 6.4453125 C6.05240292 9.0858935 7.05676096 9.73668317 9.54774475 11.40567017 C11.89648948 13.39868416 12.87663809 14.51309395 13.63960075 17.52448654 C13.8622854 20.72360706 13.86558969 23.85768873 13.79467773 27.06396484 C13.79569992 28.27428375 13.79672211 29.48460266 13.79777527 30.7315979 C13.7937431 34.03813355 13.75873327 37.3415818 13.70975757 40.64757109 C13.66589397 44.10680189 13.66187836 47.56607721 13.65357971 51.02554321 C13.63185295 57.57060856 13.57445228 64.11485204 13.50413328 70.65955603 C13.42579608 78.11288313 13.38738006 85.56625021 13.35226524 93.01988673 C13.27916525 108.34714766 13.150834 123.67327698 13 139 C5.08 139 -2.84 139 -11 139 C-11.15814497 123.08366419 -11.28703569 107.16795291 -11.3626852 91.25105953 C-11.3987476 83.86020171 -11.4478937 76.46986743 -11.52807617 69.0793457 C-11.59794766 62.63611782 -11.6430311 56.19326917 -11.65861946 49.74967295 C-11.66772909 46.33904058 -11.68906474 42.92949285 -11.7401104 39.51920891 C-11.79092899 35.70738288 -11.79792305 31.89780364 -11.79467773 28.08569336 C-11.81984467 26.96071945 -11.8450116 25.83574554 -11.87094116 24.67668152 C-11.82011464 19.15933056 -11.56441239 15.89949858 -7.54774475 11.91041565 C-6.9233101 11.40055398 -6.29887545 10.89069231 -5.65551853 10.36538029 C-3.47534797 8.56729597 -2.56738226 6.67519388 -1.5625 4.0625 C-1.25441406 3.29035156 -0.94632812 2.51820312 -0.62890625 1.72265625 C-0.31759766 0.86994141 -0.31759766 0.86994141 0 0 Z " fill="#58595B" transform="translate(455,109)"/>
<path d="M0 0 C1.03833984 0.75023437 1.03833984 0.75023437 2.09765625 1.515625 C3.02771484 2.17304688 3.02771484 2.17304688 3.9765625 2.84375 C13.7253369 10.43339987 21.28339262 23.10671524 23.8125 35.1875 C25.87048583 51.98968564 22.506635 68.2613668 12.28515625 81.94140625 C3.22795093 92.80640053 -10.66891692 101.18606438 -24.93530273 102.73657227 C-41.38845465 103.6243526 -56.08668644 99.90267706 -69.08984375 89.328125 C-79.34442927 79.74597132 -87.47094531 65.6011542 -88.23828125 51.3515625 C-88.57216395 34.88674276 -84.43726899 19.75569317 -72.9375 7.421875 C-52.43038258 -11.78632712 -23.75288953 -15.70307889 0 0 Z M-67.05859375 13.20703125 C-74.53003356 22.56216034 -81.13752378 35.92443763 -80.27734375 48.31640625 C-78.0550921 61.34898624 -73.89871739 74.95611284 -62.78515625 83.25390625 C-62.16382812 83.67027344 -61.5425 84.08664062 -60.90234375 84.515625 C-60.19851562 85.02480469 -59.4946875 85.53398437 -58.76953125 86.05859375 C-48.78681426 92.73021154 -36.37412412 96.09360505 -24.546875 93.890625 C-12.55709588 91.15289766 -0.98161326 86.07973615 6.09765625 75.515625 C6.60683594 74.81179688 7.11601562 74.10796875 7.640625 73.3828125 C14.78228672 62.69677053 17.81654047 49.45958329 15.625 36.78125 C12.74143843 24.55633028 6.15080757 13.34888183 -4.57861328 6.43554688 C-24.83902204 -5.3788215 -50.37300689 -4.88041844 -67.05859375 13.20703125 Z " fill="#7A7F77" transform="translate(167.90234375,377.484375)"/>
<path d="M0 0 C18.48 0 36.96 0 56 0 C56 17 56 17 51 23 C48.04335481 24.4783226 45.25770263 24.06032783 42 24 C42.21092285 24.65782471 42.4218457 25.31564941 42.63916016 25.9934082 C42.93612793 26.91984131 43.2330957 27.84627441 43.5390625 28.80078125 C43.86970703 29.83211182 44.20035156 30.86344238 44.54101562 31.92602539 C45.26788363 34.19683306 45.99312588 36.46816171 46.71679688 38.73999023 C48.40549055 44.03957425 50.10310099 49.33435409 51.8671875 54.609375 C52.28363525 55.87334106 52.28363525 55.87334106 52.70849609 57.1628418 C53.22023612 58.71432011 53.74081131 60.26292429 54.27197266 61.80786133 C55.87619445 66.72001769 56.56460442 70.82626907 56 76 C54.5 78.46484375 54.5 78.46484375 52 80 C49.16503573 80.42819773 46.82340346 80.60597632 44 80.5625 C43.2884375 80.58634766 42.576875 80.61019531 41.84375 80.63476562 C38.48188251 80.62535741 36.4989746 80.4626999 33.99511719 78.14086914 C31.18730588 73.72059351 29.84006088 69.10707113 28.328125 64.1171875 C27.83720367 62.5403569 27.83720367 62.5403569 27.33636475 60.93167114 C26.64886679 58.71599082 25.96670501 56.49864858 25.28955078 54.27978516 C24.25052847 50.87673086 23.19508405 47.47911374 22.13671875 44.08203125 C21.47038994 41.92738129 20.80499297 39.77244288 20.140625 37.6171875 C19.82506653 36.59841522 19.50950806 35.57964294 19.18438721 34.52999878 C18.89698669 33.58536774 18.60958618 32.64073669 18.31347656 31.66748047 C18.05906799 30.83650848 17.80465942 30.0055365 17.5425415 29.14938354 C17 27 17 27 17 24 C16.34773438 24.05800781 15.69546875 24.11601562 15.0234375 24.17578125 C6.99409145 24.59027551 6.99409145 24.59027551 3.4375 21.625 C-3.10520786 14.57900692 0 13.75863994 0 0 Z " fill="#83624D" transform="translate(384,424)"/>
<path d="M0 0 C3 0.125 3 0.125 4 1.125 C4.09304018 2.59854348 4.11746265 4.07650591 4.11352539 5.55297852 C4.11344986 6.49387833 4.11337433 7.43477814 4.11329651 8.40419006 C4.10813522 9.42709641 4.10297394 10.45000275 4.09765625 11.50390625 C4.0962413 12.54570541 4.09482635 13.58750458 4.09336853 14.66087341 C4.0877508 18.00311094 4.0751953 21.34528257 4.0625 24.6875 C4.05748728 26.94726466 4.05292398 29.20703037 4.04882812 31.46679688 C4.03777561 37.01955391 4.02102024 42.57227225 4 48.125 C5.65 48.125 7.3 48.125 9 48.125 C9.15819214 47.30261841 9.15819214 47.30261841 9.31958008 46.46362305 C14.75130073 18.37369927 14.75130073 18.37369927 17 16.125 C20 16 20 16 23 16.125 C24 17.125 24 17.125 24.22265625 20.45703125 C24.14116154 27.1025546 22.24532263 33.47785881 20.68945312 39.90039062 C20.46064453 40.88587891 20.23183594 41.87136719 19.99609375 42.88671875 C19.78138428 43.77319092 19.5666748 44.65966309 19.34545898 45.57299805 C18.9609776 48.41326934 19.4075675 50.32977723 20 53.125 C20.0817995 55.84901121 20.11673616 58.54651282 20.09765625 61.26953125 C20.09664917 61.95253296 20.09564209 62.63553467 20.09460449 63.3392334 C20.08940257 65.8720062 20.07544145 68.40475492 20.0625 70.9375 C20.041875 76.609375 20.02125 82.28125 20 88.125 C6.8 88.125 -6.4 88.125 -20 88.125 C-20.020625 82.453125 -20.04125 76.78125 -20.0625 70.9375 C-20.071604 69.15577393 -20.08070801 67.37404785 -20.09008789 65.53833008 C-20.09301037 64.1153979 -20.09555815 62.69246488 -20.09765625 61.26953125 C-20.10277222 60.53939819 -20.10788818 59.80926514 -20.11315918 59.05700684 C-20.11366259 56.09948093 -20.04623459 53.34314466 -19.43164062 50.44335938 C-18.9050771 47.61516525 -19.3207173 45.67514918 -19.99609375 42.88671875 C-20.22490234 41.90123047 -20.45371094 40.91574219 -20.68945312 39.90039062 C-20.93630859 38.88138672 -21.18316406 37.86238281 -21.4375 36.8125 C-23.04800358 30.13553159 -24.46063498 24.01836208 -24 17.125 C-23 16.125 -23 16.125 -20.0625 15.875 C-19.051875 15.9575 -18.04125 16.04 -17 16.125 C-14.86843001 19.32235498 -14.30650024 21.52631479 -13.4921875 25.25390625 C-13.22792969 26.45337891 -12.96367187 27.65285156 -12.69140625 28.88867188 C-12.42199219 30.14228516 -12.15257812 31.39589844 -11.875 32.6875 C-11.59785156 33.94498047 -11.32070313 35.20246094 -11.03515625 36.49804688 C-9 45.8166564 -9 45.8166564 -9 48.125 C-7.35 48.125 -5.7 48.125 -4 48.125 C-4.00222061 47.53840103 -4.00444122 46.95180206 -4.00672913 46.34742737 C-4.0287821 40.26474616 -4.04390664 34.18207623 -4.05493164 28.09936523 C-4.05997325 25.82657409 -4.06680637 23.5537862 -4.07543945 21.28100586 C-4.08751261 18.02196449 -4.09322987 14.76296583 -4.09765625 11.50390625 C-4.10281754 10.48099991 -4.10797882 9.45809357 -4.11329651 8.40419006 C-4.11340981 6.99284035 -4.11340981 6.99284035 -4.11352539 5.55297852 C-4.115746 4.72024918 -4.11796661 3.88751984 -4.12025452 3.02955627 C-3.91803105 -0.17320056 -3.26255537 0.13593981 0 0 Z " fill="#E07F74" transform="translate(408,159.875)"/>
<path d="M0 0 C31.68 0 63.36 0 96 0 C96 7.92 96 15.84 96 24 C64.32 24 32.64 24 0 24 C0 16.08 0 8.16 0 0 Z " fill="#FFBC89" transform="translate(160,200)"/>
<path d="M0 0 C0.7115625 -0.01546875 1.423125 -0.0309375 2.15625 -0.046875 C5.47924841 -0.0220765 7.54358583 0.14693346 10.20599365 2.20648193 C12.36967346 4.97260299 12.48782307 6.25422356 12.45410156 9.72753906 C12.45379944 10.76831604 12.45349731 11.80909302 12.45318604 12.88140869 C12.43254089 13.99820007 12.41189575 15.11499146 12.390625 16.265625 C12.38496521 17.41415955 12.37930542 18.56269409 12.37347412 19.74603271 C12.35108331 23.41444574 12.30087942 27.08188217 12.25 30.75 C12.22993861 33.23696506 12.21168722 35.72394543 12.1953125 38.2109375 C12.15461134 44.30797062 12.07631985 50.40289219 12 56.5 C-3.84 56.5 -19.68 56.5 -36 56.5 C-36.0825 50.6425 -36.165 44.785 -36.25 38.75 C-36.28641602 36.90696289 -36.32283203 35.06392578 -36.36035156 33.16503906 C-36.37203776 31.69857955 -36.38222975 30.23210704 -36.390625 28.765625 C-36.41108887 28.00878418 -36.43155273 27.25194336 -36.45263672 26.47216797 C-36.45493607 22.99784777 -36.27594576 20.89831085 -34.2734375 18.0078125 C-31.64994477 16.26783279 -30.35349599 16.02939754 -27.234375 16.109375 C-25.90019531 16.12871094 -25.90019531 16.12871094 -24.5390625 16.1484375 C-23.15847656 16.19871094 -23.15847656 16.19871094 -21.75 16.25 C-20.81414062 16.26804688 -19.87828125 16.28609375 -18.9140625 16.3046875 C-16.60832985 16.35174327 -14.30469055 16.41746287 -12 16.5 C-12.04640625 15.68015625 -12.0928125 14.8603125 -12.140625 14.015625 C-12.19476563 12.39914063 -12.19476563 12.39914063 -12.25 10.75 C-12.29640625 9.68265625 -12.3428125 8.6153125 -12.390625 7.515625 C-12 4.5 -12 4.5 -10.484375 2.140625 C-7.05781042 -0.12220067 -3.96893621 -0.08628122 0 0 Z " fill="#3E7B5A" transform="translate(324,191.5)"/>
<path d="M0 0 C2.07309617 0.01383358 4.14164283 -0.02016676 6.21435547 -0.05834961 C7.53048828 -0.05641602 8.84662109 -0.05448242 10.20263672 -0.05249023 C11.40259277 -0.05321533 12.60254883 -0.05394043 13.83886719 -0.0546875 C18.05015591 0.733595 20.63268712 2.21562974 23.21044922 5.57641602 C24.69970609 8.70630734 25.60135042 11.91882344 26.49951172 15.26000977 C26.77008392 16.19313492 27.04065613 17.12626007 27.31942749 18.08766174 C28.17795941 21.05782341 29.0084489 24.03483532 29.83544922 27.01391602 C30.67318754 29.98817628 31.51701437 32.96036636 32.37289429 35.92945862 C32.90303853 37.77268213 33.42235256 39.61906626 33.92910767 41.46885681 C35.36501285 46.50762725 36.87809092 50.4929948 40.21044922 54.57641602 C43.25808856 55.5922958 45.55763889 55.77446008 48.75341797 55.89282227 C50.36313477 55.95566406 50.36313477 55.95566406 52.00537109 56.01977539 C53.12492187 56.0590918 54.24447266 56.0984082 55.39794922 56.13891602 C56.52910156 56.18209961 57.66025391 56.2252832 58.82568359 56.26977539 C61.62045946 56.37590612 64.41543819 56.47666999 67.21044922 56.57641602 C67.21044922 61.85641602 67.21044922 67.13641602 67.21044922 72.57641602 C62.79857089 72.66875766 58.39010579 72.74822687 53.97802734 72.79614258 C52.48051532 72.8161352 50.98308014 72.843339 49.48583984 72.87817383 C32.22871791 73.26933526 32.22871791 73.26933526 25.22216797 66.71704102 C24.56667969 65.78118164 24.56667969 65.78118164 23.89794922 64.82641602 C23.44806641 64.21282227 22.99818359 63.59922852 22.53466797 62.96704102 C17.63374857 54.11936352 15.9704578 43.80008785 13.68994141 34.03515625 C13.18530383 31.88379409 12.66753137 29.73592882 12.14794922 27.58813477 C11.84759766 26.31413818 11.54724609 25.0401416 11.23779297 23.72753906 C10.04508997 20.00331633 10.04508997 20.00331633 7.21044922 17.57641602 C5.05852214 17.13864279 5.05852214 17.13864279 2.68310547 17.20532227 C1.80847656 17.18791992 0.93384766 17.17051758 0.03271484 17.15258789 C-1.80320752 17.14349273 -3.63915323 17.13826776 -5.47509766 17.13696289 C-12.18213974 16.99383984 -12.18213974 16.99383984 -15.38720703 14.79125977 C-16.85753899 12.46903631 -17.33206063 11.29704636 -17.28955078 8.57641602 C-17.30501953 7.58641602 -17.30501953 7.58641602 -17.32080078 6.57641602 C-15.16250251 -1.54894219 -6.69504994 -0.06247448 0 0 Z " fill="#C0C2C4" transform="translate(24.78955078125,199.423583984375)"/>
<path d="M0 0 C15.84 0 31.68 0 48 0 C48 26.43538767 48 26.43538767 42.03515625 33.2421875 C41.38417969 33.78101563 40.73320312 34.31984375 40.0625 34.875 C39.08990234 35.70644531 39.08990234 35.70644531 38.09765625 36.5546875 C31.59642443 41.03412097 24.62859083 40.67463728 17 40 C10.34040667 38.31914417 5.81452553 33.53621678 2 28 C0 23 0 23 0 0 Z " fill="#B02F36" transform="translate(360,88)"/>
<path d="M0 0 C15.84 0 31.68 0 48 0 C48 26.43538767 48 26.43538767 42.03515625 33.2421875 C41.38417969 33.78101563 40.73320312 34.31984375 40.0625 34.875 C39.08990234 35.70644531 39.08990234 35.70644531 38.09765625 36.5546875 C31.59642443 41.03412097 24.62859083 40.67463728 17 40 C10.34040667 38.31914417 5.81452553 33.53621678 2 28 C0 23 0 23 0 0 Z " fill="#D2CCBB" transform="translate(312,88)"/>
<path d="M0 0 C15.84 0 31.68 0 48 0 C48 26.43538767 48 26.43538767 42.03515625 33.2421875 C41.38417969 33.78101563 40.73320312 34.31984375 40.0625 34.875 C39.08990234 35.70644531 39.08990234 35.70644531 38.09765625 36.5546875 C31.59642443 41.03412097 24.62859083 40.67463728 17 40 C10.34040667 38.31914417 5.81452553 33.53621678 2 28 C0 23 0 23 0 0 Z " fill="#B02F36" transform="translate(264,88)"/>
<path d="M0 0 C15.84 0 31.68 0 48 0 C48 26.43538767 48 26.43538767 42.03515625 33.2421875 C41.38417969 33.78101563 40.73320312 34.31984375 40.0625 34.875 C39.08990234 35.70644531 39.08990234 35.70644531 38.09765625 36.5546875 C31.59642443 41.03412097 24.62859083 40.67463728 17 40 C10.34040667 38.31914417 5.81452553 33.53621678 2 28 C0 23 0 23 0 0 Z " fill="#D2CCBB" transform="translate(216,88)"/>
<path d="M0 0 C15.84 0 31.68 0 48 0 C48 26.43538767 48 26.43538767 42.03515625 33.2421875 C41.38417969 33.78101563 40.73320312 34.31984375 40.0625 34.875 C39.08990234 35.70644531 39.08990234 35.70644531 38.09765625 36.5546875 C31.59642443 41.03412097 24.62859083 40.67463728 17 40 C10.34040667 38.31914417 5.81452553 33.53621678 2 28 C0 23 0 23 0 0 Z " fill="#B02F36" transform="translate(168,88)"/>
<path d="M0 0 C15.84 0 31.68 0 48 0 C48 24.79125249 48 24.79125249 42.03515625 32.55859375 C41.05869141 33.48865234 41.05869141 33.48865234 40.0625 34.4375 C39.41410156 35.07558594 38.76570313 35.71367188 38.09765625 36.37109375 C31.84810372 41.22409823 24.55959149 40.6685353 17 40 C10.34040667 38.31914417 5.81452553 33.53621678 2 28 C0 23 0 23 0 0 Z " fill="#D2CCBA" transform="translate(408,88)"/>
<path d="M0 0 C15.84 0 31.68 0 48 0 C48 26.43538767 48 26.43538767 42.03515625 33.2421875 C41.38417969 33.78101563 40.73320312 34.31984375 40.0625 34.875 C39.08990234 35.70644531 39.08990234 35.70644531 38.09765625 36.5546875 C33.4601049 39.75002083 29.59008471 40.27409519 24 40.25 C22.205625 40.25773437 22.205625 40.25773437 20.375 40.265625 C17.14195026 40.01117201 14.90582541 39.38687122 12 38 C12 37.34 12 36.68 12 36 C11.40445312 35.73703125 10.80890625 35.4740625 10.1953125 35.203125 C7.89488292 33.94239135 6.57755593 32.728887 4.875 30.75 C4.37742187 30.18796875 3.87984375 29.6259375 3.3671875 29.046875 C-2.54867273 20.18998712 0 10.6319382 0 0 Z " fill="#B02F37" transform="translate(456,88)"/>
<path d="M0 0 C15.84 0 31.68 0 48 0 C48 26.43538767 48 26.43538767 42.03515625 33.2421875 C41.38417969 33.78101563 40.73320312 34.31984375 40.0625 34.875 C39.08990234 35.70644531 39.08990234 35.70644531 38.09765625 36.5546875 C33.4601049 39.75002083 29.59008471 40.27409519 24 40.25 C22.205625 40.25773437 22.205625 40.25773437 20.375 40.265625 C17.14195026 40.01117201 14.90582541 39.38687122 12 38 C12 37.34 12 36.68 12 36 C11.40445313 35.73703125 10.80890625 35.4740625 10.1953125 35.203125 C7.89488292 33.94239135 6.57755593 32.728887 4.875 30.75 C4.37742187 30.18796875 3.87984375 29.6259375 3.3671875 29.046875 C-2.54867273 20.18998712 0 10.6319382 0 0 Z " fill="#D2CCBA" transform="translate(120,88)"/>
<path d="M0 0 C15.84 0 31.68 0 48 0 C48 25.44 48 25.44 40.875 33.5625 C38 36 38 36 36 36 C36 36.66 36 37.32 36 38 C29.42071249 41.09759299 21.56782708 41.15290204 14.5546875 39.3828125 C7.35641049 36.19298779 2.84923909 30.12309772 0 23 C0 15.41 0 7.82 0 0 Z " fill="#B02F37" transform="translate(72,88)"/>
<path d="M0 0 C4.23301121 2.82200747 7.17159664 5.95228992 8.8125 10.875 C8.61490698 12.86852169 8.41694013 14.86200634 8.21875 16.85546875 C8.17278742 22.76740522 9.39562283 25.41553432 13.40625 29.73828125 C15.35171179 31.59771922 17.30468212 33.40074101 19.3125 35.1875 C20.32717083 36.13682849 21.3389221 37.08928759 22.34765625 38.04492188 C24.80906293 40.35395576 27.29529678 42.62717833 29.8125 44.875 C27.8325 47.185 25.8525 49.495 23.8125 51.875 C20.02630232 48.73451045 16.42965665 45.5586769 13.0234375 42.0078125 C12.39179688 41.35039062 11.76015625 40.69296875 11.109375 40.015625 C9.81267887 38.6556754 8.52375733 37.28827593 7.2421875 35.9140625 C6.613125 35.264375 5.9840625 34.6146875 5.3359375 33.9453125 C4.77825684 33.35508301 4.22057617 32.76485352 3.64599609 32.15673828 C1.50235572 30.39754206 1.50235572 30.39754206 -3.1875 30.875 C-3.1875 41.435 -3.1875 51.995 -3.1875 62.875 C-5.8275 62.875 -8.4675 62.875 -11.1875 62.875 C-11.1875 52.315 -11.1875 41.755 -11.1875 30.875 C-16.05357371 30.36554305 -16.05357371 30.36554305 -18.68286133 32.80273438 C-19.96326294 34.12241211 -19.96326294 34.12241211 -21.26953125 35.46875 C-21.95809456 36.16792542 -21.95809456 36.16792542 -22.66056824 36.88122559 C-24.11922909 38.36780094 -25.55951865 39.87082308 -27 41.375 C-27.98776841 42.38785511 -28.97668886 43.39958808 -29.96679688 44.41015625 C-32.38718483 46.88557245 -34.79139902 49.37604169 -37.1875 51.875 C-39.4975 49.895 -41.8075 47.915 -44.1875 45.875 C-41.08193447 42.09220834 -37.99301762 38.6056632 -34.3203125 35.3671875 C-26.61874645 28.92102906 -26.61874645 28.92102906 -22.3203125 20.22265625 C-22.42905926 17.0581254 -22.78584583 14.01236533 -23.1875 10.875 C-21.48153353 5.56754876 -18.57651915 3.07532646 -14.1875 -0.125 C-9.20670617 -1.78526461 -4.88476371 -1.72403425 0 0 Z " fill="#FDA155" transform="translate(143.1875,409.125)"/>
<path d="M0 0 C18.48 0 36.96 0 56 0 C56 17 56 17 51 23 C45.69744803 25.65127598 37.14130248 24.3139607 31.234375 24.35009766 C29.25183357 24.36664046 27.26935138 24.39390835 25.28710938 24.43212891 C22.42546719 24.48701364 19.5652233 24.50879047 16.703125 24.5234375 C15.38093964 24.55744156 15.38093964 24.55744156 14.03204346 24.59213257 C9.71549489 24.57738093 6.8823893 24.36309507 3.45605469 21.59228516 C-3.14101429 14.62929525 0 13.66855426 0 0 Z " fill="#FF9946" transform="translate(384,424)"/>
<path d="M0 0 C6.6 0 13.2 0 20 0 C20 13.2 20 26.4 20 40 C12.08 40 4.16 40 -4 40 C-4.09190222 34.94537772 -4.17151221 29.89365977 -4.21972656 24.83886719 C-4.23982628 23.12001721 -4.26711089 21.40123548 -4.30175781 19.68261719 C-4.35035034 17.21011511 -4.37298435 14.7385179 -4.390625 12.265625 C-4.41127014 11.49881409 -4.43191528 10.73200317 -4.45318604 9.94195557 C-4.45410156 7.75878906 -4.45410156 7.75878906 -4 4 C-2.68 2.68 -1.36 1.36 0 0 Z " fill="#70A955" transform="translate(292,208)"/>
<path d="M0 0 C7.04809658 6.89287107 10.53401098 14.27116377 12 24 C12 27.63 12 31.26 12 35 C1.44 35 -9.12 35 -20 35 C-22 22 -22 22 -20.20751953 18.50463867 C-19.27536621 17.6510376 -18.34321289 16.79743652 -17.3828125 15.91796875 C-16.64609818 15.21309074 -16.64609818 15.21309074 -15.89450073 14.49397278 C-14.33648053 13.01913493 -12.73491079 11.60529444 -11.125 10.1875 C-10.0526162 9.19046502 -8.98356335 8.18983464 -7.91796875 7.18554688 C-5.31581399 4.74764679 -2.67173719 2.36169865 0 0 Z " fill="#5198C1" transform="translate(172,393)"/>
<path d="M0 0 C13.2 0 26.4 0 40 0 C40 6.6 40 13.2 40 20 C26.8 20 13.6 20 0 20 C0 13.4 0 6.8 0 0 Z " fill="#CA535A" transform="translate(388,228)"/>
<path d="M0 0 C2.07309617 0.01383358 4.14164283 -0.02016676 6.21435547 -0.05834961 C17.36248948 -0.04197135 17.36248948 -0.04197135 21.00732422 2.69360352 C23.43705785 5.87293582 24.55594249 8.40546558 25.58544922 12.26391602 C25.90255859 13.4021582 26.21966797 14.54040039 26.54638672 15.71313477 C27.21044922 18.57641602 27.21044922 18.57641602 27.21044922 20.57641602 C24.43903205 20.65731144 21.66997103 20.71685663 18.89794922 20.76391602 C18.11226562 20.78905273 17.32658203 20.81418945 16.51708984 20.84008789 C15.75976562 20.84975586 15.00244141 20.85942383 14.22216797 20.86938477 C13.52567139 20.88509521 12.8291748 20.90080566 12.11157227 20.91699219 C10.21044922 20.57641602 10.21044922 20.57641602 8.74267578 19.08129883 C6.69443743 17.06961285 5.51383117 17.20789852 2.68310547 17.20532227 C1.80847656 17.18791992 0.93384766 17.17051758 0.03271484 17.15258789 C-1.80320752 17.14349273 -3.63915323 17.13826776 -5.47509766 17.13696289 C-12.18213974 16.99383984 -12.18213974 16.99383984 -15.38720703 14.79125977 C-16.85753899 12.46903631 -17.33206063 11.29704636 -17.28955078 8.57641602 C-17.30501953 7.58641602 -17.30501953 7.58641602 -17.32080078 6.57641602 C-15.16250251 -1.54894219 -6.69504994 -0.06247448 0 0 Z " fill="#434244" transform="translate(24.78955078125,199.423583984375)"/>
<path d="M0 0 C2.31 1.98 4.62 3.96 7 6 C7.72711182 6.61109619 8.45422363 7.22219238 9.20336914 7.85180664 C11.19632401 9.54726591 13.12823612 11.30050357 15.0625 13.0625 C15.76310547 13.64193359 16.46371094 14.22136719 17.18554688 14.81835938 C19.16015625 16.66015625 19.16015625 16.66015625 22 21 C21.34 25.29 20.68 29.58 20 34 C9.44 34 -1.12 34 -12 34 C-12 31.36 -12 28.72 -12 26 C-8.04 26 -4.08 26 0 26 C0 17.42 0 8.84 0 0 Z " fill="#5198C1" transform="translate(100,394)"/>
<path d="M0 0 C1.04269043 -0.00574036 1.04269043 -0.00574036 2.10644531 -0.01159668 C3.57228041 -0.0143118 5.03816428 -0.00697835 6.50390625 0.00976562 C8.74328975 0.03118581 10.97946587 0.00995557 13.21875 -0.015625 C14.64584039 -0.01298165 16.07292879 -0.0078565 17.5 0 C19.44132812 0.00676758 19.44132812 0.00676758 21.421875 0.01367188 C24.75 0.53125 24.75 0.53125 27.17871094 2.32128906 C29.52992792 5.62819026 29.17865141 8.89214622 29 12.78125 C28.98195312 13.52632812 28.96390625 14.27140625 28.9453125 15.0390625 C28.89835649 16.87034701 28.82661652 18.70096649 28.75 20.53125 C26.11 20.53125 23.47 20.53125 20.75 20.53125 C20.75 16.57125 20.75 12.61125 20.75 8.53125 C12.83 8.53125 4.91 8.53125 -3.25 8.53125 C-3.25 12.49125 -3.25 16.45125 -3.25 20.53125 C-5.89 20.53125 -8.53 20.53125 -11.25 20.53125 C-11.3581866 17.94679227 -11.43737237 15.36687648 -11.5 12.78125 C-11.53351563 12.05164063 -11.56703125 11.32203125 -11.6015625 10.5703125 C-11.66180552 7.25694666 -11.62893279 5.06420519 -9.67871094 2.32128906 C-6.35901107 -0.12543786 -4.09954949 0.01429126 0 0 Z " fill="#525254" transform="translate(199.25,139.46875)"/>
<path d="M0 0 C3 0.125 3 0.125 4 1.125 C4.09304018 2.59854348 4.11746265 4.07650591 4.11352539 5.55297852 C4.11344986 6.49387833 4.11337433 7.43477814 4.11329651 8.40419006 C4.10813522 9.42709641 4.10297394 10.45000275 4.09765625 11.50390625 C4.0962413 12.54570541 4.09482635 13.58750458 4.09336853 14.66087341 C4.0877508 18.00311094 4.0751953 21.34528257 4.0625 24.6875 C4.05748728 26.94726466 4.05292398 29.20703037 4.04882812 31.46679688 C4.03777561 37.01955391 4.02102024 42.57227225 4 48.125 C1.36 48.125 -1.28 48.125 -4 48.125 C-4.02526945 41.4497966 -4.04283268 34.77460543 -4.05493164 28.09936523 C-4.05997325 25.82657409 -4.06680637 23.5537862 -4.07543945 21.28100586 C-4.08751261 18.02196449 -4.09322987 14.76296583 -4.09765625 11.50390625 C-4.10281754 10.48099991 -4.10797882 9.45809357 -4.11329651 8.40419006 C-4.11337204 7.46329025 -4.11344757 6.52239044 -4.11352539 5.55297852 C-4.115746 4.72024918 -4.11796661 3.88751984 -4.12025452 3.02955627 C-3.91803105 -0.17320056 -3.26255537 0.13593981 0 0 Z " fill="#9C756A" transform="translate(408,159.875)"/>
<path d="M0 0 C0.79289932 -0.0033284 1.58579865 -0.0066568 2.40272522 -0.01008606 C4.08317483 -0.01515851 5.76363454 -0.01749429 7.4440918 -0.01733398 C10.02083884 -0.01951911 12.59715701 -0.03766734 15.17382812 -0.05664062 C16.80338395 -0.0595747 18.43294181 -0.0615594 20.0625 -0.0625 C20.83649643 -0.06968552 21.61049286 -0.07687103 22.40794373 -0.08427429 C27.86883372 -0.06085378 27.86883372 -0.06085378 30.09765625 2.16796875 C29.54210069 6.72352431 29.54210069 6.72352431 28.09765625 8.16796875 C25.45479351 8.28133501 22.83904169 8.33214636 20.1953125 8.3359375 C19.40241318 8.3392659 18.60951385 8.3425943 17.79258728 8.34602356 C16.11213767 8.35109601 14.43167796 8.35343179 12.7512207 8.35327148 C10.17447366 8.35545661 7.59815549 8.37360484 5.02148438 8.39257812 C3.39192855 8.3955122 1.76237069 8.3974969 0.1328125 8.3984375 C-1.02818214 8.40921577 -1.02818214 8.40921577 -2.21263123 8.42021179 C-7.67352122 8.39679128 -7.67352122 8.39679128 -9.90234375 6.16796875 C-9.04328183 -0.87633896 -6.34569987 0.00909981 0 0 Z " fill="#E4DACD" transform="translate(373.90234375,371.83203125)"/>
<path d="M0 0 C0.79289932 -0.0033284 1.58579865 -0.0066568 2.40272522 -0.01008606 C4.08317483 -0.01515851 5.76363454 -0.01749429 7.4440918 -0.01733398 C10.02083884 -0.01951911 12.59715701 -0.03766734 15.17382812 -0.05664062 C16.80338395 -0.0595747 18.43294181 -0.0615594 20.0625 -0.0625 C20.83649643 -0.06968552 21.61049286 -0.07687103 22.40794373 -0.08427429 C27.86883372 -0.06085378 27.86883372 -0.06085378 30.09765625 2.16796875 C29.54210069 6.72352431 29.54210069 6.72352431 28.09765625 8.16796875 C25.45479351 8.28133501 22.83904169 8.33214636 20.1953125 8.3359375 C19.40241318 8.3392659 18.60951385 8.3425943 17.79258728 8.34602356 C16.11213767 8.35109601 14.43167796 8.35343179 12.7512207 8.35327148 C10.17447366 8.35545661 7.59815549 8.37360484 5.02148438 8.39257812 C3.39192855 8.3955122 1.76237069 8.3974969 0.1328125 8.3984375 C-1.02818214 8.40921577 -1.02818214 8.40921577 -2.21263123 8.42021179 C-7.67352122 8.39679128 -7.67352122 8.39679128 -9.90234375 6.16796875 C-9.04328183 -0.87633896 -6.34569987 0.00909981 0 0 Z " fill="#E4DACD" transform="translate(309.90234375,371.83203125)"/>
<path d="M0 0 C0.79289932 -0.0033284 1.58579865 -0.0066568 2.40272522 -0.01008606 C4.08317483 -0.01515851 5.76363454 -0.01749429 7.4440918 -0.01733398 C10.02083884 -0.01951911 12.59715701 -0.03766734 15.17382812 -0.05664062 C16.80338395 -0.0595747 18.43294181 -0.0615594 20.0625 -0.0625 C20.83649643 -0.06968552 21.61049286 -0.07687103 22.40794373 -0.08427429 C27.86883372 -0.06085378 27.86883372 -0.06085378 30.09765625 2.16796875 C29.54210069 6.72352431 29.54210069 6.72352431 28.09765625 8.16796875 C25.45479351 8.28133501 22.83904169 8.33214636 20.1953125 8.3359375 C19.40241318 8.3392659 18.60951385 8.3425943 17.79258728 8.34602356 C16.11213767 8.35109601 14.43167796 8.35343179 12.7512207 8.35327148 C10.17447366 8.35545661 7.59815549 8.37360484 5.02148438 8.39257812 C3.39192855 8.3955122 1.76237069 8.3974969 0.1328125 8.3984375 C-1.02818214 8.40921577 -1.02818214 8.40921577 -2.21263123 8.42021179 C-7.67352122 8.39679128 -7.67352122 8.39679128 -9.90234375 6.16796875 C-9.04328183 -0.87633896 -6.34569987 0.00909981 0 0 Z " fill="#E4DACD" transform="translate(373.90234375,347.83203125)"/>
<path d="M0 0 C0.79289932 -0.0033284 1.58579865 -0.0066568 2.40272522 -0.01008606 C4.08317483 -0.01515851 5.76363454 -0.01749429 7.4440918 -0.01733398 C10.02083884 -0.01951911 12.59715701 -0.03766734 15.17382812 -0.05664062 C16.80338395 -0.0595747 18.43294181 -0.0615594 20.0625 -0.0625 C20.83649643 -0.06968552 21.61049286 -0.07687103 22.40794373 -0.08427429 C27.86883372 -0.06085378 27.86883372 -0.06085378 30.09765625 2.16796875 C29.54210069 6.72352431 29.54210069 6.72352431 28.09765625 8.16796875 C25.45479351 8.28133501 22.83904169 8.33214636 20.1953125 8.3359375 C19.40241318 8.3392659 18.60951385 8.3425943 17.79258728 8.34602356 C16.11213767 8.35109601 14.43167796 8.35343179 12.7512207 8.35327148 C10.17447366 8.35545661 7.59815549 8.37360484 5.02148438 8.39257812 C3.39192855 8.3955122 1.76237069 8.3974969 0.1328125 8.3984375 C-1.02818214 8.40921577 -1.02818214 8.40921577 -2.21263123 8.42021179 C-7.67352122 8.39679128 -7.67352122 8.39679128 -9.90234375 6.16796875 C-9.04328183 -0.87633896 -6.34569987 0.00909981 0 0 Z " fill="#E4DACD" transform="translate(309.90234375,347.83203125)"/>
<path d="M0 0 C0.79289932 -0.0033284 1.58579865 -0.0066568 2.40272522 -0.01008606 C4.08317483 -0.01515851 5.76363454 -0.01749429 7.4440918 -0.01733398 C10.02083884 -0.01951911 12.59715701 -0.03766734 15.17382812 -0.05664062 C16.80338395 -0.0595747 18.43294181 -0.0615594 20.0625 -0.0625 C20.83649643 -0.06968552 21.61049286 -0.07687103 22.40794373 -0.08427429 C27.86883372 -0.06085378 27.86883372 -0.06085378 30.09765625 2.16796875 C29.54210069 6.72352431 29.54210069 6.72352431 28.09765625 8.16796875 C25.45479351 8.28133501 22.83904169 8.33214636 20.1953125 8.3359375 C19.40241318 8.3392659 18.60951385 8.3425943 17.79258728 8.34602356 C16.11213767 8.35109601 14.43167796 8.35343179 12.7512207 8.35327148 C10.17447366 8.35545661 7.59815549 8.37360484 5.02148438 8.39257812 C3.39192855 8.3955122 1.76237069 8.3974969 0.1328125 8.3984375 C-1.02818214 8.40921577 -1.02818214 8.40921577 -2.21263123 8.42021179 C-7.67352122 8.39679128 -7.67352122 8.39679128 -9.90234375 6.16796875 C-9.04328183 -0.87633896 -6.34569987 0.00909981 0 0 Z " fill="#E4DACD" transform="translate(373.90234375,323.83203125)"/>
<path d="M0 0 C0.79289932 -0.0033284 1.58579865 -0.0066568 2.40272522 -0.01008606 C4.08317483 -0.01515851 5.76363454 -0.01749429 7.4440918 -0.01733398 C10.02083884 -0.01951911 12.59715701 -0.03766734 15.17382812 -0.05664062 C16.80338395 -0.0595747 18.43294181 -0.0615594 20.0625 -0.0625 C20.83649643 -0.06968552 21.61049286 -0.07687103 22.40794373 -0.08427429 C27.86883372 -0.06085378 27.86883372 -0.06085378 30.09765625 2.16796875 C29.54210069 6.72352431 29.54210069 6.72352431 28.09765625 8.16796875 C25.45479351 8.28133501 22.83904169 8.33214636 20.1953125 8.3359375 C19.40241318 8.3392659 18.60951385 8.3425943 17.79258728 8.34602356 C16.11213767 8.35109601 14.43167796 8.35343179 12.7512207 8.35327148 C10.17447366 8.35545661 7.59815549 8.37360484 5.02148438 8.39257812 C3.39192855 8.3955122 1.76237069 8.3974969 0.1328125 8.3984375 C-1.02818214 8.40921577 -1.02818214 8.40921577 -2.21263123 8.42021179 C-7.67352122 8.39679128 -7.67352122 8.39679128 -9.90234375 6.16796875 C-9.04328183 -0.87633896 -6.34569987 0.00909981 0 0 Z " fill="#E4DACD" transform="translate(309.90234375,323.83203125)"/>
<path d="M0 0 C3 0.125 3 0.125 4 1.125 C4.5803799 8.59739124 2.76279075 15.39914601 1 22.625 C0.71382813 23.82898438 0.42765625 25.03296875 0.1328125 26.2734375 C-0.5701697 29.22596272 -1.28129486 32.17627005 -2 35.125 C-4.97 34.135 -7.94 33.145 -11 32.125 C-4.84045748 0.20168573 -4.84045748 0.20168573 0 0 Z " fill="#9C7569" transform="translate(428,175.875)"/>
<path d="M0 0 C1.010625 0.0825 2.02125 0.165 3.0625 0.25 C5.19406999 3.44735498 5.75599976 5.65131479 6.5703125 9.37890625 C6.83457031 10.57837891 7.09882813 11.77785156 7.37109375 13.01367188 C7.64050781 14.26728516 7.90992188 15.52089844 8.1875 16.8125 C8.46464844 18.06998047 8.74179687 19.32746094 9.02734375 20.62304688 C11.0625 29.9416564 11.0625 29.9416564 11.0625 32.25 C8.0625 33.25 5.0625 34.25 2.0625 35.25 C1.04778211 31.08677802 0.05340627 26.91894798 -0.9375 22.75 C-1.22367187 21.57695312 -1.50984375 20.40390625 -1.8046875 19.1953125 C-3.24600707 13.08686289 -4.42548315 7.53278309 -3.9375 1.25 C-2.9375 0.25 -2.9375 0.25 0 0 Z " fill="#9C7569" transform="translate(387.9375,175.75)"/>
<path d="M0 0 C5.43733055 4.52991796 10.46458931 9.34294216 15.4375 14.375 C16.16904297 15.11105469 16.90058594 15.84710938 17.65429688 16.60546875 C19.43852723 18.40136074 21.22036124 20.19955985 23 22 C20.03 25.465 20.03 25.465 17 29 C11.56266945 24.47008204 6.53541069 19.65705784 1.5625 14.625 C0.83095703 13.88894531 0.09941406 13.15289062 -0.65429688 12.39453125 C-2.43852723 10.59863926 -4.22036124 8.80044015 -6 7 C-4.02 4.69 -2.04 2.38 0 0 Z " fill="#BFC1C3" transform="translate(150,432)"/>
<path d="M0 0 C2.31 1.98 4.62 3.96 7 6 C2.47008204 11.43733055 -2.34294216 16.46458931 -7.375 21.4375 C-8.11105469 22.16904297 -8.84710938 22.90058594 -9.60546875 23.65429688 C-11.40136074 25.43852723 -13.19955985 27.22036124 -15 29 C-17.31 27.02 -19.62 25.04 -22 23 C-17.47008204 17.56266945 -12.65705784 12.53541069 -7.625 7.5625 C-6.88894531 6.83095703 -6.15289062 6.09941406 -5.39453125 5.34570312 C-3.59863926 3.56147277 -1.80044015 1.77963876 0 0 Z " fill="#BFC1C3" transform="translate(121,432)"/>
<path d="M0 0 C2.64 0 5.28 0 8 0 C8 10.56 8 21.12 8 32 C5.36 32 2.72 32 0 32 C0 21.44 0 10.88 0 0 Z " fill="#BFC1C3" transform="translate(132,440)"/>
<path d="M0 0 C10.56 0 21.12 0 32 0 C32 2.64 32 5.28 32 8 C21.44 8 10.88 8 0 8 C0 5.36 0 2.72 0 0 Z " fill="#BFC1C3" transform="translate(152,420)"/>
<path d="M0 0 C10.56 0 21.12 0 32 0 C32 2.64 32 5.28 32 8 C21.44 8 10.88 8 0 8 C0 5.36 0 2.72 0 0 Z " fill="#BFC1C3" transform="translate(88,420)"/>
<path d="M0 0 C2.64 0 5.28 0 8 0 C8 10.56 8 21.12 8 32 C5.36 32 2.72 32 0 32 C0 21.44 0 10.88 0 0 Z " fill="#BFC1C3" transform="translate(132,376)"/>
<path d="M0 0 C3.56764285 1.51376081 5.83706287 3.60513129 8.546875 6.3515625 C9.39121094 7.20234375 10.23554687 8.053125 11.10546875 8.9296875 C12.41451172 10.26386719 12.41451172 10.26386719 13.75 11.625 C14.63816406 12.5221875 15.52632812 13.419375 16.44140625 14.34375 C18.63216969 16.55807004 20.81812763 18.77692435 23 21 C21.95125002 23.62187494 21.35068687 24.79371361 18.875 26.25 C18.25625 26.4975 17.6375 26.745 17 27 C9.66666667 19.66666667 2.33333333 12.33333333 -5 5 C-3.35 3.35 -1.7 1.7 0 0 Z " fill="#BEC1C3" transform="translate(104,388)"/>
<path d="M0 0 C4 2 4 2 6 6 C-0.93 12.93 -7.86 19.86 -15 27 C-19 25 -19 25 -21 21 C-14.07 14.07 -7.14 7.14 0 0 Z " fill="#BEC1C3" transform="translate(166,388)"/>
<path d="M0 0 C0.86625 0.37125 0.86625 0.37125 1.75 0.75 C0.945625 1.224375 0.14125 1.69875 -0.6875 2.1875 C-3.09753488 3.51900154 -3.09753488 3.51900154 -4.25 4.75 C-4.61760731 7.07817964 -4.95241581 9.4118385 -5.25 11.75 C-5.58 11.75 -5.91 11.75 -6.25 11.75 C-6.73590022 4.46149675 -6.73590022 4.46149675 -4.5 1.1875 C-2.25 -0.25 -2.25 -0.25 0 0 Z " fill="#616162" transform="translate(14.25,200.25)"/>
</svg>
